<?xml version="1.0" standalone="no"?>
<!DOCTYPE svg PUBLIC "-//W3C//DTD SVG 1.1//EN" "http://www.w3.org/Graphics/SVG/1.1/DTD/svg11.dtd" >
<svg>
<metadata>
Created by FontForge 20110222 at Mon Sep  3 15:28:45 2012
 By Colm O Neill
Pierre Huyghebaert (Typography, initiative, testing)
Pierre Marchand (Development and typography, Fonzie software)
Delphine Platteeuw (Design and testing)
Gregoire Vigneron (Scanning and assembling)

OSP: December 2010 - Version 1.0 (http://ospublish.constantvzw.org/foundry/univers-else)

Univers Else is released under the OFL 1.1 -- http://scripts.sil.org/OFL

For information on what you're allowed to change or modify, 
consult the OFL-1.1.txt and OFL-FAQ.txt files.  The OFL-FAQ also gives a very general rationale and various recommendations regarding why you would want to contribute to the project or make your own version of the font.
</metadata>
<defs>
<font id="UniversElse-Regular" horiz-adv-x="610" >
  <font-face 
    font-family="Univers Else"
    font-weight="400"
    font-stretch="normal"
    units-per-em="1000"
    panose-1="2 0 5 3 0 0 0 0 0 0"
    ascent="800"
    descent="-200"
    x-height="508"
    cap-height="735"
    bbox="-13 -212 1073 1117"
    underline-thickness="50"
    underline-position="-300"
    unicode-range="U+0020-20AC"
  />
<missing-glyph horiz-adv-x="500" 
d="M100 50h300v433h-300v-433zM50 0v533h400v-533h-400z" />
    <glyph glyph-name=".notdef" horiz-adv-x="500" 
d="M100 50h300v433h-300v-433zM50 0v533h400v-533h-400z" />
    <glyph glyph-name=".null" horiz-adv-x="0" 
 />
    <glyph glyph-name="nonmarkingreturn" horiz-adv-x="333" 
 />
    <glyph glyph-name="uni0020" unicode=" " horiz-adv-x="278" 
 />
    <glyph glyph-name="uni0021" unicode="!" horiz-adv-x="427" 
d="M232 106q10 4 11 4q5 0 12 -3q11 -2 12 -5q1 0 10 -14q7 -17 8 -22q2 -7 2 -9.5t-2 -8.5q-2 -10 -4 -22q-1 -10 -2 -12.5t-7 -8.5t-11 -7t-29 -1q-37 0 -44 1q-12 1 -15 5q-3 5 -3 21q0 18 -2 22q-4 7 -4 17q0 4 2 11q5 10 10 14q5 6 10 8t20 4q22 4 26 6zM239 731
q6 2 16 2q12 0 17 -4q3 -2 7 -6q0 -1 2.5 -4.5t3.5 -5.5q3 -6 3 -63q0 -53 -3 -74q-2 -16 -1 -26q3 -12 3 -30q1 -11 1 -16q0 -8 -3 -16q-4 -12 -4 -21q0 -10 2 -12q1 -1 3 -8q2 -6 -1 -13q-3 -18 -4 -21q-1 -10 -1 -25v-13v-56q0 -8 -0.5 -30t-0.5 -31q-2 -33 -4 -43
q-1 -7 -5 -19q-2 -8 -2 -15q0 -8 -5 -12q-3 -3 -13 -5t-11 -2q-3 0 -18 5q-3 1 -8.5 3t-9.5 3.5t-6 2.5q-9 4 -10 9q-2 4 -2 37q-1 34 -3 38t-4 29q-2 23 -4 26q-2 4 -2 10q0 7 3 10q2 6 2 24q0 21 -3 25q-3 6 -3 27v11q0 14 2 28q2 12 4 49q0 33 -2 42q-3 9 -3 17
q0 10 1 15q1 7 -1 17q-2 5 -2 45q-2 43 -3 48q-2 10 0 17q2 8 6 13q4 6 14 11q13 6 29 6q6 0 14 0.5t9 0.5z" />
    <glyph glyph-name="uni0022" unicode="&#x22;" horiz-adv-x="638" 
d="M140 720q4 2 11 2h7q25 -3 29 -4q10 -1 21 -4q6 -1 13 -11q3 -4 17 -15q10 -8 11 -13q1 -3 6 -19q3 -10 3 -48q0 -10 -0.5 -36.5t-0.5 -37.5q-2 -40 -4 -48q-2 -14 -2 -19q0 -8 -4 -16q-5 -9 -6 -15t-6 -11q-4 -3 -11 -3q-5 0 -15 1q-20 2 -32 8q-14 9 -15 11l-8 12
q-2 3 -6 8l-3 5q-3 3 -5 17q-2 16 -3 18q-2 4 -2 12q0 6 2 16q1 8 -1 17q-2 10 -2 27q0 9 -3 33q-3 11 -3 24q0 9 -4 21q-3 9 -3 12t2 10l4 20q2 10 5 16q2 8 8 10zM427 725q5 2 22 2q11 0 19 -7q8 -8 20 -15q14 -8 18 -12q6 -5 8 -12q2 -6 2 -22q1 -9 1 -13q0 -6 -3 -14
t-3 -16q0 -5 1 -25q1 -25 4 -46q1 -8 1 -11q0 -5 -2 -11q-3 -8 -3 -15q0 -8 -3 -14q-2 -10 -2 -29q0 -22 -3 -26q-2 -4 -9 -9t-17 -5q-10 -2 -17 0q-9 0 -25 9q-12 6 -14.5 8t-3.5 7q-5 14 -5 15q-5 13 -6 16q-3 15 -3 25q-1 12 -4 29q0 1 -6 29q-2 20 -2 32q-1 4 -1.5 16.5
t-0.5 17.5q-2 21 -5 28t-3 29q0 17 0.5 20.5t4.5 7.5t18 7q7 1 22 4z" />
    <glyph glyph-name="uni0023" unicode="#" horiz-adv-x="550" 
d="M283 400q-7 3 -15 5q-12 0 -17 -1q-7 0 -13 -4q-5 -3 -7 -6q-3 -1 -5 -8q-1 -3 -3 -28q0 -16 -3 -31q-3 -8 -5 -30q-1 -12 -1 -17t1 -6q1 -2 27 -2q25 0 30 3q6 3 21 2q16 0 19 3q5 7 6 17q3 11 3 27q0 18 1 22q3 9 6 12q6 6 6 9q1 3 -1 12q-1 4 -1 15q1 7 -3 9
q-4 1 -10 -1q-6 -4 -17 -4q-10 -1 -19 2zM220 686q6 2 23 2q14 0 17 -1t8 -6l9 -12q3 -5 3 -18q0 -14 -4 -22q-4 -10 -4 -18q0 -9 -2 -15q-3 -5 -5 -17q-3 -15 -4 -21q-3 -18 -3 -20q-1 -4 -4 -13q-3 -6 -3 -17q-2 -11 0 -18q0 -3 3 -9q2 -2 15 -2q10 0 20 2q10 3 14 1
q8 -2 20 -2q14 0 18 3q5 3 7 9q2 3 4 24q1 19 6 29l8 20q3 7 3 15q0 6 4 16q3 10 5 22q3 15 1 29q0 18 4 25q4 6 19 11q12 5 17 5t14 -3q3 -1 9.5 -2.5t8.5 -2.5q5 -1 7 -3t7 -13q7 -15 7 -23q0 -9 -3 -17q-7 -13 -7 -14t-1.5 -5.5t-1.5 -5.5q0 -5 -3 -10q-2 -10 -4 -27
q0 -18 -4 -26q-1 -2 -5 -26q-1 -21 1 -25q5 -5 7 -5q3 -1 12 1q6 3 14 5q3 1 23 1t22 -1q3 -1 9 -15q4 -11 4 -32t-3 -26t-16 -11q-11 -4 -18 -4q-4 0 -13 1q-16 0 -28 4q-11 3 -17 2l-12 -3q-3 -1 -6 -4v-14q1 -12 -5 -25t-6 -28q0 -14 -4 -21q-1 -2 -3 -8t-3 -8
q-1 -9 0 -12l10 -5q8 -4 14 -4q5 -2 19 0q13 2 21 0q8 0 20 -6q11 -5 13 -10q3 -4 3 -15q0 -8 -4 -18q-3 -6 -3 -17q0 -10 -3 -13q-1 -3 -11 -3l-18 -1h-32q-42 0 -45 -3t-3 -19q-2 -19 -3 -21t-3 -16q-2 -13 -4 -17q-3 -6 -3 -26q0 -21 -2 -25q-4 -6 -7 -12q-5 -6 -5 -17
q0 -12 -3 -17q-1 -6 -8 -10q-6 -4 -39 -4t-36 3q-4 4 -4 9l3 12q4 8 4 40q1 31 4 37l7 10q4 4 5 26q2 27 4 32q1 9 0 13q-1 5 -11 8q-7 3 -13 3q-7 0 -12 -4q-8 -4 -22 -2q-13 2 -20 0q-6 0 -12 -3q-4 -2 -6 -7q0 -1 -1.5 -5.5t-2.5 -5.5q-5 -9 -6 -17q-4 -12 -4 -36t-6 -39
q-7 -19 -7 -20q-2 -6 3 -14q3 -8 3 -14q0 -4 -2 -8l-10 -10q-7 -5 -11 -6t-23 -2q-26 0 -37 5q-12 3 -16 9t-4 14q-1 8 2 16q3 6 7 16q4 12 4 27q1 13 4 22q3 3 7 9q4 4 5 33q0 28 2 30q1 1 -1 6q-3 3 -12 2q-8 0 -18 -4q-12 -4 -17 -4q-6 0 -14 6q-5 5 -14 7q-7 1 -12 9
q-3 7 -7 21q-3 10 -3 16q0 3 5 16q1 5 8 12q6 5 10 7q4 1 21 1h18q34 -2 38 -6t6 -4q4 0 6 4q3 3 5 15q2 15 4 18q3 6 3 19q0 11 2 17q2 3 4 14l4 16q3 6 3 13q1 3 -2 11q-2 4 -9 7q-3 1 -11 1q-1 0 -5 -1.5t-6 -2.5q-12 -3 -20 -3q-13 0 -18 3q-7 2 -11 6q-5 4 -7 7
q-2 6 -2 8t-4 12q-3 8 -2 13l5 15q4 10 11 14q9 5 35 6q30 2 44 2q17 1 21 5q2 4 2 16q0 14 3 19q3 12 3 18q2 13 4 15q1 3 3 17q0 9 3 18q3 5 3 18q0 10 4 22q3 7 3 15q0 6 2 10q1 4 13 16q10 10 16 14z" />
    <glyph glyph-name="uni0024" unicode="$" horiz-adv-x="581" 
d="M353 295q-16 4 -17 4q-2 0 -8 -3q-5 -2 -7 -6q-3 -8 -4 -16q-1 -6 -1 -14q0 -13 2 -34q1 -15 1 -29.5t-1 -20.5q0 -4 -0.5 -12.5t-0.5 -10.5t3 -17t3 -29q2 -19 4 -24q3 -4 15 -7q8 -2 11 -2q4 0 17 7q17 8 28 18q12 9 19 16q6 6 11 16t7 18l3 18q0 6 3 18q3 6 3 12
t-5 18q-4 13 -11 24q-6 9 -12 17q-3 4 -12 10q-4 1 -13 8q-2 2 -11 8q-6 3 -9 6q-5 3 -18 7zM253 639q-1 0 -5 0.5t-6 0.5q-3 1 -6.5 1t-4.5 -1q-2 0 -10 -6q-5 -7 -11 -7q-5 -2 -17 -12q-13 -11 -19 -19q-8 -10 -8 -13q-3 -9 -6 -15q-4 -10 -4 -15t2 -19q2 -16 2 -22
q0 -8 8 -17q10 -12 13 -20q5 -9 14 -15q12 -6 17 -6q8 -2 14 -8q7 -6 14 -8q5 -2 12 0q9 2 10 3t3 12q2 12 1 23q-1 13 2 21q3 10 3 65q0 54 -2 62q-3 6 -7 9q-3 3 -9 6zM283 810q4 2 10 2h7q12 0 15 -4q2 -2 2 -17q-2 -16 -2 -22q-1 -9 3 -15q7 -9 12 -13q9 -7 14 -8
q5 -3 15 -3q8 0 18 -4q9 -3 21 -3q10 0 18 -3q6 -4 21 -6q14 -1 19 -6q6 -6 10 -8q5 -4 7 -10q1 -5 6 -10q4 -4 12 -7q8 -5 15 -13q4 -8 11 -14q6 -6 11 -16q5 -13 5 -20q2 -11 5 -18q5 -10 3 -26q0 -13 -3 -22q-3 -5 -9 -7q-2 -1 -14 -4q-17 0 -30 1q-24 2 -35 5
q-14 5 -15 5q-4 2 -4 9q-3 10 -7 16q0 1 -3 9t-4 11q-1 2 -4 9t-4 10q-9 12 -11 14q-7 7 -14 10q-10 5 -22 8q-16 4 -22 4q-7 2 -12 -2q-5 -2 -7 -7q-2 -3 0 -12v-14q-2 -8 -2 -18q0 -13 4 -21q3 -9 2 -23q-3 -18 -4 -20q-2 -4 -2 -13q0 -7 1 -21q0 -8 0.5 -24t0.5 -20
q0 -17 3 -22t11 -9q6 -3 15 -12t14 -9q7 0 20 -5q6 -2 21 -9q7 -5 17 -7q3 -1 11.5 -3t11.5 -3q16 -5 24 -10q13 -7 19 -17q5 -10 16 -16q12 -7 20 -18q9 -12 16 -25q5 -10 8 -24q0 -11 4 -25q3 -14 3 -34q-2 -30 -5 -44q-4 -23 -7 -28q-2 -3 -5 -9q-3 -3 -3 -12
q0 -8 -6 -18q-7 -9 -11 -11q-2 -1 -10 -15q-5 -12 -19 -25q-15 -13 -17 -14t-9 -1q-11 -4 -15 -6q-10 -6 -26 -7q-16 -3 -30 -9q-13 -7 -27 -7q-11 0 -23 -5q-10 -3 -14 -9q-5 -5 -4 -19q0 -20 1 -27q1 -14 -1 -19q-1 -3 -6 -8q-6 -3 -18 -3q-13 1 -17 4q-6 6 -8 10
q-3 6 -3 27t-2 26q-5 8 -6 9q-1 0 -3.5 2t-4.5 3q-4 2 -19 4q-8 0 -17 3q-2 1 -19 3q-14 0 -22 4q-4 2 -13 5l-4 1q-4 2 -9.5 4.5t-10.5 5.5q-21 10 -27 15q-8 6 -11 6q-2 0 -6 2q-9 9 -15 17q-11 14 -13 21q-3 8 -11 13t-10 15q-2 11 -5 15q-4 10 -4 17q0 10 -4 17
q-4 5 -6 12q-1 2 -1 5q0 5 3 14q0 1 2 9.5t3 10.5q2 6 8 11t20 8t26 2q16 -2 24 -5q9 -1 17 -7l9 -9q4 -5 5 -17q3 -19 3 -20q1 -2 4 -9t5 -11q7 -15 8 -21q2 -8 14 -17q13 -11 20 -15q11 -7 16 -8q8 -3 11 -7q5 -6 10 -7q4 -3 12 -3q5 0 11 3q5 4 9 9t4 16q0 6 -1 23v48v30
v32q-1 9 -1 46q0 22 -1 26.5t-8 11.5q-5 6 -17 15q-8 5 -18 8q-3 1 -19 5q-9 0 -14 5q-6 4 -9 4q-5 0 -17 5q-15 4 -19 8q-6 4 -11 9q-3 3 -18 13q-4 3 -11.5 8t-9.5 6q-12 9 -18 17q-10 10 -16 20q-7 11 -8 20q-2 9 -5 16q0 1 -1 3q-4 10 -5 15q-4 10 -4 42t3 38q2 8 4 14
q3 10 10 22q10 20 12 23l5 10q1 3 2 4q2 7 16 21q12 12 26 20q20 14 21 15q12 7 15 7q13 3 18 4q12 4 20 4q11 0 20 3q21 6 24 7q6 1 18 4q7 3 11 10q4 8 5 28q2 22 5 30q2 10 6 12z" />
    <glyph glyph-name="uni0025" unicode="%" horiz-adv-x="860" 
d="M675 289q-6 6 -16 6q-13 0 -21 -4q-11 -3 -17 -7q-1 0 -6.5 -4t-8.5 -5q-9 -7 -12 -12q-2 -5 -7 -10t-8 -15q-4 -12 -4 -47q0 -37 3 -43q2 -7 4 -17q1 -13 6 -17t7 -12q3 -8 11 -10q11 -5 16 -8q8 -6 14 -6l12 -3h11q7 2 11 5q7 4 8 10q4 7 11 10q9 7 16 15q9 11 12 21
q3 15 3 21q0 10 -2 18q-3 7 0 13t3 15t-3 15q-2 7 -4 19q-1 15 -6 20q-1 1 -10 13q-5 8 -10 9q-2 1 -7 5t-6 5zM623 360q5 2 40 2l33 -1q2 -3 3 -6q4 -5 16 -9q15 -5 20 -6q9 -2 12 -7q3 -3 9 -6q1 0 6 -7q2 -3 8 -10q3 -3 4 -5q9 -7 12 -20q2 -12 10 -20q5 -4 6 -9t2 -30
q0 -33 3 -38q2 -4 2 -12q0 -9 -4 -12q-4 -5 -4 -19q0 -17 -4 -28q-4 -15 -8 -21q-5 -7 -7 -14q0 -5 -7 -10q-6 -6 -7 -14q0 -9 -4 -13q-6 -6 -9 -7q-4 -1 -7 -7t-19 -13q-11 -6 -18.5 -7t-39.5 -1q-44 0 -44 -2q-1 -1 -4 -2t-5 -2q-4 -1 -13 -1q-7 3 -12 7.5t-14 6.5
q-7 2 -13 7q-6 6 -18 12q-11 8 -14 13q-4 7 -6 7q-1 0 -11 10q-9 9 -10 16l-4 12q-3 6 -5 14q0 7 -6 17q-4 6 -5 11.5t-1 32.5v19q0 17 2 24q0 2 3 10t4 12q4 16 4 20t2 12q2 5 5 10q4 3 5 15q0 13 1 15t11 10q12 7 17 11q8 5 9 9q2 3 7 5q1 0 6 0.5t7 0.5q7 0 13 6
q5 6 19 8q19 2 22 4zM230 642h-4l-3 1l-16 -2q-17 -2 -18 -3q-4 -2 -18 -15q-13 -13 -20 -26q-6 -12 -6 -41q-1 -16 -1 -39q0 -19 1 -30q2 -22 2 -23q0 -5 9 -12q11 -11 20 -16q12 -6 30 -5q11 0 23 3q4 2 14 5q7 1 17 11t11 18q3 8 6 11q4 4 3 17q-1 12 1 19q1 3 3 36v19
q0 11 -5 17q-6 8 -8 15q0 5 -3 11q-2 4 -8 6t-16 12q-12 10 -14 11zM201 715q9 0 15 1q1 0 19 -3q5 -2 20 -7q12 -4 21 -4t15 -2q7 -2 13 -10q14 -14 21 -20q14 -14 16 -17q5 -10 6 -14q2 -9 7 -15q4 -5 6 -16q0 -7 2 -11q0 -2 6 -10q5 -7 5 -12q0 -4 -2 -12q-3 -8 1 -16
q3 -15 3 -24q0 -11 -4 -25q-4 -10 -4 -18q-2 -11 -6 -15q-4 -8 -7 -21q-4 -18 -6 -20q-6 -6 -9 -7q-6 -3 -10 -7q-3 -6 -4 -9q-1 -5 -11 -13q-8 -6 -21 -13q-8 -3 -17 -10t-11 -7q-4 -2 -15 1q-11 4 -23 0q-14 -4 -30 -3q-20 2 -25 4q-9 3 -14 3q-7 0 -13 2t-9 5
q-2 2 -16 10q-15 9 -23 18q-13 13 -15 17q-4 7 -5 7q-3 0 -8 12q-6 14 -6 16q0 6 -3 10q-3 8 -3 26t-3 27q-4 8 -4 21t3 19t3 16t3 16l4 16q1 6 6 21q3 10 12 21q2 2 22 25q15 16 28 23q14 8 15 8q4 0 11 4q10 5 16 5q13 3 16 4q10 2 12 3zM606 733q3 1 30 1q24 0 27 -3
q1 -1 1 -10t-9 -24q-6 -12 -15 -23q-6 -6 -8 -12q-1 -3 -1 -16q0 -12 -3 -16q-1 -5 -11 -10t-12 -16q-3 -9 -7 -19q-6 -10 -8 -13q0 -1 -4 -6t-5 -8q-6 -9 -12 -23q-3 -11 -15 -24q-11 -11 -19 -27q-6 -12 -9 -21q-1 -7 -7 -11q-6 -5 -6 -13t-2 -14q-1 -5 -16 -20
q-15 -14 -17 -24q-2 -8 -10 -19q-4 -5 -11 -12q-3 -1 -9 -16q-3 -12 -8 -22q-6 -14 -8 -18q-4 -10 -4 -11q0 -3 -6 -8q-6 -8 -7 -10q0 -3 -7 -10q-8 -7 -9 -12q-4 -8 -4 -13q0 -7 -2 -13q-1 -7 -8 -11q-6 -4 -17 -21q-3 -4 -15 -24q-2 -3 -7.5 -13t-7.5 -15q-7 -16 -16 -27
q-7 -7 -9 -11q0 -3 -2 -11q-1 -9 -6 -11q-5 -3 -9 -13l-10 -15q-6 -5 -7 -10q-1 -3 -1 -13q0 -6 -3 -15q-2 -6 -4 -6q-1 0 -7 -8q-7 -9 -13 -12q-6 -4 -9 -4q-2 0 -6 1q-3 0 -9 0.5t-7 0.5q-5 -1 -18 1q-8 2 -13 4q-3 2 -3 7q-1 3 1 14q0 10 4 16q2 6 4 6l6 8q1 3 4 7l3 5
q4 4 11 16q7 13 11 22q3 8 8 11q2 1 4.5 3t3.5 2q2 1 4 13q1 11 6 19q6 8 11 20t11 16q5 5 6 11q3 6 7 12q7 9 8 16q5 14 8 17q1 2 5 8t5 8q7 10 10 15q3 4 9 13q2 6 6 10q3 3 7 11q2 3 6 14q0 3 7 17q6 12 8 14l6 6q5 2 9 8q3 5 3 11t3 9q1 4 7 6l8 4q2 2 4 14q0 11 7 17
q3 3 9 12q3 6 5 14q0 5 10 17l10 12q0 3 5 10q4 4 13 27q4 16 12 26q7 10 11 17q3 5 8 20q2 10 8 18l12 16q5 5 7 15q2 9 10 12q6 3 13 18l6 16q0 1 6 7t7 15q0 7 3 13q1 3 8 7q7 3 9 13q3 10 7 13z" />
    <glyph glyph-name="uni0026" unicode="&#x26;" horiz-adv-x="758" 
d="M279 342q-7 5 -13 5q-3 0 -13 -4q-10 -6 -12 -8l-6 -9q-3 -7 -10 -10t-18 -18q-16 -18 -17 -19q-6 -4 -9 -14q-5 -10 -5 -19q-2 -11 -5 -15q-3 -7 -3 -13v-7q0 -12 4 -26q1 -6 7 -21q4 -11 7 -16q1 -1 3 -5l3 -6q2 -6 5 -9q2 -4 10 -8q6 -4 8 -10q2 -9 6 -15q3 -8 6 -11
q1 -1 6 -2t8 -2q14 -2 47 -2h18q18 0 30 -3q11 -2 17 -2h4q6 0 18 6t17 6q8 3 14 7q1 1 10 6.5t14 8.5q16 10 22 16q5 5 7 12q2 9 5 13q3 5 3 10t-11 17q-14 14 -17 15q-4 1 -7 9q-1 6 -12 18q-10 11 -21 14q-9 4 -19 12q-8 6 -12 15q-4 6 -7 9q-4 1 -10 11q-12 15 -13 16
q-2 2 -8 7t-8 7l-10 8q-3 0 -13 10t-20 16zM345 669q-9 5 -19 5t-16 -2q-4 -2 -10 -6q-4 -4 -8 -4q-2 0 -8 -2q-5 -1 -17 -11q-12 -8 -14 -13q-2 -3 -9 -13q-3 -3 -10 -19q-5 -13 -2 -24q5 -16 8 -23q1 -5 10 -22q5 -9 13 -14q9 -4 9 -6q3 -3 10 -6q12 -8 13 -8q4 -3 11 -3
t15 2q5 1 21 10q12 9 18 18q10 13 13 15q7 7 10 13q3 9 7 14l9 15q4 9 4 19t-4 19q-7 12 -19 24q-13 14 -21 16q-11 4 -14 6zM287 755q10 2 36 2q27 0 49 -2q20 -2 41 -13q23 -11 32 -13q10 -2 23 -9q12 -8 18 -18q4 -8 7 -17q2 -9 7 -20q6 -16 9 -25q2 -12 7 -21
q3 -9 2 -16q-3 -6 -5 -24q-3 -19 -8 -25q-5 -8 -5 -12q0 -5 -3 -11q-1 -6 -13 -23l-9 -12t-7 -9l-10 -7q-5 -2 -8 -9q-2 -8 -4 -8l-12 -10q-9 -9 -19 -14q-7 -1 -15 -11q-7 -7 -9 -11q-1 -2 -1 -8q2 -5 8 -10q2 -2 5.5 -5t4.5 -4q5 -5 6 -10q3 -5 11 -12q9 -5 14 -14
q5 -8 16 -21q10 -10 10 -13q0 -1 7 -10q8 -8 25 -17l20 -10l3 -8q2 -6 3 -7t14 -5q12 -2 15 -2q6 3 10 7q5 5 7 12q2 6 2 18q0 14 3 23q3 8 5 24q0 3 3 24q2 6 5 21q3 8 3 32t3 29q2 3 9 17q4 8 6 9.5t11 3.5q10 3 18 3q5 0 15 2q8 2 29 -2q20 -6 22 -7q4 -4 4 -24v-11
q0 -11 -1 -21q-3 -12 0 -23q2 -10 -2 -22q-2 -8 -4 -30q0 -18 -5 -28q-6 -10 -8 -11q-3 -1 -5 -6q-2 -4 -2 -11q0 -9 -3 -15q-3 -12 -4 -20q-1 -12 -7 -17q-6 -6 -11 -19q-7 -14 -13 -22q-6 -7 -5 -19q2 -15 4 -19q2 -7 4 -7l2 -4q2 -3 4 -5q5 -7 11 -10q6 -2 12 -9
q5 -7 6 -7t14 -13q15 -15 16 -17q5 -5 8 -7q1 0 5 -2.5t6 -3.5q8 -5 17 -16q10 -12 10 -21t-2 -13q-4 -6 -7 -9q-5 -5 -20 -6q-5 -1 -13 -3t-9 -2q-5 -2 -21 -2q-18 2 -22 4q-11 3 -20 4t-12.5 3t-14.5 13q-16 16 -22 19q-9 9 -13 15q-8 10 -15 14q-8 5 -16 5q-5 0 -11 -3
q-7 -5 -20 -16t-18 -19q-4 -6 -10 -8q-5 -3 -12 -3q-8 0 -23 -10t-25 -14q-9 -3 -12 -3q-1 0 -11 -4t-20 -4q-3 -1 -13.5 -3t-14.5 -3q-15 -5 -22 -5h-6q-4 1 -51 3q-35 1 -52 5q-9 3 -21 5q-3 0 -23 5q-13 4 -23 11q-9 7 -11 7l-11 9l-12 8l-10 6q-7 7 -13 9q-8 5 -12 12
l-7 8q-2 0 -7 5t-8 16q-1 5 -6 18q-6 7 -7 20q-2 13 -4 17t-4 29q0 8 -1 19v11q0 11 1 18q2 13 5 18q3 6 8 24q6 20 9 26q6 9 8 13q6 6 6 10q0 1 1 3q3 7 5 10q4 9 20 20q19 14 20 15l4 6q3 3 7 6q1 1 7.5 5.5t9.5 6.5l17 14q4 3 10 12q2 8 2 13q0 6 -2 14q-2 6 -8 11
q-8 6 -8 9q-2 4 -7 9t-13 19q-9 16 -10 20q-1 2 -8 22q-6 18 -6 22q0 2 -3 14q-4 8 -4 36t3 37q1 2 3 7t2 6q4 8 10 14q8 10 10 16q4 10 12 18q8 10 12 14q6 6 9 7q5 1 14 10q11 8 13 9q6 3 25 3q20 0 26 4q10 4 14 4q9 0 15 3z" />
    <glyph glyph-name="uni0027" unicode="'" horiz-adv-x="741" 
d="M396 727q4 2 39 3q31 0 37 -2q5 -2 8 -10q3 -6 3 -22q-1 -15 -9 -28q-10 -16 -14 -20q-10 -10 -14 -16q-10 -12 -27 -29q-19 -20 -27 -30q-9 -11 -13 -13q-3 -3 -6 -10q-5 -10 -8 -13q-4 -3 -8 -11q-1 -5 -13 -15q-14 -9 -22 -12q-12 -5 -18 -5q-5 0 -19 6q-11 4 -18 12
q-6 7 -6 21q0 15 3 20q5 11 8 14q6 10 9 16q1 2 5.5 8t5.5 8q10 10 10 14q0 2 1 5.5t2 5.5q3 8 9 16q2 3 6.5 10.5t5.5 8.5q5 5 11 19q4 12 9 15q5 7 6 14q4 9 7 11q3 3 17 5q12 0 20 4z" />
    <glyph glyph-name="uni0028" unicode="(" horiz-adv-x="368" 
d="M218 784q20 5 25 5q9 0 15 -2q4 -1 8 -7q2 -3 2 -27q0 -22 -2 -28q-2 -8 -8 -14q-7 -9 -8 -13q-2 -8 -2 -13q0 -2 -1.5 -9.5t-1.5 -9.5q-2 -13 -7 -23q-3 -9 -5 -21t-7 -22q-6 -12 -6 -16q0 -3 -3 -12q-3 -6 -4 -37q-1 -29 -6 -42q-3 -10 -8 -18q-4 -5 -4 -17l-3 -30
q-3 -26 -3 -28q-3 -9 0 -16q1 -3 2 -16.5t2 -21.5q1 -17 1 -39v-16v-32q2 -27 3 -30q2 -4 2 -14q0 -7 4 -21q5 -10 5 -25v-11l1 -6q2 -5 4 -13q2 -10 4 -17q3 -6 3 -16q0 -9 2 -15q3 -7 5 -15t7 -18q2 -5 9 -26q5 -22 5 -29q1 -11 7 -28q6 -14 6 -19t7 -17q6 -11 7 -26
q0 -16 -1 -20q-4 -8 -9 -12q-4 -4 -12 -6q-2 -1 -6.5 -1t-8.5 1q-8 2 -17 2q-11 0 -13 1q-5 2 -11 13q-7 11 -9 18q-3 6 -9 15q-6 6 -7 17q-2 14 -5 18l-7 14q-1 7 -7 20l-9 18q-6 7 -7 18q-1 10 -7 23q-6 9 -7 24q0 8 -3 20q-5 12 -6 19q-2 8 -6 17q-4 7 -6 20q-2 16 -3 18
l-5 15q-3 6 -5 21q-3 21 -6 31q-5 19 -5 35q0 21 -1 26q-1 3 -4 20q-1 6 -1 10q0 6 4 24q5 20 5 28q0 6 -2 18q-3 10 0 19q2 12 2 19q0 8 2 16q1 4 4 13q0 5 8 21q7 17 8 25q0 6 3 18q2 2 6 18l5 20q0 10 4 14q4 7 6 16q4 14 6 17q3 9 5 13q1 5 6 15q4 4 6 18q2 12 5 22
q0 1 1.5 8t2.5 11q1 9 9 20q7 11 7 12q0 3 3 9q1 2 15 23q11 14 25 19z" />
    <glyph glyph-name="uni0029" unicode=")" horiz-adv-x="347" 
d="M96 777l6 1h11q16 0 20 -2q6 -1 9 -8q6 -8 8 -9l3 -5q3 -4 4 -7q6 -10 6 -18q2 -9 7 -21q6 -13 9 -28q2 -7 10 -29q8 -16 8 -19l6 -15q5 -10 11 -20q5 -11 5 -24t5 -27q5 -10 9 -24q5 -9 7 -21l6 -24q1 -11 6 -27q1 -8 6 -20q2 -8 2 -23t3 -21q2 -8 2 -16q0 -16 -1 -25
q-1 -7 -3 -50q0 -28 -3 -46q-2 -10 -2 -20q1 -8 -2 -16l-5 -10q-1 -2 -3 -20q0 -15 -4 -21q-2 -6 -2 -12q0 -4 -7 -21q-7 -12 -7 -26q0 -15 -3 -22q0 -3 -1.5 -10t-2.5 -10q-2 -12 -10 -27q-9 -18 -9 -29q0 -10 -7 -24q-6 -12 -11 -17q-2 -2 -6 -13q-5 -12 -6 -18
q-2 -11 -5 -15q-6 -9 -9 -12q-6 -9 -7 -14q-3 -11 -7 -14q-5 -4 -17 -5q-15 0 -27 4q-11 4 -13.5 5.5t-5.5 9.5q-4 10 -4 16t4 18q10 19 11 21q8 13 9 19q4 10 6 16q3 6 3 19q0 14 3 20q0 1 1.5 6.5t2.5 8.5q1 2 2.5 7.5t1.5 7.5l1 7q2 7 3 10q2 10 7 26q6 17 8 32
q3 13 5 32q0 13 4 21q3 9 2 23q0 4 -0.5 13.5t-1.5 12.5q0 8 2 22t5 20q2 8 2 19t-2 23q-3 15 -3 16q0 8 3 14q2 5 2 25t-2 25q-4 8 -4 28q-2 23 -5 34q-2 10 -6 23q-3 9 -3 23q0 11 -4 27q-3 12 -3 21q0 6 -6 24q-5 11 -8 26q-2 11 -3 12l-1 6q-1 5 -2 9q-2 7 -5 22l-7 22
q0 2 -1.5 8.5t-1.5 8.5q0 3 -4 11q-3 5 -7 16q-5 15 -6 21q-4 10 -4 15q0 1 3 10q2 5 10 11t10 7z" />
    <glyph glyph-name="uni002A" unicode="*" horiz-adv-x="538" 
d="M328 722q6 2 15 2q10 0 21 -5q12 -5 20 -14q8 -8 10 -12q2 -2 2 -11q0 -8 -5 -21t-20 -27q-15 -15 -17 -18q-1 -5 -10 -16q-7 -8 -7 -14t6 -8q8 -3 22 -2q16 2 25 5q13 3 31 3q20 0 28 -5q7 -5 9 -10q0 -3 4 -15q3 -9 3 -18q-1 -2 -2.5 -7.5t-1.5 -7.5q-1 -2 -3 -6.5
t-3 -6.5q-2 -5 -9 -8q-4 -3 -18 -3q-13 0 -17 2q-6 2 -13 2q-10 0 -18 3q-12 2 -15 2q-4 0 -14 2q-9 3 -13 0q-5 -2 -5 -6q0 -5 6 -15q7 -14 8 -17q1 -5 9 -11q4 -3 12 -11q3 -4 12 -11q8 -6 11 -12q0 -1 1.5 -5.5t1.5 -5.5q0 -6 -3 -15q-1 -7 -5 -14q-2 -5 -13 -10
q-10 -5 -26 -5q-15 0 -21 2t-9 7q-3 6 -4 10q0 1 -0.5 5t-0.5 5q-3 6 -7 10q-6 8 -10 23q-2 4 -4.5 13.5t-3.5 11.5q-4 10 -8 11q-5 0 -12 -5q-7 -4 -17 -25q-8 -15 -13 -32q-2 -7 -8 -22q-6 -10 -9 -13q-3 -5 -12 -7q-4 -1 -16 -1q-10 1 -23 14q-14 14 -15 16q-2 4 -2 17
q0 12 3 18t12 17q12 14 19 21q8 8 11 16q2 6 6 14t4 12q-1 4 -7 4q-4 0 -25 -2q-23 -2 -33 -5q-15 -4 -17 -3l-12 4q-6 2 -10 2q-3 0 -9 4q-5 2 -7 11q-1 4 -7 13q-4 4 -4 14q0 11 6 22q5 13 10 18q4 4 13 6q4 2 14 2q10 -2 15 -5q10 -4 19 -4q10 0 14 -2q4 -3 13 -3t12 3
q1 1 2.5 3.5t1.5 3.5q0 7 -1 10q-1 4 -6 9q-3 2 -7 12q-1 6 -5 14q-6 6 -9 8q-4 2 -8 9q-3 9 -6 12q-4 6 -6 12q-1 6 1 12q2 7 14 17q12 11 18 12q9 2 14 1q9 -2 16 -5q6 -3 13 -13q1 -4 12 -20q8 -9 11 -18q5 -6 7 -15q1 -4 6 -14q5 -7 7 -7q2 -1 6 1q1 1 4.5 3t5.5 4
q8 5 10 9q2 6 2 10t6 14l5 15q0 4 2 12q4 6 5 7q4 4 6 8q3 6 9 9z" />
    <glyph glyph-name="uni002B" unicode="+" 
d="M293 580q12 2 18 2q7 0 11 -3q4 -6 14 -9q10 -6 16 -17q5 -9 5 -11.5t-2 -8.5q-4 -20 -4 -21q-2 -15 -5 -21q-2 -8 -2 -14t2 -10q3 -5 3 -10t-2 -15q-2 -8 -4 -45q0 -26 1 -32t6 -16q9 -13 14 -14q4 -1 49 -1q22 1 30 1q15 0 21 -3q12 -3 13 -3q7 -2 18 3q10 3 33 3
q22 -1 31 -6q10 -5 12 -9q1 -2 1 -30q0 -26 -3 -29q-2 -3 -17 -9q-10 -5 -20 -5.5t-60 -0.5q-67 0 -73 3q-8 4 -15 3q-9 0 -19 -5q-11 -9 -12 -11q-3 -3 -3 -25q0 -21 2 -29t1 -20q-3 -18 -3 -54q-1 -23 -1 -55q0 -11 -5 -22q-6 -11 -10 -14q-1 -1 -7.5 -4.5t-8.5 -5.5
q-9 -4 -12 -4q-2 0 -7 2t-15 5q-9 3 -13 5q-7 4 -9 7q-1 1 -1 8q0 3 -4 19q-3 16 -2 22q0 10 -3 17q-3 9 -3 16q0 4 2 8t2 20q1 10 1 52v16q0 19 -1 25t-11 16q-9 9 -15 11h-5h-12.5h-15.5h-29q-53 0 -65 -2q-11 -2 -16 -1q-2 1 -9.5 2t-9.5 1q-11 2 -16 5q-2 0 -8 7
q-2 6 -2 28v12q0 11 2 15q2 5 9 8q8 5 17 4q16 0 22 2q15 2 24 1q10 0 32 -2q11 -2 24 -2q5 0 12 3q9 2 18 1q8 -3 29 -1t23 4q3 3 4 10q0 4 3 13q0 1 1 5.5t2 5.5q1 3 -1 16q-3 10 -2 17q2 10 2 77q2 70 7 81q6 11 9 13q3 1 17 5z" />
    <glyph glyph-name="uni002C" unicode="," horiz-adv-x="251" 
d="M163 127q5 1 14 1q9 -3 14 -7q11 -6 13 -10q3 -6 3 -19q0 -14 -4 -22q-3 -7 -9 -13q-6 -4 -7 -11q0 -1 -1.5 -7t-2.5 -9l-5 -15q0 -4 -6 -12q-5 -5 -8 -18q-2 -13 -5 -16t-4 -16t-16 -38l-20 -35q-8 -12 -11 -13q-3 -3 -12 -3q-7 0 -23 4t-19 5q-4 1 -7 13q-1 4 -2 9.5
t-1 6.5q0 6 3 17q2 13 4 17q3 7 4 21q2 18 6 25q4 9 4 21q0 11 4 29q1 14 5 21q0 1 1 6t1 9q2 8 4 15q1 3 14 16q12 11 28 17q15 5 25 7z" />
    <glyph glyph-name="uni002D" unicode="-" horiz-adv-x="283" 
d="M64 325q8 2 18 2q12 0 19 -4q9 -3 18 -3q5 1 32 1h12q14 0 24 2q15 2 20 1q8 -2 16 -2q9 0 13 -3q5 -2 7 -8q2 -7 4 -23q2 -18 2 -25q0 -9 -4 -14q-3 -5 -8 -8q-9 -3 -15 -4q-16 -3 -17 -3q-6 -2 -12 -2t-12 -2q-3 -2 -7 -2t-10 2q-2 0 -11.5 1.5t-14.5 2.5q-8 1 -11 1
q-8 0 -23 -4q-14 -3 -19 -3t-18 3q-18 4 -22 8q-5 3 -7 15q-2 11 -2 20v10q2 20 4 22q1 3 9 11q9 6 15 8z" />
    <glyph glyph-name="uni002E" unicode="." horiz-adv-x="344" 
d="M157 141q20 1 41 1h1q4 0 14 -5q8 -4 10.5 -7t7.5 -17q7 -18 7 -47q0 -30 -6 -40q-6 -11 -9 -13q-6 -3 -47 -3q-22 -1 -29 -1q-15 0 -24 5q-11 5 -14 10q-2 6 -2 26t-3 28q-2 7 -4 17q0 11 2 19q2 7 7 14q5 8 9 10q3 3 39 3z" />
    <glyph glyph-name="uni002F" unicode="/" horiz-adv-x="322" 
d="M287 834q6 2 20 2q6 0 15 -3q7 -2 11 -9q3 -6 3 -20q0 -13 -4 -21q-3 -6 -3 -14q0 -4 -4 -12q-2 -3 -11 -21q-8 -15 -8 -30q0 -14 -2 -24q-3 -7 -5 -16q-2 -7 -5 -9t-9 -13q-5 -12 -5 -16q0 -2 -1.5 -7.5t-1.5 -6.5q-4 -12 -4 -19q0 -8 -5 -25q-1 -2 -5 -12t-5 -14
q-3 -9 -7 -19q-2 -9 -5 -16q-1 -4 -8 -21q-5 -13 -7 -22q-1 -9 -10 -28t-11 -28q0 -8 -4 -12q-1 -2 -7 -10q-5 -6 -6 -22q0 -12 -3 -24q-2 -8 -2 -9q0 -2 -5 -4q-5 -3 -9 -13q-1 -3 -3 -11.5t-3 -11.5q-2 -11 -7 -18t-6 -26q-1 -20 -4 -22l-6 -6q-3 -3 -3 -10q0 -8 -2 -12
q0 -5 -8 -10t-10 -13q-1 -2 -3 -7t-3 -7l-3 -15q0 -4 -3 -13q-3 -5 -5 -16q-3 -8 -3 -17q0 -7 -5 -15q-4 -7 -4 -16q0 -10 -7 -23q-7 -16 -7 -19q-2 -7 -7 -10q-6 -6 -7 -14q-2 -10 -2 -13q-2 -4 -8 -7t-10 -9q-3 -4 -9 -6h-3q-3 0 -7 2q-9 3 -15 3q-8 1 -13 6t-7 12
q-1 5 -1 7q0 3 3 10q3 10 3 16q0 2 -1 6.5t-2 5.5q0 7 5 13q3 5 7 17q0 2 6 20q6 10 6 19q2 10 5 16q4 6 4 18q1 12 8 19t7 9t5 9q6 8 6 16q2 10 3 11q2 5 4 16q0 12 4 18q4 4 6 8q2 2 4 13q0 9 4 13q3 8 4 18q2 12 9 17t8 7q0 1 2 19q2 20 4 23q3 4 3 10q0 4 2 10q1 3 6 8
q5 3 6 22q1 20 10 38q10 21 13 30q5 18 5 21q1 8 7 15q7 7 9 13q4 8 4 24q2 19 4 22q5 9 6 11q4 8 4 12q0 2 0.5 6t0.5 5q3 8 6 10q6 8 7 15q2 10 5 13q4 6 4 9q2 4 7 10q5 5 5 10t2 13q2 9 5 12q4 3 8 15t3 19q-1 5 -1 13q0 4 5 9t7 9q2 7 1 15q-1 13 2 16q2 4 2 11t2 11
q1 4 7 8l11 7q3 4 15 6z" />
    <glyph glyph-name="uni0030" unicode="0" horiz-adv-x="625" 
d="M322 663q-10 4 -21 4q-7 1 -18 1q-2 -1 -10 -2.5t-11 -2.5q-19 -7 -23 -10q-12 -10 -13 -11q-3 -4 -10 -9q-9 -7 -14 -17q-8 -12 -15 -26t-8 -29q-2 -12 -4 -19q-3 -8 -3 -28q0 -23 -6 -40q-6 -14 -6 -26v-57v-57v-28q2 -25 3 -27q2 -5 5 -14q1 -2 6 -10q2 -3 3 -5
q6 -11 5 -19v-16q0 -9 3 -20q1 -4 4 -15t3 -12q5 -12 11 -20q7 -10 8 -13q1 -4 17 -20q14 -15 22 -16q12 -3 16 -5q8 -3 24 -3q14 2 25 0q5 -1 7 -1q5 0 10 4q9 3 28 6q20 4 23 5q3 3 4 10q1 5 7 11q9 6 12 10q9 9 14 18q9 16 10 19q4 9 6 19q5 17 8 22q5 10 5 30t4 29
q3 8 1 19q-1 10 0 19q2 10 2 54q0 45 -2 53t-2 32q0 25 -3 32q-3 6 -3 16q0 8 -4 24q-3 12 -3 25q0 12 -4 21q-3 6 -6 16t-4 11q-2 4 -6 8q-2 3 -17 18q-12 13 -14 18q-1 2 -5 6q-5 2 -18 4q-16 1 -25 6q-10 6 -18 8zM252 754q7 3 22 3q14 0 21 -3q9 -3 44 -3q28 -1 34 -2
t15 -6q10 -6 19 -6q2 0 8.5 -1.5t8.5 -1.5q16 -4 18 -6q6 -4 16 -9q11 -9 13 -12t14 -13q10 -6 14 -14q1 -5 11 -17l5 -7.5t4 -5.5q2 -1 4 -10q2 -10 2 -16q0 -8 3 -12q2 -4 6 -8q4 -2 4 -9q2 -6 8 -12q4 -5 5 -9.5t2 -27.5q0 -32 2 -34q1 -1 7 -17q4 -11 4.5 -19t0.5 -48
q3 -80 3 -84q1 -24 1 -35v-9q0 -10 -2 -32q-2 -19 -6 -27q-3 -9 -3 -20q0 -14 -3 -20q0 -2 -2 -11.5t-3 -15.5q-3 -19 -7 -27q-6 -8 -6 -11t-5 -11q-3 -4 -11 -12q-5 -4 -11 -17q-4 -10 -12 -20q-14 -14 -21 -20q-2 -2 -7 -6t-8.5 -7t-5.5 -5q-8 -8 -9 -8q-2 0 -10 -5
q-3 -3 -17 -8q-9 -1 -22 -9q-13 -5 -23 -5q-3 0 -21 -3q-13 -2 -29 -4h-10q-9 0 -19 3q-12 4 -31 4q-22 0 -31 4q-12 4 -16 4t-12 2q-6 2 -13 9q-5 6 -20 12q-17 7 -22 10q-8 4 -12 8t-7 10q-4 5 -9 9q-6 4 -11 15q-6 12 -11 15t-11 19q-7 14 -11 24q-4 9 -6 20q-2 9 -4 19
q-3 8 -3 14q0 8 -3 18q-4 11 -4 32q0 19 -2 29q0 3 -1.5 13.5t-1.5 13.5q-2 18 -2 36q1 16 -2 26q-2 5 -2 27q1 11 1 27q0 11 -1 17q-1 5 -1 7q0 5 3 10q3 8 2 29q-2 26 -2 30q0 5 2 19q1 11 8 26q6 14 6 18q0 3 6 23q7 20 8 22t4 7t4 7q5 11 7 17q0 7 9 14q8 10 11 16
q5 10 7 12q4 5 13 8q11 2 15 9q5 7 13 12l12 9q3 3 17 7q7 2 23 5q11 0 19 4q6 3 16 7z" />
    <glyph glyph-name="uni0031" unicode="1" horiz-adv-x="567" 
d="M307 730q14 7 19 7q2 0 11 -3q5 -3 5 -4q0 -2 9 -13q9 -10 9 -20v-11v-27v-25q1 -12 4 -26q2 -4 4 -29q0 -13 3 -31q3 -8 0 -18q-3 -9 -3 -87q-1 -79 -4 -86q-3 -11 -2 -31q0 -19 3 -31q1 -7 3 -73q2 -65 4 -72q2 -5 2 -8t-2 -10q-4 -8 -4 -23q0 -7 1 -27q0 -39 3 -48
q3 -5 3 -9q0 -2 -1 -4q-2 -6 -9 -11q-7 -7 -15 -10q-7 -4 -26 -4q-16 0 -25 3q-8 4 -13 4q-6 0 -16 4q-10 5 -11 9q-2 4 -2 16t-3 21q-3 10 -3 25q0 19 1 23q2 8 0 23q-1 8 -4 23t-3 19t3 16q3 8 3 80q0 73 -3 82q-2 8 -2 11q2 4 6 8q4 5 3 13q-1 5 -1 17v17q1 7 -4 13
q-5 7 -5 12l3 12q2 9 4 29v14v15v13q0 17 -2 29q-3 7 -3 14q0 6 3 9q2 6 2 9q0 5 -2 7t-4 2t-8 -4t-13 -6q-5 0 -16 -9q-9 -9 -18 -12q-10 -2 -11 -2q-2 0 -6 -7q-6 -8 -10 -9q-3 -3 -16 -5q-13 -1 -21 0q-11 2 -12 6q-3 4 -3 38q1 34 5 38t16 12q13 11 15 14q3 5 19 14
q5 2 11 6l7 4q2 3 17 11q17 9 20 15q4 7 19 14q10 6 21 10q12 3 14 4l12 3q7 0 19 7z" />
    <glyph glyph-name="uni0032" unicode="2" horiz-adv-x="616" 
d="M316 753q3 3 8 3t21 -7q12 -5 15.5 -5t11.5 3q12 4 20 3q8 -2 15 -5q5 -5 21 -11q15 -5 27 -13q15 -7 24 -10q9 -4 10.5 -6t3.5 -9q5 -15 9 -20q5 -10 7 -10l4 -8q1 -6 8 -11t8 -11q2 -10 5 -15q2 -6 2 -17q2 -14 3 -16q1 -3 5 -7q3 -1 3 -7t-3 -13q-2 -7 -1 -22
q1 -12 -3 -23q-4 -9 -2 -17t-1 -14q-3 -10 -7 -19q-4 -14 -11 -26q-6 -12 -18 -26q-10 -11 -11 -21q-1 -9 -7 -16q-8 -7 -9 -15q-3 -8 -11 -15q-8 -5 -15 -15q-7 -9 -10 -11q-4 -3 -7 -11q-2 -8 -5 -11q-4 -4 -8 -12q-5 -9 -14 -14q-12 -6 -16 -6l-6 -3q-1 -1 -2 -1
q-3 -5 -4 -11q-3 -7 -11 -12t-8 -7q0 -1 -10 -11q-11 -11 -14 -12q-6 -4 -8 -6q-3 -3 -9 -6t-12 -15q-5 -9 -10 -14q-5 -2 -7 -7q-2 -4 -11 -10q-9 -5 -14 -7l-6 -4q0 -1 -10 -6t-14 -15q-3 -7 -5 -8.5t-7 -3.5q-6 -1 -7 -2.5t-1 -5.5q0 -7 7 -9q9 -2 17 0q12 2 22 2
q12 0 17 4q5 5 12 4h28h31h56h54q7 1 27 -1q12 -1 21 -4q5 -3 5 -5t9 -4q10 -4 11 -7v-6t0.5 -15t0.5 -17q1 -19 1 -24q0 -10 -4 -13q-6 -3 -22 -2q-17 1 -22 -2q-8 -4 -12 -4q-1 0 -13 3q-4 2 -42 3q-33 0 -39 -3q-4 -2 -10 -2t-10 2q-5 3 -22 3q-16 0 -25 -3q-6 -3 -16 -3
q-9 0 -13 3q-8 3 -49.5 3t-54.5 -4q-9 -3 -12 -3t-10 2q-8 3 -22 5q-12 1 -22 7t-20 11q-11 6 -13 9q-4 4 -4 11q0 5 2 11q2 8 -1 14q-2 10 -2 20q0 13 5 24q5 13 14 18q10 6 18 17q13 13 17 15t29 25q22 22 28 25t16 13q6 6 12 15q2 6 6 6q6 3 17 14q4 3 11 8.5t8 6.5
q5 2 6 9q2 6 12 14q11 9 14 15q5 9 8 9q9 4 11 6q9 6 10 12q3 7 7 10q5 2 7 6q1 3 7 13q7 8 12 11q6 3 12 11q6 6 8 16t5 10q2 1 8 7q1 1 5 5.5t6 6.5q6 10 6 19q0 3 0.5 9.5t0.5 7.5q1 7 7 10t7 13q0 6 3 15q3 4 3 20q0 3 -0.5 17t-0.5 21q-1 18 -2.5 23t-12.5 15
q-13 14 -18 24q-4 8 -11 14q-9 6 -10 7q-4 4 -12 6q-5 0 -14 3q-4 2 -40 2q-35 0 -39 -5q-3 -5 -17 -7q-13 -2 -19 -8q-7 -7 -10 -9q-6 -5 -10 -12q-3 -8 -11 -23q-8 -16 -9 -29q-2 -14 -5 -21t-8 -9l-6 -1h-11q-13 0 -22 -5q-8 -4 -20 -2q-15 3 -26 8q-14 6 -17 6t-6 3
q-3 4 -3 13q0 11 3 19q4 8 4 22q0 13 2 19q2 7 8 12q7 6 10 20t11 21q7 6 17 19q10 12 24 18q13 5 19 11q16 11 22 14q17 8 38 9q23 2 25 4q5 3 37 3q34 2 37 3z" />
    <glyph glyph-name="uni0033" unicode="3" 
d="M263 767q4 2 11 2q3 0 12 -3q1 0 7 -2l9 -3q14 -4 20 -4q5 0 14 3q12 3 13 3q6 0 15 -6q8 -6 23 -7q5 0 11 -1t7 -1l3 -2l3 -3q3 -3 13 -7q10 -2 16 -8q7 -5 16 -7l6 -2t4 -1l9 -5q8 -1 11 -5q2 -2 8 -14q6 -11 11 -14q3 -1 8 -12q3 -9 5 -21q1 -11 7 -17q5 -8 7 -16
q0 -6 4 -20q4 -12 3 -23q-2 -15 -4 -18q-3 -8 -2 -18q0 -6 3 -18q2 -7 -1 -12q-4 -4 -8 -12q-1 -2 -4 -8.5t-4 -9.5q-7 -17 -7 -18q-2 -6 -4 -8t-8 -3q-2 -1 -6.5 -3t-5.5 -2q-3 -3 -11 -9q-4 -3 -13 -12q-6 -6 -12 -8t-8 -4q-5 -5 -6 -8q-2 -4 -2 -8t2 -6q3 -2 7 -4
q4 0 12 -6q6 -6 14 -7q10 -1 21 -10q12 -10 12 -11q2 -4 6 -5q6 -4 12 -10q7 -5 9 -11q2 -4 2 -8q0 -5 6 -16q5 -13 7 -22q2 -13 5 -19q2 -8 2 -18q0 -6 3 -15q2 -4 2 -10q0 -7 -2 -10q-1 -2 -3 -20q0 -16 -7 -29t-7 -20q0 -11 -1 -14q-3 -9 -5 -14q-4 -10 -9 -15l-23 -23
l-18 -18q-2 0 -11 -7q-11 -9 -18 -13q-7 -3 -12 -8q-12 -6 -15 -7q-8 -4 -23 -9q-7 -2 -22 -8q-9 -3 -19 -3q-11 0 -23 -3q-9 -2 -18 -2q-5 0 -17 1q-25 2 -28 3q-7 1 -15 -2l-9 -2h-3q-5 0 -13 4l-16 4q-10 3 -19 4q-15 2 -18 4q-12 3 -18 3q-10 1 -14 6q-6 6 -19 14
q-19 12 -21 14q-5 3 -8 8q-5 6 -7 6q-4 3 -13 19q-10 18 -15 22q-6 4 -7 14q-1 6 -5.5 15t-9.5 15q-5 11 -5 16q0 4 2 12l6 18q1 8 13 16q9 8 18 10q3 1 20 -1q3 -1 13 -2.5t13 -1.5q10 0 16 -3q4 -2 7 -12q3 -8 8 -16q5 -5 10 -17q9 -16 11 -17q4 -6 7 -12q5 -9 14 -14
l17 -13q6 -5 16 -7q12 -2 20 -6q10 -4 22 -2t25 2q12 0 18 2q3 3 15 3q10 0 13 3q2 2 10 6q9 5 16 6q7 0 17 6q10 5 17 15q9 13 12 21l2 9l3 15q2 15 5 18q4 4 6 8t2 9q0 3 -6 17q-7 11 -7 21q-2 12 -6 16l-6 12q-6 9 -11 13q-10 10 -13 14q-4 6 -18 14q-15 7 -26 7
q-13 1 -18 5t-14 3q-7 -1 -15 1t-11 5q-1 1 -4.5 3.5t-5.5 4.5q-4 4 -12 10q-9 6 -14 17q-6 13 -6 23t6 20q7 11 8 16q3 7 9 8q6 2 20 2q13 0 19 3q8 3 22 4q16 0 24 4l12 3q6 2 14 10q11 9 15 10q4 0 7 3t3 12q2 11 5 14q5 5 6 8q3 5 3 30q1 13 1 18q0 10 -4 18q-3 7 -3 13
q0 2 -2 10q-4 8 -11 12q-8 6 -9 12q-2 8 -3 8q-2 3 -15 9q-16 7 -20 7q-9 2 -15 6q-8 4 -25 4q-20 0 -24 -1q-5 -1 -16 2q-5 2 -13 2q-9 -5 -11 -6q-13 -7 -15 -7q-8 -1 -18 -11q-11 -11 -14 -19q-6 -10 -6 -19q-2 -8 -4 -13q-1 -1 -4 -5.5t-5 -6.5q-4 -7 -10 -13
q-4 -1 -11 -8q-4 -5 -10 -8q-3 -1 -16 -1q-11 0 -16 -3t-13 -3t-12 3q-3 2 -13 8q-8 5 -16 18q-7 13 -7 21q0 9 3 12q2 3 4 17q0 12 4 17q2 6 8 14q6 10 10 12t6 7q3 6 9 15q5 10 13 15l18 12q12 10 14 13q3 4 14 7q10 2 15 7q2 1 5 3.5t4 2.5q1 1 19 3q15 0 25 4q5 1 20 6
q3 1 9 3.5t7 2.5z" />
    <glyph glyph-name="uni0034" unicode="4" horiz-adv-x="577" 
d="M348 562q-3 3 -8 3t-9 -2q-4 -4 -4 -6q0 -3 -6 -9q-4 -6 -7 -11q0 -2 -14 -22q-12 -19 -14 -25q0 -3 -5 -13q-3 -7 -10 -11q-6 -4 -12 -14q-5 -10 -7 -16q0 -5 -17 -24q-17 -20 -25 -37q-8 -15 -13 -22q-4 -4 -14 -24q-10 -19 -15 -22q-4 -3 -6 -9q0 -1 -1 -4.5t-2 -5.5
q-3 -6 -12 -12q-10 -6 -12 -13q-1 -2 -1 -5.5t1 -4.5q2 -5 14 -4q14 1 19 -1q6 -4 15 -4q10 0 14 3q4 1 14 1q8 -2 26 -2q18 -1 23 2q9 3 25 3q5 0 17 0.5t16 1.5q3 0 9 0.5t7 0.5q4 2 7 10q4 9 2 19q-2 5 -2 19v21v20q0 5 2 42q2 30 4 44q3 9 3 24t-3 21q-3 7 -3 24t3 23
q4 6 4 21v8q0 8 -3 12zM382 717l4 1h6q9 0 21 -5q8 -3 20 -5q4 0 10 -3q2 -2 4 -11q0 -9 4 -15q2 -5 2 -26q1 -14 -1 -31q-2 -12 2 -21q3 -5 6 -14q0 -9 -3 -24q-3 -18 -3 -42q-1 -25 -5 -35q-5 -10 -5 -25q0 -12 2 -30q0 -14 3 -20q4 -6 4 -15q2 -11 5 -18q2 -5 2 -17
q-2 -11 -4 -14t-2 -19q0 -12 2 -20q3 -4 3 -11t-3 -11t2 -20q6 -15 9 -16q5 -2 21 0q20 2 27 1q12 0 20 -5q8 -3 11 -6q3 -5 7 -17t4 -24q0 -13 -1 -16q0 -5 -5 -10q-4 -4 -10 -8q-4 -3 -14 -3q-8 0 -14 2q-4 3 -11 3q-3 0 -9 -4q-3 -5 -16 -6q-10 -1 -15 -4q-2 -4 -2 -14
q0 -23 1 -39q0 -23 3 -32q2 -6 2 -12q0 -9 -3 -12q0 -1 -1.5 -5t-2.5 -6v-18q0 -12 -4 -21q-3 -9 -10 -12q-5 -3 -20 -9q-13 -4 -17 -4h-2q-6 3 -8 6q-2 4 -7 6q-1 0 -6.5 1.5t-8.5 2.5q-7 2 -19 5q-5 1 -13 9q-7 7 -7 17q0 11 3 15q3 7 3 52q0 35 -0.5 41.5t-4.5 13.5
q-6 11 -9 13q-5 3 -18 5q-10 1 -24 1h-13q-8 0 -21.5 -0.5t-16.5 -0.5q-16 0 -22 1q-18 0 -27 -1q-22 -2 -26 -4q-9 -3 -17 0q-9 3 -25 3q-17 0 -28 -4q-12 -3 -19 -2q-10 0 -17 5q-6 3 -10 7q-1 1 -8 15q-5 13 -6 31q-2 22 -2 28t2 20q1 11 6 20q8 10 9 11q5 2 10 13l5 15
q0 4 5 9q5 3 7 10q1 4 1 12q0 4 4 10q3 5 10 7q6 2 8 6q0 1 2 5.5t3 6.5q1 5 6 10q8 8 12 13q2 3 5.5 9.5t4.5 7.5q1 7 8 11q7 5 7 8q2 4 2 9q2 7 16 20q14 15 15 22q2 8 6 11q4 4 4 7t4 7q7 7 12 11q8 8 13 18q2 4 6 10l3 6q3 3 5 11q1 3 8 17q10 15 15 19q11 13 12 16
q6 7 9 16q3 7 9 13q5 3 7 9q3 4 5 13q4 10 6 11q1 0 8 10q4 9 11 12q4 5 12 7t28 2q22 0 22 1z" />
    <glyph glyph-name="uni0035" unicode="5" horiz-adv-x="613" 
d="M264 743q6 4 11 4t11 -2t30 -2t31 -3q5 -3 14 -3t16 3q8 4 17 3q9 0 15 -4q6 -2 15 -2t13 2q5 3 10 3l12 -3q8 -3 20 1q13 4 23 3q11 0 14 -4q4 -3 4 -25q0 -24 -2 -30q-3 -7 -3 -13q0 -3 -2 -9q-6 -6 -10 -9q-6 -4 -18 -6q-10 -2 -15 -4q-4 -2 -9 -2t-10 3q-4 2 -15 4
q-2 0 -9 1t-9 2q-6 0 -16 2q-9 0 -13 -2q-3 -2 -25 -2q-4 0 -14.5 0.5t-12.5 1.5q-5 1 -15 -2q-10 -2 -25 -2h-19q-33 1 -40 4l-12 3q-4 0 -10 -3q-6 -4 -10 -8q-7 -13 -8 -18q-3 -11 -2 -21q0 -11 -2 -14q-2 -4 -2 -38v-17q0 -15 -2 -22q-3 -9 -3 -23q-1 -17 3 -26
q4 -10 8 -11q4 -3 18 4q15 7 21 12q6 4 25 7q5 1 25 6q6 3 18 3h14q25 -1 29 3q5 3 9 3t22 -4q16 -5 33 -7q4 -1 12.5 -2.5t10.5 -2.5q5 -3 9 -3t6 -5q5 -7 8 -8q9 -6 14 -11q2 -2 14 -10q11 -7 12 -8q5 -5 12 -7q7 -3 9 -12q2 -8 6 -19q2 -4 9 -15q6 -5 7 -18q1 -14 7 -22
t7 -24q2 -21 4 -24q3 -12 3 -16q0 -5 -3 -17q-3 -6 -3 -14q0 -3 0.5 -9.5t0.5 -8.5q2 -8 -3 -20q-5 -9 -6 -28q-1 -18 -7 -24q-4 -4 -6 -10q0 -1 -0.5 -5.5t-0.5 -7.5q-1 -11 -7 -19q-5 -6 -8 -15q0 -7 -6 -8q-6 -6 -9 -10l-9 -15q-6 -9 -13 -12q-7 -2 -7 -5q-3 -3 -15 -10
q-10 -4 -23 -14q-8 -9 -13 -10q-2 -1 -8 -1q-4 0 -10 -4q-6 -3 -13 -3q-6 0 -14 -4t-27 -3q-20 0 -26 -5q-6 -4 -10 -4t-12 4q-1 0 -5.5 1.5t-5.5 1.5q-6 0 -12 -3q-10 -2 -21 -2q-3 0 -8.5 0.5t-6.5 0.5q-4 1 -10 7t-11 6t-13 2q-4 2 -20 6q-14 2 -15 2q-3 0 -8 7
q-13 10 -15 11t-8 5t-8 6q-7 4 -12 9q-4 2 -8 8q-8 8 -13 12q-6 4 -7 6.5t-1 9.5q0 9 -5 13q-5 5 -6 11q-2 5 -5 15q-2 5 -5 14q-1 2 -4 10q0 3 -6 13q-4 10 -3 14q3 5 7 8q5 4 23 5h13.5h16.5h16q26 0 32 -2t8 -6q1 -2 8 -9q4 -4 8 -14q1 -7 6 -16q3 -7 19 -25
q11 -12 14.5 -14t11.5 -3q12 -2 24 -8q7 -4 19 -8q6 -2 15 0q9 1 16 10q12 10 13 10q6 2 23 2q13 0 17 2t15 13q14 14 18 20q1 4 8 9q9 6 10 7q6 4 9 14q4 10 6 27q1 14 1 26v10q0 19 2 23q3 6 3 16q0 14 -4 23q-6 17 -6 18q-1 7 -9 13q-7 6 -7 12q0 5 -2 11l-7 11
q-11 8 -17 10q-9 6 -15 6q-4 0 -8 4q-2 2 -5 4t-4 3q-6 2 -21 2q-3 0 -11 -0.5t-10 -1.5q-8 -2 -9 -2q-2 0 -8 4q-5 5 -9 5q-1 0 -6 -1.5t-7 -1.5q-8 -3 -17 -5q-1 -1 -15 -4q-6 0 -9 -3q0 -1 -1.5 -4t-1.5 -4q-4 -9 -8 -11q-7 -5 -8 -7q-4 -8 -10 -15q-4 -6 -13 -21
q-2 -3 -6 -8q-2 -4 -3 -5q-5 -5 -17 -8q-12 -5 -31 -5q-18 0 -31 6q-11 4 -18 14q-7 11 -8 15q-2 5 0 10q0 1 0.5 27.5t1.5 49.5q2 81 2 84q0 10 2 16q3 6 3 15q-1 6 -4 18q-3 6 -3 27q1 19 4 24q3 4 3 11q0 4 -3 9q-2 4 -2 10t3 11q2 6 2 21v18q0 32 4 37l2 4l1 2
q0 2 10 10q14 9 17 10q7 1 32 1h27q52 0 60 -4q4 -2 10 -2q6 2 10 6z" />
    <glyph glyph-name="uni0036" unicode="6" horiz-adv-x="598" 
d="M332 398q-22 0 -28 2h-4q-3 0 -9 -3q-6 -4 -13 -6q-6 0 -14 -6q-8 -5 -14 -5q-3 0 -9 -2q-4 -2 -9 -9q-4 -7 -11 -11q-6 -4 -13 -16q-3 -7 -10 -14q-5 -2 -5 -5q-1 -2 -1.5 -7t-0.5 -7q0 -7 -5 -17q-2 -6 -2 -10q0 -3 1 -12q1 -13 4 -23q3 -9 2 -16t2 -19q5 -15 5 -25
q1 -12 7 -18q6 -7 7 -15q0 -4 5 -17q3 -8 9 -14q7 -7 9 -8l5 -1q4 -1 7 -1q12 -2 13 -3q3 -3 6 -9q5 -7 6 -7q2 -2 17 -2q16 -2 21 -4q6 -3 19 -3q12 0 24 6q12 7 15 7q4 0 8 3q6 1 6 4q0 2 9 6q7 5 10 12q3 8 9 10l8 3q2 1 6 9q4 6 4 15l4 16q2 6 2 11q0 3 4 15q3 7 3 20
q0 12 3 19q2 8 2 13q0 4 -2 10q0 1 -2.5 9t-3.5 13q-4 18 -4 20t-2 8q-2 5 -4 11q0 3 -5 11l-7 11q-1 3 -10 10q-6 3 -15 12q-5 5 -14 11q-8 6 -10 8q-1 1 -4.5 3.5t-4.5 3.5q-6 3 -26 3zM310 763q3 1 27 1q22 -1 27 -4q9 -3 21 -3q16 -1 29 -9q18 -9 22 -10q10 -2 16 -7
q5 -3 14 -9q4 -4 12 -8q6 -3 11 -11q2 -4 7 -9q2 0 10 -6q7 -3 10 -10q0 -2 1 -6t1 -5q2 -6 6 -7q5 -4 6 -11q2 -10 2 -11t2 -6.5t3 -8.5q4 -9 7 -19q2 -8 0 -15q-1 -7 -9 -18q-8 -8 -12 -14q-3 -4 -12 -3q-6 0 -36 2q-21 1 -25.5 1.5t-8.5 5.5l-12 8q-5 2 -12 13
q-2 4 -5.5 11.5t-4.5 9.5q-6 10 -6 16q-2 9 -6 15q-3 7 -13 14q-6 5 -15 8q-12 3 -16 3q-5 1 -14 4q-4 2 -8 2q-3 1 -21 1q-16 -1 -22 -7q-9 -6 -18 -7q-11 -1 -16 -6q-4 -3 -20 -19q-12 -12 -22 -28q-11 -18 -12 -19q-4 -4 -6 -12q-2 -9 -5 -13q-2 -7 -4 -20q-1 -13 -6 -21
q-5 -6 -6 -28q-1 -21 -4 -27q-4 -8 -4 -19q-1 -10 1 -17q2 -4 8 -6q5 -3 10 -1q6 3 9 6q12 8 16 10q11 7 17 18q4 7 6.5 9t12.5 7q13 5 17 5t9 7q6 6 12 5q6 -2 12 -2q6 -1 17 2q12 4 18 7q7 2 19 1q4 -1 9 -2t6 -1q2 -2 21 -2q18 0 35 -6q15 -6 20 -9q6 -6 15 -9
q5 -2 14 -5q6 0 9 -1q4 -2 7 -10q2 -7 15 -21q10 -9 17 -20q4 -7 9 -11q5 -1 7 -9q0 -1 7 -20q7 -12 7 -19q0 -8 3 -12q3 -5 4 -24q0 -14 4 -28q3 -12 3 -43t-3 -43q-3 -7 -5 -24q0 -16 -6 -24q-6 -11 -8 -22q-1 -7 -7 -22q-2 -3 -6 -12q-1 -3 -2 -4q-1 -6 -6 -11
q-5 -1 -14 -11q-3 -3 -10 -9.5t-9 -8.5q-11 -14 -13 -17q-6 -8 -8 -9q-3 0 -8 -5q-1 -1 -4 -2.5t-4 -2.5q-3 0 -19 -4q-15 -1 -21 -6q-2 -3 -11 -6q-8 -2 -20 -2q-13 0 -17 -3q-4 -2 -9 -2q-8 0 -13 2q-6 2 -15 -2q-6 -4 -13 -4q-3 0 -11 1q-13 0 -22 3q-9 2 -14 6
q-2 1 -7 4t-7 4q-6 5 -13 3q-2 0 -6 -0.5t-5 -0.5q-6 2 -11 7q-6 6 -24 13q-15 5 -26 11q-2 1 -7 5.5t-7 6.5q-10 8 -12 9q-4 2 -5 9q-4 10 -10 17q-11 14 -12 15q-3 4 -5 13q-4 12 -7 19q-4 12 -9 16q-2 2 -8 10q-3 11 -4 20q-1 14 -7 22q-5 8 -4 16q0 3 2 41q0 35 -2 43
q-1 2 -3 9t-3 10q-4 8 -4 15q0 8 3 16q2 8 2 20q0 11 2 21t-1 24q-2 13 -4 17t-2 10q0 7 2 11q2 5 4 16q2 7 2 22q-1 12 4 21q6 12 9 15q4 5 5 25t6 29q5 13 8 23q3 13 8 18q4 7 7 13q1 3 6 16q4 9 7 10q1 0 8 10q4 8 9 9q7 2 11 5q5 5 6 8q4 7 7 8q6 4 7 7q1 2 6 15
q4 11 8 12q2 1 17 1q16 2 24 4q12 4 21 4q11 0 17 5q5 5 11 7q3 1 14 1q7 0 13 2z" />
    <glyph glyph-name="uni0037" unicode="7" horiz-adv-x="537" 
d="M71 744h8h8h7q11 0 17 -3q7 -4 63 -4q58 0 64 -3t32 -3q38 0 54 1q38 0 50 -1q19 -2 31 -4q4 -2 23 -4q11 -1 26 -9q14 -8 15 -12q2 -4 2 -12q0 -10 3 -21q2 -8 2 -15q0 -5 -1 -17q-5 -29 -7 -33q-6 -22 -6 -25q0 -11 -6 -21q-5 -12 -6 -17q-3 -12 -7 -24q-6 -17 -9 -22
q-3 -6 -13 -24q-9 -18 -11 -24q-2 -8 -2 -14q-1 -6 -9 -12q-8 -7 -10 -18q-2 -13 -7 -21q-3 -5 -8 -20q-1 -8 -5 -15q-2 -2 -14 -26q-13 -32 -17 -43q-2 -6 -5.5 -17.5t-3.5 -13.5q-4 -10 -4 -13t-8 -21q-2 -4 -7 -12.5t-6 -10.5q-4 -4 -8 -16q-4 -11 -9 -17q-5 -9 -9 -25
q-3 -16 -7 -20l-2 -4q-2 -3 -3 -5q-3 -6 -3 -17q0 -8 -2 -16q-2 -5 -5 -10q-4 -4 -5 -17l-2 -14q-4 -5 -9 -10q-7 -7 -13 -8t-34 -2q-38 0 -44 1q-2 1 -7.5 3t-7.5 3q-8 4 -9 10v27q0 21 6 26q4 3 8 14q6 15 7 17q5 10 5 12q1 4 6 11q4 4 8 16q5 14 10 26q1 3 5 13t5 13
q3 12 7 19q0 1 3.5 6.5t4.5 8.5l9 21q5 13 7 24q1 3 2 8l1 4q2 2 6 8t10 19q2 8 6 20q2 4 14 30l12 24q0 5 4 13q1 2 3.5 9t3.5 10q2 8 10 25q9 20 9 27q2 8 6 17q1 5 8 19l9 18q5 7 6 7q3 3 6 10q2 8 8 23l11 21q5 5 7 11q3 5 1 10q0 3 -5 11q-4 5 -10 5t-12 -2
q-8 -1 -19 2q-12 4 -20 4q-9 0 -17 3q-10 3 -74 3q-37 1 -88 1q-23 0 -26 2q-4 2 -7 5q-8 4 -13 5q-12 2 -14 2q-6 3 -9 6q-6 4 -8 10q-3 4 -3 31q0 25 2 29q1 3 12 8q15 5 23 6z" />
    <glyph glyph-name="uni0038" unicode="8" horiz-adv-x="584" 
d="M296 343q-5 2 -30 4q-9 1 -16.5 1t-9.5 -1q-5 0 -9 -4q-3 -4 -13 -6q-8 -2 -17 -6q-8 -4 -18 -14q-12 -12 -18 -25q-6 -11 -8 -25q-1 -8 -9 -24q-7 -13 -7 -21q0 -7 3 -13q3 -11 4 -20q0 -4 1 -8t2 -9t1 -7q3 -7 3 -16q0 -7 7 -15q7 -7 13 -15q2 -2 17 -15q13 -7 24 -11
q15 -4 22 -10q12 -7 14 -9q3 -1 6 -1t14 2q14 4 29 2q14 -2 25 0q13 2 21 5t16 8q9 6 13 8q9 6 10 7q4 4 9 12q6 11 9 12q3 2 11 19q2 4 13 29q4 15 4 35q0 23 -4 36q0 1 -3 11t-4 14q-3 12 -8 15q-5 2 -8 11q-3 8 -13 10q-9 2 -19 10q-10 7 -17 9q-10 3 -23 4q-15 2 -23 5
q-10 5 -14 6zM288 678q-6 3 -18 3q-11 0 -17 -2t-13 -6q-5 -3 -15 -5q-12 -2 -19 -6q-11 -7 -15 -12q-4 -3 -9 -13q-2 -7 -10 -15q-6 -6 -12 -16q-4 -9 -6 -27q-4 -21 -2 -30q2 -14 6 -20q4 -10 9 -15q4 -4 6 -10t14 -23q14 -18 28 -26q15 -7 21 -9q2 0 9 -2t10 -3
q7 -2 19 -6q5 -2 17 0t20 1q8 -2 18 1q3 1 17 8q7 5 14 14q9 11 10 17q4 8 10 10q6 3 9 6q2 2 8 14q5 10 7 12q2 0 5 7q3 8 3 35q0 22 -1 27.5t-6 16.5q-8 18 -9 20q0 2 -8 12q-6 8 -10 14q-3 6 -11 12q-10 6 -13 6q-9 3 -13 5q-9 3 -26 3q-21 0 -27 2zM301 761q8 3 12 3
q3 0 13 -2q6 -3 28 -5q20 -1 41 -9q27 -11 28 -12q2 -1 16 -7q10 -3 14 -9q6 -9 10 -11q6 -3 9 -6q3 -1 16 -12q11 -11 12 -18q3 -8 7 -25q7 -21 13 -32t7 -15.5t1 -21.5v-11q0 -12 -3 -21q-1 -3 -3.5 -12.5t-3.5 -13.5t-4.5 -13t-4.5 -12q-7 -15 -14 -24q-13 -18 -17 -25
q-5 -8 -7.5 -10.5t-9.5 -3.5q-10 -3 -20 -12q-12 -10 -13 -14q-3 -5 -1 -12t9 -12q5 -7 12 -9q5 -1 12 -8q6 -7 15 -9q10 -4 15 -9q2 -1 4.5 -3.5t5.5 -6t5 -5.5q8 -10 9 -18q1 -5 7 -17q1 -1 11 -18q4 -11 4 -35q0 -7 1.5 -24.5t1.5 -23.5q2 -26 2 -32q0 -8 -6 -20
q-2 -3 -5 -10.5t-4 -9.5q-1 -3 -3 -9.5t-2 -7.5q-1 -5 -7 -14q-7 -7 -15 -20l-10 -14q-2 0 -9 -7q-7 -5 -12 -8q-8 -4 -18 -14q-13 -12 -20 -14q-3 0 -18 -5q-13 -4 -18 -7q-2 -1 -6 -2.5t-5 -1.5q-5 -2 -16 0q-12 1 -24 -1q-11 -3 -30 -5q-18 -2 -32 -2q-15 0 -21 -2
q-10 0 -17 2q-15 3 -18 3q-10 0 -19 3q-14 5 -23 6q-6 2 -21 5q-10 2 -17 7q-13 8 -14 8q-7 2 -12 5q-3 2 -12 13q-5 8 -9 12l-9 9q-7 7 -16 23q-9 13 -14 24q-3 7 -7 11q-2 2 -6 8q-2 6 -2 16q0 11 -3 17q-2 5 -2 20q3 19 4 22q1 9 -1 16q-3 6 -3 13q0 6 2 12q3 3 5 15
q2 10 4 17q2 6 6 10q5 8 11 21l8 18l4 10q4 9 11 11q8 4 14 10q9 9 13 11q2 1 17 13q10 10 10 16t-2 8q-1 1 -3.5 4.5t-3.5 4.5q-6 8 -14 11q-10 5 -24 19q-16 18 -24 29q-11 17 -12 22l-4 16q-3 15 -4 22q-3 11 -1 30q0 13 3 25q3 6 3 23t8 36q6 18 12 26q2 4 7 9q3 3 6 9
q6 8 8 10q9 6 14 10l26 13q18 10 20 11q5 5 9 6q5 3 24 9q14 5 21.5 5.5t38.5 0.5q38 0 49 4z" />
    <glyph glyph-name="uni0039" unicode="9" horiz-adv-x="600" 
d="M310 658q-15 3 -29 3h-22l-5 -2q-4 -2 -7 -4q-11 -6 -18 -7l-12 -4q-1 -1 -5.5 -4.5t-7.5 -6.5q-7 -7 -17 -21q-3 -4 -7 -10l-3 -6q-1 -2 -3 -18q-2 -15 -6 -23q-5 -10 -6 -48q-1 -17 -1 -29t1 -15q2 -6 6 -10t7 -18q2 -14 6 -18q1 -1 4 -5.5t4 -5.5q2 -2 7 -8t6 -8
q8 -7 14 -16q5 -9 18 -15q13 -7 30 -9q16 0 26 -4q9 -4 24 -4q13 0 22 4q8 3 18 13q12 10 16 11q6 1 10 7q6 8 13 17q10 11 14 25q3 8 7 20q0 1 2.5 7.5t3.5 9.5q2 7 2 10.5t-2 8.5q-1 9 1 18q1 7 1 10t-1 9q-2 5 -4 26q-1 13 -8 30q-6 16 -6 18q0 4 -4 12t-11 15
q-10 10 -13 14q-5 6 -12 11q-1 1 -16 10q-12 6 -19 6q-12 3 -18 4zM219 755q4 2 19 2q14 -2 62 -2q36 -1 43.5 -1.5t15.5 -4.5l15 -10q2 -2 5.5 -4.5t4.5 -3.5t11 -4q12 -3 18 -4q11 -3 15 -7q2 -4 10 -6q7 -4 19 -12q11 -9 14 -15q4 -7 14 -16q11 -9 13 -13t2 -9
q0 -7 10 -25q8 -15 9.5 -20t1.5 -19q0 -15 0.5 -18t4.5 -7q5 -4 8 -15q2 -9 4 -19q3 -6 7 -28q3 -20 4 -60q1 -23 1 -54q0 -10 -2 -40q-1 -26 -4 -33q-3 -4 -3 -14q0 -3 1 -20q1 -16 1 -21q0 -9 -4 -18q-5 -10 -6 -29t-7 -31q-3 -7 -12 -22q-6 -8 -7 -20q-3 -12 -8 -18
l-10 -14q-3 -8 -13 -18q-4 -3 -22 -24q-12 -14 -13 -15q0 -1 -14 -9q-10 -6 -24 -15q-9 -8 -20 -11q-9 -2 -18 -6l-20 -4q-11 -2 -22 -6q-15 -3 -19 -3q-12 0 -24 3q-10 1 -29 6q-14 2 -18 2q-3 -1 -16 1q-3 1 -17 4q-8 3 -10 5q-3 3 -17 7q-9 4 -27 6q-11 1 -19 4
q-4 1 -11 10t-8 13q-4 5 -9 18l-8 16q-3 1 -12 20q-8 18 -8 20q0 3 -4 11q-4 10 -3 25q0 16 4 23q1 3 12 16q7 8 10.5 9t17.5 1q20 0 26 -3q5 -4 18 -8q11 -4 16 -7q4 -2 7 -11q2 -9 6 -13q3 -5 7 -14t9 -18q7 -10 10 -15q6 -8 12 -14q7 -8 15 -10q9 -3 25 -3q12 0 32 -4
q12 -3 20 -3q7 0 16 3t13 9q4 7 15 9t15 5q5 4 11 15q3 6 12 18q7 9 10 16q3 6 3 10q0 3 7 13q2 3 5.5 9t3.5 7q2 6 2 11q0 7 3 14q1 3 3 11.5t3 10.5l4 28q0 18 -2 25q-2 9 -6 11q-3 3 -7 3l-4 -3q-4 -3 -6 -5q-4 -4 -13 -10l-14 -10q-5 -7 -12 -7q-6 -2 -14 -6
q-8 -5 -19 -7q-14 -2 -15 -3q-9 -3 -19 -3q-19 -3 -28 -5q-16 -3 -24 0q-10 2 -24 4q-16 1 -29 7q-11 7 -20 7q-7 1 -13 7t-20 13q-17 7 -23 9q-4 2 -9 6q-2 5 -4 11q-1 6 -11 17l-10 11l-8 16q-11 19 -13 25l-7 21q-1 4 -4 12t-4 10q-4 8 -6 24q-2 17 -1 21q0 26 1 48
q0 42 2 48q0 7 6 19q5 10 7 22q5 16 10 24q6 12 10 24q3 10 18 25q14 16 26 23q12 6 17 11q6 6 18 13q13 8 24 9q14 2 16 2q4 2 8 5q4 4 8 6z" />
    <glyph glyph-name="uni003A" unicode=":" horiz-adv-x="326" 
d="M133 141q14 5 26 5t20 -2q6 -3 11 -3q3 0 15 -5q11 -6 14 -11q2 -6 2 -10q0 -7 3 -14q4 -12 4 -16l-3 -15q-4 -10 -4 -19q-2 -10 -4 -12q-3 -6 -5 -8q-3 -3 -11 -7q-5 -2 -41 -2t-39 2q-1 0 -10 9q-2 3 -10 16q-4 8 -4 15q0 1 3 16q3 8 2 20q-3 10 -1 14q0 1 10 13
q9 9 22 14zM129 519q7 2 13 2h6q6 -1 18 -1q11 0 17 1q9 0 21 -6q11 -5 14 -10q3 -6 3 -46q0 -39 -2 -45q-3 -5 -9 -8q-6 -4 -40 -5q-22 -1 -27 -1q-8 0 -16 3t-13 8q-4 7 -7 13q-3 15 -4 24q-3 20 -3 22q-3 7 1 19q5 11 13 19q7 9 15 11z" />
    <glyph glyph-name="uni003B" unicode=";" horiz-adv-x="276" 
d="M133 130q12 4 17 4q7 0 15 -2q9 -3 19 0q9 3 16 1q4 0 15 -9q8 -8 8 -15q0 -8 -4 -15q-4 -8 -4 -17q0 -6 -3 -15l-10 -15q-6 -10 -8 -10q-1 0 -5 -4q-2 -4 -4 -22q-1 -10 -1.5 -13t-1.5 -5t-5 -4q-7 -3 -9 -8q-1 -1 -2 -5t-1 -5q-2 -9 -7 -20q-4 -14 -11 -28t-9 -22
q-4 -9 -6 -10q-13 -6 -17 -8q-13 -5 -21 -5q-10 0 -23 5q-15 5 -18 9q-4 7 -4 18q0 6 3 14q3 9 3 14q0 3 4 9q4 4 4 11q0 1 2 7.5t3 9.5q0 3 3.5 16.5t5.5 21.5q8 30 10 34q3 8 3 14q0 7 2 13q2 8 6 12q5 5 5 16q2 13 4 15q2 5 9 7q9 4 17 6zM189 533q9 3 12 3q7 0 11 -2
q6 -3 7 -7q4 -4 4 -32q0 -27 2 -43q1 -12 2 -18.5t1 -7.5q0 -4 -1 -8q-2 -5 -4 -5q-3 0 -11 -10q-9 -9 -19 -12q-8 -2 -15 -2q-5 0 -17 2q-10 2 -18 1q-7 -1 -13 0q-7 2 -12 5q-5 4 -9 9q-4 6 -4 12l-1 6q-2 5 -3 7q-2 6 -2 15q0 8 2 12t4 14q4 11 2 21q0 9 5 14t7 5
q3 0 3 2q1 3 6 5q6 3 25 3q21 0 25 3q6 2 6 4q0 1 5 4z" />
    <glyph glyph-name="uni003C" unicode="&#x3c;" horiz-adv-x="683" 
d="M570 652q3 1 19 1t20 -2q6 -2 8 -6q3 -4 3 -15q0 -12 -6 -17q-6 -6 -8 -13q-1 -2 -3 -8.5t-3 -8.5q-2 -7 -4 -9t-12 -6q-14 -4 -20 -4q-7 0 -11 -4t-4 -5q0 -2 -10 -7q-11 -7 -16 -9q-4 -3 -9 -3q-3 0 -11 -6q-6 -5 -18 -8q-8 -1 -16 -7q-6 -6 -17 -7q-7 -1 -10 -2.5
t-11 -9.5q-2 -2 -7.5 -6.5t-6.5 -5.5t-13 -3q-9 -1 -18 -9q-5 -5 -18 -13q-10 -5 -18 -5q-10 0 -16 -6q-7 -7 -16 -8q-10 -2 -11 -2q-5 -2 -6 -6q-3 -5 -5 -5q-1 0 -17 -10q-17 -10 -22 -10q-1 0 -6 -1t-7 -2t-10 -6q-5 -5 -13 -8q-12 -6 -17 -7q-8 -3 -14 -9
q-4 -4 -3.5 -6.5t10.5 -12.5q13 -13 19 -16t14 -5q7 0 11 -2q5 0 8 -5q6 -4 20 -11q16 -8 20 -12t9 -4q7 0 10 -1q7 -2 19 -14t21 -13q10 -1 22 -10q14 -10 18 -11q4 0 34 -15q31 -16 38 -21q8 -6 10 -6t22 -13q26 -13 27 -13t4 -1q7 -3 10 -4q13 -5 16 -6q6 -2 17 -8
q11 -7 20 -11q10 -3 10 -5t6 -4q4 -2 13 -13l5 -7q5 -8 6 -11q6 -8 9 -11q5 -5 5 -10q1 -2 1 -5q0 -6 -2 -9q-1 -8 -10 -16q-11 -9 -15 -10q-12 -3 -16 -3q-7 0 -17 4q-5 3 -14 6q-5 1 -9 8t-19 14q-14 6 -20 12q-7 7 -12 7q-8 0 -11 1q-5 2 -12 7t-12 5t-11 2q-7 3 -12 10
q-6 8 -12 9q-4 1 -11 6q-4 4 -10 8q-5 4 -15 4q-9 0 -10 1q-3 3 -6 9q-4 9 -13 14t-16 7q-12 4 -20 7q-12 7 -19 7q-9 3 -13 4l-16 4q-8 3 -10 9q-4 6 -9 11q-6 4 -8 4q-3 0 -15 7q-10 5 -17 11q-5 5 -16 7q-12 1 -17 6q-3 2 -9 5q-2 0 -12 2q-9 1 -11 6q-2 4 -8 8
q-5 6 -10 13q-7 9 -9 10q-2 2 -6 2q-5 0 -16 6q-14 6 -17 9q-5 4 -14 7q-10 4 -19 12q-9 9 -12 9q-2 0 -4 3q-2 2 -4 17q-2 8 -2 14q0 3 1 5q2 4 8 7q6 2 12 2q2 0 7 0.5t6 0.5q6 2 14 12q7 10 20 16q13 7 20 8t16 6q4 2 13 5q12 4 16 6l19 11q10 6 20 11q3 1 8 4l5 3
q4 4 8 5q2 0 11 7q1 1 6 4t7 4q1 0 4 0.5t5 0.5q4 0 14 4l12 9q1 4 15 10q12 7 24 9q10 3 20 9q7 5 18 7q12 4 15 6q1 1 10 7q7 3 10 10q5 7 12 11q7 5 17 7q7 3 16 5q4 3 12 3q6 0 20 7q16 6 23 16q9 11 17 13q12 5 20 5q10 1 16 6q8 6 10 7z" />
    <glyph glyph-name="uni003D" unicode="=" horiz-adv-x="713" 
d="M392 306h3.5h3.5h4t10 -3q3 -3 9 -3q1 0 13 3q9 3 17 0q7 -3 61 -4h61h21q12 1 27 0q16 -4 23 -8q10 -4 13 -4t7 -4q3 -3 3 -13q0 -11 -1 -13l-6 -9q-2 -2 -7 -12q-2 -7 -9 -16q-10 -10 -15 -12q-10 -4 -25 -4q-19 -2 -21 -4q-4 -2 -9 -2q-7 0 -10 3q-6 2 -11 2
q-6 0 -10 -2q-4 -3 -12 -3q-7 0 -15 5q-8 4 -25 1q-13 -1 -23 -4q-4 -3 -20 -1q-14 0 -20 3q-3 1 -34 1q-27 0 -49 -3q-16 -2 -24 -2h-6q-4 0 -9 1l-5 1q-8 4 -15 5q-12 3 -22 1q-9 -3 -32 -3q-25 0 -29 -2q-6 -3 -30 -3q-13 -1 -17 -1q-8 0 -13 5t-14 3q-10 -2 -33 -2
q-26 1 -30 4q-8 4 -13 4q-5 1 -7 6q-2 4 -2 25q0 20 5 36q2 4 8 17q2 2 9 4q4 1 15 1q10 0 17 -3q10 -4 18 -4q5 0 14 3q6 3 20 5q4 0 11 1t8 1q5 1 12 -1q4 -2 16 -4q3 0 10.5 -0.5t9.5 -1.5q7 0 15 2q5 2 64 2q61 0 65 -2q8 -1 16 2q2 1 7 3t7 3zM95 518q8 3 13 3h3
q10 -3 11 -4q6 -2 27 -2t27 2q7 3 27 2q6 0 11.5 -0.5t9.5 -0.5h3q0 -1 8 1q4 1 16 -1q6 -3 17 -3q10 0 15 3q8 2 22 2t22 -2q9 -3 35 -3t34 3q6 2 11 2t13 -2q6 -2 20 1q10 2 12.5 2t9.5 -2q9 -3 35 -3q29 0 33 2q6 2 11 2q4 0 10 -2q3 -3 17 -3t17 3q6 2 10 2q5 0 11 -2
q6 -3 17 -3q15 -2 21 -5q9 -7 11 -12q5 -7 6 -7q2 0 4 -5q2 -4 2 -10q0 -3 -11 -27q-10 -20 -17 -23q-8 -3 -16 -4q-7 -3 -30 -3q-19 0 -27 2q-6 3 -23 0q-18 -2 -27 1q-8 3 -17 1q-9 -1 -15 0q-8 2 -42 2q-36 0 -46 -4q-9 -3 -12 -3t-12 3t-14 3t-26 -2q-20 -2 -25.5 -2
t-10.5 2q-6 3 -18 3q-6 0 -23 -1q-10 0 -29.5 -0.5t-24.5 -0.5q-26 0 -30 1q-10 1 -15 -1q-6 -4 -14 -4q-6 -1 -18 2q-12 4 -37 4q-26 0 -30 2q-3 2 -6 19l-4 28q-2 11 1 19q2 5 5 14q1 4 5 6q6 2 16 2q14 0 21 3z" />
    <glyph glyph-name="uni003E" unicode="&#x3e;" horiz-adv-x="669" 
d="M67 645q5 5 10 5q3 0 15 -2q11 -2 28 -7q18 -6 30 -15q9 -7 24 -14q6 -4 16 -7q8 -3 16 -11q10 -9 24 -10t19 -5q3 -3 15 -9q10 -7 15 -7q4 -2 9 -7q3 -5 10 -7q6 -2 11 -7q5 -7 14 -7q4 -1 19 -6q13 -7 19 -11q3 -2 9 -5.5t8 -5.5q8 -5 17 -12q7 -7 15 -9q6 0 10 -4
t14 -9q14 -7 17 -7q12 -4 16 -6q8 -3 15 -10t16 -10l18 -9q4 -3 17 -7q11 -2 22 -9q11 -5 16 -10q2 -2 12 -7q7 -2 13 -8q2 -1 5.5 -3.5t4.5 -2.5t4.5 -0.5t5.5 -0.5q7 -2 8 -4q1 -1 3 -20q0 -18 -6 -22q-5 -5 -13 -11q-4 -6 -15 -11q-12 -7 -17 -11q-4 -4 -17 -12
q-6 -2 -16 -10q-6 -6 -12 -8q-3 -1 -11 -1q-4 0 -9 -5q-3 -3 -13 -8t-12 -7q-3 -4 -11 -6q-7 -2 -25 -9q-19 -7 -26 -13q-6 -4 -14 -7q-6 -2 -15 -9q-8 -8 -18 -11q-5 -1 -14 -4l-5 -5q-4 -4 -10 -5q-9 -4 -14 -7q-4 -4 -10 -6q-4 -2 -9 -2q-7 0 -10 -3q-4 -1 -10 -11
q-4 -8 -12 -13q-10 -4 -16 -7q-8 -2 -23 -9q-12 -5 -35 -17q-24 -12 -33 -15t-19 -7q-2 -1 -19 -10q-12 -5 -12 -7q0 -1 -7 -8t-19 -9t-24 -2q-11 0 -19 4q-7 4 -11 9q-4 4 -4 10q0 5 2 13q3 7 3 16q1 8 11 18q9 9 19 12q7 3 14 9q4 6 16 9q11 4 20 9q7 5 9 5q1 0 5 4t17 7
q10 1 19 6q6 2 11 7q4 3 11 6q8 2 13 7q5 6 12 8q10 2 15 5q2 1 19 6l15 6q3 2 19 12q9 7 20 12q8 2 13 7q7 6 15 7q2 0 6.5 0.5t5.5 1.5q2 0 6 8q4 7 10 10q7 2 12 8q6 6 13 7q6 0 18 6q5 3 22 8q12 3 15 7q5 5 11 8q4 2 13 5q9 2 14 6q7 4 9 7q1 4 0 8q-2 5 -8 7t-12 2
t-18 9q-7 4 -21 11q-10 5 -14 8q-3 3 -12 6q-8 3 -16 8l-15 12q-7 6 -16 9q-11 5 -17 7q-2 0 -13 6q-4 4 -12 7q-1 0 -18 5q-14 5 -25 16q-12 11 -23 15q-12 4 -18 7q-2 1 -14 5q-7 2 -14 9q-9 9 -18 12q-8 4 -17 7q-7 1 -16 10q-10 10 -16 11q-4 0 -18 4q-11 4 -18 9
q-6 5 -21 12q-11 5 -17 12l-4 6q-3 6 -5 8q-6 10 -6 20q0 11 5 19q6 9 9 11z" />
    <glyph glyph-name="uni003F" unicode="?" horiz-adv-x="488" 
d="M180 131q8 2 15 2h4q9 0 17 -4q6 -3 18 -7q11 -3 15 -9q5 -5 7 -12q1 -3 1 -11q0 -7 -1 -20q-1 -23 -5 -35q-4 -10 -9 -17q-5 -5 -20 -6q-5 0 -16 -0.5t-15 -0.5h-9q-8 0 -22 3q-16 6 -18 8q-4 3 -10 16q-6 9 -6 17q0 5 2 9q1 2 3 20q1 17 6 26q5 10 13 14q8 3 14 3
q4 0 16 4zM153 761q7 3 52 3q45 -1 50 -4q7 -3 22 -3q13 0 23 -2q4 -3 16 -5q9 -3 19 -7q12 -6 17 -9q10 -5 13 -5q5 -2 26 -22q22 -22 23 -27q1 -3 5 -17q3 -12 9 -25q6 -11 8 -36l2 -26q-1 -8 -2 -17q0 -9 -5 -31q-5 -15 -11 -29q-7 -14 -9 -22q-2 -7 -8 -13
q-4 -3 -27 -26q-22 -22 -24 -28q-1 -6 -7 -12q-6 -4 -14 -12q-11 -11 -13 -14q-3 -6 -14 -11q-12 -6 -31 -25q-7 -7 -15 -16l-8 -9q-3 -5 -3 -16q0 -12 -3 -15q-2 -6 -2 -10q0 -7 3 -13q4 -8 4 -15l-3 -15q-4 -10 -4 -21q-3 -13 -5 -15q-7 -4 -18 -5q-16 -2 -38 -2
q-17 0 -21 1t-9 7q-8 10 -8 12q-2 3 2 18q2 18 2 30q0 22 -1 30q0 23 1 32q3 18 7 24q2 3 6 8.5t5 7.5q12 16 13 17q8 10 14 16q4 3 19 18q11 10 19 12q7 2 10 7q2 1 12 14q8 10 11 17q2 7 10 11q9 4 11 12q1 5 8 14q0 1 3 6t4 7q1 5 4 8l5 5q3 8 4 16q0 8 3 17q3 5 3 15
q0 9 -2 11q-1 1 -3 15q-2 11 -7 23q-2 4 -6 11t-4 8q-9 9 -14 12q-9 6 -25 14q-15 8 -22 6q-4 -2 -15 -2q-2 0 -8.5 1t-8.5 2q-11 0 -16 -2q-8 -3 -20 -3q-7 1 -24 1q-6 -1 -26 -1q-14 -1 -24 4q-9 5 -13 10q-4 7 -5 16q-2 10 -2 20q-1 6 -1 8q0 5 5 15q7 12 18 17
q12 6 31 7q17 0 27 2z" />
    <glyph glyph-name="uni0040" unicode="@" horiz-adv-x="1244" 
d="M686 389l-8 1l-10 -2q-10 -3 -22 -5q-11 0 -21 -4q-7 -1 -12 -4q-4 -2 -8 -6q-5 -3 -14 -5q-7 0 -20 -5q-5 -2 -13 -6q-4 -3 -5 -11q-5 -12 -7 -14q-2 -3 -6 -17l-4 -24q0 -13 4 -20q4 -5 6 -16q3 -10 9 -15l9 -9q3 -1 3 -4q0 -2 5 -4q4 -3 23 -3q17 0 22 -3q3 -3 8 -3
q2 -1 6 -1t7 1q5 1 18 14q8 7 17 19q5 7 7 7t8 6q7 7 10 13q5 12 5 16q2 8 4 12q3 5 2 20q0 16 3 22q2 8 2 13q0 7 -5 17q-5 11 -10 14q-7 4 -13 6zM590 822q3 3 10 3t10 -3q6 -2 17 -2t19 2q4 3 10 3q1 0 17 -6q12 -6 32 -6q19 0 26 -3q3 -2 17 -4q10 -2 14 -4q3 -2 13 -4
q7 -1 13 -7q6 -5 16 -8q6 -1 18 -6q8 -6 16 -6q10 -2 14 -7q5 -5 12 -7q6 -1 19 -13q9 -9 18 -15q7 -5 8 -8q2 -6 6 -8q1 -1 5 -3t5 -3q5 -1 10 -6q4 -6 11 -13q8 -10 16 -13q4 -3 13 -9q6 -9 8 -13q6 -10 8 -12q4 -4 9 -14t11 -18q4 -5 8 -17q0 -2 6 -22q7 -14 8 -17
q2 -6 6 -12q2 -3 7 -15q2 -8 5 -15q2 -8 2 -13l3 -7q2 -7 4 -11q5 -10 8 -32q2 -22 3 -25q2 -6 2 -14q0 -3 -3 -12q-2 -4 -2 -9q0 -4 2 -10q3 -6 3 -11q0 -8 -3 -13q-3 -6 -3 -15q-3 -15 -4 -17q-3 -8 -2 -16q2 -8 2 -14q1 -7 -4 -20q-5 -11 -7 -24q-2 -12 -6 -18
q-4 -4 -8 -18q-4 -12 -11 -26t-9 -20q0 -4 -7 -16q-5 -6 -14 -22q-10 -12 -13 -14q-3 -1 -8 -8q-2 -4 -15 -18q-13 -13 -21 -15q-12 -5 -15 -8q-8 -6 -14 -6q-4 -1 -54 -1q-47 1 -53 5q-7 5 -17 5q-12 1 -20 9l-15 15q-8 8 -10 8t-6 3q-4 5 -9 12q-4 12 -4 22q-1 13 -7 18
q-6 7 -8 11q-2 6 -4 6q-7 0 -11 -1q-8 -4 -11 -6q-4 -6 -10 -12q-7 -9 -14 -10l-9 -3q-2 -1 -3 -1q-1 -1 -11 -4q-7 -2 -12 -5q-4 -3 -41 -3q-34 0 -54 5q-5 1 -14 4t-10 3q-2 1 -17 7q-10 2 -15 10q-3 6 -7 10t-6 12q-2 10 -7 13q-5 6 -7 18q-1 10 -6 17q-3 3 -7 11
q-3 6 -5 20t1 24q2 12 2 20t4 18q1 3 2.5 9.5t1.5 8.5q3 11 4 13q1 4 6 14q3 8 10 11q4 3 9 10q1 5 8 11q13 9 17 11q8 4 18 10q6 6 16 9q12 6 21 12q11 7 18 7t19 -2q8 -1 21 2q16 5 30 6q22 2 33 2q15 0 21 4q9 6 13 9q7 3 10 8q2 2 4 20q0 20 -2 24q-2 6 -4 18
q-1 3 -3 9.5t-2 7.5q-3 7 -8 10q-3 2 -10 9q-3 5 -12 9q-9 3 -23 3q-13 0 -21 -2q-5 -4 -12 -2q-5 0 -11 2q-5 2 -9 0q-2 -1 -14 -9q-9 -6 -16 -18q-4 -10 -11 -19q-1 -2 -3.5 -5t-6 -7t-5.5 -6q-7 -7 -11.5 -8t-26.5 -1q-28 0 -34 3q-5 2 -9 8q-4 5 -4 27q0 20 3 26
q6 9 9 14q5 9 14 14t14 14q4 6 6.5 8t12.5 5q16 5 37 5q16 0 20 1t8 5q5 6 16 7q13 3 18 5q9 3 19 -1q11 -3 21 0q8 3 11 3t11 -3q14 -4 28 -4q16 -1 26 -5l14 -7q8 -4 13 -7q9 -5 10 -8q0 -3 14 -17q13 -14 14 -22q0 -4 5 -24q4 -16 9 -27q6 -12 6 -16q1 -4 -1 -14
q-3 -6 -3 -12q0 -3 2 -11q2 -5 2 -40q0 -31 -3 -41.5t-3 -30.5q0 -22 3 -31q2 -12 2 -15q0 -5 -2 -11q-3 -3 -3 -22q0 -10 1 -39q0 -42 0.5 -50.5t4.5 -16.5q5 -10 7 -18l3 -12q2 -5 9 -8q8 -4 11 -7q5 -3 10 -3q7 0 23 8t19 11q1 1 3 8q2 6 10 10t12 16q2 5 6 19q1 8 7 14
t7 12q0 7 7 21q6 21 7 29q0 13 4 25q1 3 3.5 9.5t2.5 7.5q2 4 2 31q0 28 -2 33q-2 8 0 18q3 10 -1 21q-3 9 -3 14q0 2 -6 14q-5 11 -8 29q-1 13 -2.5 18t-10.5 24q-14 26 -14 31q-1 6 -10 16q-3 3 -8.5 9t-7.5 8l-12 16q-1 2 -5 7.5t-5 7.5q-4 5 -9 9q-6 3 -11 11
q-5 7 -12 10q-6 1 -11 9q-6 7 -19 14q-20 10 -27 13q-10 6 -18 11q-6 7 -11 8q-3 1 -12 7q-8 6 -10 6q-5 0 -9 3q-9 2 -21 4q-13 2 -24 6q-12 5 -19 5q-8 1 -21 -2q-11 -2 -18 0q-10 4 -16 4q-9 1 -19 -3q-10 -3 -22 -3q-15 0 -20 1q-6 2 -12 -2q-7 -5 -12 -6q-8 -2 -12 -6
q-3 -5 -13 -7q-10 -3 -19 -11q-8 -8 -16 -11q-8 -2 -10 -6q-4 -4 -12 -9q-13 -5 -17 -6q-8 -1 -14 -9q-11 -9 -15 -10q-13 -7 -18 -13q-8 -8 -18 -20q-11 -15 -12 -19q-5 -9 -10 -16q-8 -10 -11 -20q-5 -13 -11 -16q-5 -2 -15 -15q-7 -14 -7 -18q0 -7 -3 -12q-3 -11 -4 -20
q-2 -11 -4 -16q-4 -6 -6 -8q-3 -5 -6 -17q-2 -10 -4 -33q0 -18 3 -25.5t3 -27.5t2 -24q3 -6 3 -20q2 -17 5 -22q2 -3 2 -15q-1 -7 0 -9t6 -4q7 -3 9 -13l6 -21q3 -11 8 -14q4 -3 11 -15q8 -14 10 -16q5 -5 8 -13q5 -13 6 -16q1 -7 4 -10q1 -1 8 -6q5 -2 10 -9q3 -7 12 -12
q8 -4 12 -8q2 -2 16 -10q12 -4 14 -9q0 -3 6 -7t8 -9q3 -4 16 -8q4 -2 11.5 -4t9.5 -3q10 -2 15 -5q2 0 6 -1.5t9.5 -3.5t8.5 -3q17 -6 21 -9q3 -2 22 -4q18 -2 22 -4q8 -2 14 -1q6 2 17 7q7 4 16 11t17 10q10 5 24 6q18 0 23 -3q8 -2 8 -4q3 -3 6 -4q4 -2 13 -13
q8 -14 9 -15q4 -5 2 -10q0 -4 -6 -14q-5 -10 -5 -13t-2 -9q-1 -1 -4.5 -5t-5.5 -6q-9 -7 -13 -8t-22 -10q-16 -9 -20 -9q-6 0 -12 3q-7 2 -8 1l-3 -1q-4 0 -9.5 -0.5t-10.5 -0.5q-21 -2 -29 0q-8 3 -18 -1q-7 -2 -11 -2q-3 0 -6 1q-6 2 -12 6q-5 5 -10 4q-6 -2 -14 -2
q-10 -1 -16 4q-10 8 -21 13q-12 7 -20 9q-7 2 -15 8q-8 5 -14 5q-4 0 -10 2q-5 0 -14 9q-12 10 -14 11q-4 1 -14 9q-6 6 -20 14q-9 4 -22 15q-5 5 -17 11q-8 2 -9 9q-2 8 -10 16q-10 12 -11 14q-5 7 -7 8q-4 2 -12 18q-5 8 -14 26q-1 2 -5.5 7.5t-5.5 6.5q-6 6 -8 6
q-3 6 -4 12q-1 9 -7 15q-5 3 -5 11q0 6 -2 14q-2 7 -6 9q-5 3 -5 8q-1 2 -3 25q-2 16 -4 28l-9 21q-6 14 -6 18q0 7 3 10q2 6 2 21q0 16 -3 26q-3 6 -5 21v6q0 6 3 15q3 10 5 27q2 15 4 22l6 15q0 3 1.5 9t2.5 9q1 8 4 16q3 4 5 15q1 2 3 8.5t3 8.5q2 6 6 13q4 3 19 33
q14 28 23 37q12 10 13 17q1 3 12 16q11 11 15 19q6 11 12 12q8 1 19 13q11 11 19 15q6 3 17 14q8 11 13 11q6 2 15 8q14 7 18 8q2 1 8 3t8 3q4 2 13 8q7 5 12 6q3 1 16 6q14 4 24 9q16 6 18 6q4 0 10 -3q6 -2 12 -2q1 0 6.5 1.5t8.5 2.5l15 6q9 3 14 3q12 3 14 3z" />
    <glyph glyph-name="uni0041" unicode="A" horiz-adv-x="739" 
d="M368 611q-9 3 -11 3q-4 0 -9 -5q-5 -7 -6 -11q-4 -12 -6 -20q-5 -16 -9 -25q-4 -10 -6 -18t-2 -14t-4 -18q-6 -10 -10 -14q-5 -7 -6 -12q0 -3 -5 -15q-1 -3 -4 -9.5t-4 -8.5q-2 -11 -7 -16q-3 -6 -3 -10q0 -2 -5 -14q-1 -2 -10 -23q-8 -19 -10 -22q-4 -5 -7 -17
q-2 -9 -7 -21q-6 -12 -6 -20q0 -7 3 -10l14 -7q15 -5 20 -5h6q8 0 19 1q16 2 28 2q16 2 23 2q10 2 49 2q38 0 56 -2q17 -1 26 4q10 5 11 10q3 5 3 19q0 13 -4 18q-4 6 -4 13q-2 11 -4 13q-2 5 -5 7q-4 4 -5 11q-3 11 -7 14q-5 8 -15 29q-8 16 -18 41l-9 31q-1 5 -5 18
q-5 5 -6 7q0 1 -3 8t-5 12q-7 16 -9 28q-1 10 -7 18q-5 7 -5 9q0 4 -3 8q-1 3 -7 9zM360 739q2 0 7 1t7 2q8 0 13 -3q10 -2 24 -2q15 0 20 -3q3 -2 5 -9q0 -5 4 -15q2 -8 9 -15q6 -4 8 -11q2 -6 2 -12t6 -16q7 -7 7 -13q0 -2 3 -10.5t4 -13.5q9 -21 9 -22q4 -7 5 -14
q1 -8 10 -25q7 -12 9 -23q0 -8 5 -15q5 -6 9 -17q6 -13 10 -15q5 -8 5 -11q3 -12 4 -18q4 -14 10 -19q7 -7 10 -13l5 -13q5 -12 8 -21q10 -28 20 -47q3 -6 6 -14l4 -8q2 -2 6 -21q5 -17 11 -32q3 -5 10 -23q2 -6 5 -18q1 -8 7 -11q2 -1 4.5 -3t3.5 -2q2 -2 4 -12
q3 -13 4 -16q2 -6 4 -16t5 -15q4 -4 8 -12q7 -18 8 -21q4 -14 6 -15q3 -7 6 -16q1 -2 4 -8.5t4 -8.5q1 -1 10 -13q8 -13 8 -14q3 -4 3 -16q-3 -15 -4 -19q-1 -3 -5 -12q-3 -3 -28 -5q-34 -5 -35 -5q-5 -1 -7 -1q-5 0 -9 2q-9 3 -12 6q-7 4 -11 11q-4 8 -10 14q-8 10 -8 11
q-2 4 -2 10q0 7 -5 15q-3 8 -10 15q-5 6 -6 24t-5 26q-3 6 -9 16q-4 5 -8 22q-6 16 -7 17q-2 5 -15 10q-14 7 -21 7q-10 0 -18 3q-13 2 -20 1q-10 0 -22 -2q-10 -1 -21 3q-11 3 -23 3q-11 0 -31 -2q-17 -2 -27 -2h-10q-10 1 -24 1q-4 1 -14 -3q-9 -5 -14 -3l-8 4q-6 4 -10 4
q-5 0 -9 -2q-6 -2 -34 -2q-29 -2 -33 -3q-4 -2 -10 -10q-5 -7 -10 -21q-6 -16 -6 -19q-3 -9 -8 -19q-4 -8 -11 -31q-4 -16 -8 -27q-5 -8 -7 -19q-2 -6 -6 -13q-2 -3 -12 -21q-7 -15 -13 -18q-5 -2 -40 -2q-26 1 -31 2t-11 5q-4 2 -6.5 5t-3.5 5q-2 6 -2 11q0 2 1.5 7.5
t1.5 6.5q3 5 5 19q1 11 6 17q5 5 7 13l2 7q0 2 5 7q4 6 8 14q3 9 7 14q4 6 7 15q2 10 7 17q5 12 6 19q5 14 10 22q2 3 4 7.5t4.5 9.5l3.5 7q5 13 7 24q1 8 6 22q4 6 6 20q2 12 7 19q6 8 7 8q2 0 4 5q3 5 3 12q0 2 0.5 7.5t0.5 7.5q2 8 10 21q9 16 10 20q2 10 7 19q7 16 7 18
q1 6 7 17q3 11 9 16q4 8 7 11q3 5 5 17q1 13 6 19q6 7 9 16q3 6 6 19q1 12 6 15q3 5 8 7q3 2 6 15q2 13 7 21t7 18q0 6 7 20q5 12 7 21q1 10 6 15t7 14q3 8 8 16q1 2 3 5.5t3 5.5q2 3 17 9.5t28 8.5l12 3t10 2z" />
    <glyph glyph-name="uni0042" unicode="B" horiz-adv-x="684" 
d="M276 347q-6 2 -23 2q-18 0 -24 -2q-2 0 -8 -3q-4 -2 -6 -6q0 -1 -2 -5l-3 -6q-2 -5 -2 -58t3 -57q3 -12 3 -21v-8q0 -11 -3 -28q-3 -18 -3 -29q0 -10 3 -18q1 -5 5 -13q2 -2 8 -2q7 0 13 3q9 2 20 0q6 -1 18 -1q9 1 17 -3q9 -4 14 -4h4q1 0 10 1.5t14 2.5q16 2 23 2
q7 -2 27 0q22 3 39 9q22 8 28 13t18 12q9 3 20 14t13 20q2 10 2 12t4 20q4 15 4 31q0 15 -2 19q-3 6 -6 8q-3 4 -5 13q0 6 -5 16q-3 6 -20 23q-16 16 -37 27q-22 11 -35 11q-11 1 -25 4q-9 3 -22 3q-7 0 -31 -1q-24 -2 -38 -2q-8 0 -10 1zM370 659q-6 3 -15 3q-7 0 -9 -2
q-1 -2 -8 -4q-4 -1 -18 2q-12 3 -30 -1q-12 -3 -24 -3q-6 2 -10 4q-6 2 -17 2q-13 0 -22 -9q-10 -11 -8 -16q1 -4 1 -20q0 -4 0.5 -12t1.5 -11q1 -10 -2 -16q-2 -10 -2 -20q0 -14 3 -21q2 -8 0 -15q0 -1 -1 -6t-2 -7q0 -6 2 -14q4 -10 2 -15q0 -6 -3 -14q-1 -5 -1 -7
q0 -3 4 -11q6 -11 10 -13q6 -4 12 -6q8 -2 19 -2q13 0 22 3q9 4 20 4q5 0 21 -1q14 -1 28 -1t25 1q22 2 29 4q1 0 7.5 2.5t9.5 3.5q15 9 22 15q12 10 22 20q3 3 9 9.5t7 7.5q6 11 7 21q3 10 3 39q0 26 -4 31q-6 8 -12 17q-12 15 -13 16q-7 7 -13 10l-9 5q-1 1 -13 9
q-10 6 -28 11q-18 4 -23 7zM369 746q10 2 11 3q1 0 13 -4q14 -3 25 -4q15 0 38 -8q24 -8 34 -13q14 -6 15 -6t17 -8q16 -9 25 -21q6 -7 18 -25l15 -20q6 -5 7 -8.5t1 -17.5q1 -19 6 -26q3 -3 6 -12q0 -10 -2 -15q-3 -18 -3 -24q0 -12 -2 -20q-2 -6 -4 -18q-5 -18 -11 -30
q-9 -19 -18 -26q-15 -12 -23 -17q-2 -1 -23 -14q-8 -3 -13 -8t-6 -10q-1 -4 -1 -10q2 -4 4 -5l20 -2q5 -1 13 -2t9 -1q3 -2 6 -8q4 -7 12 -11q8 -3 14 -9q9 -9 13 -15q6 -9 10 -11q2 -2 7 -10q6 -10 6 -13q2 -4 4 -10q4 -8 4 -24q2 -18 5 -26q3 -7 3 -39q0 -29 -4 -37
q-4 -9 -6 -17q-8 -24 -10 -29q-4 -13 -14 -28q-6 -9 -16 -17q-5 -3 -17 -15q-9 -9 -16 -12q-10 -5 -16 -5q-11 -3 -14 -6q-9 -4 -24 -9q-18 -5 -36 -7q-22 -2 -35 -2q-15 0 -24 -5q-10 -5 -26 -4q-4 0 -9 -0.5t-8 -0.5h-3h-2q-4 0 -14 2q-14 2 -35 2h-24q-14 0 -39 -0.5
t-31 -0.5q-14 -1 -47 -1q-22 -1 -27 3q-6 4 -12 7q-7 4 -9 7q-2 5 -4 17q-2 14 -2 21q0 3 0.5 9t0.5 8q1 5 -1 30q-2 15 -2 19.5t2 11.5q4 11 2 30q-2 22 -2 30q0 3 0.5 13.5t0.5 15.5q2 20 2 91q0 25 -1 57v31q0 24 1 37q1 24 -2 29q-2 8 -2 18q0 11 2 21q3 14 3 104
q0 94 3 99q5 7 9 10q6 5 13 8q9 3 60 4q53 0 57 3q6 2 24 2q22 0 33 -3q14 -3 27 1q16 4 22 4q5 0 17 2z" />
    <glyph glyph-name="uni0043" unicode="C" horiz-adv-x="695" 
d="M361 759q9 3 16 3q3 0 21 -2q19 -3 30 -1q12 3 20 0q6 -1 19 -8q12 -7 24 -8q6 -1 29 -6q15 -4 23 -11q7 -6 16 -9q12 -9 15 -12q4 -5 16 -15q9 -6 13 -12q1 -1 6 -7t8 -10q11 -13 18 -27q6 -13 8 -25q4 -18 4 -19q2 -5 5 -18q2 -10 1 -20q-1 -2 -3 -7.5t-2 -6.5
q-5 -5 -8 -7q-5 -3 -33 -4q-15 -1 -30 -1q-1 0 -6.5 2.5t-8.5 4.5q-12 6 -15 13q-2 4 -8 13q-5 5 -5 10l-2 7q-2 8 -4 13q-4 14 -9 18q-4 3 -6 9q-1 3 -6 13q-3 4 -9 10q-4 2 -18 12q-16 9 -23 10q-10 2 -19 5q-11 4 -33 4t-36 2q-12 1 -20 -4q-9 -6 -20 -7q-12 -2 -22 -7
t-18 -7q-7 0 -19 -8q-3 -2 -6.5 -4.5t-7 -5.5t-4.5 -4q-11 -15 -15 -21q-2 -2 -13 -19q-3 -4 -7 -15q-4 -13 -9 -19q-6 -9 -10 -23q-1 -5 -4 -14q-2 -8 -2 -9q-1 -3 -3 -10.5t-3 -9.5q-1 -3 -2 -12.5t-1 -13.5q-1 -6 -3 -49q-1 -19 -1 -54q0 -19 4 -29q2 -9 0 -21t2 -20
q3 -7 3 -14t3 -13q3 -15 3 -16q2 -9 6 -13q4 -6 5 -15q2 -12 7 -21q6 -12 8 -12q3 -3 4 -8q2 -6 14 -16q13 -9 18 -16q10 -10 15 -16q4 -7 12 -15q2 -2 26 -12q20 -7 28 -7h8q11 1 23 -3q9 -3 32 -3q22 1 32 6q10 6 21 8q11 4 16 7q5 5 7 5t7 6l7 6q6 5 10 7q11 8 13 14
q1 4 8 15q7 9 12 26q2 5 5 14.5t4 11.5q2 8 9 15q6 7 13 9q4 2 37 2q32 -1 38 -4q4 -2 12 -10q5 -6 6 -16v-5q0 -8 -2 -15q-3 -12 -4 -23q0 -4 -1 -10.5t-1 -7.5q-3 -7 -10 -12q-7 -6 -10 -15q-2 -10 -11 -17l-12 -12q-3 -3 -5 -9t-15 -15q-15 -11 -18 -16q-2 -3 -12 -7
q-6 -1 -14 -10q-7 -9 -13 -13q-8 -4 -15 -4t-19 -4q-3 -1 -9.5 -3.5t-7.5 -2.5q-2 0 -5.5 -1.5t-4.5 -2.5l-12 -3q-8 -3 -19 -2q-5 1 -14.5 1t-17.5 -1q-17 -2 -22 -4q-1 -1 -9 -3q-4 -1 -7 -1t-10 2q-11 4 -32 4q-24 0 -33 3q-3 1 -9.5 3.5t-7.5 2.5q-7 2 -11 5q-4 4 -10 6
q-1 1 -11 5.5t-16 7.5q-20 10 -36 22q-12 9 -27 26q-4 4 -13.5 14t-12.5 14q-15 15 -16 18q-3 9 -5 13q-2 9 -6 13l-7 11q0 1 -7 11q-5 5 -6 16q-1 12 -8 20q-6 10 -7 18q0 9 -4 23l-9 28q-5 16 -5 38q-1 12 -1 17q0 8 2 11q3 6 3 54q0 50 3 58q3 15 4 34q1 23 6 30
q4 7 4 17q0 8 4 20q2 2 4.5 7.5t3.5 7.5q1 1 7 13q1 5 5 13q5 8 11 18q7 13 14 18q8 6 12 18q5 13 11 19l5 4q6 4 8 5q4 3 10 9q1 4 15 14q14 12 20 18q10 8 15 8q12 3 19 5q12 5 16 5t10 3q12 3 25 3q18 1 25 7t18 6q13 0 24 3z" />
    <glyph glyph-name="uni0044" unicode="D" horiz-adv-x="747" 
d="M280 637q-15 3 -24 3h-8t-16 -1q-14 -3 -15 -3q-7 0 -11 -4q-6 -6 -7 -13q0 -7 -2 -19q-1 -7 -1 -10q0 -6 3 -18q1 -3 6 -23q0 -5 -2 -15q-3 -7 -3 -16q0 -5 1 -17q0 -21 4 -35q2 -12 -1 -25q-4 -12 -4 -35q0 -12 1 -50q1 -39 1 -83v-31v-34v-31v-28v-24q-1 -8 1 -24
q1 -3 2.5 -9.5t2.5 -8.5q4 -7 7 -8q2 -2 17 -6q10 -2 14 -2t18 2q15 3 25 3q5 0 27 4q14 2 18 2t15 -2q13 -4 24 -1q14 4 25 4q12 0 23 5q3 1 8 4t7 4q6 3 16 3q16 2 19 3q9 3 17 13l7 7l4 5q1 1 5 7q3 7 14 12q13 9 14 11q4 6 9 11t7 13t2 10q0 5 5 12q4 5 8 13q4 7 10 28
q8 24 8 35q0 10 4 24q3 13 3 63q-1 51 -4 58q-3 9 -3 22q0 12 -8 31q-8 16 -16 40q-6 20 -13 27q-10 7 -15 14q-7 7 -9 13q-2 7 -8 13q-14 10 -17 12q-10 5 -18 11q-4 4 -10 7q-4 2 -13 2q-10 0 -16 3q-2 0 -10 2.5t-12 3.5q-15 3 -24 7t-55 5q-48 1 -57 4zM146 721
q2 1 7 1.5t7 0.5t10.5 -1.5t9.5 -1.5q8 -2 16 -2q6 0 21 1q28 2 36 2q13 0 24 -3q3 0 12 -1.5t13 -2.5q11 -1 19 2q6 2 17 2q8 0 30 -2t25 -3q3 -2 11 -2q9 0 18 3q12 2 20 1q8 -3 19 -5q11 -4 21 -6q11 -3 19 -9q1 0 8 -3.5t11 -4.5q5 -3 17 -6q2 -1 6 -2.5t5 -1.5
q3 -3 12 -5q9 -1 12 -7q9 -9 15 -13q11 -8 15 -16t18 -20q11 -9 16 -17q3 -4 5 -13q0 -8 4 -12q3 -5 6 -7q4 -4 7 -15q2 -7 10 -20q5 -9 9 -18q1 -3 3 -8t2 -7q3 -4 3 -13t3 -18q4 -14 7 -20q2 -7 4 -40q2 -39 2 -66q0 -35 -5 -45q-4 -11 -5 -32q-2 -24 -4 -28
q-2 -10 -2 -16q0 -3 -3 -15q0 -2 -2 -7.5t-3 -8.5q-4 -10 -8 -15q-6 -9 -10 -20q-7 -17 -12 -23q-6 -9 -8 -19q-2 -9 -5 -12q-3 -4 -9 -6q-7 -1 -29 -24q-26 -24 -35 -30q-12 -7 -20 -9q-11 -2 -21 -8q-14 -7 -26 -10q-14 -4 -19 -4t-12 -5q-6 -4 -12 -7q-4 -2 -31 -2
q-26 0 -36 -3q-10 -4 -93 -4q-81 0 -105 -2l-22 -1q-1 1 -25 3q-23 1 -26 5q-3 3 -9 11q-5 5 -7 12q0 1 -0.5 9t-0.5 13q-1 8 -1 21t1 24q2 27 5 35q2 8 2 18t-2 18q-2 7 -4 79q-1 47 -1 111v21q0 18 -2 25q-3 5 -3 16t3 17q2 6 2 17q0 10 2 18q1 7 0 19q-2 12 -2 108t3 104
q2 2 4.5 7.5t3.5 6.5q6 8 7 10q2 2 14 4q17 3 18 3z" />
    <glyph glyph-name="uni0045" unicode="E" horiz-adv-x="663" 
d="M113 749q4 2 16 0h27q15 0 22 -3q8 -2 21 -2h16q32 2 48 2q21 0 29 3q5 1 7 1q4 0 14 -3q12 -3 56 -3q42 0 46 2q6 3 9 3q5 1 16 -2q8 -3 14 -3q7 0 19 3q11 3 37 3q22 0 35 -3q14 -5 15 -5q4 -2 7 -6q2 -2 7 -12q3 -12 1 -27q-1 -18 -5 -25q-4 -8 -9 -12q-5 -3 -31 -4
h-14q-11 0 -21 2t-22 0q-14 -3 -25 -2q-17 0 -22 -1q-10 -2 -71 -2q-65 0 -73 -2l-20 -4q-11 0 -19 3q-12 4 -17 4q-4 1 -13 -1q-4 -2 -9 -6q-3 -9 -4 -14q0 -3 -1 -10t-1 -9q-3 -9 0 -31q3 -24 3 -73q0 -39 1 -47t5 -18q6 -12 10 -16q6 -3 18 -1q4 0 12.5 0.5t10.5 0.5
q3 0 10.5 -0.5t11.5 -0.5q13 0 18 4q4 6 11 6q6 1 18 -4q8 -5 11 -5.5t13 1.5t35 2h22q47 0 57 -4q12 -3 27 -2q8 1 34 1q17 0 23 -3q5 -5 8 -11q4 -9 4 -26q0 -20 -4 -29q-5 -12 -7 -14t-9 -2t-17 -4q-10 -3 -24 -3q-15 0 -29 -3q-4 -1 -14 -3t-14 -3q-14 -1 -23 1
q-5 1 -23 6q-12 2 -20 -1q-9 -3 -21 -3q-7 0 -22 3q-12 3 -29 3q-33 0 -51 2q-20 1 -26 1q-7 0 -14 -3q-9 -4 -10 -7q-3 -4 -4 -29q0 -24 -2 -48q-2 -29 -3 -32q-1 -8 3 -21q3 -9 3 -21q0 -13 -3 -23q-3 -8 -3 -11q0 -4 6 -20q7 -20 11 -22q4 -3 6 -3t10 3q12 4 15 4
q5 0 11 -3q10 -2 28 -2q28 2 30 3q10 2 19 0q11 -3 18 -2q8 2 15 0q4 -1 20 -1q12 0 20 2q6 3 14 3t12 -3q6 -2 31 -2h32q38 1 45 1q14 0 17 -1q6 -2 13 -9q7 -6 12 -13q3 -6 3 -22q0 -5 -0.5 -12.5t-0.5 -8.5q-3 -6 -10 -13q-6 -6 -12 -9q-3 -1 -27 -3q-18 0 -36 -4
q-10 -2 -14 -2h-4q-1 0 -8.5 1t-12.5 1q-6 1 -49 3h-18q-15 0 -23 -2q-10 -3 -34 -3h-54h-61q-33 0 -39 2q-9 2 -21 -1q-9 -2 -13 -2t-11 1q-9 1 -21 6q-10 3 -14 7q-2 4 -6 8q-2 5 -4 20q-2 16 -2 24q0 6 2 40q0 33 -1 38q-3 6 -3 29q-1 12 -1 34q-1 13 3 24q3 12 0 20
q-3 7 -3 14q0 5 3 11q2 8 2 27q0 23 -3 41q-4 22 -4 30q0 3 3 21q3 9 3 25q0 17 -3 25q-3 10 -3 34q0 22 4 31q3 11 2 15l-1 10v17q0 11 -3 38q-3 12 -3 29q0 9 1 29q0 41 3 49q3 15 3 19q3 15 3 16q1 4 9 8z" />
    <glyph glyph-name="uni0046" unicode="F" horiz-adv-x="617" 
d="M483 739h4q2 -2 33 -2q29 -1 38 -5l10 -5q3 -3 9 -15t6 -31q0 -18 -3 -22q-2 -4 -10 -8q-4 -2 -18 -8q-7 -3 -15 -3q-5 0 -17 1q-25 2 -27 4q-8 2 -45 2t-49 -4t-24 -2q-4 0 -14.5 0.5t-13.5 0.5q-17 0 -22 2q-8 2 -19 1q-12 -2 -36 -4q-27 -2 -31 -4q-6 -2 -9 -7
q-5 -3 -7 -12q0 -2 -1.5 -6.5t-2.5 -6.5q-3 -5 -3 -14q0 -6 2 -26q2 -17 4 -23q3 -7 2 -24q0 -3 -1 -15t-2 -17q0 -4 -1 -9t-2 -11t-1 -8q-3 -11 -1 -19q1 -5 6 -10q4 -3 11 -5q8 -2 11 -3q2 -2 14 -4q5 0 17 -3q10 -3 15 -1q3 1 25 3q26 5 28 6q12 3 18 2q6 0 11 -5
q4 -4 8 -4q3 0 11 2q12 3 17 5q10 2 36 2q22 0 53 -2q27 -2 34 -4t10 -9q6 -7 11 -11q6 -3 8 -7t2 -22t-2 -24q-1 -5 -7 -10q-3 -3 -18 -7q-10 -3 -18 -3q-6 0 -12 3q-8 4 -28 4q-21 0 -33 -4t-19 -4q-8 0 -17 5q-10 6 -19 6q-4 0 -19 -3q-12 -4 -39 -4t-42 4q-12 3 -22 0
q-6 -2 -18 -5q-7 0 -11 -4q-6 -6 -9 -10q-6 -12 -9 -19q-4 -11 -4 -44q1 -32 4 -36q2 -6 2 -20q-1 -8 -1 -20l1 -15v-26q1 -16 1 -25q0 -14 -2 -20q0 -2 -1 -8.5t-2 -8.5q0 -4 2 -16q4 -8 2 -18q0 -10 -4 -16q-4 -9 -7 -10q-9 -3 -18 -3q-16 -2 -28 -5q-10 -3 -14 -3
q-3 0 -10 1q-10 2 -14 4q-4 1 -9 13q-6 12 -6 37t-3 30q-3 9 -3 14q0 3 3 15q3 7 3 55q-2 53 -3 59q-1 14 1 22q2 10 2 23q0 15 -3 23q-2 8 -1 17q3 9 0 18q-2 7 -2 20v9q0 19 2 27t2 22q0 3 0.5 13t0.5 14q1 13 -2 24q-3 7 -3 12q0 2 1 9q1 11 0 25q-1 11 -1 55v38
q0 75 2 87q1 4 4 19q2 12 5 15q2 5 8 7q5 2 33 4q8 0 22 0.5t17 0.5q2 0 10.5 1t11.5 2q9 1 17 0q11 -2 18 -1q8 1 17 -1q5 -1 60 -3q53 0 63 3q11 4 30 4q18 0 28 -2q11 -2 19 0q3 1 7 2.5t5 1.5z" />
    <glyph glyph-name="uni0047" unicode="G" horiz-adv-x="791" 
d="M410 761q2 1 7 1q3 0 13 -2q9 -3 29 -3q19 0 29 -2q3 -1 9.5 -2.5t8.5 -1.5q5 0 23 -4q12 -3 22 -6q8 -4 16 -4q11 -2 15 -5l12 -4q7 -2 17 -10q9 -6 20 -17q1 -1 8 -9.5t11 -13.5q15 -20 19 -23q8 -7 10 -20q1 -6 4 -21q3 -6 3 -20q0 -10 -4 -14q-5 -5 -15 -7
q-6 -3 -22 -7q-21 -3 -25 -3q-14 0 -19 4q-4 1 -17 12q-11 10 -17 22q-3 11 -17 25q-13 14 -23 18q-12 7 -15 11q-3 5 -8 8q-7 3 -21 4q-4 1 -29 4q-13 2 -20 0q-1 0 -9 -0.5t-13 -0.5q-12 0 -36 -2q-22 0 -26 -2q-4 0 -13 -9q-11 -9 -14 -9q-1 0 -7 -2.5t-9 -3.5
q-14 -6 -18 -10t-10 -7q-2 -1 -19 -16q-12 -12 -20 -26q-3 -7 -11 -23q-2 -4 -10 -16q-4 -6 -8 -14q-6 -15 -8 -22q-4 -14 -4 -23t-2 -17q-3 -6 -3 -18t-3 -22q-4 -10 -1 -22q3 -13 0 -21q-3 -7 -3 -20q0 -7 1 -25q0 -34 4 -53t5 -20l1 -5q1 -4 2 -7q3 -9 7 -19q8 -13 9 -14
q3 -3 5 -10q0 -4 5 -9q5 -3 11 -17q8 -14 11 -17q1 -1 13.5 -8.5t20.5 -15.5q6 -6 18 -21q8 -9 16 -11q9 -3 17 -11t14 -7q6 2 17 2q8 1 22 -1q6 -2 27 -7q19 -4 50 -4q34 0 41 4q10 4 16 4q9 0 14 4q4 2 19 7q11 2 18 6q5 3 7 7q3 6 6 15q3 6 7 22q4 13 2 19q0 7 -2 15
t0 20q2 5 4 34q1 24 -3 30q-4 7 -4 18q0 12 -3 15t-16 7q-11 3 -64 3h-33q-19 0 -24 5q-8 6 -9 10q-3 4 -3 26q0 20 5 25q6 5 10 7q8 2 20 2q14 0 23 4q6 3 14 3q7 0 14 -3q10 -2 17 1q6 3 38 3q28 0 49 3q18 3 31 3q14 -2 17 -3q5 -4 14 -14q10 -14 11 -16q0 -1 0.5 -37.5
t1.5 -66.5v-108q0 -28 -1 -52q-1 -41 -6 -51q-4 -8 -18 -19q-13 -11 -21 -13q-6 -2 -26 -4q-5 0 -19 -1t-19 -2q-13 -1 -31 -6q-12 -5 -20 -5q-9 0 -20 -3q-13 -2 -17 -4q-6 -3 -19 -3q-5 -1 -16 -2.5t-14 -1.5q-7 -1 -11 -1q-6 0 -13 2q-10 3 -31 3q-20 0 -30 2l-27 3
q-17 1 -29 6l-21 10q-8 5 -24 7q-15 3 -20 7q-3 2 -15 11q-14 8 -15 9q-4 1 -11 6l-11 7q-9 6 -15 12q-12 12 -16 15q-6 5 -11 12q-3 4 -8 17q-3 11 -14 22t-17 25q-7 16 -8 22q0 8 -4 14t-7 17q0 2 -7 22q-5 8 -6 30q0 19 -4 41q-2 20 -6 29q-2 6 -2 10q0 2 1 7q1 8 0 19
q-2 8 -2 11t2 10q2 6 4 44q2 31 4 43q3 10 5 14q1 2 4 10t4 11q2 10 14 36q4 7 8.5 17t4.5 11q2 9 5 13q6 9 11 14q7 7 13 19t15 21l20 21q7 9 17 15q9 6 15 12q9 9 9 11q0 1 7 3q11 4 23 9q24 11 28 13q13 6 20 7q13 3 18 5q10 4 13 4q6 0 15 3q12 3 22 0q8 -3 18 -3
q9 0 14 4q1 1 4 3q2 2 3 2z" />
    <glyph glyph-name="uni0048" unicode="H" horiz-adv-x="782" 
d="M591 738q15 6 22 6q9 0 15 -3q13 -4 17 -5q14 -4 17 -5q6 -3 7 -7q2 -7 5 -11q1 -2 3 -22t2 -29q0 -3 -0.5 -13t-0.5 -15q0 -17 3 -28q3 -8 3 -12t-3 -15q-2 -20 -2 -23q0 -1 3 -20q0 -14 -2 -20q-3 -6 -3 -13q2 -4 4 -12q3 -9 1 -20q-3 -13 0 -27q2 -13 -1 -24
q-4 -12 -4 -37q0 -24 3 -36q4 -9 4 -29t-3 -31q-2 -12 0 -28q3 -13 1 -23q-1 -4 -1 -21q-1 -11 1 -25q2 -11 -1 -30q-4 -23 -4 -27q0 -5 2 -13q2 -6 2 -30q1 -18 1 -31v-10q0 -17 -3 -25q-1 -7 -6 -12t-18 -10q-13 -6 -21 -6q-4 0 -17 1q-21 1 -34 6q-10 4 -14 10
q-3 6 -3 20t-2 20q-3 6 -3 17q0 9 4 16q5 5 3 9t-5 7t-3 12t2 13q4 8 5 16q0 3 1.5 10t1.5 9q0 3 -3 12t-3 11q0 1 0.5 7.5t0.5 16v18.5q1 20 1 28q0 11 -2 16q-1 3 -4 23q0 17 -3 21q-2 4 -7 7q-6 2 -26 1q-4 0 -24.5 -0.5t-31.5 -0.5q-52 3 -57 3q-32 3 -33 3
q-15 0 -21 -2q-9 -3 -28 -3h-29q-22 0 -39 -1q-32 -1 -37 -5q-4 -1 -9 -9q-3 -5 -4 -34q-2 -30 -2 -32q0 -4 2 -16q2 -14 2 -57t2 -53q3 -7 0 -22q-1 -7 -1 -15.5t1 -16.5q2 -19 -2 -30q-4 -12 -4 -17q-2 -7 -4 -9q-1 -1 -6 -4l-6 -3q-7 -3 -13 -3t-12 -3q-8 -2 -13 -2
q-6 0 -14 2q-2 0 -6.5 1.5t-6.5 1.5q-6 2 -10 6q-5 4 -8 9q-4 13 -5 18q-3 14 -3 62q-2 50 -3 54q-2 6 -2 10q0 5 2 13q2 9 -1 19q-3 18 -3 19q0 7 4 21q3 9 3 35q0 25 -3 34q-4 10 -2 24q2 18 1 25q0 8 -2 40v16q0 13 2 23q2 11 0 20q-2 6 -2 20q0 9 1 30q0 13 1 31v18
q0 6 -2 24q-1 17 3 27q4 14 2 29q0 15 -2 37q0 19 2 35q2 15 4 19q1 4 6 6q3 3 12 5q10 4 31 4q10 1 19 1t13 -1q6 -1 15 -6q7 -4 10 -10q1 -3 3 -33q0 -25 -3 -37q-3 -9 -2 -27q0 -5 1 -14.5t1 -10.5q2 -8 2 -52q0 -37 -2 -59q-3 -13 -3 -21q0 -4 4 -14q5 -12 5 -17
q2 -10 3 -11q2 -2 21 -1h10q11 0 23 -2q11 -3 26 -3q11 0 33 4q14 3 24 3q6 0 16 -1q14 0 29 -3q9 -2 21 1t24 2q7 -2 17 -2q6 0 15 1q22 2 41 2q16 -1 20 -0.5t8 4.5q7 3 13 16q5 12 5 43q0 9 -0.5 29t-0.5 27q0 26 -3 31q-2 7 -2 15t1 22q2 31 3 34q2 4 2 40q0 35 2 39
q3 6 6 9q2 2 8.5 6t8.5 5z" />
    <glyph glyph-name="uni0049" unicode="I" horiz-adv-x="343" 
d="M145 730q7 5 15 5q5 0 11 -4q1 0 6 -2t7 -3q8 -2 20 -9q11 -6 18 -15q6 -8 8 -16q0 -7 2 -19q0 -13 -2 -19l-3 -12q0 -2 2 -14q2 -9 0 -21q-4 -11 -4 -58q-1 -30 -2 -45t-1 -16q0 -7 3 -32q3 -20 5 -54q0 -23 -4 -42q-3 -12 -3 -18q0 -4 1 -13q1 -8 1 -15.5t-1 -17.5
q-2 -19 -4 -23q-1 -3 -1 -16q0 -11 3 -20q4 -8 4 -27q0 -10 -1 -42q-1 -59 -4 -70q-2 -7 -2 -23q1 -5 1 -15t-1 -19q-1 -22 -5 -27q-7 -7 -11 -10q-7 -6 -13 -6q-8 0 -15 -3q-12 -4 -16 -4q-5 0 -15 2t-17 11q-3 3 -6 7.5t-4 7.5q-2 8 -2 33q0 24 -3 33q-2 4 -2 16
q2 10 2 15q1 3 -1 14q-3 7 -3 11q0 3 1 7q2 10 1 18t2 16q3 7 2 11q0 1 -3 10q-1 4 -1 18q0 10 2 18q4 7 2 15q0 2 -0.5 5.5t-1.5 8t-1 6.5q-2 12 1 26q3 24 3 26q0 9 -2 21q-3 8 0 30q2 24 2 51v57q0 25 -3 34q-2 8 -2 16t2 16q3 11 3 44v74q1 30 2 36.5t9 15.5
q10 12 19 15z" />
    <glyph glyph-name="uni004A" unicode="J" horiz-adv-x="531" 
d="M370 737h9.5h9.5h7h12q4 0 8 -4q3 -3 3 -9q0 -8 5 -21q4 -15 2 -27q-1 -8 -1 -33q2 -24 5 -31q0 -3 1.5 -8t1.5 -6t-1.5 -5.5t-1.5 -5.5q-2 -4 -4 -84q-1 -22 -1.5 -51t-0.5 -30t2 -49t2 -57v-21q-1 -4 1 -29q2 -22 -1 -28q-2 -6 -1 -25q1 -9 1 -35q0 -16 -4 -27
q-3 -12 -3 -25q0 -14 -4 -23q-2 -2 -6 -16q-2 -7 -10 -16q-9 -11 -10 -12q0 -3 -4 -11q-3 -6 -17 -19q-19 -12 -22 -13q-10 -5 -12 -8q-6 -4 -20 -11q-15 -7 -42 -8q-30 -2 -34 -4q-3 -1 -8 -1q-2 2 -28 2q-25 1 -37 5q-12 5 -20 5t-27 8q-4 2 -15 6.5t-14 5.5q-11 6 -16 13
q-6 6 -10 14t-11 13q-6 4 -8 11q-1 1 -2.5 6t-2.5 7t-4 9.5t-5 10.5q-6 14 -9 26q-3 9 -3 13q0 2 2 8q2 10 2 15q0 7 2 11q5 5 9 6q10 4 19 4q11 0 17 2l5 4q0 2 7 4q7 3 11 2q1 0 7 -2l9 -3q9 -3 14 -8q1 -1 9 -11q6 -15 9 -24q5 -13 5 -20q0 -5 5 -13q3 -10 13 -18
q9 -9 24 -12q12 -3 38 -5h13q10 0 19 3q8 4 17 13q11 11 14 12q9 6 12 10q7 7 7 14q0 1 1.5 8.5t2.5 11.5q2 16 2 27q0 15 3 24q2 12 2 27q0 14 -2 26q-3 12 -3 83q-1 36 -1 53q0 27 2 37q2 15 1 27q-2 12 -2 27v13v17.5v18.5v18q0 14 -2 19q-3 4 -3 13t3 15q2 8 -1 17
q-3 11 -3 39q2 38 3 44q2 13 4 20q3 6 8 8q1 0 7 2.5t9 4.5q14 5 30 6z" />
    <glyph glyph-name="uni004B" unicode="K" horiz-adv-x="733" 
d="M118 742q3 3 12 3q5 0 21 -1q21 0 36 -3l8 -4q0 -3 9 -8q12 -9 12 -10q2 -5 3 -68q1 -66 4 -72q3 -7 0 -24t0 -21q2 -8 2 -26q0 -20 -3 -26q-1 -1 -4 -11q-2 -7 0 -12q1 -5 5 -9q5 -2 11 -1q6 2 13 11t18 14t19 12q5 3 14 9q8 5 10 10q5 6 14 11q2 1 9.5 6t11.5 7
q13 9 16 16l5 7q4 4 6 8q3 7 10 10q6 2 12 8q3 3 12 9q6 2 12 9q5 7 5 9t5 5l11 11q6 10 14 11q8 2 12 9q3 6 16 19q12 12 20 13q8 2 12 7q6 6 7 12q0 5 6 11l22 22q12 12 16.5 14.5t13.5 2.5h11h36h25q12 2 19 -2q5 -2 7 -6q2 -6 2 -15q0 -11 -3 -15q-2 -5 -4 -5t-6 -10
q-5 -10 -15 -20q-11 -11 -14 -17q-5 -7 -14 -12t-13 -12q-4 -6 -13 -10q-10 -4 -16 -10q-8 -7 -12 -14t-9 -9q-3 -2 -7 -7q-2 -3 -9 -5q-9 -3 -10 -4q-3 -2 -7 -9q-2 -3 -10 -11q-4 -2 -16 -14q-9 -9 -21 -13q-11 -3 -15 -7q-5 -5 -8 -6q-5 -3 -11 -15t-11 -12q-6 -2 -10 -2
q-5 0 -11 -9t-11 -13q-5 -5 -5 -6q0 -3 -3 -6q-5 -5 -10 -6q-7 -2 -16 -11t-9 -18t7 -16q6 -6 16 -18q7 -6 13 -15q4 -6 14 -11q12 -8 16 -12q3 -6 13 -16q6 -7 11 -15q3 -4 11 -8q8 -3 16 -20q3 -5 8 -12l4 -7q1 -1 11 -3q10 -1 12 -6q3 -6 10 -7q8 -2 13 -11q6 -8 10 -9
q6 -2 9 -2q5 -1 6 -9q3 -8 9 -14q7 -7 13 -10q5 -2 18 -15q15 -17 16 -19q5 -7 11 -8q8 -3 10 -8q3 -6 11 -14q9 -9 15 -13q4 -2 9 -7q1 -2 11 -10q7 -4 27 -24q17 -17 21 -23q3 -4 3 -10q0 -7 -4 -12q-1 -2 -4 -7.5t-4 -7.5q-6 -10 -8 -12q-4 -3 -19 -3q-16 0 -22 3
q-6 2 -19 2h-15q-28 0 -43 6q-10 4 -13 6t-7 12q-8 14 -10 17q-4 6 -7 9q-4 2 -10 6q-6 3 -8 7q-2 2 -12 10q-10 7 -14 15t-17 16q-13 9 -15 9t-4 5q-2 6 -7 6q-4 2 -11 2q-8 2 -9 6q0 1 -1 4q-3 9 -7 10q-4 3 -7 11q-3 11 -14 21q-12 11 -18 12q-5 1 -9 11q-5 9 -10 10
q-6 1 -10 10q-7 10 -18 22q-14 14 -22 26q-9 13 -15 16q-3 2 -13 7q-8 3 -9 9q-2 8 -2 11q0 2 -3 5l-14 12q-11 8 -15 16q-4 7 -14 11t-14 4q-4 1 -9 -2q-4 -2 -6 -9t1 -15q2 -8 4 -15q0 -7 -3 -14q-2 -7 0 -15q3 -12 3 -17q1 -5 3 -77q0 -16 0.5 -33.5t0.5 -28.5v-12
q0 -4 -2 -56q-1 -48 -5 -53l-8 -8q-5 -4 -27 -5q-18 0 -27 -3q-5 -1 -11 0q-7 2 -12 7q-2 1 -6.5 4.5t-5.5 5.5q-6 4 -11 17q-5 12 -3 19t4 9q1 4 1 7q0 6 -3 11q-2 4 -2 10q0 5 2 11q3 8 3 27t-3 27q-3 6 -3 23q-2 16 1 26q1 4 1 15.5t-1 31.5q-3 39 -5 44q-2 6 -2 11v24
q2 19 3 22q3 5 3 62q-1 60 -3 64q-3 6 -3 13q0 8 3 11q2 6 2 28q0 24 -3 28q-3 6 -3 17t3 17t1 16q-1 5 -1 14q1 2 3 19q2 14 4 21q3 5 3 14t-3 13q-3 9 -3 13q-1 6 2 16q4 10 4 15q0 7 3 10z" />
    <glyph glyph-name="uni004C" unicode="L" horiz-adv-x="655" 
d="M136 745q4 1 10 3q6 1 7 1q7 0 11 -3q8 -2 15 -2t13 -2q7 -3 11 -9q6 -6 8 -13t7 -11q6 -4 10 -18t4 -56v-20.5v-16.5q-1 -6 -1 -7q0 -2 -6 -10q-4 -6 -5 -9t-1 -15q0 -17 5 -23q5 -7 7 -12t0 -20q-1 -14 3 -23q4 -8 3 -14q-1 -2 -3 -20q-4 -18 -6 -21q-2 -6 -2 -18
q2 -10 2 -23q1 -14 6 -20q4 -5 4 -15q0 -11 -3 -19q-2 -9 0 -17q3 -7 3 -14q0 -6 -4 -14q-3 -8 -2 -22q2 -16 5 -22q3 -9 2 -16q-2 -11 -4 -13q-2 -6 -2 -14q0 -10 3 -16q2 -8 0 -17q-4 -8 -4 -16q-2 -7 2 -16q4 -19 4 -20q0 -10 4 -14q3 -3 12 -5q8 -3 15 1q2 1 7.5 2.5
t7.5 1.5q2 1 9 1.5t10 0.5q15 0 22 3q8 2 16 0q8 -3 13 -3q3 0 11 2q5 3 25 3q18 0 22 -4q2 -3 5 -3t9 4q8 4 17 4q10 1 28 -3q17 -4 71 -4q40 0 47.5 -0.5t13.5 -4.5q8 -4 14 -16q3 -6 6 -19q0 -9 -5 -15q-5 -7 -5 -13q0 -9 -1 -12q-2 -4 -13 -12q-12 -6 -16 -6
q-7 0 -14 -3q-5 -2 -20 -2q-15 2 -18 4q-6 3 -16 3q-5 0 -17 -3q-2 -2 -17 -4q-18 0 -28 1q-18 3 -26 0q-9 -1 -17 1q-10 3 -15 2q-5 0 -11 -2q-9 0 -13 2q-8 2 -14 0q-9 -3 -19 -3q-6 0 -21 3q-8 3 -14 0l-12 -3q-1 0 -10 3q-6 3 -22 2q-15 0 -25 -4q-6 -2 -29 -2
q-23 1 -34 6q-11 6 -22 8q-9 0 -16 5q-2 1 -5 3q-2 1 -3 2q-2 2 -2 10q-3 11 -4 12q-2 6 -2 12t2 12q3 6 3 58q0 51 -3 61q-2 8 -1 22q3 11 3 38v13q0 13 -2 27q-3 18 -2 31q2 18 3 20q1 6 1 22v17q0 34 -6 45q-5 10 -5 15q0 4 2 10q2 4 4 27q0 6 0.5 15.5t0.5 10.5t-0.5 8
t-0.5 18.5v22.5v22q0 24 1 40q1 20 0 31q-2 7 0 22q3 11 0 20q-2 10 -2 17q0 9 3 23q4 16 5 17q3 3 13 6z" />
    <glyph glyph-name="uni004D" unicode="M" horiz-adv-x="897" 
d="M143 727q6 2 19 1h27q13 0 19 -3q6 -2 18 -2q14 0 20 -3q5 -2 7 -4l8 -6q8 -6 9 -8q0 -2 6 -10q5 -8 5 -20q2 -10 6 -25q4 -13 4 -14q0 -2 6 -14q7 -16 7 -19q0 -1 1.5 -5.5t3 -10t3.5 -9.5q8 -22 10 -25q2 -6 2 -11q0 -8 3 -17q1 -3 3 -9.5t2 -7.5q0 -6 6 -14
q4 -6 7 -21q2 -15 5 -21q3 -8 3 -16q0 -7 4 -17q3 -6 3 -13q0 -6 3 -10q2 -5 13 -16q8 -8 9.5 -11t0.5 -11q-1 -10 2 -15q2 -5 4 -16q0 -9 5 -19q3 -6 5 -19t3 -14q3 -5 4 -14q2 -10 5 -15l2 -3l3 -6q2 -6 2 -19q2 -15 4 -20q3 -5 3 -16t5 -20q4 -8 9 -9q5 0 6 3q1 1 3 16
q1 14 6 19l7 11q2 8 2 17q0 11 4 16q4 6 9 16q6 12 6 19q0 9 3 15q1 4 6 19q1 3 3 12t3 12q2 12 6 18l8 16q6 8 6 22q0 16 3 22q1 1 4 11q0 8 1 11q1 5 6 10t8 16q3 10 2 17q-2 8 -2 9q0 3 6 9q5 4 7 12q0 1 2.5 9.5t4.5 13.5q5 15 9 24q4 7 4 16q0 2 0.5 9.5t0.5 10.5
q1 11 6 16q3 2 6 8q0 2 1.5 8t1.5 8q4 13 2 20q0 7 5 12q5 7 6 11q4 14 4 17q2 12 6 17q4 7 9 9q4 2 9 2t11 6q5 5 12 7q10 3 11 4q4 3 13 1q4 -1 14 -1t15 1q9 2 17 -1q6 -3 15 -3t16 3q10 4 15 4q6 0 10 -3q5 -2 7 -8t2 -11q0 -7 3 -16q3 -7 3 -16q0 -2 -1.5 -6t-2.5 -5
q-2 -6 -2 -19q0 -14 3 -24q3 -8 3 -15q0 -1 1 -6t2 -7q3 -6 3 -20v-8q0 -11 1 -29q1 -13 1 -17q0 -9 -4 -16q-3 -8 -3 -38t3 -35q3 -6 3 -34v-15q0 -14 -2 -21q-3 -6 -3 -36v-38v-36v-43q2 -16 0 -23q0 -3 2 -33q1 -12 1 -19q0 -8 -2 -14q-2 -10 -2 -24q0 -18 2 -22
q3 -8 2 -15q-2 -8 -2 -23t-2 -23q-2 -7 -6 -11q-2 -2 -14 -7q-11 -5 -32 -6q-10 -1 -14 -1q-7 0 -17 5q-12 6 -13 10q-1 2 -1 9q0 3 -6 19t-6 22q-2 7 2 14q3 6 3 18q0 11 -3 16q-2 4 -2 10q0 5 2 11q3 3 3 20q0 9 -1 34q0 48 4 54q4 8 4 13q0 1 -1 5t-2 5q-3 6 -3 10
q0 2 1.5 6.5t1.5 6.5q2 4 2 14q-3 12 -4 14q-2 8 -2 24q0 17 -3 22q-2 4 -2 9q0 7 1 9q1 0 3 3.5t4 4.5q4 6 4 10q0 5 -2 9t-4 18q-2 17 -4 20q-3 4 -3 17q0 10 2 20q1 3 2 11.5t1 10.5q1 12 -2 18l-3 9q0 3 4 11q3 6 3 35q0 31 -1 33q-2 5 -4 5q-1 0 -7 -12q-5 -10 -5 -15
q0 -4 -3 -10q-2 -4 -7 -19q-4 -12 -4 -16q0 -7 -6 -19q-5 -14 -7 -24q-2 -12 -6 -19q-3 -5 -9 -14q-5 -5 -5 -9v-16q-1 -13 -7 -23q-5 -10 -7 -23q0 -2 -2.5 -9.5t-3.5 -9.5q-1 -6 -8 -22q-5 -11 -7 -22q0 -8 -3 -14l-4 -8q-1 -3 -2 -4q-3 -4 -7 -19q-1 -3 -5 -19
q-4 -10 -4 -11q-2 -6 -2 -16q0 -11 -3 -20l-3 -9t-2 -7q-2 -8 -7 -12q-6 -9 -9 -15q-4 -8 -4 -11q0 -2 -2 -12q-3 -7 -5 -20q0 -7 -7 -23q-7 -18 -8 -25q-2 -13 -6 -20q-6 -10 -9 -19q-2 -6 -5 -18q-2 -8 -9 -15t-10 -7q-2 0 -9 -5t-21 -3q-11 3 -24 3q-10 0 -18 2
q-12 6 -18 10q-10 8 -11 10v15q2 11 -4 28q-9 23 -9 24q-5 7 -5 11q0 2 -2 8q-1 2 -4 15q-2 12 -5 17q-5 9 -9 12q-5 4 -4 13q0 9 -5 14q-4 3 -4 17q0 13 -4 17q-3 8 -4 17q-1 10 -7 19t-7 19q-2 12 -4 13q-5 3 -6 4q-3 1 -4 23q-1 23 -6 34q-3 9 -12 27q-7 12 -10 28
q0 14 -4 22q-1 4 -4 12q-1 2 -1 3q-3 9 -4 14q0 3 -5 18q-3 9 -9 15q-5 5 -6 16q-6 20 -6 21l-3 9q-2 4 -2 5q-2 6 -2 9t-4 11q-3 4 -3 10q0 2 -2 8q-2 4 -7 9t-5 19q0 12 -2 16q-2 3 -5 3q-4 0 -7 -3q-4 -5 -3 -12q2 -11 5 -15q3 -6 3 -14q0 -5 -1 -20q-1 -12 -1 -24t1 -21
q2 -18 4 -25q2 -6 2 -15q0 -10 -3 -14q-2 -6 -2 -22v-20q0 -42 -2 -51q-2 -11 -1.5 -14t4.5 -8q5 -8 5 -15q2 -9 -2 -20q-4 -12 -3 -19q0 -6 4 -16q3 -9 -1 -20q-4 -9 -4 -25q0 -15 3 -18q2 -6 2 -11q0 -6 -2 -10q-3 -6 -3 -44q0 -37 4 -48q3 -9 3 -38q0 -28 -2 -32
q-1 -2 -8 -12l-6 -6q-3 -4 -4 -5q-2 -5 -6 -7t-8 -2q-8 0 -14 3q-8 4 -18 4q-10 2 -14 4q-7 5 -13 15q-8 10 -10 18q-1 7 3 16q3 10 2 19q-3 8 -1 16t2 19t-2 23q-2 6 -4 38q0 17 -3 35q-2 6 -2 8q0 3 3 10q4 11 3 21v23v22v61v62v32q0 21 3 28q2 10 2 13q0 4 -2 10
q-3 6 -3 22q0 18 -1 20q-1 1 -1 51q0 49 2 59q1 10 0 18q-1 5 -1 21q1 11 7 18q1 2 3.5 6t3.5 6q4 6 9 11q6 6 14 8t15 5z" />
    <glyph glyph-name="uni004E" unicode="N" horiz-adv-x="805" 
d="M627 742l12 1q6 -1 13 -4l16 -4q3 0 14 -11q11 -13 11 -16v-102q0 -95 3 -104q3 -4 3 -24q0 -18 -2 -36q-2 -17 -3 -19q0 -5 3 -14q3 -7 3 -20q0 -9 -2 -19q-3 -8 -1 -14q2 -4 2 -13q0 -1 -3 -19q-4 -11 -2 -20l3 -24q5 -16 6 -23q2 -6 2 -9t-2 -8q-3 -6 -3 -17t-3 -19
q-4 -12 -4 -42t3 -38q3 -9 3 -13q0 -3 -3 -12q-3 -5 -2 -11q0 -6 4 -14q2 -10 1 -14q0 -5 -6 -13q-6 -9 -7 -21q-2 -13 -6 -23q-5 -10 -9 -12q-3 -2 -39 -2t-43 -3q-7 -2 -11 -2h-3q-4 2 -8 5q-6 6 -8 9q-1 1 -6.5 6t-8.5 8q-11 9 -16 22q-7 12 -13 17q-6 3 -10 20
q-4 16 -7 19t-9 11q-6 7 -10 17q-2 8 -7 16q-4 6 -10 19q-5 13 -9 16q-5 4 -9 9q-5 10 -6 15t-8 16q-4 5 -6 15q-2 11 -6 17q-4 8 -12 11q-5 2 -7 3.5t-3 8.5q-1 6 -8 24l-12 25q-4 8 -12 14q-7 5 -10 13q-4 8 -6 21q-3 13 -8 17q-5 7 -5 10q0 6 -2 10q-1 4 -6 7q-5 2 -8 9
q-1 1 -5 6t-6 7q-5 6 -9 16q-4 11 -19 25q-10 12 -12 15.5t-2 13.5q0 11 -6 23q-6 11 -9 12q0 1 -2.5 4.5t-3.5 5.5q-5 7 -7 15q-1 5 -10 18q-2 3 -6.5 8.5t-4.5 6.5q-4 5 -8 4q-4 0 -7 -5t1 -10q3 -6 3 -24q1 -17 -3 -29q-3 -11 -3 -18q0 -4 1 -18q1 -18 1 -33v-12
q-1 -19 2 -27q4 -5 4 -23q2 -23 4 -27q2 -9 -1 -18q-3 -8 -3 -77q1 -72 4 -81q2 -13 0 -21q-3 -7 -3 -54t2 -50q3 -4 3 -11q0 -8 -3 -13q-2 -8 -2 -19q0 -13 -2 -17q-2 -7 -9 -10q-7 -5 -18 -9q-7 -1 -19 -4h-4q-6 0 -15 4q-14 6 -16 7q-3 3 -11 15q-8 14 -11 17q-5 8 -5 16
q0 5 2 13q2 9 0 19t-2 18t5 16q4 10 2 17q0 2 -0.5 7.5t-0.5 8.5q0 9 -2 15q-1 7 0 18q2 12 0 22q-3 11 -1 20q3 10 3 48q-1 40 -3 43q-3 6 -3 19q0 8 3 20q2 8 2 34q0 25 -3 36q-3 6 -3 8.5t3 10.5q4 14 4 18q0 8 -3 13q-2 8 -2 17q0 8 2 16q2 7 4 24q1 15 -2 26
q-2 6 -4 28q0 20 3 29q2 8 0 19q-3 10 -1 19q3 6 3 16q0 8 -4 20q-3 12 -2 16q0 3 5 10q7 11 8 13q2 7 8 11q5 3 15 5q8 2 13 4q4 2 9 2q7 0 10 -3q4 -2 10 -2t16 -4q5 -1 23 -6q18 -3 26 -4q12 -1 20 -5q5 -4 9 -11q5 -6 7 -16q1 -4 8 -21q5 -12 11 -18q1 -2 3.5 -6t3.5 -6
q4 -5 11 -9q8 -5 11 -15q4 -12 8 -16q5 -8 5 -12q4 -12 8 -18q3 -7 12 -19q4 -3 9 -13q2 -8 6 -12q6 -10 7 -12q4 -8 4 -20q1 -13 7 -17q7 -5 11 -10q1 -2 4.5 -8t5.5 -9q3 -5 13 -27q6 -18 11 -20q6 -2 6 -6q2 -4 6 -6q5 -3 12 -14q5 -8 8 -16q1 -1 2.5 -5.5t1.5 -5.5
q5 -7 8 -19q6 -14 11 -18q5 -3 9 -11q6 -9 7 -10q4 -4 5 -17q1 -11 7 -17q6 -8 7 -11q0 -4 6 -12q5 -9 7 -14q2 -8 4 -11q0 -1 3 -11q1 -6 7 -10q7 -7 8 -10q0 -1 10 -18q7 -12 10 -15q2 -3 5 -5q5 -1 8 2t2 24q0 6 -0.5 18.5t-0.5 16.5t-0.5 12t-1.5 11q-2 9 1 13q2 6 2 20
q-2 19 -3 22q-3 5 -3 13q0 14 1 23q0 15 2 35q1 6 2 13.5t1 8.5q2 5 -2 12q-1 3 -2.5 8.5t-1.5 6.5q-3 8 0 19q3 18 3 22q1 7 1 25q0 11 -3 20t-2 24q2 18 2 34q0 18 -4 31t-1 21q2 8 -1 19q-3 12 -3 33v25q0 45 4 50q2 2 12 6q7 1 13 7q2 5 15 6z" />
    <glyph glyph-name="uni004F" unicode="O" horiz-adv-x="801" 
d="M437 672q-5 2 -39 2t-38 -2q-2 -1 -17 -3q-13 -1 -18 -7q-8 -6 -15 -7q-8 -2 -17 -7q-9 -7 -10 -11q-2 -6 -4 -8q-1 -1 -10 -3q-7 0 -17 -5q-9 -5 -11 -11q-2 -8 -7 -18q-7 -12 -12 -14q-6 -2 -6 -5q-1 -1 -3 -7.5t-3 -9.5q-4 -15 -9 -20q-6 -6 -9 -15q-4 -14 -6 -27
q-2 -17 -5 -26q-3 -8 -3 -20q0 -1 0.5 -16.5t0.5 -26.5q1 -19 1 -25q0 -11 -3 -20q-3 -8 -3 -10q0 -4 5 -15q6 -16 6 -17q0 -2 -2 -10q-3 -4 -3 -14q0 -9 3 -12t7 -5q3 -2 4 -30t4 -32q4 -3 10 -14q8 -12 10 -14q5 -5 6 -8q2 -4 4 -12q0 -7 3 -10q1 -1 9 -3q5 -2 6.5 -3.5
t2.5 -7.5q2 -8 4 -13q3 -5 10 -10q13 -6 16 -7q10 -3 11 -7q4 -6 8 -7q9 -6 12 -9q7 -5 23 -5q14 1 21 -2q6 -2 6 -4t2 -2h3q3 0 17 1q9 1 25 5q9 3 19 -1q9 -3 15 -3q3 0 9 2q6 4 14 4q7 1 26 10t22 17q4 7 16 13q11 6 14 11q4 7 20 22q18 19 20 25q0 2 2 7t2 7q2 8 4 18
q0 11 6 18l8 16q3 6 5 27q1 17 4 24q3 4 3 35t-3 35q-3 9 -2 14q0 9 2 15q3 6 3 10q0 3 -6 13q-6 8 -6 17q0 7 2 13q3 4 3 14q0 8 -2 16q-2 7 -4 17q-2 13 -5 16q-2 3 -9 13q-4 6 -6 14q-1 5 -1 16q0 7 -13 22q-11 14 -20 23q-7 7 -8 16q-1 8 -11 16q-2 2 -10 7.5t-11 8.5
q-12 8 -26 10q-12 0 -18 3q-3 2 -14 4q-10 0 -14 4zM385 762q5 2 12 2q5 0 16 -1q6 0 16.5 -0.5t11.5 -0.5t8 0.5t11 0.5q13 0 24 -6q18 -8 19 -8q5 0 11 -3l12 -3q13 -3 20 -6q16 -7 19 -10q4 -2 13 -5q7 -2 16 -7q10 -6 13 -9q5 -3 7 -8q1 -2 12 -18q9 -13 15 -13
q4 0 10 -2q4 -2 6 -8t6 -13q6 -7 9 -16q5 -9 6 -15q3 -7 7 -9q6 -3 6 -9q3 -9 4 -11q3 -5 7 -18q4 -9 4 -22q0 -10 5 -16q4 -4 8 -14q2 -11 8 -21q6 -12 7 -27q0 -16 3 -21q2 -4 2 -9t-2 -11q-1 -7 1 -17q2 -8 2 -11t-2 -10q-3 -10 -1 -16l3 -18v-7q0 -5 -2 -15
q-1 -3 -5 -19q-3 -14 -4 -17q-2 -8 -3 -37q0 -22 -1 -26.5t-6 -8.5q-6 -6 -6 -9q0 -7 -3 -11q-3 -12 -5 -18q-1 -9 -7 -17l-6 -8q0 -1 -6 -9q-8 -6 -8 -11q-2 -5 -13 -20q-13 -17 -13 -18q0 -3 -2 -11q-1 -9 -7 -12q-3 -2 -15 -11q-11 -9 -13 -12q-6 -6 -14 -10
q-10 -5 -12 -9q0 -3 -6 -5t-8 -2q-4 0 -9 -5q-10 -7 -11 -7q-7 -4 -9 -8q-6 -6 -13 -8l-15 -5q-4 -2 -26 -2t-35 -6q-12 -5 -17 -5q-4 0 -12 2q-10 2 -19 5q-11 1 -20 0q-10 -3 -26 -1q-19 0 -24 3q-9 3 -21 3q-17 1 -32 7q-23 9 -24 9q-8 3 -17 5q-15 6 -24 11
q-16 9 -29 22q-16 14 -18 15q-4 1 -10 11q-6 7 -15 10q-5 1 -7 3t-3 7q-2 10 -6 15q-4 8 -7 11t-9 13t-12 16q-7 7 -7 14q-3 9 -7 17q-4 12 -4 13q0 2 -4 8q-3 4 -8 14q-2 5 -2 14q1 2 2 7t1 7q0 10 -4 17q-3 4 -7 12q-1 2 -3 95q-1 52 -1 96q0 6 3 14q4 9 2 14q-2 6 -2 11
t4 13q3 6 9 14t6 9q0 2 2 8q1 5 6 12q5 6 6 16q2 12 5 17q1 2 4 9.5t4 10.5q4 12 11 19q7 5 7 8q0 1 4 11q4 8 27 31q22 23 31 27q12 5 14 7q8 5 16 8q12 6 14 6t10 4q14 7 22 9q12 4 22 7q8 2 14 5q5 1 42 3q34 1 41 4z" />
    <glyph glyph-name="uni0050" unicode="P" horiz-adv-x="600" 
d="M292 649q-10 4 -22 4t-24 -2q-19 -4 -20 -4q-8 -2 -17 -6q-7 -4 -10 -9q-1 -6 1 -12q3 -12 3 -18q1 -8 -1 -25q-2 -14 -2 -23q0 -10 5 -22q4 -14 4 -18q0 -5 -2 -15q-2 -4 -7 -19q-3 -11 -3 -17t2 -10q3 -6 3 -25q0 -21 2 -24q2 -6 5 -6q3 -1 17 -5q15 -3 48 -3
q35 0 41 3q5 2 25 4q20 1 23 5q2 4 6 8q3 3 9 5q9 2 14 7t15 10q8 4 15 11q6 5 7.5 8t2.5 12q1 10 8 25q6 11 6 22v16q0 24 -2 30q-1 1 -4 11q-3 9 -4 13q-4 8 -4 13q0 7 -3 11q-3 6 -13 12q-6 4 -18 10q-8 2 -12 8q-6 6 -12 6q-2 1 -5.5 2.5t-5.5 1.5q-3 2 -34 2
q-27 0 -37 3zM145 742q4 1 10.5 1t11.5 -1q11 0 16 -3q4 -2 42 -2q39 -1 44 -3q3 -1 16 -4q12 0 16 2q7 4 27 5q12 1 17 1q8 0 16 -2q12 -4 13 -5q1 0 4 -2t5 -3q6 -3 15 -3q8 0 14 2q3 3 10 3q5 0 15 -5q7 -5 11 -5q1 0 5.5 -3t7.5 -4q10 -7 12 -10q0 -1 8 -7q6 -3 10 -11
q3 -6 10 -9q12 -8 14 -10q3 -4 12 -10q6 -4 10 -16q3 -7 6 -20q2 -12 5 -17q1 -6 6 -18q3 -9 9 -15q1 -2 3 -5.5t3 -5.5t1 -5q0 -5 -3 -12q-3 -8 -4 -48q0 -35 -5 -47l-9 -18q-5 -5 -7 -13q-1 -7 -13 -20l-24 -24q-9 -9 -21 -16q-8 -4 -14 -10q-7 -7 -10 -11q-9 -9 -17 -13
q-10 -5 -27.5 -6t-26.5 -6q-6 -5 -16 -7q-8 -1 -25 3t-26 1t-39 -4q-16 -1 -45 -1q-17 0 -19 -2q-2 0 -7 -5q-2 -3 -3 -70v-75q0 -8 -2 -18q-3 -10 -2 -14q2 -7 5 -11q2 -3 2 -13q0 -7 -1 -26q0 -33 -2 -37q-1 -3 -9 -15q-7 -9 -18 -14q-9 -4 -28 -4q-15 0 -25 2
q-10 5 -12 8q-6 4 -11 16q-5 11 -6 27q-1 15 -6 21q-5 10 -6 15q-2 9 0 14q0 1 1 3l3 9q3 6 2 19q-2 14 -2 30q-1 10 -1 28q0 2 0.5 11.5t0.5 14.5q0 20 -1 25q0 13 1 18q1 10 -1 15q-3 6 -3 25t3 25q2 6 2 17q0 12 -2 16q-3 6 -3 25t3 25q2 4 2 22q0 15 -2 23q-1 6 0 13
q2 6 2 12q0 7 -3 15q-2 8 0 16q3 7 3 83q-1 76 -3 79q-3 6 -3 11q-2 5 2 13q2 8 4 8t6 10q5 10 8 13q4 3 7 3q2 0 12 8q8 8 19 8z" />
    <glyph glyph-name="uni0051" unicode="Q" horiz-adv-x="799" 
d="M377 644q-3 2 -18 2q-12 0 -18 -2l-12 -4q-8 -2 -12 -6q-5 -5 -12 -7q-6 -1 -17 -7q-10 -6 -13 -9q-1 -3 -13 -15q-9 -9 -15 -11q-5 0 -7 -4q-1 -1 -8 -14q-4 -7 -13 -19q-7 -8 -11 -21l-2 -9q-2 -10 -2 -14q-5 -17 -8 -22q-5 -10 -6 -31q-2 -21 -4 -25q-3 -5 -4 -56
q0 -50 3 -55t3 -10q0 -7 -3 -13q-3 -9 0 -18q4 -8 4 -20q2 -12 7 -22q1 -2 4 -10t4 -12l5 -20q1 -8 4 -13q4 -4 10 -7q8 -5 14 -13q8 -10 9 -10q4 -4 6 -8q3 -7 10 -11q8 -4 19 -15q13 -11 20 -14q5 -2 14 -8q5 -5 9 -5q3 0 11 -4q6 -3 45 -3h20q18 0 26 2q1 0 8 1.5t11 2.5
q6 0 15 3q2 2 11 4q9 3 12 6q2 1 15 8q10 2 22 9t26 19q10 10 13 16q2 6 7 11q6 5 6 15q0 8 5 16q4 8 8 10q4 3 6 11q2 9 5 13q3 9 3 15q2 10 3 13q3 6 3 20q2 14 4 23q3 5 3 37t-3 38q-2 8 0 16q3 8 3 12q0 5 -3 14q-1 2 -3 9.5t-3 10.5q-2 4 -4 21q0 8 -3 20q-2 4 -2 16
q1 10 -7 20q-7 11 -11 13t-5 13q-3 13 -5 19q0 2 -2 6l-1 4q-3 2 -7 4q-2 1 -5 2t-4 2q-3 3 -3 7q-2 7 -3 8q-2 3 -11 9q-11 7 -17 14q-9 9 -13 11q-9 3 -13 4q-7 0 -19 6l-13 8q-3 1 -14 1q-9 -1 -15 2q-9 3 -12 3q-10 -3 -11 -3q-6 -2 -13 -2q-9 0 -13 2zM335 735h11
q3 -1 17 -1q9 0 35 2q12 1 16 1q9 0 15 -4q8 -3 39 -3q30 0 39 -4q6 -3 16 -5q9 -2 13 -7q5 -5 13 -6q7 0 19 -5q7 -4 11 -4q5 -5 11 -9q8 -7 15 -16q4 -7 10 -9q5 -3 14 -5q8 -2 10 -10t10 -12q7 -3 10 -10q3 -6 7 -12q5 -5 14 -23l22 -44q13 -27 17 -45q4 -22 4 -34
q0 -15 7 -27q7 -14 7 -27q0 -14 -4 -25t0 -19q3 -15 3 -17q0 -4 -5 -24q-4 -16 -6 -18q-2 -4 -2 -16q0 -14 -3 -20q-3 -11 -4 -20q-2 -14 -7 -25q-5 -10 -7 -20q-3 -12 -5 -17q-5 -9 -10 -12q-6 -4 -7 -10q-2 -8 -2 -10q0 -3 -7 -14q-6 -9 -16 -18q-3 -3 -8.5 -8t-6.5 -6
q-6 -4 -8 -9q-4 -5 -7 -7q-4 -2 -6 -6v-8q0 -5 4 -7q6 -2 32 -2q29 1 34 4q6 3 22 3q8 1 11 1q8 0 21 -5q14 -5 21 -12q5 -5 7 -12q0 -5 2 -13q2 -6 2 -11q0 -4 -4 -12q-3 -6 -6 -9q-4 -2 -17 -2q-14 -2 -22 -5q-8 -2 -35 -2h-36q-14 0 -32.5 0.5t-28 1t-10.5 0.5t-10 -0.5
t-15 -0.5q-17 -2 -24 -4q-3 -3 -22 -5q-18 -1 -25 2q-8 2 -21 0l-21 -6q-7 -2 -23 -1q-9 1 -33 1q-10 0 -28 -3q-5 -2 -13 -2q-1 1 -23 5t-28 2q-7 -1 -15 2q-2 1 -7.5 3t-7.5 2q-6 2 -15 8q-6 3 -25 12q-16 7 -22 14q-7 8 -13 10q-7 4 -10 8t-10 8q-8 3 -16 12q-5 7 -17 16
q-10 9 -13 15q-5 9 -6 9q-3 0 -10 17q-10 18 -12 20q-3 4 -4 20q-3 19 -7 24q-3 9 -9 16q-3 3 -6 11q-2 6 -7 19q-6 12 -6 28v23v21v19v25v10q0 9 2 13q3 4 4 38q1 19 1 40v16q-1 9 4 19l11 28q5 19 12 31q4 8 7 17q0 7 9 21q7 13 13 16l9 3q5 2 7 7q2 6 2 13q0 9 2 13
q1 3 8 8q12 9 15 12q9 9 23 16t19 7q6 0 10 6q1 2 4 5.5t4 4.5q3 5 17 11q12 6 24 6q13 0 21 2q8 3 19 5q12 3 16 6z" />
    <glyph glyph-name="uni0052" unicode="R" horiz-adv-x="704" 
d="M324 635q-9 4 -43 5h-38q-1 -1 -4 -2t-4 -1q-6 -3 -11 -3q-8 -2 -12 -4q-6 -2 -8 -8q-3 -4 -3 -21q0 -9 1 -37q0 -9 0.5 -34t1.5 -28q1 -12 -3 -16q-3 -4 -5 -11q-1 -2 -1 -5.5t1 -6.5q2 -7 6 -11t4 -15q0 -10 3 -13q4 -2 8 -2q2 0 8 -1.5t8 -1.5q8 -2 17 -2h8q12 0 20 4
q5 3 27 3q21 0 27 -3q7 -3 30.5 -3t31.5 3q6 2 12 2q5 0 11 -2q6 -3 21 -3q14 -1 18 3q3 1 3 5q0 1 8 7q6 2 19 11q17 14 18 15q7 9 11 18q4 11 4 22q0 5 -2 12q-3 7 0 19q2 8 2 11t-1 7q-3 5 -5 17q-2 10 -9 21q-9 13 -13 14t-12 9q-5 5 -23 15q-19 9 -28 9q-3 0 -11 1.5
t-11 2.5q-10 3 -17 0t-30 -4h-13q-11 0 -22 2zM203 730q6 2 18 2q4 -1 18 -1h21q27 0 46 -1q34 -1 40 -4t17 -3q10 0 26 2q14 3 22 1q5 0 13 -6q8 -4 12 -4q5 0 11 2q6 1 11 5q3 3 9 3q4 0 11 -5t11 -6q9 -2 31 -14q22 -11 31 -14q3 0 13 -5l8 -6q0 -3 10 -13q2 -3 7.5 -8.5
t6.5 -7.5q4 -6 10 -10q8 -4 9 -12q1 -3 8 -20q7 -13 8 -40q0 -24 4 -34q3 -9 2 -20q-1 -14 -9 -28l-7.5 -12.5t-5.5 -9.5q-5 -5 -5 -11q0 -5 -2 -11q-2 -5 -13 -18q-8 -8 -17 -20q-5 -7 -18 -11q-12 -5 -14 -5l-6 -4q-5 -5 -6 -7q-2 -4 -2 -12q0 -7 4 -11t5 -4q2 0 6 -4
q3 -3 11 -7t13 -11q4 -4 11 -18q5 -10 9 -20q2 -5 5 -18q4 -18 4 -21l6 -18q2 -10 4 -25q1 -17 6 -22q4 -4 4 -11t-2 -11q-1 -6 2 -15q4 -11 4 -37t5 -33q4 -4 8 -17q2 -12 5 -18q2 -4 2 -7q0 -2 -4 -14q-3 -11 -7 -15q-4 -2 -16 -2q-14 0 -22 -4q-9 -3 -22 -3q-12 0 -18 2
q-4 1 -13 12q-8 10 -9 10q-2 3 -3 7q-3 6 -3 16t-3 16q-3 5 -4 31q-1 24 -6 41q-1 4 -6 19q-2 3 -1 22q1 14 0 17.5t-5 10.5q-8 12 -10 14q-3 2 -6 18q-1 14 -7 20t-6 8t-6 16q-6 12 -11 17t-13 7q-2 1 -9.5 4t-10.5 4q-21 6 -30 8q-13 3 -21 3q-4 0 -14 -2q-8 -3 -17 -3
q-7 0 -19 4q-10 3 -28 3q-17 0 -23 -2q-5 -3 -10 -3t-11 2q-1 1 -11 4q-7 2 -14 0q-6 -1 -12 -5q-4 -4 -6 -12q0 -25 1 -46q1 -39 4 -47q3 -7 0 -19q-4 -12 -4 -25q-2 -15 -4 -20q-2 -3 -4 -14q-1 -8 3 -15q1 -2 4 -11t4 -11q5 -17 2 -26t-3 -13q0 -7 1 -13q1 -11 -4 -20
q-5 -7 -7 -15q0 -4 -6 -10q-6 -4 -8 -4q-1 0 -10 -3q-6 -3 -25 -3h-9q-9 0 -21 4q-10 4 -16 10q-5 7 -6 12q-2 6 -2 61t4 64q3 7 3 25q0 19 -3 26q-4 7 -3 24q2 18 2 24q0 5 -2 25q-3 13 -3 28q1 3 1.5 18.5t0.5 21.5v16q0 13 -2 23q-3 9 0 16q3 12 3 13v68q-1 65 -4 77
t-3 18q0 5 1 11q0 4 0.5 13t0.5 12q0 9 -2 31v11q0 9 3 20q3 9 3 19q0 3 0.5 8t0.5 6q4 8 7 11l6 8q0 1 3 4t14 3q10 0 18 4q6 4 17 6q13 0 18 -1q10 -2 22 0z" />
    <glyph glyph-name="uni0053" unicode="S" horiz-adv-x="637" 
d="M268 768q5 2 10 2h4q5 0 11 -3q5 -3 10 -3q1 0 13 3q8 3 16 0q15 -3 20 -3q9 0 21 -2q7 -3 24 -5t27 -7q2 -1 12 -5t14 -5q12 -4 19 -4q6 -2 16 -8q9 -7 11 -7q2 -2 4 -5q2 -7 15 -18q10 -12 18 -27q8 -16 8 -21q1 -1 2.5 -5t1.5 -6q3 -5 5 -5q3 -3 4 -8q2 -6 2 -12
q0 -5 4 -15t0 -21q-4 -14 -5 -16q0 -3 -2 -7q-3 -2 -13 -4q-6 -1 -19 -1q-8 0 -16 2q-6 3 -21 5q-14 0 -20 4q-9 6 -15 12q-8 8 -13 23q-5 18 -5 19q-1 5 -11 14q-12 10 -15 12q-1 0 -11 7q-4 4 -13 6q-10 2 -12 4q-2 1 -14 3q-11 2 -13 4q-3 1 -19 3q-6 1 -17.5 1t-22.5 -1
q-19 -1 -23 -2t-9 -6q-7 -7 -12 -7q-5 -1 -9 -6q-3 -6 -9 -6q-7 -2 -16 -7q-7 -2 -12 -7q-2 -2 -6 -14q-1 -2 -3 -10.5t-3 -11.5q-1 -7 -4 -15q-2 -4 1 -12q3 -12 3 -18q1 -11 7 -24q5 -9 8 -20q1 -5 11 -17q12 -11 19 -13q3 -1 10 -4q3 -1 4 -1q5 -4 18 -9q4 -2 12 -4.5
t10 -3.5q2 0 10.5 -2.5t13.5 -3.5q16 -3 25 -9q6 -5 16 -8q3 -1 26 -3q21 -2 25 -6q5 -5 7 -5q1 0 5 -4q4 -3 4 -6q0 -2 4 -4t10 -2q9 0 12 -1q4 -1 16 -5q9 -3 12 -9q4 -6 7 -6q4 -2 6 -6q3 -6 10 -7q5 -1 17 -6q11 -4 14 -9q1 -1 4.5 -3.5t4.5 -3.5q4 -3 6 -10q3 -9 9 -12
q8 -4 10 -12q1 -2 3 -7t2 -6q1 -1 2 -4.5t1 -5.5q3 -10 4 -11l6 -18q4 -13 5 -44q2 -34 2 -36q1 -2 1 -4q0 -3 -4 -7q-5 -7 -8 -15q-1 -3 -3 -9.5t-2 -7.5q-1 -4 -4 -13q-1 -2 -4 -14q-2 -9 -8 -17q-1 -2 -4 -6t-3 -5q0 -2 -5 -4q-5 -3 -8 -8l-9 -15q-12 -12 -17 -16
q-9 -7 -27 -14q-15 -6 -24 -9q-6 -2 -15 -8q-7 -5 -14 -7q-3 0 -12 -3q-5 -2 -32 -4q-29 -2 -33 -4q-8 -3 -30 -3h-41q-22 2 -31 5l-18 6q-4 3 -11 3t-15 3q-12 4 -17 4q-10 0 -14 1q-8 1 -11 6q-3 4 -24 15t-25 19l-7 10q-7 10 -12 16q-12 18 -15 23q-2 6 -2 10q0 5 -5 18
l-9 23q-1 3 -2.5 8t-1.5 6q0 8 3 25q1 18 6 29q4 8 9 11q3 1 41 1q37 -1 45 -5q9 -5 12 -12q5 -8 6 -25q1 -18 7 -24q4 -6 6 -15q1 -8 11 -17q10 -12 10 -13q7 -7 15 -12q13 -10 20 -12q4 -2 22 -4q15 -3 26 -1t25 0t24 0t18 2t12 2t12 8q6 5 15 8q9 2 11 4q5 3 16 15
q12 12 20 22q6 8 7 13.5t1 27.5q0 30 -3 37q-2 5 -5 15q-1 8 -9 15q-8 6 -15 21l-9 16q-5 2 -11 4q-3 1 -10 3t-9 3l-16 8q-6 5 -19 6q-12 2 -19 4l-15 6q-1 0 -8 1.5t-11 2.5q-8 1 -28 11q-17 10 -22 10q-3 0 -17 6q-3 2 -21 9q-7 2 -25 9q-13 4 -24 12q-7 5 -9 5t-13 11
l-14 10l-11 9q-10 10 -13 18q-3 7 -5 20q-1 11 -7 15q-4 4 -9 17q-5 15 -5 25q0 12 -3 21q-4 12 -4 17t4 27q4 23 7 30q3 9 3 22q0 12 3 17q2 6 13 15q10 10 13 10q2 0 4 4q3 5 4 11q1 7 8 14q11 11 17 16q9 8 17 10q10 3 15 5q9 5 10 9q2 5 7 5q6 3 18 3q11 0 25 6
q10 5 20 7z" />
    <glyph glyph-name="uni0054" unicode="T" horiz-adv-x="667" 
d="M488 740q4 2 9 2q2 0 11 -3q5 -3 56 -3q54 2 56 2q6 2 11 0q3 0 7 -6q2 -3 8 -9q7 -4 10 -13q4 -9 4 -25q0 -14 -2 -20q0 -3 -5 -8q-1 -1 -4 -4.5t-5 -5.5q-5 -5 -11 -9q-8 -4 -16 -4q-9 -2 -17 1t-14 2q-2 -1 -13 -1h-17h-18q-6 0 -28 2q-18 1 -22 0q-6 -3 -9 -4
q-10 0 -15 1q-10 1 -21 -1q-10 -4 -23 -2q-11 1 -14 -3q-3 -3 -4 -18q0 -14 -3 -20q-2 -6 -2 -14t2 -14q3 -3 3 -9t-3 -12q-2 -5 -2 -66t2 -65q3 -3 3 -10q0 -6 -3 -11q-2 -5 -2 -54q2 -54 2 -59q0 -10 2 -18t-2 -14q-2 -5 -2 -23q2 -19 4 -23q3 -7 3 -26.5t-3 -27.5
q-1 -2 -4 -13q0 -5 2 -11q3 -6 3 -18q0 -24 1 -37q1 -8 2 -18t1 -11q1 -5 -4 -16q-5 -10 -5 -13q0 -1 -8 -9q-6 -7 -14 -9q-1 0 -6.5 -1.5t-8.5 -2.5q-6 -2 -8.5 -2t-9.5 2q-10 3 -15 2q-4 0 -14 -2q-4 -1 -6 -1q-3 0 -5 3q-1 1 -3 4t-3 4l-7 7q-3 9 -4 31q0 8 -0.5 20.5
t-0.5 13.5q0 6 2 36t2 34q0 15 -1 26q-2 17 -4 27q-2 7 0 17q3 11 -1 22q-3 12 0 25q4 16 4 26q0 12 -3 21q-4 8 -4 23t3 22q2 7 2 19q-2 9 0 16t-1 14q-2 10 -2 24q0 39 -1 67q-1 27 -1 35q0 16 4 26q3 8 4 41q0 30 -4 33q-4 4 -9 4q-6 0 -11 3q-8 4 -13 4q-7 2 -15 0
q-9 -1 -12 -6t-8 -5q-4 0 -12 2q-11 2 -24 1q-11 0 -23 -3q-8 -3 -17 -1q-5 3 -19 5q-5 1 -17 4q-7 3 -32 3q-27 0 -36 4q-8 4 -10 9q-2 4 -2 24q0 18 2 32q5 16 6 18q1 3 13 10q12 6 26 6q15 0 31 -2q15 -2 29 1q11 4 23 2q7 0 19 -4q7 -3 14 -3q5 0 9 2t17 2t25 2
q9 1 20 -3q9 -4 19 -1q8 3 21 3t17 -3q6 -2 13 -2q10 0 15 4t12 4q1 0 19 -3q16 -2 18 -3t22 -3q20 -1 25 3q6 4 26 5q21 0 24 3z" />
    <glyph glyph-name="uni0055" unicode="U" horiz-adv-x="804" 
d="M633 743q10 2 13 2q7 0 16 -3q12 -3 17 -8q6 -6 8 -6q3 -3 4 -7q4 -8 8 -12q5 -4 5 -11q0 -6 -2 -12q-3 -4 -3 -36q0 -30 3 -40q3 -8 0 -23q-3 -14 -3 -37q0 -22 3 -29q3 -4 3 -16v-40v-35q0 -3 -3 -12q-3 -5 -5 -18q-1 -14 1 -29q1 -16 1 -33v-19t-0.5 -38t-0.5 -39
q0 -29 -0.5 -35t-4.5 -14q-1 -2 -8 -19q-2 -8 -7 -15t-5 -9q-2 -4 -2 -11q-1 -9 -6 -11q-5 -3 -7 -9q-2 -8 -2 -9q0 -3 -8 -13t-11 -16q-4 -8 -10 -11q-9 -4 -10 -10q-4 -5 -15 -12q-13 -6 -14 -11q-3 -5 -9 -6q-5 0 -11 -3q-2 -2 -12 -4q-6 0 -10 -2q-4 0 -6 -8
q-3 -8 -8 -10q-2 -1 -19 -1q-15 0 -20 -3q-2 -2 -19 -4q-16 -2 -22 -5q-8 -2 -26 -1t-23 -3q-6 -3 -12 -3q-4 0 -10 2q-7 2 -24 4q-6 0 -16 0.5t-11 0.5h-18q-9 -1 -16 3q-6 2 -15 6q-9 3 -11 3q-3 0 -9 2q-6 1 -10 8q-2 4 -15 15l-6 4l-8 6q-3 2 -4 2q-5 3 -14 5
q-6 2 -7.5 3.5t-3.5 8.5q-2 4 -5 9q-2 3 -2 4q-2 1 -10 3q-6 0 -14 8q-9 7 -17 26q-7 12 -13 28q-2 9 -7 16q-1 2 -6 10q-2 3 -3 5q-4 7 -5 30q-2 22 -3 24q-2 2 -4 14q0 10 -4 20q-3 8 -3 19q0 10 3 16q3 12 3 13q1 5 -1 11q-3 5 -3 31q0 7 -0.5 24.5t-0.5 23.5q0 30 1 40
q0 17 2 23q3 6 3 16q0 11 -3 15q-3 9 -3 13q0 10 3 19q2 11 2 32v24q0 45 -4 56q-2 10 -1 23q2 12 0 19q-2 3 -2 8q0 2 1 5q0 4 3 10q2 1 4 14q1 9 7 14q5 3 7 10q1 1 2.5 4t2.5 4q3 2 10 -1q5 -2 28 -2q21 -1 27 -6l6 -4q5 -5 7 -6q5 -3 10 -12q4 -9 2 -16q-2 -8 -2 -20
v-15q-1 -3 2 -15q2 -12 -1 -20q-3 -6 -3 -16q0 -9 3 -15q3 -11 2 -26q-2 -22 -4 -25q-2 -8 -2 -17q0 -8 2 -16q3 -4 3 -12q0 -7 -3 -12q-2 -6 -2 -14t2 -14q3 -6 3 -13q0 -8 -3 -12q-2 -4 -2 -12q1 -2 2 -7t1 -6q2 -7 2 -35v-32v-68q-1 -6 1 -28q1 -19 6 -24q4 -3 7 -8
q1 -3 1 -16q0 -9 5 -24q4 -14 9 -17q4 -2 6 -11q1 -7 19 -25t27 -20t12 -5q4 -2 19 -2q16 0 21 -4q8 -3 42 -3q33 0 42 3q6 3 17 2q10 -1 15 3q5 5 7 5q1 0 8 5q6 6 18 6q11 0 18 4q6 3 11 10q4 8 13 10q10 4 16 13q8 11 8 18q1 8 7 15q7 7 7 13q1 6 4 11q3 9 3 14
q2 12 4 14q2 5 3 33q0 28 3 35q3 6 3 57t-2 55t-2 21q-1 9 -1 23q0 8 4 12q3 5 3 10q0 31 -1 61q-1 41 -1.5 48.5t-5.5 12.5q-6 6 -6 12v11q0 2 3 11q2 6 2 12q0 8 -2 14q-3 6 -3 12q0 5 3 11q3 5 1 15q-1 8 4 15q6 6 10 14q7 8 15 11q2 1 8.5 3t8.5 3z" />
    <glyph glyph-name="uni0056" unicode="V" horiz-adv-x="707" 
d="M610 725q8 3 10 3t12 -4q8 -5 16 -5q12 0 16 1q6 1 12 -1q5 -3 7 -8q3 -5 3 -23q0 -19 -1 -21q-2 -6 -7 -11q-6 -8 -6 -11q-1 -2 -3 -7t-3 -7q-10 -16 -12 -19q-6 -10 -5 -17q2 -7 -3 -21q-4 -14 -9 -22q-5 -7 -7 -14l-4 -12q-2 -6 -2 -12q0 -8 -1 -11q-1 -5 -6 -8
q-4 -2 -7 -11q-2 -7 -7 -14q-6 -6 -7 -25q-1 -20 -5 -28q-4 -9 -11 -14q-9 -5 -11 -12q-4 -8 -3 -18q1 -9 -3 -23q-3 -11 -10 -16q-7 -4 -11 -9l-4 -8q0 -2 -5 -10q-9 -23 -12 -32q-6 -21 -8 -36q-1 -15 -6 -25q-5 -11 -7 -22q-1 -3 -2 -8q-1 -4 -1 -5q-2 -2 -6 -8
q-6 -8 -6 -14q-1 -7 -6 -13l-5 -5q-1 0 -3 -13q-2 -10 -6 -21t-8 -17q-5 -9 -6 -16q-2 -10 -6 -18q-7 -12 -11 -16q-4 -6 -7 -11q-1 -3 -3 -15q0 -8 -5 -18q-4 -8 -8 -10q-4 -3 -14 -1q-16 0 -25 -2q-10 -1 -14 -1h-4t-11 5q-6 5 -19 4q-13 0 -20 5q-8 5 -11 13q-3 12 -5 18
q-3 9 -3 16q0 4 -4 14q-4 7 -10 11q-6 3 -12 17q-4 8 -8 20q-2 6 -6 16q-6 11 -12 15q-5 3 -8 8q0 7 2 11q2 8 2 16q0 9 -3 16q-4 8 -8 12l-5 10q-4 8 -6 10q-4 5 -5 16q0 10 -2 16t-10 9q-7 5 -8 13q-3 11 -4 13q-2 5 -9 16q-6 8 -8 18q0 4 -5 12q-1 2 -10 19q-5 11 -6 27
q0 14 -2 18q-1 1 -7 10l-10 14q-5 10 -5 11q-3 7 -6 16q-5 13 -9 27q-6 16 -8 17q-3 3 -4 7q-2 2 -4 16q0 10 -3 16q-2 2 -4 12q-2 6 -7 19q-4 9 -11 21q-4 8 -10 13q-5 4 -7 11q-1 4 -1 26q1 19 -4 26t-13 11q-8 5 -9 11q-1 3 -1 11q0 5 2 11q4 6 15 10q11 6 44 6
q34 0 39 -2q6 -3 10 -7q3 -3 9 -19q2 -6 17 -38q10 -22 14 -37t7 -19q2 -5 9 -14q6 -10 6 -25q1 -15 6 -21q6 -8 11 -18q1 -2 3 -7.5t2 -6.5q0 -3 6 -9t7 -17q2 -13 4 -14q4 -4 6 -5q3 -1 4 -14q0 -11 4 -21q1 -2 3 -8t3 -8q4 -11 10 -18q6 -9 6 -23q0 -13 6 -26
q7 -10 13 -29q10 -24 10 -26q2 -8 7 -19q6 -11 7 -17q0 -6 6 -12q5 -7 7 -12q2 -6 2 -10q0 -6 5 -18q7 -14 7 -25q1 -11 8 -20q5 -9 5 -18q0 -6 4 -14q2 -3 6 -7q3 -2 10 0q8 2 9 3l6 12q4 8 4 23t5 21q6 9 8 13l8 12q4 4 5 20q1 17 12 38q9 17 16 27q6 5 6 10t-2 9
q-3 4 -3 10t2 10t4 6q4 4 7 11q4 8 7 15q2 9 6 15q6 7 7 20q1 9 4 17q4 6 4 18q3 13 7 16q3 2 8 11q3 5 5 21q0 12 4 16q0 1 2 4t3 4q3 5 5 17q2 14 4 18q3 3 6 9l6 15q0 1 3 8.5t4 9.5q3 13 4 24q1 15 5 17l9 6q6 4 7 20q0 7 2 17v2q1 1 7 9q5 7 5 15q1 9 5 14q3 3 9 13
q4 8 9 12q9 4 11 5z" />
    <glyph glyph-name="uni0057" unicode="W" horiz-adv-x="864" 
d="M30 741q4 2 10 2q4 0 12 -2q8 -4 29 -4q23 -1 28 -5q4 -2 9 -15q5 -17 5 -33q1 -21 6 -28t7 -16q2 -10 5 -15t3 -33q0 -26 5 -34q4 -6 6 -14q1 -2 4 -13q3 -4 1 -16q-1 -12 3 -25q3 -14 9 -25q6 -12 6 -23q2 -12 2 -15q0 -4 6 -8q5 -5 5 -11t-3 -11q-2 -4 -2 -9
q0 -3 6 -17q5 -10 7 -18q2 -10 4 -12q2 -5 4 -32q2 -29 4 -35l5 -15q3 -12 3 -19q2 -14 4 -16q1 -2 3 -17q0 -9 5 -24q5 -12 9 -12q3 0 9 10q2 3 5.5 8.5t3.5 6.5q2 5 4 29q2 21 5 28q3 5 3 23t3 24q3 5 4 11q0 3 7 17q5 12 7 21q0 5 3 14q3 6 3 16q0 12 4 18q0 2 2 7t3 8
q4 10 4 29q1 16 4 26q1 2 3 7t3 7q1 3 2.5 8.5t1.5 6.5q0 8 -2 12q-3 5 -3 12q0 5 6 14q4 5 5 9t2 23q1 25 7 38q7 16 8 23q1 10 0 18q-1 9 0 15q3 7 3 8q1 1 5 11q3 12 7 24q5 12 7 15t8 7q2 2 8 5q5 3 6 4q6 3 19 3q8 0 23 -3q10 -2 21 1q11 4 21 2q9 -2 11 -4q2 -1 4 -7
q0 -5 4 -7q1 -2 8 -4t8 -6q1 -2 1 -17q0 -13 3 -18q2 -3 4 -19q1 -9 4 -20q3 -4 3 -14q0 -8 3 -14q2 -7 4 -17t4 -18q0 -1 2 -7.5t3 -9.5q3 -7 5 -20q1 -11 6 -17q5 -5 7 -15q0 -2 3 -17q3 -7 3 -13q0 -1 1.5 -5.5t1.5 -5.5q4 -8 4 -25q0 -19 1 -23q2 -9 5 -16q1 -2 2 -5
q3 -7 4 -10q3 -9 3 -26q2 -23 4 -25q3 -6 3 -22q2 -17 3 -20l1 -8q1 -9 2 -16q1 -17 2 -21.5t8 -13.5q9 -13 10 -18q2 -4 2 -18q-2 -12 0 -14q2 -4 5 -4q2 0 9 7q5 5 10 15q5 12 6 21q0 11 6 31t6 32t2 20l6 18q2 8 4 15q1 2 1 20q0 8 3 26q4 10 4 20q1 8 4 16q2 2 4 13
q0 6 3 15q1 2 3 7t3 7q2 4 4 26q1 13 4 23q2 4 4 24q0 17 3 23q2 3 4 16q1 3 6 22q5 11 4 21q-3 8 0 14q1 1 3 18q1 10 7 27q7 16 7 25q1 12 8 18q9 12 10 14q5 5 7 9q4 2 10 2q7 0 15 -4t16 -6q10 -2 17 -2t13 -2q2 -1 7 -6q4 -7 5 -17q3 -19 3 -20q0 -6 -2 -12
q-2 -5 -7 -11t-6 -15q0 -8 -4 -14q-2 -6 -2 -11q0 -3 -4 -15q-3 -10 -3 -31q-1 -21 -6 -27q-1 -1 -3 -5l-4 -8q-2 -4 -3 -7q-5 -12 -5 -18l-3 -15q-4 -8 -4 -24t-3 -22q-3 -11 -4 -20q-1 -8 -6 -25q-2 -4 -4.5 -12t-3.5 -10q-2 -9 -8 -20q-5 -13 -6 -26q0 -15 -4 -27
q0 -2 -5 -16q-3 -7 -2 -12q2 -6 2 -11q1 -3 -1 -12q-2 -2 -4 -17q0 -11 -7 -25q-6 -13 -9 -25q-2 -9 -2 -21q1 -9 -3 -14q-5 -6 -6 -18q-2 -13 -9 -30q-8 -16 -8 -21q0 -3 1 -10q0 -15 -2 -20l-6 -18q-5 -16 -5 -17t-1 -5t-1 -6q-1 -4 -7 -8q-6 -2 -35 -2h-17q-14 0 -20 -2
q-4 -3 -15 -3q-9 0 -20 7t-16 16q-5 10 -5 14q0 2 -6 16q-7 10 -7 19l-5 20q-2 11 -6 18q-2 3 -4 22q-1 11 -4 25l-6 15q-2 7 -4 21q0 12 -3 21t-5 14q-1 5 -4 17q-1 3 -6 22q-4 16 -7 22q-1 2 -5 14q-3 12 -4 19q-2 15 -5 21q-2 8 -1 22q2 13 -2 20q-5 6 -6 19q0 9 -3 18
q-2 3 -4 20q0 15 -3 21q-2 7 -4 17q0 3 -2 10.5t-2 10.5q-2 12 -5 17q-3 6 -3 18q0 10 -5 23q-3 10 -6 13q-1 1 -6 1t-6 -3q-1 -2 -1 -13q0 -10 -2 -14l-3 -7q-3 -7 -4 -12q-5 -12 -5 -31q0 -16 -3 -24t-2 -24q1 -18 -2 -23q-4 -6 -4 -14q0 -9 -4 -14t-4 -14t-4 -19
q-3 -9 -1 -18q1 -9 -1 -22q-3 -12 -3 -19q0 -5 -6 -11q-6 -8 -6 -12l-3 -15q-4 -12 -4 -24q-1 -15 -8 -26q-6 -15 -6 -22q0 -10 -3 -16q-2 -5 -4 -30q0 -22 -4 -30q-3 -9 -4 -14q-2 -10 -7 -16q-6 -10 -6 -17q0 -13 -1 -19q-1 -5 -5 -13q-3 -5 -11 -9q-8 -5 -11 -11
q-4 -7 -13 -11q-10 -5 -15 -5h-34q-15 1 -31 1q-3 0 -9 6q-2 2 -14 11q-5 2 -7 9q-4 12 -8 20l-9 18q-3 4 -2 18q0 5 1 11v5q0 5 -3 17q-2 18 -5 24q0 1 -1.5 6.5t-1.5 7.5q0 4 -2 10l-6 15q-1 3 -6 25q-3 11 -5 27q-1 3 -2.5 9t-1.5 7q-3 6 -3 15q-1 5 -4 18q-2 2 -4 17
q0 6 -5 26q-5 14 -10 19q-4 5 -4 18q0 11 -4 18q-3 4 -5 15q-1 6 -4 18q-3 5 -3 19t-3 18q-3 12 -3 20q-2 16 -4 20q-4 6 -4 13q0 6 -2 14q-3 4 -5 21q-1 14 -6 28q-5 11 -7 24q-1 10 -4 15q-1 2 -3 12q0 7 -3 13q-3 4 -3 18q0 18 -1 23q-1 8 -7 14q-6 5 -6 14t4 14
q3 3 10 17q5 11 9 15z" />
    <glyph glyph-name="uni0058" unicode="X" horiz-adv-x="679" 
d="M532 719q2 2 6 2q5 0 11 -3q2 -1 9.5 -3t10.5 -3q10 -3 24 -3q15 0 22 -3q9 -2 13 -6q5 -3 7 -10q2 -6 2 -15t-7 -15q-8 -6 -11 -9t-11 -13l-13 -17q-2 -4 -10 -12q-6 -3 -8 -9q0 -3 -2 -11q-3 -7 -9 -14q-7 -9 -9 -15q-3 -9 -6 -13q-4 -8 -9 -10q-4 -2 -8 -9
q-2 -4 -13 -16q-12 -12 -15 -18q-8 -13 -11 -17q-7 -11 -11 -14q-7 -7 -11 -16q-8 -12 -9 -13q-1 0 -1 -12q1 -12 -1 -17q-2 -8 -4 -15q0 -9 -2 -13q0 -2 -9 -6q-8 -4 -13 -18q-4 -15 -4 -21q2 -7 5 -10l5 -5l13 -17q9 -15 17 -19q8 -6 12 -13q8 -11 14 -24q8 -15 16 -19
q8 -5 9 -11q1 -8 12 -14q11 -8 17 -20q5 -12 14 -21q6 -7 13 -12q5 -3 6 -9q1 -7 6 -13q2 -1 7 -5t6 -5q8 -5 9 -13q2 -8 6 -12q2 -2 6 -10q2 -6 2 -11t3 -8q6 -3 9 -4q7 -1 8 -8q1 -5 9 -13q5 -5 5 -10v-7q-2 -14 -3 -16q-2 -5 -12 -10q-12 -7 -14 -8q-3 -2 -12 0
q-2 0 -10 0.5t-12 0.5q-9 -1 -27 3q-13 3 -18 8q-6 6 -9 6q-3 2 -5 8t-4 10q-1 3 -9 9q-7 3 -9 8q-2 4 -7 7q-6 2 -7 11q0 7 -2 11q-4 4 -8 7q-6 3 -12 16q-5 11 -11 17t-6 10q-2 5 -11 16q-11 11 -17 14q-8 5 -9 15q-3 11 -8 18q-7 8 -9 12q-2 3 -12 19q-8 12 -12 21
q-3 8 -11 11q-7 4 -10 10q-5 8 -13 14q-9 9 -13 9q-1 0 -11 -4q-6 -4 -15 -17q-5 -9 -12 -16q-3 -1 -8 -9q-3 -8 -11 -11q-7 -5 -12 -20q-6 -16 -20 -30q-14 -12 -18 -20q-3 -6 -9 -14q-6 -6 -6 -18t-9 -19q-9 -6 -13 -12t-4 -8q0 -1 -2 -9q-3 -6 -10 -9t-13 -16t-12 -18
q-6 -6 -11 -8q-6 -4 -9 -10q-6 -9 -8 -11q-8 -5 -10 -6q-6 -2 -17 -2q-13 0 -17 -3q-6 -3 -12 -3q-4 0 -28 11q-20 10 -22 15v10q2 6 6 10q3 3 7 13q2 9 6 15q5 8 10 10q8 6 11 12q2 3 16 19q11 11 17 21q6 9 13 14q6 3 11 10q1 1 2.5 4t2.5 4q3 2 5 5q2 4 2 9q0 6 2 10
q2 6 8 12q5 5 11 9q5 2 5 5q1 1 3 11q3 8 10 11q8 6 9 9q1 1 4.5 5t6.5 7q8 9 18 31q7 17 9.5 21t9.5 9q9 5 14 13q5 7 12 12q8 5 9 12l4 12q1 2 1 7q0 4 -2 8q-4 8 -8 13q-4 8 -13 15q-5 3 -13 15q-3 8 -9 14q-5 5 -8 13q-6 10 -11 15q-6 6 -9 15q-2 9 -9 13q-6 3 -15 12
q-7 7 -13 17q-9 11 -12 14q-2 1 -5.5 3.5t-4.5 2.5q-3 3 -4 13t-19 28q-18 20 -22 24q-3 3 -11 23q-7 18 -14 24q-6 5 -12 20q-5 12 -5 19q0 5 2 11q3 5 14 11q10 5 32 6q17 1 28 -2q6 -3 18 -7q10 -4 15 -11q4 -5 15 -14q10 -6 14 -13q4 -5 11 -17l10 -20q5 -11 7 -11
q2 -2 5 -8q4 -8 19 -23q4 -4 12 -12.5t10 -11.5q7 -9 8 -14q2 -7 5 -9q1 -1 9 -3t13 -7q5 -4 9 -16l6 -21q1 -7 10 -24q7 -13 14 -22q6 -6 8 -6q3 -1 8 2q3 2 5 10t3 10t9 6q7 4 11 9q4 6 4 7q2 4 5 8q5 9 6 16q3 10 3 11q1 2 5 4q3 2 7 9q5 10 10 14q2 2 7 8.5t7 8.5
q3 4 12 17q4 8 6 10q1 1 11 19q10 19 14 25q6 6 6 11q2 6 4 6q1 1 7 11q5 10 21 26q18 18 19 24q2 7 4 9z" />
    <glyph glyph-name="uni0059" unicode="Y" horiz-adv-x="677" 
d="M602 735q2 1 18 1q13 0 21 -2q6 -3 14 -5q6 0 14 -6q7 -4 10 -11q3 -6 3 -13t-5 -12q-6 -6 -7 -6q-3 0 -3 -4q-1 -2 -3 -12q-1 -9 -6 -11q-4 -2 -11 -8q-3 -2 -13 -17q-6 -14 -13 -19q-9 -12 -10 -14q-4 -8 -9 -11q-6 -9 -7 -13q-4 -10 -13 -18q-10 -12 -13 -20
q-6 -10 -11 -13q-6 -4 -14 -18l-13 -21q-4 -4 -13 -20q-9 -14 -16 -19t-9 -10q-3 -4 -3 -10q0 -5 -3 -8q-2 -5 -8 -9q-7 -4 -9 -8q-1 -3 -10 -12q-9 -7 -12 -13q-4 -5 -6 -14q0 -5 -8 -17q-8 -13 -12 -15q-4 -4 -7 -10q-1 -3 -7 -9q-6 -4 -8 -16t-2 -18q0 -10 1 -13
q1 -4 -1 -15q-2 -7 1 -19q3 -13 2 -22q0 -10 -4 -18q-2 -5 -2 -52q0 -46 3 -54q4 -10 4 -18q0 -10 -6 -25q-2 -4 -4.5 -13t-3.5 -11q-3 -9 -12 -12q-12 -4 -16 -5q-3 -1 -21 -1q-17 1 -29 8q-14 6 -18 10q-1 2 -3 20q-1 16 -6 27q-5 10 -5 21q0 10 3 18q4 7 4 46
q0 14 0.5 33t0.5 20v38v33q0 14 -1 24q0 16 -9 26q-6 7 -17 25q-7 14 -9 20q0 5 -4 9q-3 3 -4 3q-5 0 -8 1q-4 1 -15 10q-8 8 -10 8q-5 3 -9 7q-8 6 -10 11t-5 10l-5 15q-2 11 -12 17q-11 7 -16 16q-7 12 -11 21q-3 5 -9 19q-2 9 -9 12q-4 2 -11 8q-4 4 -6 11q-2 6 -2 10
q0 3 -4 11q-4 4 -8 12q-5 7 -7 7q-6 3 -15 12q-12 12 -15 19q-8 10 -9 11q-6 9 -9 16q-5 11 -10 14q-3 2 -12 13q-7 10 -8 24q0 15 1 18q0 3 4 5q6 3 9 6q6 6 17 7q9 2 19 4q8 3 18 0q3 -1 10 -3t9 -2q6 -3 16 -5q2 -1 7 -3t7 -3q6 -4 7 -10q0 -6 6 -14q5 -7 8 -7q2 0 6 -6
t8 -15q3 -9 9 -12q7 -4 12 -14q6 -12 6 -19q0 -1 1 -6t2 -7q2 -6 11 -12q2 -2 7 -5.5t6 -4.5q6 -3 12 -9q7 -7 17 -26q10 -20 17 -27t13 -19q3 -10 10 -19q6 -9 8 -18q3 -9 12 -16l12 -7q2 0 4 -5q3 -4 18 -12q14 -8 21 -8q6 0 8 2q3 6 3 8q1 6 8 11q6 3 12 9t11 18
q7 13 14 18q6 5 10 14q2 8 9 15q9 12 11 19q4 11 15 18q11 6 12 14q2 7 7 16q4 8 11 12q5 2 15 21q9 21 11 27q1 5 6 15l12 15q9 7 9 11q2 4 8 7q9 6 11 10q3 6 10 13q6 6 8 10q5 5 13 9q8 5 11 5z" />
    <glyph glyph-name="uni005A" unicode="Z" horiz-adv-x="652" 
d="M354 728q10 1 43 1q26 -2 29 -3q4 -1 43 -3q39 0 44 2q7 3 12 2q6 0 12 -2q9 0 14 2q12 3 17 3q9 0 16 -5q6 -4 13 -13q5 -8 5 -17q3 -13 5 -20q3 -12 2 -18q0 -2 -3 -11q-3 -3 -3 -7q0 -3 -13 -29q-9 -19 -13 -25t-16 -17l-22 -22q-5 -7 -5 -11q0 -2 -2 -10
q-1 -7 -10 -9q-7 -3 -13 -15q-6 -11 -10 -13q-5 -4 -11 -15q-9 -16 -11 -17q-7 -7 -11 -9q-7 -3 -10 -10q-7 -10 -17 -19q-14 -14 -16 -14t-11 -9q-8 -8 -12 -14q-2 -6 -12 -14q-10 -10 -11 -16q0 -4 -3 -10q-4 -4 -9 -5q-6 0 -9 -3q-2 -2 -7 -16q-4 -13 -12 -17
q-7 -5 -10 -11q-2 -3 -8 -9q-5 -2 -7 -7q-2 -3 -7 -8q-3 -1 -8 -8q-2 -4 -13 -13q-7 -4 -13 -12q-1 -1 -4 -5.5t-4 -5.5q-6 -6 -12 -9q-7 -5 -8 -8q-1 -2 -8 -7q-6 -4 -7 -11q-2 -9 -9 -16q-10 -12 -12 -15q-2 -7 -11 -14q-9 -11 -9 -13q0 -1 -2.5 -4.5t-3.5 -5.5l-6 -8
q-3 0 -6 -5q-6 -4 -6 -7q0 -4 3 -5q2 -2 23 -2q26 -2 29 -3q9 0 13 1l20 5q16 4 21 4q8 0 12 -3q4 -2 27 -2q22 0 27 2q6 4 21 4q14 1 25 -3q9 -3 40 -3q30 0 34 3q6 3 17 3t17 -3q4 -3 30 -4q24 0 31 3l5 4q0 1 7 5q7 2 14 0q2 -1 7.5 -3t7.5 -3q7 -2 11 -6q5 -5 8 -19
q4 -16 4 -24q0 -10 -4 -17q-3 -6 -9 -16t-14 -11q-8 -2 -18 -2q-7 0 -19 -3q-8 -3 -17 0q-12 3 -14 3q-8 0 -15 4q-9 4 -21 4q-6 0 -24 -1q-37 -1 -45 -4t-46 -3q-34 0 -47 -4q-10 -3 -18 -3h-8q-19 2 -23 4q-7 3 -14 2q-8 0 -16 -4q-7 -2 -21 -1q-9 0 -21 3q-10 3 -28 2
q-16 0 -28 -4q-5 -2 -7.5 -2t-8.5 2q-7 4 -36 5t-36 5q-10 6 -12 8q-4 5 -5 22q0 5 -1 18t-2 18q-1 11 -1 15.5t1 6.5q2 6 6 10q3 5 5 14q0 8 5 13q4 6 8 7q5 3 8 11q2 10 7 17q4 10 14 15q8 6 14 14q5 13 6 16q1 6 2.5 7.5t7.5 3.5q7 1 13 9q2 2 7 9.5l7 10.5q8 12 19 23
t13 17q3 6 11 7q7 2 15 10q7 6 9 13q0 8 1 10q3 5 4 6q2 0 8 4q7 3 10 10q2 4 5 13q2 6 7 10q9 7 13 12q7 5 9 13q1 6 8 9q6 2 10 4t8 10q2 4 8 13q6 6 6 12q2 7 7 9q8 5 15 14q10 9 13 18q2 9 4 9t10 4q7 4 12 10q4 8 11 10q7 5 11 12q4 9 14 15q10 8 11 9t2 4t2 5
q1 6 12 12q11 5 15 13q4 9 10 12q5 4 9 9q2 4 2 12q0 7 -4 11t-16 4q-11 0 -19 -2q-2 -1 -13 -5q-8 -2 -57 -2q-28 -1 -59 -1q-4 1 -38 1q-9 0 -23.5 -0.5t-15.5 -0.5h-27q-18 1 -26 5q-6 4 -23 3q-17 0 -25 -6t-13 -6q-3 -1 -13 1q-5 2 -15 5q-5 1 -17 11q-9 10 -11 14
t-2 28q0 23 4 26q2 4 6 4q2 0 18 6q11 4 14.5 5t15.5 -1q5 -1 17.5 -2t16.5 -1q21 0 27 2q6 3 18 3t16 -3q6 -2 15 0q9 3 17 1q10 -2 15 0q6 1 20 1h12q25 0 31 -3q5 -2 11 0q3 2 24 4z" />
    <glyph glyph-name="uni005B" unicode="[" horiz-adv-x="409" 
d="M241 881l7 1h14q16 0 28 -2q10 -2 17 -7q3 -1 8 -5.5t8 -6.5q4 -4 8 -12q2 -5 0 -9q0 -3 -8 -13q-7 -10 -11 -12q-6 -2 -35 -2t-35 -3t-12 -3q-9 -2 -11 -4q-3 -2 -8 -16q-4 -13 -1 -25q3 -11 4 -42q0 -10 0.5 -26t0.5 -19q1 -15 -2 -19t-3 -15q0 -7 -2 -29
q-1 -10 -1 -15q0 -8 3 -16q1 -4 2 -13l2 -8q0 -8 -2 -24q-4 -16 -2 -21q0 -4 4 -18q3 -18 2 -20q0 -29 -1 -55t-1 -33q0 -16 4 -28q4 -14 2 -29q-2 -14 -1 -27q2 -12 2 -44q0 -30 -2 -46q-3 -14 1 -28q4 -12 3 -21q-2 -8 -2 -66q0 -60 2 -62q2 -5 6 -6q1 -1 13 -6
q15 -3 18 -3q8 0 20 4q9 3 17 3t20 -5q14 -6 17 -11q4 -4 4 -14q0 -8 -4 -20q-4 -9 -14 -13q-8 -5 -17 -5q-11 0 -27 3q-15 2 -19 2t-12 -2q-11 -4 -36 -4q-26 0 -38 2q-13 3 -19 8q-5 4 -8 10q0 1 -1 7t-2 10q-2 12 -1 19q2 8 2 31q0 14 -3 38q-3 12 -3 31q0 26 1 38
q1 22 -1 28q-4 6 -4 20q-1 15 3 27q3 12 2 28q0 4 -0.5 16.5t-0.5 18.5q-1 15 1 27q1 8 -1 14q-3 6 -3 10q0 6 3 12q2 9 0 16q-3 6 -3 11q-1 3 1 13q2 4 2 14q0 1 -3 17q-3 11 0 25q1 13 0 25q-2 12 -2 61q0 48 3 59t0 18q-1 5 -1 28q0 16 -2 57q-2 51 -3 56q-2 17 0 26
t-1 18q-1 6 -1 9t1 9q3 15 4 21q2 13 3 14l5 10q6 8 10 9q5 3 41 3q34 0 41 3q8 2 10 3z" />
    <glyph glyph-name="uni005C" unicode="\" horiz-adv-x="320" 
d="M3 873q4 2 9 2t13 -4q8 -5 14 -12q2 -5 12 -12q8 -3 12 -11t9 -23q4 -12 7 -24q1 -3 2.5 -9t1.5 -8q0 -1 3.5 -9t5.5 -13q7 -13 7 -29q0 -3 0.5 -11t1.5 -9q0 -1 5 -9q2 -2 7 -13q2 -11 5 -18q1 -2 3 -8q2 -5 2 -6q4 -8 4 -19q1 -12 6 -17q4 -5 9 -19q5 -20 5 -22
q2 -12 8 -23q7 -12 7 -18q0 -2 1.5 -7.5t1.5 -6.5q4 -12 4 -13t6 -15q5 -12 7 -21q2 -8 6 -14q5 -6 5 -15q0 -11 3 -23q1 -12 11 -33q6 -12 15 -27q8 -10 8 -11q1 -3 1 -23q0 -18 4 -30q1 -3 3.5 -9.5t2.5 -7.5q2 -3 4 -18q2 -14 5 -23q2 -9 8 -18q7 -9 12 -21q7 -13 9 -21
q1 -5 6 -17q2 -7 6 -12l5 -5q3 -1 4 -14v-10q1 -6 1 -7q3 -6 6 -10q6 -12 8 -18q2 -7 5 -23q4 -13 8 -19q6 -8 6 -12q1 -4 -2 -17q-2 -3 -4.5 -10t-3.5 -9q-4 -9 -8 -10q-3 -2 -8 -2q-4 0 -11 1q-12 1 -27 9q-14 8 -19 15q-1 1 -13 16q-5 9 -4 21q1 11 -4 18q-5 6 -6 23
q0 17 -4 27q0 3 -1.5 8.5t-1.5 6.5q-2 6 -7 11q-5 6 -7 23q0 13 -6 27q-6 12 -6 17q-1 5 -10 16q-6 7 -7 10t-2 15q-1 6 -2 20.5t-1 19.5q-1 18 -1.5 21.5t-4.5 8.5q-6 7 -7 15l-3 12q0 2 -5 5q-1 0 -8 9q-2 5 -5 17q-2 9 -7 23q-5 16 -7 26q0 5 -7 24q-5 14 -7 21
q0 4 -12 36q-14 34 -17 40q-6 14 -6 17t-2 5q-2 5 -3 10q-2 9 0 21q2 9 1 11.5t-7 7.5q-6 6 -9 12q0 5 -2 13q0 5 -6 15q-4 7 -7 23q0 15 -4 23q0 2 -1.5 7t-1.5 6q0 5 -3 10q-2 5 -13 24q-10 19 -10 30q0 12 -6 23q-8 13 -8 20q0 4 2 11q4 8 4 22q0 13 2 17q0 3 5 6z" />
    <glyph glyph-name="uni005D" unicode="]" horiz-adv-x="409" 
d="M121 890q10 2 17 2q6 0 16 -2q8 -3 15 -3t17 -5t13 -5t15 5q10 5 16 5q5 0 15 -5t16 -9q6 -6 7 -14q3 -9 7 -23q3 -14 1 -23q-2 -10 1 -19q3 -6 3 -17q0 -9 -3 -17t-1 -15q3 -12 3 -26q0 -21 -1 -25q-3 -8 1 -21q2 -8 2 -21q-1 -3 -2.5 -8.5t-1.5 -6.5q-3 -5 -3 -16
q0 -8 3 -17q2 -3 4 -22q0 -18 -3 -26q-4 -12 -4 -15t4 -13q3 -7 4 -45q0 -36 -4 -49q-4 -14 -2 -29q3 -14 0 -23q-2 -10 -2 -17q0 -6 3 -15q1 -4 5 -26q1 -19 -1 -29q-1 -9 0 -31q2 -12 2 -34q0 -17 -1 -23q-1 -8 1 -20q2 -9 -1 -19q-2 -7 -2 -17q0 -7 1 -22q0 -23 4 -39
q3 -7 3 -13q0 -4 -1 -9q0 -11 -4 -19q-2 -6 -1 -29q1 -12 1 -28q1 -5 -7 -16q-8 -13 -11 -14q-3 -3 -12 -3t-15 -2t-65 -2h-67q-6 2 -18 12q-11 11 -11 19q0 7 7 22q6 10 8 12.5t9 4.5q7 3 22 5q11 1 22 -2q8 -3 18 -3q2 0 20 3q14 5 16 8q3 3 2 19q0 3 -3 43q-2 29 -2 30v7
q1 7 1 18v21q1 24 1 32q0 12 -2 18q-3 6 -4 31q0 26 3 36q3 13 3 35q0 19 -2 31q-3 6 -3 14t3 14q3 8 -1 20q-4 13 0 30q3 14 3 53q0 32 -3 47q-3 11 -2 21q1 5 3 40q0 25 -2 41q-2 10 -2 44v40q0 74 -3 78q-3 5 -10 6q-4 1 -40 1q-30 0 -36 2q-4 1 -16 15q-11 11 -13 18v15
q2 9 5 16q4 8 13 11q8 2 14 4z" />
    <glyph glyph-name="uni005E" unicode="^" horiz-adv-x="565" 
d="M258 749h6.5h6.5h4q8 0 10 -2q1 -1 13 -3t21 -8q9 -5 12 -11q2 -6 2 -15q0 -8 7 -14q6 -6 7 -15q1 -10 9 -20q9 -9 9 -13q1 -1 1.5 -6t0.5 -7q0 -8 4 -14q1 -4 6 -9q4 -6 4 -14q2 -9 7 -21q4 -9 6.5 -19t3 -11t3.5 -5t5 -7q7 -7 9 -13q2 -8 2 -11q0 -4 4 -10q7 -7 10 -18
q6 -14 8 -17q4 -6 4 -17q2 -14 6 -20q5 -10 9 -14q5 -5 5 -8q0 -1 2 -17q1 -12 2 -15t9 -10q10 -9 10 -13t-4 -12q-3 -8 -8 -10q-4 -2 -40 -2t-40 2q-4 1 -8 7q-2 5 -4 21q-1 12 -2 14.5t-5 6.5q-8 6 -9 7q-4 2 -4 10q-2 11 -5 18q-2 6 -9 17q-6 8 -7 22q-3 16 -8 23
q-6 11 -7 23q-4 16 -5 19t-7 13q-4 8 -6 14q0 7 -4 15q-2 4 -7 19q0 2 -2 9t-2 9q-3 9 -6 11q-4 6 -7 6l-6 -3q-3 -6 -4 -9q-1 -2 -6 -13q-6 -7 -9 -21q-1 -4 -3.5 -12t-2.5 -10q-3 -12 -5 -16q-1 -2 -3 -8t-2 -9q-3 -12 -3 -15q-2 -7 -7 -14q-6 -8 -7 -21q0 -12 -4 -15
q-1 0 -3 -1t-2 -2q-4 -4 -4 -15q-1 -13 -9 -30q-6 -10 -10 -21q-1 -6 -5 -11q-4 -4 -4 -8t-5 -14t-11 -17q-6 -5 -11 -7h-3q-4 0 -9 2q-6 2 -22 1q-18 0 -25 2l-12 4q-2 1 -4 9q0 9 4 22q9 22 10 23q4 11 6 19q0 9 7 17q3 5 19 35q14 29 15 40q2 14 8 18q5 5 6 15
q1 11 17 41q15 30 17 47q1 16 8 25q5 8 7 18q1 2 3.5 8t3.5 8q2 2 4 6l2 3q2 2 3 5q2 5 4 16q2 12 5 17q1 1 4 6t4 7q4 10 8 10q1 1 14 3z" />
    <glyph glyph-name="uni005F" unicode="_" horiz-adv-x="601" 
d="M275 12q0 1 2.5 1t4.5 -1q1 0 5 -1t5 -2h26h12q11 0 33 -3q18 -3 22.5 -3t11.5 3q12 4 41 4q30 0 42 -4q9 -3 15 -3q1 0 5.5 1.5t6.5 2.5q9 3 21 2q3 0 27 -3q18 -2 19 -3q3 0 13 -5q8 -3 10 -7q0 -1 1.5 -6.5t2.5 -8.5q1 -7 1 -11q0 -5 -2 -15q-3 -14 -6 -15
q-4 -2 -16 -2t-21 -3q-6 -2 -19 -5q-10 -2 -21 -1q-18 3 -28 3q-19 1 -24 -2q-8 -4 -13 -4q-6 0 -12 3q-6 2 -14 2t-14 -3q-7 -4 -22 -4q-18 2 -24 4q-9 3 -66 3q-32 -1 -67 -1q-37 0 -72 1q-63 0 -71 -4t-13 -4t-13 3q-7 4 -14 3q-8 -2 -15 -2q-6 -1 -17 7q-10 9 -14 14
q-2 3 -4 17q0 12 4 18q2 3 15 14q14 8 17 9q4 2 13 2q10 0 19 3q10 4 30 3q20 -2 28 -2q6 1 25 1q14 1 22 -2q4 -3 29 -3q26 0 30 2q5 3 24 5q8 0 17 2h2z" />
    <glyph glyph-name="uni0060" unicode="`" horiz-adv-x="326" 
d="M42 755q6 2 11 2q4 0 16 -2q10 -4 23 -4q16 -4 24 -7q10 -5 15 -14q5 -10 11 -19q1 -2 5.5 -9t6.5 -10q4 -4 10 -16q1 -7 5 -11q1 -1 3.5 -3t3.5 -3q5 -2 7 -8q6 -8 9 -11q6 -5 7 -18q0 -11 4 -19q1 -1 2.5 -4t2.5 -4q5 -5 8 -7t10 -11q5 -9 6 -16q2 -3 2 -8q0 -3 -1 -6
q-1 -5 -11 -14q-12 -8 -14 -9q-2 -2 -8 -2q-3 0 -8 1q-3 0 -27 3q-13 2 -17 4q-6 6 -9 10q-5 7 -11 11q-7 5 -11 11t-9 15q-1 8 -9 14q-6 6 -10 8q-3 1 -10 13q-6 12 -12 15q-7 4 -13 14q-2 2 -10.5 11.5t-12.5 13.5q-16 18 -20 26q-5 8 -7 19q-2 7 -2 10.5t2 9.5q4 11 7 14
t15 5q10 2 16 5z" />
    <glyph glyph-name="uni0061" unicode="a" horiz-adv-x="505" 
d="M312 247q-11 3 -17 3q-7 0 -20 -5q-15 -6 -32 -6q-17 -2 -32 -6q-17 -6 -24 -12q-9 -4 -16 -14q-6 -8 -12 -18t-8 -20q0 -6 -3 -15q-3 -3 -3 -13q0 -2 0.5 -6.5t0.5 -5.5l5 -10q3 -3 11 -17q7 -12 15 -16q6 -3 24 -9q14 -5 21 -5q3 0 9 1q14 0 24 2q12 2 22 9q12 8 21 17
q12 12 15 14q6 6 6 10q0 7 3 15q3 7 5 18q3 10 4 19q4 14 5 17q0 2 1 6t2 5q0 6 -3 18q-3 11 -8 16q-3 5 -16 8zM269 514q1 1 24 1t30 -3q10 -2 15 -5q9 -2 11 -5l24 -14q20 -11 22 -16q4 -6 7 -9t6 -9q1 -2 4 -8.5t4 -8.5q4 -10 6 -24q2 -13 4 -17q1 -4 3 -37q0 -33 3 -41
q2 -8 2 -14t-2 -10q-3 -8 -4 -16q-3 -10 0 -22q1 -7 1 -54q0 -63 1 -87q0 -44 4 -53q2 -7 2 -11q0 -3 -1 -9q-3 -18 -3 -19q-2 -10 -4 -12q-2 -4 -7 -6q-3 -1 -19 -5q-2 0 -11.5 -1.5t-11.5 -1.5t-17 3q-10 2 -14 6q-5 3 -8 14q-4 11 -7 13q-3 3 -6 3q-4 0 -7 -5
q-5 -5 -10 -7q-4 -1 -11 -6q-3 -4 -18 -12q-10 -5 -27 -12q-14 -5 -46 -5q-33 1 -51 7q-12 4 -25 10q-6 4 -11 4q-7 2 -16 10q-6 5 -15 14q-4 4 -6 13q-3 10 -8 13q-3 2 -9 8q-5 3 -5 7q0 3 -4 15q0 1 -3 9t-4 11q-3 10 -3 30q0 21 4 32q1 4 4 14t3 11l5 20q1 4 8 13
q5 7 14 21q9 12 17 18q4 1 15 9q7 6 22 7q16 3 36 12q19 10 30 10t26 6q16 5 51 5q34 1 41 4q5 4 8 9q2 6 2 18q0 14 3 20q3 8 -2 23q-3 15 -8 20q-1 1 -2 3q-5 6 -6 9q-4 8 -8 9q-2 1 -11 10q-7 7 -15 10q-9 1 -24 0q-15 -2 -21 -5q-6 -2 -13 -2t-15 -3q-6 -2 -15 -8
q-5 -2 -12 -9q-4 -6 -7 -17q-4 -13 -9 -19q-4 -5 -13 -12q-5 -4 -9.5 -5t-23.5 -1h-13q-12 0 -20 2q-10 5 -11 6q-3 3 -3 20t4 24q1 3 6 16q2 7 4 9t16 8q18 9 24 11q7 2 10 7q4 3 7 9q5 7 11 10q10 6 15 6q6 2 14 4q8 4 20 4q2 0 37 3q25 2 25 3z" />
    <glyph glyph-name="uni0062" unicode="b" horiz-adv-x="614" 
d="M334 442q-7 5 -17 5q-5 0 -19 -4t-18 -4q-5 0 -13 -4q-6 -3 -18 -11q-14 -11 -17 -17q-4 -5 -13 -14q-8 -6 -12 -16q-7 -12 -7 -21q-3 -13 -4 -15q-2 -3 -4 -24t-3 -22t-3 -26q-2 -26 -2 -28q0 -3 2 -27q2 -22 4 -26q1 -2 3 -20q2 -17 5 -24q2 -6 16 -22q12 -12 12 -14
t5 -7q6 -6 14 -8q10 -3 17 -10q11 -9 14 -10q4 -3 15 -5q9 -3 24 -3q16 0 25 3q10 2 14 2q5 0 11 2q7 2 11 6t12 7q7 1 18 8q7 4 17 17q8 12 11 18q4 9 6 17q4 12 7 18q4 8 4 19q0 5 3 20q3 11 3 55q0 47 -3 57q-1 2 -3.5 9.5t-3.5 9.5q-3 18 -3 21q-2 11 -6 17t-8 14
q-7 14 -13 21q-10 13 -20 19q-9 7 -18 7q-6 0 -22 2q-16 5 -23 8zM126 734h3q3 1 5 1q7 0 19 -5q13 -3 19 -9t10 -20q5 -14 5 -42q0 -29 3 -38q4 -11 2 -20q-1 -5 -6 -18q-3 -8 -1 -22q1 -10 1 -49q-1 -21 -1 -26q0 -8 3 -10q4 -3 13 -3q10 0 29 13q23 14 27 14q12 3 19 5
q12 4 20 6q4 2 23 4q17 2 22 4q8 2 17 -1t23 -3q12 0 28 -4q6 -1 15 -3l2 -1q2 -2 8 -4q1 0 7.5 -3t9.5 -4q12 -5 21 -14q13 -11 16 -12q5 -5 15 -11q9 -7 12 -13q2 -6 8 -12q4 -2 12 -15q9 -18 10 -21q6 -10 7 -24q0 -13 4 -19q2 -4 4 -14q0 -8 4 -20q3 -11 3 -24v-17
q-2 -39 -3 -44q-3 -21 -3 -27q-2 -16 -5 -22q-2 -8 -2 -13q0 -11 1 -15q3 -9 -1 -16l-7 -14q-5 -7 -7 -17q-5 -12 -6 -13q-6 -6 -10 -14q-7 -9 -11 -11t-8 -9q-8 -12 -13 -16q-8 -10 -16 -12q-3 -1 -11 -6q-1 -1 -5.5 -4t-5.5 -4q-8 -4 -11 -7q-4 -4 -13 -6q-10 -2 -13 -5
q-13 -4 -19 -5q-11 -2 -18 -2h-5q-10 2 -21 0q-6 -1 -10 -1q-5 0 -14 2q-14 4 -23 4q-11 0 -32 7q-23 7 -29 12q-3 3 -12 9q-9 5 -19 13q-14 9 -18 8q-5 0 -7 -4q-3 -5 -5 -16q-2 -12 -6 -15q-5 -5 -10 -6q-6 -2 -18 -4q-14 -4 -22 -2q-9 0 -17 4t-14 15q-4 9 -5 14t-1 26
q0 27 -2 33t0 12q0 4 4 14q4 8 2 14q0 2 -1.5 9t-1.5 8q-2 14 -2 49q0 46 1 54q0 11 -2 45q0 7 -1.5 23t-1.5 20v7q0 9 1 16q2 12 2 81q2 72 3 78q1 3 1 18q-2 13 1 20q1 7 -3 18q-5 12 -5 19q0 4 2 30q2 24 5 33q1 7 3 31q0 21 3 24t10 5q3 1 7 3l4 3q1 1 3 1z" />
    <glyph glyph-name="uni0063" unicode="c" horiz-adv-x="492" 
d="M230 498q8 3 20 3q6 0 24 -1q32 0 50 -2q27 -3 31 -3q12 -2 23 -6q10 -4 16 -7q5 -3 10 -10q3 -4 12 -11q10 -6 20 -16q11 -11 15 -19q5 -9 7 -18q4 -10 5 -12q3 -5 1 -15q0 -3 0.5 -11t0.5 -12q1 -5 1 -10t-1 -7q0 -5 -9 -8q-5 -4 -18 -6q-15 -3 -21 -3q-12 -1 -25 2
q-14 2 -17 5q-4 2 -8 13q-5 12 -5 16q0 3 -4 13q-5 10 -9 11q-6 6 -8 9q-4 5 -11 11q-8 4 -8 7q-2 4 -6 6q-5 3 -20 7q-8 2 -20 6q-4 2 -20 1q-16 -3 -26 -8q-11 -5 -24 -17q-10 -12 -17.5 -16t-9.5 -7q-1 -1 -5 -13q-4 -11 -6 -19q-1 -1 -3 -7.5t-4 -9.5q-4 -9 -4 -26
q0 -15 -2 -49q-2 -18 -2 -48q0 -16 3 -22q3 -12 4 -18q2 -10 4 -16q1 -2 4 -16q1 -8 12 -29q9 -19 24 -34q17 -15 21 -16q6 -3 23 -5q19 -2 23 -5q9 -3 18 -2q11 2 23 7q5 1 20 9q7 3 14 17q9 13 10 13q0 1 3.5 7t5.5 10q7 15 11 17q6 3 8 5q2 1 5.5 4t5.5 4q6 3 14 5
q7 2 16 0q3 -1 20 -4q10 -1 14 -5q5 -7 6 -12q1 -3 1 -6t-3 -16q-4 -16 -4 -23q-2 -10 -8 -20q-7 -12 -13 -16t-13 -13l-5 -5l-6.5 -6.5l-4.5 -4.5q-15 -12 -23 -16q-14 -8 -23 -10q-11 -2 -17 -6q-11 -4 -24 -5q-18 -2 -27 -2q-4 -1 -13 -1q-14 0 -27 2q-32 2 -56 8
q-27 5 -32 8q-2 0 -13 9q-7 8 -16 14q-3 1 -8.5 4.5t-6.5 3.5q-8 4 -13 13q-12 15 -15 18q-5 5 -14 21q-6 11 -9 19q0 6 -6 14q-4 5 -7 12q-1 3 -1 11q0 1 -5 16q-5 10 -5 19q0 4 1 18q0 31 -3 46q-2 14 -2 19.5t2 18.5q4 16 2 28q-1 5 -1 19q0 12 3 23q2 13 8 17q4 3 7 15
q1 3 2.5 9.5t1.5 7.5q1 6 7 10q6 3 10 7q4 8 6 13q4 11 12 20q7 10 16 14q10 5 13 8q6 6 19 11q5 2 11 5l6 4q5 4 12 6q6 3 14 5q6 3 16 3q7 0 19 4z" />
    <glyph glyph-name="uni0064" unicode="d" horiz-adv-x="613" 
d="M343 430q-10 7 -15 8t-28 1q-28 0 -40 -3q-3 -1 -12 -6q-3 -1 -4 -2l-12 -6q-4 0 -15 -9q-8 -7 -13 -9q-4 -2 -14 -17t-15 -29q-5 -19 -6 -22q0 -5 -7 -21q-5 -12 -5 -20v-8q0 -25 1 -34q2 -25 4 -30q3 -19 4 -21q1 -10 -1 -17q-1 -9 2 -18t3 -18q0 -7 7 -21
q9 -16 23 -29q19 -19 24 -25q9 -9 18 -12q12 -4 15 -4l15 -3q12 -4 17 -4q6 0 14 2q3 2 24 4q13 1 29 4q12 4 25 15q15 12 18 20q4 10 7 13q2 2 5 7t4 6q3 6 9 22q3 9 8 20q5 9 5 33q0 28 -1 33q-1 6 2 17q2 6 2 8t-3 10q-3 7 -5 22q0 12 -3 21q-2 12 -2 16q0 5 -4 19
q-1 3 -3.5 9.5t-2.5 7.5q-1 5 -7 10q-4 4 -8 10q-6 9 -9 13t-17 12q-10 5 -16 11q-2 4 -17 14zM483 719q12 4 16 4q5 0 11 -3q8 -2 11 -5q2 -4 2 -8q0 -1 1.5 -7.5t1.5 -8.5q3 -9 5 -26q4 -31 4 -32q0 -21 -2 -28q-3 -11 -2 -22q1 -6 1 -15q0 -2 -2 -24q-3 -20 -1 -29
q1 -4 1 -18q0 -9 4 -21q3 -8 3 -10.5t-3 -11.5q-4 -10 -4 -27q0 -8 1 -36q0 -12 1 -33t1 -22q0 -3 -2 -17q-2 -9 -2 -25q0 -11 1 -31q1 -12 2 -31t1 -22q1 -10 -1 -17q-2 -5 -2 -95q0 -89 -2 -94q-6 -6 -10 -7q-6 -3 -17 -3q-18 0 -28 1q-19 2 -23 6q-4 2 -12 19
q-5 10 -7 12.5t-6 2.5q-5 2 -17 -4q-12 -4 -14 -7q-3 -3 -11 -6q-9 -5 -12 -9q-5 -7 -27 -15q-22 -9 -33 -11q-11 -3 -20 -3q-17 0 -27 1q-17 2 -24 4q-4 2 -17 2t-27 5q-20 7 -22 8q-8 5 -18 11q-13 9 -29 27l-25 26q-8 10 -11 16l-10 14q-5 6 -7 13q0 4 -4 16q-4 10 -4 18
t-2 14q-3 7 -5 18q0 11 -4 21q-2 14 -2 57q1 49 4 55q4 8 4 22q2 17 5 27q4 12 12 22q7 7 8 10t2 14q0 12 6 23q7 9 9 14q6 6 9 7q5 3 14 15q6 10 17 14q9 3 16 10t13 9q2 0 6 0.5t6 0.5q5 0 13 4q10 4 17 4q18 3 19 4q10 2 22 2q15 0 24 4q10 3 17 2q6 -2 19 -7
q17 -5 25 -6q14 -2 27 -9q18 -10 22 -14t8 -12l8 -12q7 -7 8 -12q4 -6 8 -8t6 -2t5 3t3 12q0 8 -2 16q-3 6 -3 17q0 10 2 16t2 19q1 14 -3 26q-4 11 -4 30t3 27q3 7 3 31q0 26 -1 32q-3 12 1 24q2 13 7 20q4 7 9 9q4 2 13 2q10 0 21 3z" />
    <glyph glyph-name="uni0065" unicode="e" horiz-adv-x="491" 
d="M288 451q-25 8 -40 8h-10q-7 0 -22 -7q-13 -6 -19 -12q-1 -1 -6 -7.5t-8 -9.5q-10 -13 -17 -24q-1 -2 -5.5 -12t-6.5 -15q-5 -18 -5 -26q0 -9 2 -15t9 -11t20 -5h23q31 0 47 4q13 2 18 1q4 0 13 -3q6 -3 20 -2q5 0 14 -0.5t12 -0.5q5 -1 7 -1q4 0 9 3q6 4 10 12q4 6 4 9
q0 2 -2 8q-1 3 -4 18q-2 9 -7 23q-7 19 -8 24q-3 10 -8 13q-3 2 -6 5l-2 3l-5 5q-3 5 -7 7.5t-20 7.5zM250 522q20 1 40 1q8 0 16 -2q12 -2 17 -4q1 0 5.5 -1.5t6.5 -2.5q9 -2 20 -9q11 -6 20 -13q3 -2 9.5 -5.5t8.5 -4.5q10 -6 10 -8l3 -7q4 -6 7 -10q10 -16 13 -19
q4 -4 8 -14q5 -12 6 -17q2 -8 4 -14q3 -6 3 -16q0 -12 3 -16q3 -8 4 -44q0 -39 -2 -44q-2 -7 -7 -10q-7 -5 -10 -9q-3 -3 -9 -6q-4 -2 -27 -4l-36 -3q-9 -1 -12 -1q-6 0 -19 4q-13 3 -17 3t-16 -2q-15 -3 -28 -3q-9 0 -15 2t-49 2q-24 1 -30 1q-16 0 -22 -5q-9 -7 -10 -9
q-3 -5 -3 -14q0 -6 3 -18q2 -6 4 -28q1 -20 8 -31q5 -11 15 -19q9 -7 14 -17q3 -8 9 -14q3 -3 19 -11q14 -7 30 -11q13 -2 30 -1q15 2 22 5q5 2 11 10q7 9 13 11q7 2 11 6t6 14q5 11 6 12q1 0 8 10q5 7 13 10q2 0 7.5 2t8.5 3q6 3 20 3t18 -3q5 -2 9 -8q4 -4 6 -13
q0 -11 -3 -20q-4 -11 -9 -18q-6 -7 -9 -16q-1 -2 -3.5 -8t-3.5 -8q-2 -5 -16 -15q-4 -2 -11.5 -7l-10.5 -7l-9 -6q-3 0 -8 -6q-4 -4 -10 -7q-2 -2 -16 -2t-18 -2q-12 -4 -20 -6q-13 -4 -19 -4h-5q-10 2 -19 0q-5 -1 -8 -1q-6 0 -28 7q-26 9 -33 11q-9 3 -21 6q-13 4 -24 13
q-12 10 -13 15q-2 3 -8 9q-9 9 -13 15q-16 24 -19 29q-11 19 -13 28q-2 11 -7 25q-4 16 -4 37q-2 26 -4 35t-2 26q1 10 1 25v11v31q0 8 3 14q4 6 6 15q0 1 4 19q0 6 5 19q6 10 10 11q4 3 13 19q6 14 13 23q8 10 13 21q8 16 11 19q1 3 10 7q2 1 17 10q10 6 15 11q6 5 18 6
q3 0 7 1l8 2q4 1 5 1q7 3 45 4z" />
    <glyph glyph-name="uni0066" unicode="f" horiz-adv-x="346" 
d="M275 732q6 3 17 3q9 0 17 -2q15 -4 16 -4q9 -2 14 -9q1 -4 5 -10q1 -1 1 -2q2 -2 4 -11q2 -6 -2 -13q-3 -6 -9 -8q-2 -1 -7 -3t-6 -2q-9 -5 -16 -6q-10 -4 -22 -4q-14 -2 -20 -5q-2 -1 -13 -5q-9 -2 -11 -4q-3 -2 -11 -15q-8 -11 -10 -17t-2 -42q-1 -21 -1 -27
q0 -12 4 -19q3 -4 9 -10q6 -3 18 -6q14 -5 32 -7q14 -3 32 -3q13 1 23 -4q7 -3 12 -8q3 -9 3 -23q1 -10 1 -13q0 -7 -3 -10q-1 -3 -5 -7q-2 0 -12 -2q-12 -2 -33 -4q-4 0 -20.5 -1t-22.5 -2q-20 -1 -25 -5q-5 -5 -8 -11q-4 -8 -4 -22q0 -12 2 -24q1 -5 1 -16t-1 -32
q-1 -25 -1 -33t1 -13q3 -6 3 -16q0 -11 -3 -20q-2 -14 -2 -20l2 -9q1 -8 2 -12q3 -15 3 -85q0 -54 -0.5 -64.5t-4.5 -19.5q-3 -10 -8 -15t-12 -8q-8 -5 -14 -5q-2 0 -7 1q-15 2 -23 6q-10 4 -14.5 8t-6.5 11q-2 6 -2 16q0 11 -3 22q-2 8 -2 43q0 30 -3 41q-3 15 -3 27
q-1 19 2 29q3 9 3 59q0 46 -3 75q-4 30 -4 48q0 21 -4 30t-9 11q-14 5 -15 5q-7 2 -19 -1q-8 -3 -27 -3q-17 1 -22 6t-7 11t-2 18q0 18 2 24q2 12 3 13l14 7q10 5 17 5q4 0 18 -1q23 -3 31 0q7 2 12 7q4 4 8 12q3 7 3 40q-1 18 -1 46q0 13 4 21q3 8 5 20q1 11 7 20l5 8
q0 1 12 13q11 11 23 18q10 8 20 9q10 2 28 0q17 -1 30 4q3 1 9.5 3.5t7.5 2.5z" />
    <glyph glyph-name="uni0067" unicode="g" horiz-adv-x="532" 
d="M287 408q-8 3 -17 3t-21 -2q-9 0 -21 -4q-3 0 -10 -2t-9 -3t-6.5 -3t-5.5 -2q-5 -2 -9 -11q-6 -10 -10 -14q-5 -3 -9 -11q-1 -2 -4.5 -10t-5.5 -12q-6 -19 -6 -27q0 -13 -3 -27q-4 -18 -4 -59q0 -43 3 -49q2 -6 2 -17q0 -12 3 -18q1 -2 3 -4.5t2 -3.5q3 -2 7 -9
q3 -6 9 -12q7 -7 10 -7q5 -2 10 -5t5 -5t6 -10q6 -6 12 -8q2 -2 14 -2q8 0 20 1q20 1 35 4l15 10q8 7 18 22q10 13 14 26q2 3 5 10.5t5 9.5q5 10 5 23q0 11 2 29q3 10 3 25q0 7 -1 22q0 10 -0.5 27t-0.5 20q-1 17 -4 20q-4 3 -6 13q0 2 -7 15q-7 9 -8 16q-3 8 -8 13
q-3 2 -15 14q-11 11 -17 14zM209 490q6 2 13 2q6 0 14 -2q5 -2 27 -4q15 0 20.5 -1.5t24.5 -11.5q28 -15 29 -16q9 -3 10 -3q5 0 8 5q3 3 7 11q2 6 15 12q12 5 36 5t28 -3q3 -3 7 -9q3 -6 3 -16q0 -8 2 -18q3 -6 3 -17q0 -8 -2 -16q-2 -7 0 -20q1 -14 -1 -23q-2 -10 -2 -14
q0 -3 2 -13q3 -6 3 -12q0 -8 -3 -14q-2 -10 -2 -21q0 -13 3 -24q3 -10 3 -16v-7q0 -8 -3 -23q-3 -9 -4 -66q0 -46 -3 -76q-1 -19 1 -28q3 -10 3 -57q0 -46 -3 -58q-2 -10 -2 -17q0 -9 -3 -17q-1 -7 -6 -16q-3 -4 -7 -17q-3 -11 -18 -27q-17 -16 -24 -21q-10 -6 -16 -9
l-15 -9q-7 -5 -19 -7l-27 -3q-25 -3 -26 -3q-10 -2 -57 -2q-49 0 -57 3q-3 1 -10 3t-10 3q-10 2 -21 10q-12 7 -25 20q-15 15 -24 35q-12 23 -12 34q-1 12 3 18q4 7 11 9q7 3 34 3q20 0 24.5 -1t11.5 -5q2 -2 7 -5.5t6 -4.5q0 -1 1 -3q5 -7 7 -12q6 -12 9 -15t13 -9t17 -13
q6 -6 8.5 -7t11.5 -1q12 0 18 3q3 2 22 4q15 0 29 4q12 4 14 6q4 4 4 8q2 6 9 10q7 6 12 18q5 19 6 22q2 10 4 15q3 4 3 16q0 8 2 20q1 9 0 30q-1 22 -5 24q-2 4 -7 4q-4 0 -6 -4q-4 -4 -10 -4q-10 -3 -11 -4q-6 -2 -13 -9q-3 -2 -6.5 -5t-4.5 -3q-2 -2 -19 -2
q-18 -2 -27 -5q-12 -2 -24 -2h-16q-27 1 -38 6q-10 4 -14 8t-14 8q-9 3 -12 6q0 2 -8 6q-6 3 -10 7q-1 1 -4 6t-4 7q-6 11 -12 15t-10 8q-3 2 -9 12q-5 13 -11 29q-8 24 -11 36q-4 17 -4 48v17q0 20 1 36q3 19 0 28q-2 8 -2 16q0 9 3 12q4 12 6 21q5 18 7 22q2 6 2 17
q0 13 3 17q1 6 4 6q1 0 5 8q4 9 6 15q4 9 9 18q2 2 5.5 7t4.5 6q4 4 12 8q10 4 13 8q1 1 5.5 4t5.5 4q8 3 8 6l6 4q9 3 19 3q3 0 7.5 1t9.5 2t7 1q2 1 8.5 2.5t7.5 2.5z" />
    <glyph glyph-name="uni0068" unicode="h" horiz-adv-x="634" 
d="M125 725q4 4 8 4.5t24 0.5q27 0 31 -3q3 -1 9 -14q4 -12 1 -23q-1 -3 -2 -12t-1 -11q0 -15 3 -20q3 -9 3 -22q1 -17 -3 -29q-3 -12 -3 -59q0 -11 1 -29.5t1 -19.5q2 -3 8 -8q5 -5 11 -5t10 3q5 1 14 8t15 8q7 0 19 6q2 1 7.5 3t6.5 2q3 0 9 4q8 5 25 5q20 2 27 4
q9 3 17 0q5 -3 34 -4q27 0 36 -4q7 -3 16 -12q12 -9 22 -14q15 -7 21 -14q8 -10 10 -15q9 -17 10 -21q6 -16 6 -22q1 -4 6 -14q4 -6 6 -13q1 -3 -1 -24t-1 -26q1 -3 3 -26q3 -15 3 -37q0 -18 2 -38q0 -33 -1 -50q-1 -18 -1 -24q0 -8 2 -13q2 -6 2 -19q0 -16 -4 -29
q-3 -11 -3 -14.5t3 -12.5q2 -13 1 -14v-2q-1 -9 -1 -14q0 -14 -5 -21q-3 -5 -12 -11q-7 -5 -33 -5q-29 0 -33 1q-4 0 -6 1.5t-6 9.5q-5 15 -6 21q0 18 1 26q1 7 1 15t-1 20q-2 25 -3 28q0 10 1 13q1 2 3 95q0 89 -3 94q-4 4 -5 22q0 16 -7 28q-7 10 -7 12q-2 5 -5 9
q-2 3 -13 17q-4 4 -16 13q-7 4 -34 5q-25 0 -33 2q-11 2 -14 1q-8 -3 -16 -8q-10 -9 -23 -14q-10 -5 -20 -15q-9 -9 -9 -11t-9 -13q-9 -9 -11 -15q-4 -6 -6 -24q-3 -14 -5 -38q-2 -19 -5 -29q-3 -8 0 -20q4 -14 4 -19q1 -6 -2 -18q-2 -7 -2 -16q0 -6 1 -18q2 -24 3 -25
q2 -3 -2 -18q-3 -14 -3 -42q0 -29 3 -37q2 -9 0 -24q-2 -12 -5 -19q-2 -5 -8 -11q-8 -8 -13 -9q-5 -3 -13 -3q-11 0 -24 3l-12 2t-7 1q-1 1 -7 9q-6 9 -7 19q-2 16 -3 18q-2 8 -2 12l3 15q4 11 4 31t-3 25q0 1 -1 4t-2 8t-2 8q-2 9 -2 23q1 5 3 43t2 39q0 2 -2 28
q-3 32 -4 52q-1 16 -1 21q0 9 3 17q3 7 3 25q0 9 -1 40q0 56 -3 66q-1 3 -3 29q0 19 2 39q0 4 1 10.5t1.5 11t0.5 7.5q1 12 -3 24q-3 10 -3 14.5t3 18.5q4 20 4 31q0 14 3 18q2 4 10 10q8 5 14 11zM328 1116q-1 1 0 1h6h7t-1 -1h-12zM259 1116q-1 1 2.5 1h16.5h15.5t2.5 -1
q-4 -2 -19 -2q-16 0 -18 2z" />
    <glyph glyph-name="uni0069" unicode="i" horiz-adv-x="295" 
d="M125 510q10 5 15 5q6 0 15 -3q5 -2 17 -5q7 -2 10 -6q3 -3 5 -14q0 -2 3 -20q3 -11 -1 -23q-2 -12 0 -21q3 -9 3 -15q0 -8 3 -18q3 -12 0 -24q-3 -16 -3 -87q0 -74 3 -80q3 -12 3 -15q0 -8 -6 -14q-5 -6 -5 -13q0 -5 4 -19q5 -13 5 -29q0 -25 -1 -34q-2 -18 -2 -37
q-2 -20 -4 -24q-3 -5 -9 -10q-6 -6 -13 -8q-11 0 -18 2l-20 5q-9 0 -11 2q-4 2 -7 7l-3 6l-2 3q-2 4 -2 23v29q0 2 -0.5 11t-0.5 13q-1 17 1 29q4 12 2 19q-3 9 -3 51q-2 47 -3 50t-1 10.5t1 18.5q2 24 2 31v76v80q0 12 3 24q5 12 7 14q1 4 13 10zM135 728q2 1 32 1
q26 0 29 -4q2 -1 5 -9q2 -6 2 -34q1 -15 1 -20q0 -10 -3 -16q-2 -10 -9 -15q-6 -7 -12 -9t-18 1q-9 3 -32 3q-20 0 -26 2q-4 1 -10 9q-5 6 -8 19q-2 14 -2 21q0 10 3 22q3 13 7 17t16 5q9 1 17 4q2 1 8 3z" />
    <glyph glyph-name="uni006A" unicode="j" horiz-adv-x="295" 
d="M130 532q8 2 23 2q14 0 22 -2q6 -2 9 -5q3 -4 3 -16.5t3 -23t3 -17.5q-1 -2 -2 -11.5t-2 -14.5q-2 -22 -2 -31q0 -10 4 -24q2 -13 2 -27v-17q0 -32 -4 -37q-3 -8 -2 -16q0 -8 4 -18q2 -7 2 -14v-7q-2 -17 -4 -21q-3 -9 -1 -16q3 -8 1 -19q-1 -7 2 -17q2 -7 2 -42
q-2 -37 -3 -39q-1 -6 -3 -53v-25q0 -23 1 -29q1 -3 3 -22q1 -9 1 -20q0 -4 -5 -16q-3 -14 -14 -33q-8 -19 -14 -22q-5 -3 -8 -10q-5 -8 -13 -10q-9 -4 -27 -9q-18 -7 -23 -7q-7 0 -14 -3q-6 -2 -8.5 -2t-8.5 2q-7 3 -22 3q-13 0 -17 2q-4 1 -10 7q-3 3 -7 9q-2 6 -2 22
q0 18 2 24q2 7 8 11q5 4 12 7q6 3 18 5t15 5q5 2 8 9q4 6 10 10q5 2 10 10q3 12 3 22q2 18 2 27q0 10 -2 20q-2 9 0 20q3 9 3 18t-3 22q-3 15 1 26q4 14 4 21q0 6 -3 15q-3 5 -3 29q0 18 3 30q3 8 3 33t-3 32q-2 4 -2 29l2 23l-2 10q-2 10 -2 20q0 12 3 21q4 8 4 24
q0 14 -6 22q-6 7 -6 14t2 11q3 5 3 16t6 24q8 16 8 20q2 7 5 10q5 5 13 5q13 3 15 4zM117 756q5 5 11 5q5 0 10 -5q4 -4 8 -3q4 0 12 2t18 -1q10 -4 15 -4q6 0 9 -3q4 -2 6 -12t2 -21q0 -9 -4 -21q-4 -14 -4 -21q0 -10 -2 -16q-4 -5 -7 -7t-9 -2t-10 -3q-4 -1 -8 -5
q-2 -3 -8 -3q-5 0 -13 4q-7 4 -22 4q-17 0 -23 5q-7 4 -8 5q-2 0 -4 3q-4 4 -4 14q-2 14 -5 22q-1 5 -4 14q-1 4 -1 5q-3 8 0 15q1 4 4 13q2 6 3 7q2 2 10 4q3 0 8.5 0.5t7.5 0.5q7 0 12 4z" />
    <glyph glyph-name="uni006B" unicode="k" horiz-adv-x="554" 
d="M133 742q5 0 13 0.5t9 0.5q8 0 18 -3q9 -3 16 -6q4 -1 7 -8t4 -56v-19t0.5 -16.5t0.5 -10.5v-5l-2 -22q0 -23 1 -28q2 -10 0 -17q-1 -4 -1 -42v-75q2 -39 3 -46q3 -5 1 -23v-18q2 -3 6 -3q5 0 17 5q13 6 24 17q13 11 20 16q11 8 13 11q7 7 10 13q5 7 15 11q9 3 18 11
q8 5 12 11q2 3 9 10q7 10 9 14q3 6 9 12q11 7 12 8q7 4 9 8q1 4 13 9q13 8 16 11q4 5 17 10q10 2 39 4q14 1 22 1q9 0 11 -1q5 -3 7 -6t4 -11q0 -10 -1 -15q-2 -9 -15 -22l-50 -50q-42 -39 -53 -46q-13 -8 -18 -15q-6 -7 -18 -14q-14 -7 -21 -14q-6 -8 -10 -8q-2 0 -8 -6
t-6 -11t5 -10q5 -7 7 -14t9 -14q9 -8 16 -13q5 -3 11 -9q4 -4 8 -11q6 -9 14 -13q10 -4 13 -9q1 -2 11 -14q8 -10 15 -17q6 -6 20 -22q17 -17 21 -20q6 -3 14 -15q7 -10 22 -22q4 -3 17 -16q3 -6 16 -14q13 -6 16 -13q2 -6 2 -22v-9q0 -8 -3 -11.5t-14 -6.5q-14 -4 -30 -4
q-8 -1 -19.5 -1t-19.5 1q-17 2 -27 8q-9 7 -12 11q-3 5 -10.5 9t-16.5 14q-10 12 -13 20q-9 12 -26 29q-22 22 -24 22t-11 12q-3 3 -8 10.5t-7 9.5q-7 9 -8 9q-3 3 -11 14l-16 25q-10 12 -12 13q-6 3 -9 4q-5 2 -8 9q-5 10 -7 13q-5 5 -11 8q-12 3 -13 3q-7 0 -9 -3
q-3 -3 -4 -33q0 -10 -0.5 -24t-0.5 -15q0 -10 1 -14q2 -6 1 -21q-1 -8 -1 -15t1 -17q1 -9 1 -25q-1 -2 -2 -8t-1 -8q-1 -3 -3 -28q-2 -20 -7 -25q-7 -5 -17 -8q-12 -4 -22 -4q-12 0 -25 5q-15 4 -16 5q-2 2 -4 16q-3 19 -4 22q-2 10 -2 22q0 13 -3 19q-3 5 -3 14q0 11 3 15
q3 8 3 23q0 8 -3 26q-3 11 -3 62v29q0 25 2 58q3 25 3 30.5t-3 13.5q-3 11 -3 22v14q2 26 2 55t-2 49q0 3 -1.5 13t-1.5 12q-2 5 0 16q3 15 3 31q1 10 1 17q0 11 -2 21q-1 5 -2.5 13.5t-1.5 10.5q0 11 1 14q2 5 4 37q1 32 4 37l10 10q7 5 24 6z" />
    <glyph glyph-name="uni006C" unicode="l" horiz-adv-x="315" 
d="M150 742q3 1 14 1t17 -5q7 -3 12 -10q2 -2 5 -8q1 -2 3 -41q0 -11 0.5 -33.5t0.5 -28.5q0 -23 2 -33q1 -8 -1 -18q-3 -12 -2 -26q0 -14 4 -24q3 -8 -1 -19q-4 -12 -4 -17q0 -4 4 -16q3 -9 3 -45q-2 -38 -2 -68q0 -31 -4 -39q-3 -7 -1 -19t2 -23q0 -12 3 -20q2 -7 2 -60
q0 -51 -3 -60q-3 -10 0 -20q3 -9 3 -33q0 -6 0.5 -20t0.5 -18q1 -8 1 -11q0 -6 -5 -11q-6 -4 -8 -11q-1 -1 -3 -5t-3 -5q-4 -4 -11 -6q-3 -1 -5 -1q-4 0 -12 3q-12 4 -18 4q-5 0 -11 2q-3 2 -10 9q-6 6 -6 9q0 5 -3 12q-4 9 -4 26t-3 26q-2 11 0 22q3 9 3 104q0 109 -1 129
v46q0 26 1 45q0 35 -2 42q-3 7 -2 28v12q0 11 -2 23q-2 9 -2 18q0 6 1 16q0 21 3 29q1 10 -1 24q-3 15 0 24q1 4 1 11.5t-1 20.5q-1 14 -1 19q0 7 5 19q5 14 11 19q6 3 16 7q12 4 14 4z" />
    <glyph glyph-name="uni006D" unicode="m" horiz-adv-x="910" 
d="M287 504q11 3 27 3h17h35q6 -3 8 -5q3 -2 9 -5q2 0 8 -1.5t9 -1.5q11 -1 29 -10q14 -8 21 -15q5 -8 12 -16q6 -11 11 -13q3 -1 9 -1q1 0 2 1l8 4l3 3q7 6 9 9q6 8 14 13q2 2 7.5 7t7.5 7q7 7 33 16q20 6 28 7t36 2q40 0 47 -2q8 -3 25 -7q17 -5 23 -5q5 0 11 -3
q12 -4 14 -5q8 -1 10 -6q0 -1 14 -15q13 -13 14 -18q0 -6 5 -19q1 -3 3 -10.5t3 -9.5l7 -18q4 -11 9 -17q5 -7 3 -20q0 -2 -0.5 -17t-0.5 -24q0 -27 2 -45q3 -12 3 -45q0 -31 -3 -40q-2 -12 -2 -26q0 -19 3 -35q1 -5 5 -29q1 -5 1 -9q0 -6 -2 -15q-2 -6 -4 -36
q-1 -22 -5 -27q-7 -7 -10 -8q-5 -3 -22 -5q-9 -1 -27 -1q-10 0 -18 4q-9 4 -11 11q-3 5 -2 28q1 11 1 16q0 8 -3 16q-4 9 -4 24q0 16 3 25q2 7 2 14t-2 26q-2 34 -2 37t3 12q3 4 2 25q-2 24 -3 27q-2 5 -4 37q0 19 -3 43q-2 12 -4 19q-3 6 -6 15q-3 11 -5 13q-2 0 -6 9
q-3 7 -16 17q-15 10 -21 12q-9 4 -44 4q-34 0 -39 -5q-8 -8 -19 -12q-16 -9 -21 -14q-6 -6 -12 -18t-6 -13q0 -4 -6 -16q-6 -11 -7 -28q-1 -12 -4 -22q-2 -7 1 -17q3 -11 0 -20q-3 -15 -3 -16q0 -3 3 -15q3 -6 3 -114q0 -79 -0.5 -93t-5.5 -18q-5 -6 -16 -8q-12 -2 -18 -5
q-8 -2 -19 -2q-12 0 -18 3q-4 2 -9 6l-2 6q-2 6 -4 9q-4 13 -6 31q-3 19 0 27q4 10 4 13t-2 11t-2 32q0 27 -3 34q-2 9 1 23q3 21 3 33q1 20 -2 29q-4 10 -1 22q3 13 0 23q-3 15 -3 17q0 6 -4 20q-5 17 -6 25q-2 14 -3 17q-4 4 -14 21q-10 16 -20 19l-18 6q-10 2 -30 2
q-19 0 -33 -3q-14 -5 -31 -14q-15 -7 -19 -11t-11 -20q-11 -20 -11 -25t-5 -13q-4 -8 -3 -21q0 -15 -2 -21q-3 -8 -4 -79v-41q0 -30 3 -43q4 -13 2 -21q-1 -9 0 -18q3 -8 0 -20t0 -20q1 -5 1 -18l-4 -20q-1 -5 -5 -13q-2 -2 -8 -6q-3 -2 -33 -2q-27 0 -33 2q-5 1 -12 18
q-6 11 -7 20t-1 49v81q0 27 -4 38q-1 3 -2 7l-1 5q0 1 1.5 6t1.5 7q4 12 4 46t-3 43q-2 6 -4 30q0 23 3 33q4 12 2 18t-2 26q0 24 -2 30q-1 9 0 17l3 6q4 6 6 8t6.5 7t5.5 6q4 6 11 8q3 1 20 1q17 -2 24 -5q8 -3 9.5 -5.5t5.5 -13.5q3 -11 9 -20q5 -6 9 -6q2 0 10 6q6 8 6 9
q0 2 7 7q6 4 13 11q6 6 12 8t9 2t15 4q5 1 23 6z" />
    <glyph glyph-name="uni006E" unicode="n" horiz-adv-x="625" 
d="M360 515q9 3 13 3q4 -2 15 -2q16 -3 17 -3q6 -2 16 -7q7 -6 22 -10q14 -4 21 -9q10 -4 14 -11q3 -6 15 -18q12 -11 16 -22q4 -7 11 -25q7 -14 7 -20q0 -7 3 -14q4 -7 5 -29q1 -5 2.5 -20.5t1.5 -20.5q2 -12 2 -17.5t-2 -8.5q-2 -6 -2 -15q0 -7 2 -15q1 -4 1 -7
q0 -6 -3 -17q-2 -9 -5 -31q-2 -15 1 -25q4 -10 3 -29q0 -15 -4 -27q-4 -10 -4 -18q0 -6 4 -28q4 -19 1 -30q-1 -6 -4 -21q0 -7 -3 -13q-2 -4 -9 -9q-8 -6 -14 -6q-7 -1 -26 6q-5 2 -13 4q-7 3 -8 3q-3 0 -9 3q-6 4 -7 11q-2 5 -2 38q0 32 -3 44q-3 13 -3 22v9q1 8 1 26v76
q-1 67 -4 74q-4 7 -2 18q0 9 2 17q2 6 -2 20q-1 5 -5 18q-2 4 -12 16q-12 14 -18 16q-12 5 -18 6q-12 5 -17 6q-5 2 -21 7q-14 2 -27 -1q-11 -2 -22 -6q-10 -4 -14 -4q-7 -2 -13 -10q-7 -5 -14 -15q-6 -8 -11 -10q-8 -5 -10 -6q-4 -2 -10 -13q-6 -8 -6 -16q0 -1 -2 -9
t-3 -13q0 -3 -2 -14.5t-3 -17.5q-2 -20 -2 -61q-1 -21 -1 -29q0 -17 3 -21q2 -8 2 -12q0 -6 -2 -14q-3 -6 -3 -13q0 -4 4 -18q3 -11 2 -29q0 -15 -4 -25q-2 -10 -1 -17q0 -8 2 -20q1 -9 -6 -25q-6 -14 -12 -18q-4 -3 -27 -4q-25 0 -29 1q-3 1 -12 7q-5 7 -6 12q-2 8 -5 17
q-3 11 -3 91v44q0 36 -2 44q-2 6 -2 14q0 6 1 22q2 30 2 82q0 56 -3 65t-3 16q0 3 4 15q3 12 3 36q0 26 4 30t12 6t14 5q6 5 14 3q3 0 15 -3q2 0 7 -1t7 -2q6 0 12 -10q2 -3 6.5 -10.5t5.5 -8.5q6 -8 11 -11q5 0 12 4q6 3 11 8t11 8q9 3 11 8q3 5 21 11q15 7 27 9q5 1 17 7
q8 5 21 5q10 0 22 2z" />
    <glyph glyph-name="uni006F" unicode="o" horiz-adv-x="612" 
d="M344 440q-11 3 -28 3h-8q-9 0 -15 -1q-2 0 -10.5 -0.5t-13.5 -0.5q-15 0 -21 -2q-6 -3 -9 -6q-9 -6 -14 -7q-8 -3 -11 -8q-4 -6 -9 -11q-9 -9 -13 -14q-6 -10 -11 -20q-3 -11 -9 -16q-4 -4 -6 -13q-1 -5 -4 -14q-2 -5 -4 -31q-1 -10 -1 -20.5t1 -15.5q0 -3 0.5 -13.5
t0.5 -15.5q0 -18 3 -25q2 -3 4 -24q1 -17 7 -24q5 -5 6 -17q2 -14 3 -16q2 -5 10 -14q8 -11 18 -16q12 -6 19 -15q10 -10 23 -13q10 -3 33 -5q20 0 25 3q4 2 22 4q16 0 30 7q16 8 17 10l9 6q3 3 8 13q3 6 10 13q7 5 13 15q5 7 12 20q4 11 6 21q3 11 3 19q0 10 -1 14
q-1 8 2 16q3 7 3 38q0 30 -3 36q-3 4 -5 17q0 6 -5 26q-4 14 -4 18q-1 3 -7 9q-6 2 -14 19q-4 8 -6.5 12t-5 6.5t-12.5 9.5l-18 14l-4 4q-3 3 -16 5zM295 522q8 2 18 2h5q9 0 17 -5q9 -4 20 -4q14 0 22 -4q2 -1 11 -3.5t13 -4.5q16 -6 19 -8q6 -4 9 -7q6 -4 15 -7
q10 -3 14 -9q7 -7 10 -8l5 -4q5 -3 8 -5q9 -7 12 -13q4 -6 10 -9q5 -3 10 -16q6 -16 6 -20q0 -1 2.5 -7.5t3.5 -9.5q1 -2 2.5 -7.5t3.5 -10.5t3 -9q6 -18 6 -22q0 -3 4 -19q0 -2 1.5 -11t1.5 -11q0 -7 4 -19q2 -10 2 -16v-5q0 -7 -3 -13q-2 -3 -4 -23q0 -11 -3 -29
q-2 -6 -7 -27q-3 -13 -8 -29q-5 -15 -8 -19q-4 -9 -7 -10q-3 -3 -9 -13q-4 -7 -15 -20.5t-13 -17.5q-3 -7 -19 -14q-17 -7 -28 -15q-9 -7 -17 -10q-3 0 -19 -7q-11 -6 -34 -8q-19 0 -29 -4q-4 -1 -31 -3q-20 0 -35 4q-16 4 -23 4q-11 0 -20 3q-12 4 -17 4q-11 4 -14 6
q-10 4 -19 7q-8 1 -15 5q-2 1 -5.5 4.5t-5.5 4.5l-10 10q-7 7 -11 12t-17 16q-12 7 -14 13q-1 4 -6 11q-5 8 -6 10q-2 3 -4 18q-1 10 -7 29q-3 6 -10 27q-5 11 -6 34q-3 39 -3 51q0 28 2 32q2 6 2 21q0 12 4 26q3 9 3 18q0 6 4 16q1 6 4 15q0 5 9 14q8 12 11 15q4 8 6 13
q4 9 10 13q9 6 16 16q9 9 23 19q16 9 23 10l16 4q1 0 13 6q5 5 11 7q2 1 20 1q19 0 24 -1q8 -2 13 3q7 7 10 8z" />
    <glyph glyph-name="uni0070" unicode="p" horiz-adv-x="626" 
d="M356 425q-18 2 -24 2h-4q-6 0 -14 -1t-30 -12q-3 -1 -13.5 -6t-12.5 -6q-6 -4 -11 -9l-5 -5q-1 -2 -2 -3q-1 -2 -7 -6q-6 -3 -10 -12q-6 -12 -9 -15q-6 -9 -8 -13q-6 -14 -8 -25q-4 -16 -7 -23q-3 -6 -3 -42q1 -26 1.5 -31.5t4.5 -10.5q5 -7 6 -34q1 -20 1.5 -24t4.5 -9
q6 -8 9 -14t6 -9q3 -2 7 -9q2 -6 9 -11q4 -3 13 -9q3 -1 14 -10q8 -8 20 -14q10 -5 23 -7q4 0 19 -3q5 -1 8 -1t5 1q5 3 17 3q14 2 24 6q12 4 21 13q12 10 15 16q6 8 11 13q8 8 13 20q4 9 12 29q3 12 3 17q0 3 -1 10t-1 17q2 4 2 30v14q0 14 -2 21t-2 36v17q0 10 -5 19
q-7 13 -8 21q-2 10 -6 15q-5 5 -7 11q-3 7 -10 10q-6 3 -13 10q-9 9 -18 14q-12 8 -28 9zM337 505q6 3 15 3t15 -3q8 -3 27 -5q6 -1 17 -3t13 -2q4 -1 12 -4t10 -4q12 -7 21 -11q12 -7 19 -16q8 -9 20 -17q11 -7 17 -20q3 -7 11 -23q1 -2 6 -17q2 -8 6 -12q6 -6 9 -14
q4 -11 6 -12q3 -3 4 -5q2 -5 4 -19q0 -6 3 -30q2 -18 3 -21q0 -10 -3 -18q-4 -13 -4 -36q0 -26 -3 -36q-3 -11 -3 -20q0 -6 -4 -18q-4 -10 -4 -17q-2 -8 -6 -14q-5 -7 -7 -14q-3 -9 -7 -11q-6 -4 -8 -9q-6 -9 -9 -13q-2 -3 -6.5 -8.5t-5.5 -6.5q-7 -5 -9 -9q-7 -7 -12 -10
l-16 -8q-1 -1 -5 -3t-5 -3q-4 -4 -20 -12q-16 -7 -32 -8q-14 -2 -24 -4q-5 -3 -11 -3t-12 -3q-12 -3 -27 -3q-18 -2 -29 2q-20 8 -34 13q-24 7 -28 11q-1 1 -6 4q-2 1 -3 2q-5 3 -16 5t-14 0q-3 -6 -6 -21q-1 -11 -5 -23q-2 -6 -2 -11q0 -6 2 -10q3 -9 3 -57v-59
q-1 -7 -10 -17q-9 -11 -16 -14q-7 -4 -12 -4h-3q-1 0 -9.5 1.5t-13.5 2.5q-6 1 -13 2q-6 1 -7 1q-4 2 -7 10q-5 9 -6 18q0 3 -1 9t-1 7q-1 3 1 16q2 10 -1 19q-3 7 -3 35t3 33q3 12 3 13q0 4 -4 16q-3 8 -3 51t-3 49q-2 8 -2 15q0 6 2 12q3 4 3 69q0 61 -3 69q-1 2 -4 16
q0 15 3 25q3 13 1 24q-3 12 -3 81q-1 39 -1 52q0 20 2 25q6 9 8 11q6 6 11 7q2 1 16 4q7 1 22 -1q9 -1 20 -4q7 -2 14 -8q5 -4 9 -15q1 -5 4 -11q2 -2 4 -2q1 0 9 4q5 5 7 5q3 0 22 14q22 14 25 17q5 4 39 5t41 4z" />
    <glyph glyph-name="uni0071" unicode="q" horiz-adv-x="625" 
d="M293 446q-18 3 -25 3q-4 0 -13 -7q-7 -4 -19 -9q-9 -3 -15 -12q-7 -9 -15 -14q-9 -8 -10 -16q-1 -5 -10 -25q-7 -13 -14 -31q-7 -14 -7 -21q-1 -3 -1 -7t1 -8q1 -2 1.5 -9t0.5 -9q0 -9 -2 -19q-1 -6 -1 -9.5t1 -11.5q3 -10 3 -35q0 -24 5 -34q7 -14 8 -19q3 -9 8 -12
q4 -4 7 -10q2 -7 9 -12q9 -9 13 -14q11 -11 15 -14q8 -5 11 -5q2 0 22 -6q17 -6 23 -6q3 0 12 1q20 4 28 7l20 8q10 4 23 12q16 10 19 18q2 5 14 21q10 12 12 20q1 2 3 9.5t3 10.5q5 12 7 25q2 11 0 20q0 14 2 23q2 10 2 15t-1 11q-2 12 -2 29q0 18 -5 27q-6 9 -6 21
q-1 10 -11 30q-13 21 -21 28q-9 9 -21 14q-3 2 -7 4l-5 2q-1 1 -4 2q-3 2 -4 3q-13 4 -19 5q-4 1 -17.5 3t-17.5 3zM252 530q14 1 31 1l15 -3q15 -3 24 -3q16 -2 22 -2q7 -1 19 -13q13 -13 22 -17q4 -2 9 -5q5 -2 6 -2q6 -2 11 -12q7 -11 9 -11q2 -2 5 -2t7 4q3 5 3 20
q0 17 3 21q4 6 11 7l9 2l12 3q13 4 32 4q17 0 23 -2q7 -3 8 -9q2 -6 2 -19t3 -24q3 -9 3 -17v-8q-2 -22 -4 -27q-2 -7 -2 -17q0 -6 1 -18q0 -8 0.5 -20.5t0.5 -15.5v-15t-0.5 -35.5t-0.5 -40.5q0 -82 1 -83t3 -8q1 -4 1 -6q0 -3 -2 -8q-3 -11 -4 -25q-2 -20 -4 -24
q-3 -6 -3 -20q0 -15 4 -23q3 -9 3 -23q0 -15 2 -33q2 -12 0 -27q-2 -11 1 -18q2 -8 2 -12q0 -5 -2 -11q-3 -7 0 -15q2 -8 2 -13t-2 -13q-4 -7 -1 -21q1 -7 1 -20q0 -9 -8 -16q-9 -9 -14 -10q-6 -2 -11 -2t-15 -4q-7 -3 -17 -3q-9 0 -15 3q-7 3 -15 10q-8 8 -12 18
q-4 8 -4.5 15t-0.5 38q0 43 2 46q3 9 3 38q1 30 5 43q3 9 0 14q-1 4 -5 6h-8q-5 -2 -11 -7q-6 -6 -26 -16q-19 -9 -28 -14q-2 -2 -7 -4.5t-6 -3.5q-6 -3 -18 -3q-13 -2 -22 -6t-35 -4t-43 6q-20 6 -29 9q-10 2 -15 7q-8 6 -12 6q-5 2 -12 7q-2 1 -6 3.5t-6 3.5q-10 5 -15 8
q-8 6 -17 15q-10 8 -15 20q-1 2 -6.5 10.5t-8.5 12.5q-8 12 -10 18q0 5 -4 15q-5 12 -6 18q-1 7 -8 20q-4 8 -5 13.5t-1 30.5q0 9 -0.5 35t-0.5 36q0 38 4 48q3 8 3 15q0 2 6 18q2 4 5.5 13t3.5 10l4 10q0 4 5 12q4 14 4 20q0 8 6 21t9 15q3 3 13 7q11 6 13 9q1 1 4.5 5
t5.5 6q5 6 16 11q7 1 25 8q10 3 25 10q11 6 17 7q8 2 33 2z" />
    <glyph glyph-name="uni0072" unicode="r" horiz-adv-x="407" 
d="M332 533q5 2 16 2q5 0 18 -5q7 -3 9 -5t4 -8q2 -8 6 -16q3 -7 3 -10t-1 -10q-1 -4 -3 -11.5t-2 -9.5q-2 -6 -7 -16q-2 -4 -9 -8q-3 -3 -23 -7q-22 -4 -27 -4q-8 0 -21 -6q-14 -7 -26 -8q-13 -1 -21 -8q-10 -6 -14 -12q-3 -2 -8 -14q-1 -8 -8 -17q-5 -9 -6 -16l-5 -15
q-2 -4 -2 -37q0 -29 -4 -48q-3 -13 -3 -16.5t3 -12.5t3 -14q0 -3 -2 -17q-4 -22 -4 -30q0 -9 4 -25q3 -15 0 -24l-4 -16q0 -7 3 -17q4 -9 4 -28t-3 -25q-1 -3 -10 -14q-6 -6 -9 -7t-15 -2h-8q-9 0 -20 3q-5 1 -13 5q-3 1 -4 1q-5 3 -14 13q-5 5 -13 17q-2 6 -2 13q0 2 3 17
q4 10 4 14q0 5 -3 13q-3 9 -1 21q2 13 1 17q-2 4 -2 13q0 8 2 12q3 5 3 34q0 30 -2 34q-3 6 -3 26q-1 10 -1 17q0 8 2 18t1 17q-3 5 -3 18q-1 15 2 25l4 20q1 4 1 13t-1 21q-2 28 -4 34q-3 7 -4 42v20q0 15 7 24q8 11 13 12q4 0 24 2q16 3 25 1q4 0 17 -5q8 -4 13 -13
q4 -8 4 -27v-13l1 -8q1 -2 4 -5q6 0 9 2q6 2 10 7q4 6 5 7l2 2q2 3 4 5q2 5 9 9q6 3 7 7q2 5 9 6q9 2 11 4q5 3 9 8q5 7 11 9q6 3 21 3q14 0 24 2z" />
    <glyph glyph-name="uni0073" unicode="s" horiz-adv-x="398" 
d="M173 527q13 5 22 5q13 -2 20 -5q10 -5 35 -5q27 0 36 -3q9 -1 18 -9q3 -3 8.5 -8t7.5 -7l13 -13q6 -7 7 -18q2 -14 5 -19q3 -8 1 -16t-2 -13q0 -2 -3 -11q-4 -6 -10 -7h-25q-19 0 -25 3q-1 1 -7 4l-8 4q-9 4 -17 15q-1 1 -15 19q-7 9 -15 10q-8 2 -19 0q-10 0 -21 -6
q-8 -4 -17 -13q-8 -10 -10 -16q-5 -9 -5 -29t7 -29q4 -7 14 -13q9 -4 14 -12q1 -1 5 -6t5 -7q5 -5 13 -6q11 -2 23 -7q13 -5 19 -13q9 -11 12 -12q3 -3 15 -7q3 -1 10 -3t9 -2l15 -3q8 -2 14 -9q9 -9 12 -11q5 -3 7 -8q4 -8 7 -11q4 -4 6 -10t2 -12q0 -7 4 -15q4 -6 4 -17
q0 -5 -1 -20q0 -29 -4 -42l-3 -21q0 -8 -2 -14q-2 -7 -9 -14q-8 -10 -14 -16q-9 -12 -11 -15q-4 -8 -10 -11q-4 -3 -24 -12q-18 -6 -30 -8q-14 -2 -17 -5q-8 -2 -21 -2q-17 0 -26 -3q-6 -2 -16 -2q-2 1 -23 3q-17 1 -29 7q-14 7 -26 19q-21 15 -22 16q-6 3 -11 8
q-1 0 -13 23q-3 7 -8 17l-6 9q-5 7 -5 13q2 12 8 22q8 15 14 17q5 3 42 3q34 0 40 -2q4 -2 7 -5q4 -11 4 -13q1 -7 11 -26q6 -13 14 -24q7 -6 22 -9q16 -2 19 -2q6 0 13 5q8 6 20 28t12 35q0 10 -2 26q-5 17 -6 19q-3 7 -17 14q-9 3 -19 10q-3 5 -12 7q-5 2 -13 6q0 1 -13 8
q-10 4 -10 7l-12 8q-15 9 -18 12q-8 7 -20 7t-16 2t-12 10q-9 11 -10 15q-1 5 -9 10q-9 5 -10 10q-2 6 -2 12q0 7 -4 17q-5 11 -6 35q-2 26 -3 28q0 5 3 14l3 9t2 7t12 27q11 22 16 27q3 2 17 13q11 8 15 13q5 5 11 6q1 0 7.5 2t9.5 3q2 0 8 1.5t8 1.5q6 0 16 5z" />
    <glyph glyph-name="uni0074" unicode="t" horiz-adv-x="393" 
d="M177 637q4 3 18 3q13 0 22 -5q7 -4 9 -9q1 -2 1 -23q0 -22 -3 -31q-4 -12 -1 -21l3 -12q0 -3 2 -11q1 -6 8 -9q5 -2 13 -1q12 3 26 3q20 2 33 2q14 0 18 -2q5 0 11 -6q7 -5 8 -15q2 -11 5 -15q2 -8 2 -14q0 -8 -3 -14t-9 -12q-8 -5 -15 -8q-11 -3 -26 -3q-16 0 -25 3
q-8 2 -22 -1q-10 -1 -17 -5l-7 -7q-3 -5 -3 -24q0 -26 1 -35q2 -13 -1 -27q-2 -12 -2 -14q1 -2 -1 -20q-1 -9 -1 -16.5t1 -15.5q1 -6 4 -26q2 -10 -2 -21q-3 -12 -3 -29v-20q0 -37 3 -46q5 -15 6 -17q3 -9 3 -14q1 -8 5 -11q3 -3 27 -3q7 0 23 0.5t22 0.5q22 0 28 -2
q8 -3 12 -7q5 -8 6 -10q3 -11 4 -22q1 -8 1 -12q0 -6 -3 -12q-1 -2 -10 -14q-8 -6 -11 -9q-8 -2 -19 -2q-15 0 -31 -4q-13 -3 -18 -3q-4 0 -17 2q-12 2 -33 5q-14 0 -20 4q-9 3 -13 4q-7 2 -16 9q-10 8 -15 18q-7 11 -12 14q-2 1 -10 13q-5 8 -9 31q-3 18 -6 30q-1 9 1 17
q3 8 4 38q0 31 -3 40t-3 15t3 18q4 13 4 90q0 79 -1 82q-2 7 -5 11q-4 4 -14 7q-8 2 -17 2t-15 -3q-8 -2 -14 -2q-4 0 -16 4q-7 2 -17 9q-5 4 -8 17q-1 10 -4 18q0 10 1 15q0 7 5 12q4 5 17 6q15 2 21 5q9 2 24 0q18 -2 22 -2q5 0 11 4t8 9q2 6 2 33q1 29 5 40q6 14 8 16
q1 2 8 7q5 3 16 5q2 0 16 5z" />
    <glyph glyph-name="uni0075" unicode="u" horiz-adv-x="651" 
d="M113 530h21q2 0 32 -3q18 -1 22 -5q3 -2 6 -7q2 -6 2 -11q0 -4 4 -18q3 -13 3 -30q0 -16 -4 -24q-3 -8 -3 -62q0 -51 3 -63q2 -9 0 -18q-3 -10 -3 -50q0 -42 3 -59q1 -15 6 -24q4 -6 4 -12q2 -8 7 -13q2 -2 4 -5.5t3 -4.5q1 -2 11 -12q14 -11 17 -13q6 -4 33 -5
q30 -2 36 -2q9 0 14 4q4 4 14 6q6 0 16 5q2 2 7.5 4.5t6.5 3.5q2 1 7.5 5t7.5 5q8 8 9 14q2 6 6 13q6 8 10 20q5 14 4 27q0 14 2 18q3 4 3 16q0 4 -1 24t-1 26q0 11 3 19q3 9 3 13q-2 4 -2 33q0 30 -4 39t-3 17q2 8 2 57q1 37 2.5 44.5t7.5 14.5q9 8 22 10q14 2 33 2
q20 0 29 -3q7 -1 16 -8q6 -6 7 -30q0 -28 -1 -33q-2 -11 1 -21q1 -11 -2 -23q-4 -11 -1 -22q2 -10 0 -18t-2 -22q0 -19 2 -24q1 -10 -1 -23q-2 -11 1 -21q3 -7 3 -20v-11v-17v-20q1 -37 4 -44q3 -9 2 -20q-1 -10 1 -20v-17q-2 -11 1 -20q2 -10 4 -15q2 -6 2 -12q0 -4 -3 -13
q-2 -6 -7 -19q-3 -10 -14 -21q-7 -7 -12 -8t-28 -1q-31 0 -43 4q-10 4 -12.5 6.5t-7.5 12.5q-8 13 -11 15q-1 1 -7 1q-8 -4 -14 -8q-9 -7 -15 -9q-4 -1 -13 -8q-13 -8 -16 -9q-7 -4 -30 -7q-36 -3 -46 -3q-21 0 -31 2q-7 3 -15 3q-7 0 -19 6q-16 8 -20 8q-8 3 -18 7
q-4 1 -10 4t-7 3q-2 2 -14 6q-10 3 -15 10q-3 4 -6 11q-2 8 -4 11q-1 5 -6 9q-3 3 -7 15q-4 15 -7 19l-6 18q-3 12 -3 39q-1 15 -1 92q-1 34 -1 45q0 23 3 34q3 10 3 22q0 6 -1 20q-2 31 -3 35q0 2 -1 13.5t-2 17.5q-2 25 -2 33q0 12 4 20l7 18q5 8 8 9q3 0 11 2z" />
    <glyph glyph-name="uni0076" unicode="v" horiz-adv-x="446" 
d="M379 505q18 3 24 3q12 0 15 -4q4 -6 8 -10q3 -4 5 -11v-10q-1 -2 -2.5 -8.5t-2.5 -9.5q-4 -13 -6 -25q-1 -4 -3.5 -16t-3.5 -14q-5 -17 -9 -25q-6 -13 -7 -15q-4 -9 -6 -20q-1 -13 -6 -19q-5 -7 -6 -12q0 -1 -3 -17q-2 -14 -5 -22q-2 -10 -4 -15q-1 -1 -2 -6t-1 -6
q0 -5 -5 -12q-3 -3 -6 -9q-2 -6 -2 -16q0 -11 -2 -17l-7 -11q-4 -6 -10 -33l-9 -35q-4 -8 -2 -17q0 -9 -5 -15t-6 -18q-2 -11 -6 -22q-4 -7 -11 -17q-6 -6 -8 -14t-9 -14q-7 -8 -25 -10q-10 -1 -29 -1q-13 1 -24 7q-13 7 -21 7q-7 0 -13 2t-13 17q-6 13 -8 24q-2 13 -10 32
q-3 6 -10 29q0 6 -6 18q-7 12 -7 17q-3 11 -4 13q0 1 -2 8t-3 10q-3 12 -11 28q-9 15 -10 33q-1 13 -5 25q-6 12 -8 18q-1 3 -2 7.5t-1 5.5q0 5 -3 9q-4 8 -9 23q-6 20 -9 29q-3 10 -3 20q0 8 -2 14q-2 4 -9 11q-6 7 -7 17q-2 12 -5 18q-3 7 -5 22q-2 19 -2 29q0 6 4 10
q4 7 13 10q8 5 16 5q4 0 26 -2q18 -2 25 -4t7 -5q0 -2 2 -10t3 -11q3 -3 9 -6q6 -4 8 -9q2 -2 6 -28q5 -32 6 -35q3 -9 8 -20q5 -5 9 -15q1 -2 5 -14q0 -6 4 -14q3 -6 3 -18q0 -11 6 -27q2 -4 5.5 -16t4.5 -16q5 -15 5 -21q0 -7 6 -14q5 -9 7 -20q1 -8 8 -26q3 -12 6 -21
q2 -8 4 -10q4 -4 9 -4q6 0 9 3q4 4 7 14q4 12 8 20t4 21t4 19q4 8 6 21q3 18 5 24q2 11 8 26q6 16 9 25q3 16 4 28q2 15 5 24q4 10 4 12q0 9 6 22q6 20 6 23t2 11q0 2 2 10q1 5 1 7q1 5 6 23q4 11 13 20q10 11 15 12q6 2 12 2t18 4z" />
    <glyph glyph-name="uni0077" unicode="w" horiz-adv-x="762" 
d="M67 520q16 2 17 2q2 0 8 -2t13 -10q6 -6 10 -14q3 -8 7 -14q6 -8 7 -24q2 -14 4 -23q2 -5 5 -14q0 -1 2 -7.5t3 -9.5q3 -9 5 -21l4 -16q4 -8 4 -21q2 -17 3 -18q4 -8 5 -15q4 -12 7 -18q5 -10 8 -22q5 -14 7 -25q3 -15 4 -23q0 -2 5 -21l4 -8t5 -9q6 -14 6 -21
q1 -9 6 -16q4 -4 8 -3q2 2 4 8q3 8 4 16l7 21q6 14 7 16q3 4 3 20q0 15 5 24q4 7 7 22q0 13 4 19q2 6 2 9q0 4 5 19q4 20 8 26q1 2 3 8t3 8q1 3 3 26q2 21 4 27q3 6 5 12q0 4 4 14q3 5 5 17q2 11 7 21q2 7 8 19q3 6 16 11q12 5 53 5q41 -1 46 -6q4 -4 14 -22q8 -15 10 -27
q1 -7 6 -19l8 -20q4 -11 4 -25q0 -15 7 -22q7 -10 8 -13q2 -6 2 -12q0 -4 2 -12l11 -31q8 -25 8 -41q0 -18 3 -24q3 -8 5 -23q2 -14 6 -23q5 -15 5 -17q3 -9 4 -11q3 -9 3 -15q0 -9 2 -17q2 -6 6 -10q1 -3 6 -3q4 1 4 10q0 10 3 19q0 1 2.5 7.5t3.5 8.5q3 11 4 26q2 22 4 26
q4 13 5 18q1 4 2.5 11t1.5 8q0 6 5 11q5 8 8 16q4 6 6 22q0 11 4 25l7 21q3 8 3 19q0 10 4 20q0 2 2.5 8.5t3.5 9.5q5 13 5 17q3 12 5 17q2 8 4 24q0 14 6 21q7 8 12 19q4 11 9 14q6 2 10 2q3 0 15 -4q13 -4 18 -2q2 1 14 5q6 1 13 0q7 -3 10 -10q3 -5 3 -12q0 -4 -1 -13
q-2 -21 -5 -26q0 -1 -2.5 -7.5t-3.5 -9.5q-4 -10 -4 -18q0 -9 -3 -17q-4 -10 -4 -13q0 -6 -3 -15q-4 -10 -4 -13q0 -5 -6 -16q-6 -12 -10 -18q-5 -10 -5 -14q-4 -16 -7 -26q-1 -6 -4 -15.5t-3 -11.5q-1 -8 -4 -15q-2 -4 -2 -13t-2 -15q-3 -7 -6 -11q-5 -7 -6 -11l-2 -7
q-2 -8 -4 -13q-2 -10 -12 -36q-7 -21 -13 -37q-8 -22 -10 -28q-4 -14 -7 -21q-3 -6 -7 -20q-3 -11 -10 -20q-10 -10 -14 -12q-6 -3 -40 -4h-22q-13 0 -26 5q-16 7 -18 9q-5 5 -8 11q-3 10 -2 22q1 15 -5 27q-6 16 -7 18q-2 7 -4 15q-4 10 -4 20q0 14 -3 26q-2 7 -5 25
q-3 12 -7 16t-5 15q0 10 -4 22q-3 7 -7 26q-3 13 -3 19q0 4 -7 23l-9 32q-4 14 -7 23t-9 24q-2 8 -7 13q-3 0 -5 -4q-2 -5 -6 -19q-1 -3 -3 -11.5t-3 -11.5q-2 -9 -7 -23q-5 -12 -7 -27q0 -13 -4 -21q-3 -15 -3 -20q-1 -10 -6 -18q-5 -6 -6 -21q-2 -20 -6 -31q-1 -4 -5 -14
t-5 -14q-3 -7 -6 -23q-1 -8 -4 -16q-3 -3 -5 -20q-1 -15 -6 -21q-5 -10 -6 -13q-2 -8 -2 -15q0 -11 -3 -18q-3 -9 -9 -15q-4 -4 -16 -10t-39 -7q-13 -1 -22.5 -1t-12.5 1q-2 1 -7 2t-7 1q-6 0 -12 6q-1 1 -4.5 5.5t-4.5 5.5q-3 3 -7 15q-3 9 -5 32q-1 19 -7 31q-5 10 -7 18
q-3 12 -4 17q-2 9 -7 18q-4 10 -4 13q0 5 -7 17q-8 16 -8 23q-1 4 -6 17q-4 7 -6 19q0 12 -7 24q-5 11 -7 22q0 9 -4 17l-8 24q-4 20 -9 32q-5 15 -9 29t-4 21q-2 8 -4 13t-7 12q-6 8 -7 14q-4 7 -4 29q0 21 2 27q2 5 6 7q3 3 18 5q4 1 15 2t15 1z" />
    <glyph glyph-name="uni0078" unicode="x" horiz-adv-x="526" 
d="M410 527q6 2 9 2q2 0 14 -4q9 -3 22 -3t20 -4q8 -3 11 -6t3 -16t-2 -23q-1 -8 -11 -18q-2 -2 -7.5 -8t-7.5 -8q-7 -7 -8 -15q-3 -10 -8 -12q-3 -3 -15 -13l-10 -9q-2 0 -9 -11l-8 -12t-8 -13q-10 -14 -25 -29t-21 -19q-5 -5 -6 -17q-2 -14 -4 -17q-2 -4 -2 -11t4 -13
q3 -7 15 -14q7 -4 9 -5t4.5 -4t5.5 -10q7 -15 20 -27q10 -9 17 -19q6 -9 12 -15q12 -14 14 -20l9 -15q7 -7 16 -19l12 -13q2 0 7 -8q1 -1 4.5 -6.5t5.5 -7.5q3 -3 8 -13q3 -8 3 -24q0 -17 -6 -23q-7 -6 -13 -7q-5 -2 -43 -2h-18.5t-15.5 0.5t-7 0.5q-7 4 -17 12l-18 21
q-2 2 -5.5 7t-4.5 6l-3 5q-3 4 -4 7q-3 6 -17 22q-15 18 -17 20q-6 6 -11 18l-12 21q-6 8 -10 18q-5 10 -11 16t-12 9q-7 3 -13 5q-5 1 -9 -3t-9 -17q-6 -14 -14 -23q-12 -14 -14 -21q-6 -13 -12 -17q-7 -5 -17 -21t-14 -18q-6 -6 -15 -18l-17 -22q-4 -5 -11 -12
q-3 -1 -17 -7q-14 -4 -20 -7q-12 -3 -19 -3q-6 -1 -9 -1q-6 0 -12 3q-7 3 -16 13q-9 11 -9 20q0 7 7 24q7 12 7 16q0 3 9 12q6 8 15 12q6 3 12 9q2 4 16 26q10 19 17 24q4 2 12 15q5 10 11 16q2 1 12 14q5 9 7 9t7 9q14 17 17 21q9 9 14 19q4 8 4 13q0 6 -5 13q-3 7 -12 16
q-3 3 -15 12q-9 7 -17 19q-5 10 -12 17l-8 8q-7 7 -9 10q-4 6 -9 6q-6 3 -8 5q-4 4 -7 11q-4 10 -9 13q-6 4 -7 11q-1 4 -10 15q-6 6 -19 32q-12 26 -12 31q-1 7 3 13q2 6 8 8l10 7q4 4 23 4q17 0 25 -2q7 -2 17 1q7 3 15 3l12 -3q6 -3 14 -11q7 -7 9 -15q1 -4 8 -13
q5 -5 7 -11q3 -8 4 -10q2 -6 9 -13t13 -15q4 -6 7 -11q2 -3 12 -17q9 -13 12 -13q1 -1 9 -11q5 -10 11 -16q7 -5 10 -5q5 0 7 2q2 1 15 16q14 14 17 22q6 9 15 12q7 3 8.5 5t3.5 10q4 11 7 16q4 6 9 11q5 7 6 11q1 2 3 5.5t3 5.5q6 9 9 12q7 7 7 13q2 7 6 8q4 4 18 10
q18 9 19 10z" />
    <glyph glyph-name="uni0079" unicode="y" horiz-adv-x="533" 
d="M458 551q6 4 10 4q6 0 11 -3q8 -2 10 -2q4 0 12 -6q8 -3 10 -10q1 -2 3 -22q1 -10 1 -25q0 -8 -4 -13l-11 -22q-7 -19 -7 -22q0 -1 -10 -28q-10 -22 -13 -25q-3 -4 -5 -11q0 -4 -5 -16q-2 -6 -8 -18q-2 -6 -6 -15q-4 -8 -7 -17q-1 -2 -6 -19l-4 -16q-3 -10 -6 -16
q-3 -4 -6 -16q-5 -21 -6 -23q-6 -16 -10 -20q-6 -6 -6 -14q0 -11 -1 -14q-2 -4 -6 -8t-11 -27q-2 -7 -6 -17.5t-4 -12.5q-2 -7 -7 -14q-6 -8 -7 -14q-1 -7 -6 -16q-7 -14 -12 -21q-7 -14 -11 -29q-3 -14 -12 -36q-11 -21 -13 -32q-4 -13 -8 -15q-5 -2 -8 -11t-5 -19
q-2 -11 -5 -18l-2.5 -7.5t-1.5 -5.5q-2 -6 -12 -13q-9 -9 -19 -10q-8 -2 -15 -4q-4 -3 -24 -3q-23 0 -27 1q-9 2 -12 6q-5 3 -8 19q-4 18 -4 23q0 7 4 12q6 9 11 19q8 16 12 20q5 5 7 13t7 24q1 3 7 22q5 8 8 21q5 13 5 26q0 11 -4 19q-3 8 -3 14l-3 12q-2 6 -4 6q-1 0 -5 4
q-4 8 -5 13q-2 9 -5 12t-10 24q-8 18 -13 30q-1 2 -6.5 14.5t-8.5 19.5q-9 24 -13 28q-2 2 -5 11q-1 2 -3 7t-3 7q-5 9 -6 16q-2 9 -7 14q-6 12 -8 18q-5 12 -5 17q-2 8 -3 11l-3 4q-4 5 -6 8q-8 8 -8 11q0 2 -2 8q-2 7 -7 12q-6 10 -9 20q-5 13 -5 17q0 3 -5 13
q-5 8 -11 14q-7 5 -8 10l-3 15q0 6 -6 24q-5 15 -4 21q0 6 4 10t10 7q8 3 29 3q22 0 31 -4q8 -3 15 -10q6 -7 15 -15l9 -9q2 0 7 -9q4 -7 11 -16q7 -6 11 -20q5 -19 6 -22q2 -9 7 -16t5 -10q0 -4 7 -16q1 -3 4 -9.5t4 -8.5l7 -16q7 -14 7 -21q1 -8 6 -22q6 -14 8 -16t5 -8
q2 -6 2 -10q0 -1 1.5 -6t1.5 -7q5 -13 10 -20q8 -14 11 -26l10 -20q1 -2 8 -15q2 -9 4 -11t6 -2t7 3q4 4 6 10q3 5 3 9q0 3 4 13q4 6 9 22q4 16 4 17q0 2 6 14q6 10 6 16t7 23l12 30q3 8 8 16q4 4 6 8q1 1 3 12q0 4 3 13q3 6 3 13q3 13 4 15q1 3 4 9q0 1 5 9q5 7 11 26
q9 26 12 31q5 9 9 24q5 13 5 17q0 2 5 7q4 7 9 11q4 6 16 10q11 3 17 9z" />
    <glyph glyph-name="uni007A" unicode="z" horiz-adv-x="476" 
d="M75 528h2h3h4q7 0 14 -5q6 -4 17 -8q12 -3 22 -1q5 1 18 1t27 -1h16t15 -0.5t7 -0.5t7.5 0.5t16 0.5h18.5q19 1 26 1q11 0 19 -3q9 -3 19 0q8 3 22 3t24 -3q9 -4 29 -4q18 0 22 -2q4 -4 7 -13t0 -17q-2 -10 -2 -13q0 -2 -4 -18l-5 -20q-1 -5 -17 -22q-16 -16 -16 -20
q0 -2 -6 -16q-6 -13 -12 -18q-5 -5 -8 -5q-1 0 -5 -4q-4 -3 -4 -11q0 -12 -1 -15q-4 -8 -9 -12q-7 -5 -10 -5q-2 0 -9 -5q-7 -7 -9 -8q-3 -6 -4 -9q-1 -6 -9 -15q-7 -7 -12 -19q-4 -11 -9 -13q-6 -2 -13 -9q-8 -6 -12 -15q-3 -6 -9 -14q-5 -5 -13 -19q-7 -11 -16 -18
q-6 -3 -14 -11q-4 -4 -12 -17q-6 -9 -6 -12l-8 -10q-8 -10 -8 -13q2 -5 7 -7q7 -5 10 -5q4 -2 14 3q11 4 30 4t27 -3q5 -3 51 -3q47 0 52 3q6 3 27 3q22 0 33 -5q10 -5 13 -11t3 -23q0 -19 -4 -24q-2 -7 -9 -9q-6 -3 -17 -3q-10 0 -22 -4q-11 -3 -22 -3q-13 0 -17 -3
q-3 -1 -31 -3q-26 0 -31 3t-26 4q-19 0 -25 2q-5 1 -17 -2q-11 -2 -20 -6q-8 -2 -19 -2h-14q-26 1 -31 4q-6 3 -23 3q-18 0 -30 -4q-11 -3 -18 -2q-6 2 -14 10q-9 7 -11 11q-2 3 -2 34q2 32 3 35q1 1 4 6t4 7q10 10 15 19q6 9 12 15q4 4 4 6t6 10q5 9 12 10q8 3 10 8
q1 1 4 5.5t4 5.5q4 7 6 13q2 7 14 30q15 28 18 32q7 10 14 11q8 2 10 11q3 8 11 14q9 6 10 14q2 7 7 10q4 1 7 10q1 6 6 18q7 12 10 14q4 4 18 10q10 4 12.5 6t7.5 12q8 16 13 19q7 7 8 10q2 5 1 9q0 6 -4 8q-2 2 -35 2h-36q-68 0 -75 -3q-7 -2 -20 -4q-12 0 -18 -3
q-6 -2 -10 -2t-12 2q-5 3 -16 3q-10 0 -13 3q-4 4 -7 12q-4 10 -4 13q0 4 9 26q6 18 10 26q3 3 11 13q8 8 12 10z" />
    <glyph glyph-name="uni007B" unicode="{" horiz-adv-x="330" 
d="M272 769q8 2 29 2q24 0 27 -3t3 -22q0 -21 -3 -26q-4 -8 -6 -9q-2 -2 -15 -6t-22 -9q-10 -5 -13 -5l-9 -6l-7 -10q-2 -3 -9 -7q-5 -2 -16 -11q-10 -10 -13 -22q-2 -4 -6 -21q-3 -8 2 -19q3 -12 2 -17q0 -5 -2 -15q0 -9 2 -13q3 -4 3 -13q0 -8 -3 -14q-3 -9 -3 -17
q0 -10 -4 -20q-3 -9 1 -21q5 -12 3 -17l-6 -12q-5 -5 -7 -15q-3 -10 -5 -14q-1 -2 -3 -5l-2 -4q-1 0 -4.5 -2.5t-5.5 -3.5q-5 -3 -9 -12q-2 -7 -8 -10l-9 -6q-1 -3 -12 -9q-8 -5 -11 -8q0 -3 4 -6q3 -3 14 -7q8 -2 25 -19q17 -15 18 -22q0 -2 1.5 -8.5t1.5 -9.5q1 -11 6 -17
q5 -5 6 -22q0 -14 3 -23q3 -5 4 -71q0 -65 3 -71q1 -2 3 -17t6 -22q4 -10 10 -14q5 -5 17 -10q15 -5 20 -6q8 -4 8 -5t4 -5q3 -3 11 -3t20 -5t13 -9q2 -3 2 -26q0 -24 -2 -27q-3 -6 -7 -7q-4 -2 -8 -2t-9 3q-5 2 -5 4q-3 2 -7 4q-8 2 -15 2q-6 0 -16 4q-6 3 -22 5
q-17 3 -29 10q-11 5 -27 17q-11 7 -23 19q-10 15 -11 17q-3 6 -5 16q0 8 -6 20q-2 4 -5.5 13t-4.5 11q-6 12 -5 28q2 17 -1 22q-1 7 0 25q2 16 4 23q3 5 -1 16q-2 12 -2 27q0 17 -2 23q-1 5 -6 10t-6 16t-10 24q-7 10 -12 13q-1 0 -4.5 1t-5.5 1q-5 1 -11 7q-4 6 -7 9t-9 2
q-6 -2 -12 -2q-7 -1 -14 3q-8 4 -17 13q-9 10 -9 28q1 19 5 23q3 4 14 8q7 3 16 5q2 1 10 4t11 4l28 12q14 8 16 9q4 2 5 11q1 10 10 22q10 11 10 17q0 1 -3 13q-3 8 0 18q3 11 2 16q-1 4 -1 16q0 9 2 27q2 20 2 24q0 15 -1 26q0 20 3 25q3 12 3 16q0 14 1 18q3 8 5 10
q3 1 5 6q3 9 3 13q1 9 7 11q6 4 19 17q19 17 22 18q8 4 16 12q9 8 16 8q13 2 14 3l15 5q12 2 18 5z" />
    <glyph glyph-name="uni007C" unicode="|" horiz-adv-x="278" 
d="M124 693q4 2 21 2q15 0 23 -2q7 -5 8 -7q3 -4 3 -30v-19v-24v-25q-2 -43 -3 -50q-2 -6 1 -19q1 -5 5 -18q2 -4 2 -11q0 -8 -1 -11q-2 -2 -4 -23q-1 -15 -4 -25q-4 -7 -2 -12q0 -3 5 -13q5 -6 4 -16q-2 -10 -2 -59q-1 -52 -4 -61q-4 -11 -2 -23t2 -37v-35v-18q-2 -6 1 -16
q1 -7 -2 -14q-3 -6 -3 -31q0 -24 4 -37q3 -10 1 -18q-4 -10 -4 -20q-2 -13 -3 -14q-3 -3 -12 -9q-14 -6 -17 -6q-6 0 -16 4t-13 9q-2 8 -2 10q0 3 -4 17q-4 16 -7 22q-2 5 -2 47v22q0 18 3 28q3 7 3 14q0 3 -4 15q-3 8 -3 12q0 2 1 6l4 12q2 6 1 12q-2 8 -2 13t3 10
q4 5 2 14t-5 14q-2 6 -2 10t2 12q3 9 3 59q0 52 -3 57q-3 9 -3 15v7q0 9 1 27q2 27 3 30q0 11 -2 16q-3 8 -3 17q0 8 3 17q3 10 0 22q-3 14 -3 48q1 38 5 51q5 15 11 22q9 9 12 10z" />
    <glyph glyph-name="uni007D" unicode="}" horiz-adv-x="337" 
d="M21 763l10 1h17q22 -1 27 -6q3 -5 22 -12q21 -7 26 -9q3 -1 10.5 -3t9.5 -3q6 -2 14 -6q3 -3 5 -8q3 -5 8 -8q6 -4 10 -12q5 -6 11 -19q6 -10 9 -24q2 -15 7 -28q5 -14 6 -33q2 -20 3 -23q3 -4 3 -10t-3 -11q-2 -8 -2 -18q0 -11 -4 -21q-3 -10 -3 -28q0 -19 4 -27
q3 -6 9 -15q5 -5 7 -11q0 -4 3 -10q5 -5 10 -8l11 -8q4 -4 12 -7q7 -2 9 -6q0 -2 5 -4q9 -3 14 -3q8 -2 12 -4l9 -6q4 -3 8 -3q3 0 9 -2l7 -7q2 -6 2 -14q0 -11 -3 -21q-3 -9 -6 -15q-1 -4 -11 -7q-8 -4 -15 -4q-8 0 -15 -7q-8 -8 -16 -9q-7 0 -15 -4q-9 -2 -11 -6
q-4 -2 -9 -18q-5 -13 -11 -18q-4 -2 -7 -12q-4 -20 -5 -24q-2 -16 -5 -19q-2 -6 -2 -11t4 -15q5 -9 5 -18q0 -7 -2 -25q-2 -12 -4 -22q-3 -4 -3 -11q0 -5 2 -9q3 -7 2 -13q0 -6 -6 -16q-6 -8 -8 -14q-3 -6 -5 -14q-2 -10 -8 -19q-8 -16 -10 -22q-4 -9 -16 -19
q-13 -11 -22 -14q-14 -6 -18 -7q-6 0 -13 -7q-7 -6 -19 -6q-11 1 -23 -2q-9 -4 -25 -4q-3 0 -10 0.5t-8 1.5q-5 3 -10 12q-5 11 -4 24q0 13 2 19q2 5 7 7q5 3 19 3q15 0 23 5t18 7q7 1 12 6q4 6 4 7q0 3 7 10l12 20q7 12 7 22l4 16q3 5 3 19q0 13 -3 20q-3 4 -3 17
q0 11 3 17q3 8 2 15q-1 4 -1 16q0 17 1 27q1 18 5 25q3 9 3 12q0 5 2 13q3 6 5 16q2 12 4 15q2 4 9 11q8 8 8 10q4 4 9 5q7 1 20 8q12 5 15 5q1 0 7 3q4 4 4 7q0 4 -3 7q-2 4 -18 11q-17 10 -23 11q-6 3 -10 10l-10 15q-9 9 -12 17q-6 12 -7 15q0 1 -7 13q-6 10 -6 14
q0 7 3 11q3 9 3 34q2 35 3 40q2 11 -2 15q-6 4 -9 14q0 2 -5 16q-1 7 1 14q4 8 4 14q1 6 -2 11q-3 9 -4 13q0 6 -6 14q-6 7 -7 15q0 6 -3 12l-8 3q-8 2 -11 4q-1 1 -11 3q-6 1 -9 6q-2 6 -7 6q-4 2 -13 0q-11 0 -14 1l-12 6q-6 5 -8 11q-2 8 -2 19t2 17t9 9q2 1 6 3.5t5 2.5
z" />
    <glyph glyph-name="uni007E" unicode="~" horiz-adv-x="565" 
d="M166 387q5 2 8.5 2t11.5 -2q14 -4 15 -4q2 0 16 -6q13 -7 23 -7q8 0 16 -2q7 -2 13 -7q9 -7 17 -8q2 -1 9 -3.5t10 -3.5q1 0 8.5 -3t9.5 -4q1 0 8 -1.5t11 -2.5q9 -2 25 -9q14 -7 23 -7h13q18 1 32 6l14 5q3 2 5 11q2 12 9 24q8 15 11 16q6 3 10 3q4 1 23 1h20q4 0 8 -4
q4 -3 4 -13q0 -8 -2 -20q-1 -10 -6 -15q-4 -4 -6 -8t-2 -9t-2 -11q-1 -2 -13 -16q-10 -10 -12 -18q0 -1 -2.5 -5.5t-4.5 -6.5q-4 -6 -9 -6q-6 -2 -16 -7q-10 -7 -18 -7q-8 -2 -15 -5q-5 -3 -15 -3q-5 0 -22 1q-30 1 -50 7q-18 5 -27 9q-9 5 -16 6q-7 3 -22 5q-13 1 -30 9
l-17 8q-1 0 -8 5q-8 5 -18 6q-7 0 -22 5q-11 4 -26 4q-14 0 -22 -2q-9 -3 -16 -12q-11 -11 -14 -19q-5 -10 -5 -12q0 -1 -4 -9q-2 -6 -14 -13q-11 -5 -23 -5q-11 0 -21 2q-9 2 -11 5q-2 4 -2 13q0 7 5 22q1 5 7 16q4 10 4 13q2 8 6 16q5 8 5 14q0 8 1 10q2 5 9 6q10 5 12 7
q1 1 7 10q1 2 3.5 6t2.5 5q5 5 15 6q9 1 17 4q5 3 22 5q9 0 24 3z" />
    <glyph glyph-name="uni00A0" unicode="&#xa0;" horiz-adv-x="278" 
 />
    <glyph glyph-name="uni00A1" unicode="&#xa1;" horiz-adv-x="450" 
d="M231 555q2 1 9 1q8 -4 9 -5q3 -3 7 -9t5 -25q0 -20 -3 -30q-5 -12 -3 -19q0 -5 2 -11q1 -5 -2 -12q-2 -6 1 -22q3 -11 3 -14.5t-3 -12.5t-3 -12.5t3 -15.5q4 -16 4 -23q0 -2 -0.5 -7.5t-0.5 -8.5q-1 -10 2 -21q4 -11 2 -25q-2 -13 2 -21q3 -6 3 -13q0 -1 3 -13q2 -5 2 -9
q0 -3 -1 -11q-2 -14 -2 -18q0 -11 -1 -19q-2 -17 -4 -20q-4 -6 -4 -9l3 -9q2 -4 2 -17q0 -12 -3 -23q-4 -10 1 -18q4 -7 4 -15t-2 -20q-1 -12 2 -21q4 -8 2 -13q-2 -4 -9 -9q-6 -5 -13 -7q-3 -2 -23 -2q-22 0 -26 -1h-5q-6 0 -19 3q-19 6 -22 9q-6 5 -6 9q0 5 2 11q1 5 0 15
t0 16q2 6 4 34q4 33 5 36q3 8 1 22q-1 7 -4 19q-3 5 -3 10q0 7 5 15q5 10 4 28q0 23 -1 27q0 8 2 18q1 10 -2 13q-3 4 -3 18q0 8 4 24q3 9 5 19q0 8 -2 18q-2 7 -2 37q0 27 3 36q2 10 4 24q1 13 -2 29q-3 12 -1 30q4 17 7 25q4 8 12 12q7 3 25 2q19 0 21 1zM167 707
q4 2 37 2q32 0 38 -3q5 -2 7 -5q4 -3 11 -5q6 -2 12 -8q3 -6 3 -16q0 -9 2 -21q1 -4 1 -7q0 -4 -3 -14q-3 -9 -3 -17t-3 -11q-3 -6 -8 -6q-6 -2 -18 -2q-10 -1 -19 2q-10 2 -19 4q-12 2 -17 0q-1 0 -3 -1l-9 -3q-4 -3 -9 -3q-2 0 -4 2q-3 1 -3 22q0 23 1 26q1 6 0 28
q-2 23 1 28q1 4 5 8z" />
    <glyph glyph-name="uni00A2" unicode="&#xa2;" horiz-adv-x="551" 
d="M298 430q-12 2 -15 2q-2 0 -16 -4q-14 -5 -19 -12q-10 -10 -19 -16q-9 -5 -14 -10q-3 -2 -6 -13q-4 -10 -8 -16q-1 -1 -4 -4.5t-4 -4.5q-3 -3 -2 -16q1 -7 1 -17q0 -6 -5 -13q-4 -8 -4 -19v-9q0 -9 1 -31q2 -30 5 -38l5 -20q4 -13 2 -30q0 -16 4 -23q3 -6 5 -12
q0 -5 4 -7t9 -2q7 0 10 4q4 4 9 16q5 13 7 22q0 8 4 16q2 8 2 14q0 2 1 7.5t2 7.5q0 1 3 9.5t4 13.5q6 17 9 22q5 6 5 17q0 10 6 18q5 10 5 20q0 9 2 17q2 2 6 22q3 17 8 27q3 8 8 15q3 7 4 18q2 14 2 18q0 5 -3 7q-2 2 -14 4zM402 627q6 2 10 2q6 0 7 -1q4 -4 7 -8
q8 -10 8 -11q2 -4 2 -9q0 -6 -3 -12q-3 -8 -4 -16q-2 -11 -5 -16q-1 -3 -11 -25q-9 -22 -9 -23q-1 -5 2 -11q1 -2 10 -11q4 -2 8 -9q2 -4 9 -11q7 -8 12 -9q6 -4 10 -8q6 -9 9 -13q6 -8 7 -8q3 -4 6 -9q3 -9 11 -31q7 -20 6 -30q-2 -12 -3 -15q-2 -6 -5 -9q-7 -4 -17 -6
q-11 -3 -16 -3q-3 0 -9 2q-4 3 -22 3q-18 2 -20 3q-2 2 -9 14q-8 12 -12 16q-6 6 -6 8q0 3 -3 6q-4 4 -6 1q-4 -4 -7 -18q-5 -13 -5 -24q0 -7 -5 -22q-7 -14 -7 -19q-1 -2 -3 -20q-1 -16 -7 -26q-6 -13 -7 -26q-1 -11 -5 -21q-4 -5 -4 -19q0 -10 -2 -22q-5 -12 -10 -17
q-6 -8 -8 -17q0 -3 -5 -20q-1 -3 -5 -19q-2 -6 1 -11q2 -6 6 -7q3 -2 10 2q8 4 14 4q9 2 13 5l12 4q7 0 14 7l10 6q1 0 5 4t6 8t4 19q1 15 5 21q4 4 6 15q0 9 4 11q2 3 13 5t20 -3q10 -4 29 -2q19 1 23 0l9 -9q4 -5 7 -12q0 -9 -1 -14q0 -9 -7 -17q-7 -7 -7 -14
q-2 -6 -7 -16l-12 -20q-5 -11 -10 -14q-1 -1 -8 -7t-12 -10l-25 -24q-7 -6 -17 -11q-2 0 -10 -1.5t-13 -2.5q-17 -1 -29 -8q-12 -5 -21 -7q-8 -2 -25 3q-15 6 -21 3t-9 -9q-2 -6 -2 -10q0 -5 -5 -17q-5 -10 -5 -17q0 -6 -7 -18q-5 -10 -7 -20q0 -4 -5 -16q-3 -6 -9 -14
q-4 -6 -8 -8q-1 0 -4.5 -1t-5.5 -2q-10 0 -18 1q-13 2 -15 6q-2 5 1 19q1 8 1 22q-2 7 1 17q1 9 6 21q6 10 11 15q5 6 4 24q-2 19 -4 22q-1 4 -9 8q-8 6 -10 8q-5 5 -11 9q-5 3 -8 8q0 3 -8 11t-16 11t-12 10q-4 8 -7 11l-4 5q0 5 -8 21q-7 21 -8 40q-1 18 -5 25q-1 5 -6 12
q-3 8 -4 16q0 2 -3 20q-2 7 -2 12q0 3 1 6q0 1 2.5 7.5t3.5 9.5q4 10 1 23q-3 12 0 22q5 16 6 20q2 5 2 17q-1 6 2 15q4 6 4 9t4 11q4 6 8 19q4 12 7 15q2 4 8 10q5 5 10 15q3 5 9 14q1 1 6 4.5t8 5.5q7 4 16 11q4 4 16 9q10 4 13 7q4 5 12 9q10 7 20 6q11 -1 20 3q8 3 20 2
q9 -1 20 3q9 4 17 2t17 -2q8 0 13 3q5 2 10 16q6 13 6 25q0 11 2 19l8 12q4 8 5 19q1 12 5 15q5 3 14 5q12 2 15 3z" />
    <glyph glyph-name="uni00A3" unicode="&#xa3;" horiz-adv-x="546" 
d="M344 715h3h5h7q9 0 21 -4q4 -3 19 -5q11 0 23 -5q10 -3 19 -9l12 -8q3 -1 21 -14q16 -14 23 -21q11 -11 14 -15q5 -7 8 -17q3 -9 8 -20q4 -7 4 -19q0 -13 -2 -17q-1 -1 -4 -6q-1 -2 -2 -3l-7 -7q-1 0 -6.5 -1t-9.5 -2q-12 -2 -21 0q-8 2 -15 2q-5 0 -15 -2q-7 -3 -16 -3
q-7 0 -9 3q-2 2 -6 18q-4 12 -4 24q0 6 -3 12q-1 4 -13 14q-8 7 -17 11q-8 3 -17 12q-10 8 -14 8t-8 -2t-12 -2q-6 1 -16 -2q-12 -4 -17 -4t-17 -5q-10 -6 -17 -6q-1 0 -3 -1q-5 -1 -6 -2t-3.5 -4.5t-3.5 -4.5q-6 -9 -10 -11q-7 -4 -8 -7q-3 -7 -6 -16q-4 -11 -4 -35
q1 -20 -3 -30q-4 -9 -5 -36q-2 -32 -2 -34q0 -5 4 -11q5 -7 8 -8q9 -3 17 -3q12 -1 24 3q9 3 26 3t21 3q6 2 10 2q5 0 13 -5q9 -6 12 -13q4 -8 4 -16q0 -11 -5 -28q-4 -20 -5 -22q0 -3 -8 -6q-8 -2 -17 2q-12 3 -39 3q-15 1 -40 1q-12 0 -17 -3q-2 -1 -12 -8q-6 -8 -6 -10
q0 -3 6 -11q5 -5 5.5 -8.5t0.5 -18.5q-2 -20 0 -27q2 -8 2 -48q1 -16 1 -30t-1 -18q-1 -5 1 -23t2 -23q-2 -8 -2 -13q-1 -6 2 -9q2 -3 16 -2q15 0 18 -1q6 -1 24 0q17 2 27 4q9 1 18 0q7 -3 27 -3h26q7 2 16 0q13 0 18 1h14q4 -2 10 2q6 1 12 0q5 -3 12 -5t14 1q9 4 26 2
q14 0 20 -3q3 -3 3 -13q0 -5 -1 -24q-1 -34 -4 -37q-5 -2 -11 -4q-7 -2 -21 -7q-16 -6 -17 -6q-2 0 -9 5q-5 4 -21 7q-15 3 -24 0q-9 -1 -22 0q-13 2 -24 0q-11 -3 -17 -3t-13 3q-9 4 -16 3q-7 0 -15 -2t-21 -2q-29 0 -47 2q-19 1 -26 1q-10 0 -17 -2q-12 -4 -16 -4
q-5 -1 -13 2t-16 2q-12 -2 -32 -2h-13q-10 0 -22 3q-8 4 -19 4q-5 0 -11 3q-4 1 -9 9q-3 5 -5 20q-1 11 3 26q3 11 8 16q3 4 15 4q10 0 18 -2q7 -3 12 -3t9 4t4 10q2 6 0 20q-2 15 0 21q0 2 1 6.5t2 6.5q2 6 0 17q-1 3 -2 12t-1 12q0 4 0.5 11t0.5 9q2 8 0 30q0 17 -3 29
q-2 8 2 13t3 14q-1 3 -2 10t-1 9q-2 9 -5 12q-3 4 -29 6q-24 0 -30 3q-3 1 -7 9q-2 4 -2 12q0 5 1 15q1 21 5 28q4 8 6 10q4 2 13 2q2 0 9.5 1t10.5 2q9 1 16 -3q6 -3 10 -2q4 2 6 8q3 4 3 12q0 4 -4 22q-3 17 -1 27q2 6 4 31q0 22 3 29t3 17q0 9 5 24q6 18 9 24q8 10 11 12
q6 6 7 12q0 6 3 9q1 3 10 8t12 10q4 7 24 17q16 8 29 15q12 6 18 6q1 0 6 1t7 2q3 1 24 3h32q13 0 21 3z" />
    <glyph glyph-name="uni00A4" unicode="&#xa4;" horiz-adv-x="524" 
d="M257 490q-8 2 -14 2t-17 -7q-3 -2 -8.5 -6.5t-6.5 -5.5t-13 -11q-10 -6 -19 -7q-8 0 -14 -3q-3 -6 -3 -13q-2 -11 -6 -18t-9 -19q-4 -10 -6 -32q-1 -13 -1 -16q0 -7 5 -19q7 -12 7 -17q0 -6 1 -9q0 -3 7 -12q9 -9 11 -12q7 -7 11 -8q5 -1 14 -8q8 -6 15 -13l10 -8
q3 0 5 -2q4 -4 17 -6q14 -4 21 -4q6 0 26 6q13 4 32 12q14 5 18 9q9 9 14 16q13 19 14 20q5 7 7 17q1 4 8 28q6 20 6 25q0 7 -4 17q-5 8 -5 14q0 4 -7 18q-8 14 -15 20q-7 7 -7 8q0 2 -8 10t-16 11q-10 4 -12 8q-1 3 -17 8t-24 4q-11 0 -17 3zM72 596q4 1 5 1h1l12 -2
q9 -2 27 -20q20 -20 21 -22q4 -6 6 -6q2 -2 13 4t18 6q8 0 14 2q8 4 16 12q10 10 15 11q5 0 19 -2q14 -4 30 -2q17 0 26 -6q11 -6 25 -6q12 -1 15 -2t7 -5q5 -5 23 -9t21 -3q4 0 6 2.5t7 13.5q9 16 14 18q10 5 16 7q8 5 16 5t11 -3q3 -2 17 -16q11 -11 14 -17q0 -9 -1 -17
q-2 -14 -9 -21q-6 -6 -20 -18t-16 -13q-4 -6 -4 -7t6 -13q7 -12 7 -14q1 -3 11 -15q9 -10 9 -16t-2 -12q-1 -7 2 -16q4 -9 1 -15q-2 -6 -2 -18q1 -11 -1 -20q-3 -10 -2 -19q1 -8 -2 -16q-6 -9 -9 -12q-5 -7 -8 -16q-1 -4 -3 -10.5t-2 -7.5q-3 -8 -2 -12q2 -7 5 -11
q2 -3 10 -11q1 -1 4.5 -3.5t6.5 -5t5 -3.5q10 -7 12 -13q3 -5 3 -18t-2 -17q-6 -9 -13 -16q-8 -11 -16 -14q-4 -3 -14 -3q-8 0 -13 3q-9 6 -13 9q-2 2 -6 5.5t-5 4.5t-6 11q-1 7 -8 14q-7 5 -8 5t-17 -8q-17 -9 -26 -10q-11 0 -26 -7q-12 -6 -28 -6h-24q-38 0 -46 2
q-7 2 -12 5q-1 1 -6.5 4t-7.5 4q-5 2 -19 10q-9 7 -13 7q-5 1 -14 -6q-3 -2 -7.5 -8t-5.5 -6q-3 -6 -16 -17q-18 -13 -22 -15q-8 -4 -13 -4t-11 6q-2 3 -9 9l-4 4q-6 5 -10 12q-2 10 -2 23q0 19 1 21q2 4 7 10q3 3 9 6q6 0 11 7q3 2 9 11q3 7 2 16q-1 10 -8 18q-8 10 -11 19
q-5 11 -6 44q0 30 -2 36q-2 4 -2 9t4 11q1 2 3.5 5.5t2.5 4.5q2 2 1 11q0 3 -0.5 8.5t-0.5 7.5q0 7 5 20q6 12 10 16t4 10q0 7 -5 13q-5 5 -15 19q-11 14 -16 17q-4 2 -5 4t-1 11q0 8 -1 15t-1 8q0 3 5 7q1 1 7 6.5t9 8.5q9 9 13 11z" />
    <glyph glyph-name="uni00A5" unicode="&#xa5;" horiz-adv-x="533" 
d="M53 708q1 1 3 1t5 -1q2 0 11.5 -1.5t12.5 -1.5q19 -3 26 -2q9 1 12 -3q5 -3 5 -5l4 -8q4 -6 6 -12q2 -7 7 -12q5 -6 5 -18q0 -11 2 -17q2 -4 9 -11q8 -8 16 -23q8 -18 8 -19q0 -4 8 -18q7 -15 9 -24q6 -15 10 -22q8 -18 8 -24q2 -10 7 -20q3 -8 12 -17q6 -7 6 -19t8 -28
q9 -17 12 -18q5 -3 9 0q3 1 6 11q2 9 6 16q7 10 9 17q6 14 9 23q4 14 7 16q5 7 5 16q1 10 7 16q1 2 5 7t5 6q5 9 7 17q2 11 5 14q3 9 3 14q1 11 11 24q10 16 11 23q2 8 6 11q4 4 8 6q4 4 5 21q2 20 3 22t7 8t9 13q4 9 7 10q1 3 6 3t12 5t12 5q2 0 6 -1q7 0 29 -4
q20 -4 34 -4q6 0 15 -1h2q3 -3 2 -11q0 -10 -7 -23q-7 -14 -14 -21q-6 -5 -12 -21q-5 -13 -12 -25q-7 -11 -11 -22q-2 -11 -11 -26l-15 -30q-9 -16 -17 -24t-10 -20q-1 -6 -4 -18q-1 -1 -5 -8.5t-7 -11.5q-11 -17 -14 -29q-4 -16 -13 -25q-7 -8 -13 -24q-4 -14 -1 -18
q2 -4 17 -4q19 0 43 3t35 3q9 0 15 -3q10 -4 14 -8q4 -5 4 -22q0 -14 2 -22q3 -7 0 -12q-4 -6 -8 -7q-4 -3 -36 -3q-35 0 -39 1q-8 2 -16 -1q-9 -3 -18 -2q-7 3 -30 3q-21 1 -24 -2l-6 -6q-2 -4 -2 -9v-9q0 -3 6 -11q10 -7 11 -8q9 0 14 2q4 2 27 4q5 0 14.5 0.5t11.5 0.5
q7 0 19 -4t22 -4q8 0 17 3l12 4q9 0 15 -3q8 -3 12 -7q3 -4 1 -20q-2 -14 -6 -23q-1 -4 -9 -14q-7 -6 -27 -9q-23 -2 -29 -1q-2 0 -11 1.5t-14 2.5q-17 1 -30 1h-16q-27 -1 -31 -5q-2 -4 -1 -11q1 -8 -5 -20q-5 -11 -3 -29q2 -17 0 -29q-3 -9 -3 -17q0 -6 3 -14q4 -10 4 -19
q0 -7 -1 -9t-7 -6q-7 -5 -13 -5q-3 0 -33 2q-17 0 -41 3q-14 2 -17 7q-3 4 -3 18q0 29 1 49q2 40 2 47q0 13 -3 22q-2 11 -7 14q-4 3 -13 3t-14 -3q-7 -3 -18 0q-9 3 -22 3q-10 0 -22 -2q-7 -3 -19 -3q-10 0 -19 -3q-8 -2 -11 -2t-11 5q-11 6 -15 13q-4 8 -4 13q0 3 4 13
q4 8 4 17q0 2 1 5q1 8 2 10q2 6 6 8q6 3 7 3q3 0 15 -6q12 -5 18 -4q5 0 15 2q6 1 13 -2q9 -3 10 -3t10 3q5 4 12 2q3 0 15 -3q9 -2 17 1q12 3 18 3q12 2 14 4q3 3 3 15q-2 12 -5 17q-3 4 -12 4h-40h-54q-12 0 -33 -3q-11 -4 -16 -2l-8 4q-5 3 -9 15q-5 11 -5 27q0 14 2 22
q2 9 3 10q2 2 10 2q3 -1 9.5 -2t8.5 -1q9 -3 19 -1q6 2 33 2h12q13 0 21 1q11 2 14 5t3 10q0 5 -4 19q-3 14 -13 21t-14 14q-3 6 -3 10q0 1 -1 4q-2 3 -2 4q-4 6 -10 12q-7 8 -10 27q-2 12 -6 23q-2 4 -7 9t-8 11q-4 9 -8 11q-3 3 -11 21q-7 17 -9 23q-1 5 -12 22
q-6 8 -14 20q-4 6 -6 14q-1 9 -15 22q-10 11 -12 14.5t-3 14.5q-1 8 -1 13t1 7q2 6 7 8q6 4 24 4q20 2 21 3z" />
    <glyph glyph-name="uni00A6" unicode="&#xa6;" horiz-adv-x="337" 
d="M129 356q3 3 5 3t8 -3q8 -2 21 1q12 2 23 1q10 -2 15 -2q2 0 8 -3q3 -3 3 -23q0 -18 5 -28q4 -7 4 -13q0 -3 -1 -10q0 -12 -5 -24q-4 -8 -4 -14q0 -4 1 -18q2 -18 4 -30q1 -4 1 -11q0 -3 -4 -13q-4 -12 -4 -14q0 -5 3 -13q4 -10 4 -18q0 -13 -1 -19q-1 -13 2 -20
q2 -7 1 -19q0 -16 1 -22t1 -9t-1 -8q-2 -7 -8 -13q-5 -5 -10 -7q-1 0 -6 -1.5t-8 -2.5q-10 -2 -23 -2q-18 0 -22 1q-6 1 -14 8q-7 7 -7 17v13q1 23 6 31q4 8 4 10t-4 10q-3 6 -2 20q1 13 -2 19q-3 4 -3 17q0 8 4 20q3 9 3 20v12v44q-2 23 -4 29t-1 15q2 8 4 14q3 6 3 10
q0 1 -1.5 4.5t-1.5 5.5q-3 6 -3 9q2 2 2 12q0 11 4 14zM140 832q12 5 22 5q11 0 17 -3q9 -3 20 -3q3 0 10 -0.5t8 -1.5q5 0 5 -4q1 -1 1 -3q0 -3 -4 -12q-5 -11 -4 -23q1 -6 1 -19q0 -1 -0.5 -17t-0.5 -28q0 -37 -3 -45t1 -17q3 -16 4 -29q0 -21 -2 -24q-1 -2 -3 -23
q-1 -10 -1 -16q0 -9 2 -17q0 -4 2 -14t3 -14q4 -14 1 -19q-1 -2 -8 -12q-2 -1 -5.5 -4.5t-5.5 -4.5q-4 -2 -22 -4h-10q-9 0 -22 2q-16 5 -17 5q-4 4 -8 11q-4 9 -4 20q0 13 4 22q4 11 1 26q-4 16 -4 23q-2 11 1 19q3 9 3 18q0 10 -4 15q-2 5 -2 7.5t2 10.5q4 13 8 19
q5 7 5 12q0 8 -3 14q-1 5 -4 17q-2 10 -2 14q0 6 3 12q2 8 2 12q0 5 -2 11q-3 7 -2 26q0 23 2 27q3 5 15 9z" />
    <glyph glyph-name="uni00A7" unicode="&#xa7;" horiz-adv-x="556" 
d="M279 456q-8 3 -12 3h-1q-6 0 -15 -4l-18 -6q-7 -5 -10 -13t-9 -14l-8 -8q-3 -3 -5 -14q-2 -12 -2 -21q0 -10 2 -22q1 -11 6 -15q2 -3 19 -6q16 -2 21 -7t18 -5t21 3q6 2 20 14q8 8 17 14q8 5 9 11q1 4 8 15q6 9 5 13q-3 6 -6 10q-3 3 -5 14q0 2 -0.5 6t-0.5 5q-2 5 -11 6
q-10 2 -21 10q-11 7 -22 11zM246 740q6 3 8 3q4 0 7 -1q7 -2 14 0q7 1 13 -1q6 -3 17 0q10 2 14.5 2t11.5 -1q13 -2 20 -5q6 -2 12 -2q7 0 15 -3q10 -2 16 -2q8 0 11 -3t4 -10q1 -2 2 -8t1 -7q0 -6 2 -18q3 -9 1 -19q-2 -9 -7 -17q-4 -10 -8 -10q-3 -1 -13 2q-14 6 -15 6
t-6 2t-7 3q-9 2 -13 1q-9 0 -13 2q-9 4 -17 6q-15 3 -30 3q-21 1 -25 -2q-2 -2 -12 -7l-10 -4q-2 0 -6 -4q-5 -4 -5 -13q0 -10 -3 -14q-2 -7 -4 -19q0 -10 1.5 -13t9.5 -10q6 -6 18 -15q5 -5 13 -7l8 -4q1 -1 2 -1q3 -3 11 -5t12 -2q2 0 12 -5q9 -6 19 -7q3 0 8 -0.5t6 -0.5
q2 -1 9 -1q5 0 11 -7q9 -7 20 -13q14 -8 23 -18q9 -9 15 -17q3 -6 8 -11q4 -5 5 -20q2 -18 3 -21q2 -7 1 -11q-2 -6 -4 -14q-4 -8 -1 -17q0 -3 0.5 -8t0.5 -6q0 -5 -6 -11q-7 -7 -8 -12l-9 -15q-5 -9 -12 -12q-9 -5 -18 -12q-10 -9 -12 -12q0 -6 2 -8q3 -5 10 -8q6 -3 16 -5
q7 -1 14 -6q5 -2 9 -8q2 -6 2 -10q0 -5 5 -12t8 -17q3 -7 6 -22t4 -30v-12v-11v-9q-1 -13 -7 -20q-4 -5 -10 -22q-3 -10 -5 -12.5t-8 -6.5q-9 -6 -16 -14q-5 -6 -19 -14q-18 -8 -19 -8q-9 -2 -15 -7q-5 -4 -19 -7q-14 -2 -19 -2q-3 -1 -28 -3q-21 -2 -29 -7q-5 -5 -10 -5
q-1 0 -5 1q-2 0 -10.5 1.5t-9.5 1.5q-10 3 -27 3q-14 0 -19 5q-6 6 -14 6q-11 0 -14 1q-6 3 -15 9q-10 8 -11 10v4q0 3 -0.5 7t-0.5 11v13q0 33 4 37t16 4q11 1 19 -3q8 -5 20 -5q11 -1 26 -8q12 -7 21 -7q3 0 18 1q30 2 33 3q2 1 19 6q5 2 13 6q0 1 8 6q4 1 10 7q6 8 10 19
q5 13 5 18q0 7 -3 16q-5 13 -10 18l-21 16q-17 11 -22 12l-15 6q-9 3 -16 3q-9 0 -17 4t-10 4q-5 0 -12 3q-6 3 -18 5q-9 2 -21 9q-14 10 -17 13l-9 6q-6 2 -12 2q-6 2 -9 6q-4 8 -5 16q-1 13 -9 16q-8 4 -10 6q-2 4 -4 10q0 10 4 17q5 13 5 36q0 25 3 31t3 11t3 8q1 3 10 7
q6 2 13 11q5 8 13 11q6 3 14 11q5 6 12 8q6 0 8 4q3 1 3 5q0 3 -5 6l-12 9q-9 7 -14 8q-7 1 -16 10q-8 9 -9 17q-2 8 -9 20q-8 14 -8 18q-1 3 1 22q3 24 4 33q1 6 2.5 15.5t1.5 11.5q3 12 14 23q10 12 16 14q8 4 13 7q8 6 18 10q9 5 14 7q3 3 9 3q4 0 14 4q8 5 14 5t12 3z
" />
    <glyph glyph-name="uni00A8" unicode="&#xa8;" horiz-adv-x="291" 
d="M81 703q1 1 4 1t8 -1q9 0 12 -3q3 -2 3 -9q0 -9 3 -13q4 -8 4 -14q0 -7 -2 -11q-2 -2 -4 -18q-3 -18 -5 -29q-4 -16 -4 -17q-1 -3 -6 -5q-4 -1 -16 -1q-6 1 -26 1q-16 0 -29 4q-14 4 -20 13q-6 11 -6 16q0 7 3 15q0 2 5 32q1 23 5 27q2 4 9 8q6 2 33 2zM194 702q3 3 7 3
q7 0 13 -2q10 -1 21 0q9 3 18 0q6 -3 16 -3q8 0 11 -4q3 -7 6 -17q4 -15 3 -30q-1 -19 1 -27q2 -7 2 -10t-3 -11q-4 -11 -7 -13q-3 -3 -10 -5h-4t-17 6t-20 5q-8 -2 -24 -2q-17 -1 -22 3q-5 5 -5 14q0 4 1 19q0 27 2 37q2 4 4 21q3 13 7 16z" />
    <glyph glyph-name="uni00A9" unicode="&#xa9;" horiz-adv-x="775" 
d="M388 577q2 1 31 1q27 0 33 -2q7 -4 13 -8q5 -5 15 -9q6 -2 22 -15q16 -16 20 -21q8 -10 9 -15q3 -11 6 -15q4 -5 4 -13q0 -11 -1 -18q-1 -12 -7 -17q-7 -4 -13 -6q-7 -2 -17 0q-13 3 -19 5q-10 5 -14 13q-3 7 -5 18q-3 9 -9 14l-10 10q-2 5 -8 9q-7 4 -24 3q-24 0 -31 -1
q-12 -1 -20 -6q-10 -5 -11 -5q-8 -4 -13 -7q-9 -5 -12 -10q-4 -6 -4 -15q-2 -12 -6 -19q-5 -8 -6 -24q-4 -20 -6 -23q-3 -6 -3 -13q0 -6 2 -20q2 -8 2 -15.5t-2 -24.5q-1 -17 -1 -22q0 -6 2 -11q3 -4 5 -15q2 -9 7 -20q6 -13 13 -21q2 -2 6.5 -8t6.5 -8q3 -5 9 -8
q7 -4 14 -9q11 -7 19 -7q7 -1 17 1q1 0 8.5 1.5t10.5 2.5q13 4 15 7q5 3 7 9q5 8 13 13q11 9 15 17t6.5 9.5t16.5 4.5q19 5 29 4q10 0 13 -3q4 -2 8 -10q3 -8 3 -12q0 -6 -3 -16q-2 -7 -14 -17q-12 -12 -14 -16q0 -2 -0.5 -5t-0.5 -4q0 -5 -4 -9q-3 -3 -13 -7q-8 -3 -21 -14
q-12 -12 -16 -12h-10q-5 0 -21 -2q-17 -2 -24 -5q-6 -2 -14 -2q-4 0 -13 1q-17 2 -29 5q-13 4 -23 6q-12 1 -15 5l-12 18q-8 13 -13 15q-5 0 -9 2q-5 2 -8 10q-4 9 -9 18q-6 9 -7 15q0 4 -4 10q-4 4 -4 10q0 7 -5 17q-5 12 -7 39q-2 38 -3 41l-3 24q0 9 -2 15q-1 3 -1 9
q4 8 5 9q5 7 11 15q7 9 7 13q0 2 -4 12t-4 12q0 6 4 11q2 3 5 12q3 8 9 13q8 8 9 17q2 10 5 13l9 6q7 2 12 11q8 10 11 13q5 3 12 5q4 0 12 5q9 6 13 9q7 5 25 5t22 2zM410 667q-4 2 -9 2l-12 -3q-8 -4 -11 -4q-4 0 -12 -4q-6 -3 -17 -1q-8 2 -18 -3q-10 -4 -12 -4
q-3 0 -7 2t-14 -2q-7 -2 -17 -10q-7 -7 -11 -9q-6 -2 -13 -2q-9 0 -14 -5q-1 -1 -3.5 -4t-3.5 -4q-1 -4 -7 -7q-6 -2 -13 -9q-5 -5 -11 -8l-8 -4q-4 -2 -6 -7t-8 -9q-7 -3 -10 -13q-9 -12 -15 -18q-10 -10 -12 -16t-10 -14t-12 -21q0 -4 -5 -17q-2 -6 -7 -16q-2 -7 -5 -19
q-2 -10 -6 -14q-5 -7 -5 -9t2 -10t-3 -22q-4 -13 -4 -17q0 -3 1 -9q1 -3 2 -7t1 -5l-2 -12q-1 -10 2 -23q0 -3 1.5 -8t1.5 -7q5 -9 6 -11q5 -7 6 -24q3 -28 3 -29q1 -10 6 -14q6 -4 14 -12t20 -32q11 -24 19 -29q8 -4 18 -14q13 -13 23 -20q6 -5 18 -13q9 -6 13 -9
q7 -5 15 -7q4 -1 13 -4q5 -2 8 -5q2 -2 26 -12q21 -9 34 -9q12 0 20 -4q6 -5 18 -3q12 1 18 -1q12 -3 15 -3q6 0 16 5q9 4 24 6q14 2 32 8q6 2 26 10q8 4 20 4q11 1 20 9q2 1 6.5 5t5.5 6q2 3 13 9q10 6 17 13q8 6 10 11q0 2 11 9q8 4 20 17q12 12 17 25q4 8 10 18q3 3 9 11
q1 2 4 6t3 5q4 6 4 17q2 13 5 18t5 10q2 2 4 11q0 3 3 15l4 12t4 13q2 13 2 16t-1 8q-3 7 -6 10q-2 2 -2 9t3 13t3 23q-2 18 -2 28q-2 14 -5 22q-4 15 -10 25q-8 16 -9 19q-3 3 -3 11t-13 20q-12 12 -16 22q-2 9 -13 21q-10 10 -16 14q-5 3 -14 7q-8 3 -12 8q-6 9 -18 21
q-15 15 -25 20q-14 5 -15 5q-10 5 -18 8q-4 2 -24 10q-4 1 -17 5q-8 2 -18 2q-2 0 -26 3q-11 1 -19 4zM357 726q10 2 14 2q6 0 13 -3q10 -2 15 -2t19 2q9 2 29 -1q19 -4 26 -7q8 -5 13 -5t9 -2q3 -1 19 -3q15 -1 35 -12q27 -15 31 -18q11 -8 17 -8q7 0 11 -2q1 -1 4 -4.5
t4 -5.5q5 -7 14 -12q11 -6 17 -10q7 -5 12 -14q2 -5 8 -14q4 -4 12 -10q7 -4 10 -12q1 -2 6 -8.5t6 -8.5q10 -10 10 -17q1 -7 9 -16q8 -8 12 -14q5 -3 7 -10q0 -1 1.5 -5t1.5 -6q0 -8 6 -18q6 -15 7 -27q2 -12 4 -21q3 -10 2 -20t3 -18q3 -8 3 -16v-11q-2 -20 0 -26
q1 -3 1 -6q0 -2 -1 -12q-4 -14 -7 -20q-4 -11 -4 -27q0 -20 -4 -28q0 -1 -3.5 -10t-5.5 -13q-5 -14 -8 -17l-5 -12q-2 -10 -2 -14q0 -5 -4 -13q-2 -7 -9 -12q-6 -6 -11 -16q-8 -13 -15 -19q-3 -3 -18 -21q-2 -3 -6.5 -9t-5.5 -7q-9 -6 -15 -8q-9 -3 -16 -12q-4 -6 -13 -13
q-6 -3 -14 -9l-14 -11q-2 -1 -6 -4t-5 -3q-3 -3 -21 -9q-19 -6 -24 -10q-1 -1 -20 -9q-22 -6 -26 -8q-14 -4 -20 -4q-7 0 -15 -2q-4 -1 -7 -1q-4 0 -13 2q-12 3 -24 1q-14 -2 -26 -2q-13 0 -21 2q-12 3 -20 3q-15 2 -28 5q-15 2 -20 7q-3 5 -10 7q-5 3 -16 1q-8 -1 -21 6
l-11 7q-3 3 -12 9q-12 8 -23 11q-11 2 -18 11q-7 7 -10 7t-7 4q-2 2 -8 10q-4 7 -11 11q-10 7 -11 9q-4 4 -7 12t-8 13l-8 4q-1 0 -6 5q-4 4 -8 17q-5 14 -13 23q-10 10 -15 20q-5 8 -5 13t-5 12q-5 8 -7 21t-5 18q0 1 -2.5 9t-3.5 13q-5 22 -6 32t-1 14.5t1 10.5q3 9 3 18
q-4 22 -4 23q-1 8 -1 11t2 9q3 7 3 21t3 20q2 8 2 17q0 11 3 16t4 5t3 4q2 6 2 12t6 15q5 6 7 13q1 4 7 16l6 10q0 2 11 13q10 13 11 17q2 8 4 9q2 4 9 4q7 2 9 4t8 16q4 13 7 18q4 6 11 13q6 6 15 8q8 1 11 7q5 7 8 7q9 3 10 3q8 2 15 10q13 11 16 12q6 3 15 12q7 7 9.5 8
t10.5 1q12 0 20 2q8 3 16 3q6 0 26 6q6 2 13.5 5t8.5 3q6 3 13 3z" />
    <glyph glyph-name="uni00AA" unicode="&#xaa;" horiz-adv-x="342" 
d="M213 552q-15 0 -18 1t-4 1q-3 0 -5 -2q-6 -3 -8 -5q-4 -3 -23 -4h-20q-3 0 -12 -9q-12 -10 -15 -16q-6 -8 -6 -13q0 -6 2 -12q3 -6 11 -14q11 -11 15 -11q9 -3 13 -5q6 -3 10 -3q5 0 16 6q14 6 18 6q7 0 11 3q6 3 14 11q7 10 10 15q4 8 8 14q4 5 4 14q0 10 -3 16
q-4 8 -8 8q-2 0 -10 -1zM175 723q3 1 23 1q26 -2 29 -3q10 -2 15 -5q4 -4 13 -6q10 -4 11 -5q1 0 3 -2q7 -4 10 -5q8 -4 10 -6.5t6 -12.5q5 -19 6 -29q1 -11 4 -24q2 -9 -2 -17q-5 -10 -3 -16q1 -7 0 -22q-3 -13 -3 -51q0 -8 0.5 -27t1.5 -24q2 -13 4 -25q4 -10 4 -16
q0 -5 -2 -11q-2 -3 -7 -7q-9 -3 -14 -3q-7 -1 -20 2q-7 2 -22 8q-10 5 -18 5q-7 0 -24 -8q-13 -7 -17 -8t-17 -1q-5 0 -16 -0.5t-14 -0.5q-15 -2 -17 -3q-3 -1 -6 -1q-4 0 -12 2q-12 2 -16 4q-5 2 -11 12q-6 9 -13 12q-8 4 -12 8q-1 1 -4 5.5t-3 5.5q-2 4 -5 14q0 1 -8 19
q-5 10 -5 19q0 10 4 14q5 3 5 6q2 5 5 11l7 18q2 9 10 13q9 7 11 11q4 7 11 10q8 6 15 6q20 4 26 6q17 4 18 5q7 2 15 3q17 2 22 1q8 -2 23 -2q14 0 24 5q8 4 11 10q3 5 3 11q0 5 -2 9q-2 5 -7 11q-6 5 -9 10q-2 4 -11 8q-8 2 -23 1q-15 -2 -23 -5q-2 0 -7 -1.5t-7 -2.5
q-9 -5 -16 -10q-11 -11 -12 -13q-5 -7 -13 -9q-3 -1 -25 -6q-14 -3 -18 0q-3 3 -7 11q-4 7 -4 22q0 13 4 20q4 6 11 11q8 6 14 12q8 7 14 7q7 0 14 7q11 8 21 10q15 2 27 1q16 -2 20 1z" />
    <glyph glyph-name="uni00AB" unicode="&#xab;" horiz-adv-x="541" 
d="M400 465q10 1 24 1h3q4 0 5 -1q1 0 9 -6q4 -5 11 -10q5 -5 6 -15v-6q0 -5 -3 -7q-5 -5 -8 -7q-4 -2 -10 -14l-7 -14q0 -4 -7 -16q-6 -12 -18 -30q-12 -17 -13 -23q-3 -10 -6 -16q-4 -9 -6 -17q0 -8 -4 -16q-3 -7 -1 -11q3 -6 6 -8q5 -5 10 -22q6 -14 9 -25q5 -10 8 -14
q4 -6 15 -17t11 -22t5 -14q7 -7 9 -10q3 -4 3 -24q0 -18 -4 -22l-12 -8q-6 -3 -15 -1q-10 2 -19 0q-7 -3 -11 -3q-2 0 -11 7t-11 11q0 1 -3 11q-2 8 -9 15q-7 9 -11 16q-2 2 -6 9t-4 8q-3 8 -11 18q-6 10 -9 19q-2 9 -5 12q0 1 -8 11q-3 4 -19 31q-11 22 -11 40q0 19 3 22
q1 1 5.5 8t7.5 11q10 13 15 25q1 2 4 8.5t4 8.5q2 3 6 14q2 8 5 14q9 9 14 13q10 8 13 16l6 12q3 3 6 13q3 9 8 14q3 5 9 7q6 4 22 4zM212 466q8 1 14 1h5q1 0 8 -0.5t10 -0.5q12 0 15 -3l5 -10q2 -6 2 -14t-2 -12q-3 -5 -7 -11q-6 -11 -7 -12q-4 -8 -7 -12q-1 -1 -11 -18
q-4 -10 -4 -11q0 -3 -3 -9q-1 -2 -5 -14q0 -7 -4 -13q-4 -8 -9 -13q-2 -2 -6.5 -7t-6.5 -7q-4 -6 -8 -17q-3 -7 -3 -13q0 -3 6 -17q5 -12 15 -22q9 -10 10 -18q0 -9 9 -23q8 -16 13 -21q7 -7 10 -20q0 -1 4.5 -12.5t6.5 -16.5q7 -15 10 -16q3 -3 4 -6q3 -3 3 -13
q0 -9 -5 -14t-16 -5t-20 5q-6 5 -26 6t-24 4q-1 1 -6 5t-8 6q-7 5 -8 7.5t-2 9.5q-2 10 -9 25q-5 12 -17 29q-9 12 -9 18q0 7 -2 13t-7 11q-8 11 -15 25q-11 22 -15 25l-7 10q-2 8 -2 14q0 9 4 12q5 5 10 6q2 1 5 3t4 2q3 2 5 11q3 6 9 22q5 14 9 18q1 1 5.5 6.5t6.5 8.5
q1 2 5 8.5t5 8.5q5 15 6 19q3 14 7 21q6 9 11 14q6 6 9 12q4 6 10 9q1 1 20 6z" />
    <glyph glyph-name="uni00AC" unicode="&#xac;" horiz-adv-x="580" 
d="M501 527q10 2 12 2q3 0 10 -3q8 -1 12 -6q3 -3 4 -31q0 -7 0.5 -31t0.5 -36q0 -39 3 -48q1 -6 1 -8q0 -4 -3 -11q-4 -12 -4 -30q-2 -19 3 -29q4 -7 4 -14q0 -4 -1 -13q-1 -19 -5 -24q-4 -7 -7 -8q-3 -2 -13 0q-2 0 -9.5 0.5t-11.5 0.5q-12 0 -22 -2q-6 -1 -9 -1t-8 2
q-6 4 -10 10q-3 6 -1 16q3 18 3 50q1 22 1 29q0 12 -2 14t-4 18q-1 12 2 24q4 8 4 22q0 11 -3 14q-1 0 -2 1l-6 3q-3 1 -24 3q-20 2 -27 2q-9 1 -15 -4l-7 -5q0 -1 -37 -1q-42 -2 -47 -3q-9 -1 -20 0q-12 2 -37 2h-14q-13 0 -17 2q-3 1 -13 1q-2 0 -23 -3q-15 -1 -21 1
t-13 2q-6 0 -16 -2q-10 -4 -18 -2q-7 0 -23 2q-17 3 -19 6q-3 3 -5 13q-3 5 -5 19q-2 12 -2 17q0 2 0.5 8.5t0.5 9.5q2 13 3 14q2 2 15 1q14 0 17 1q7 2 20 4q15 1 22 -2q7 -2 67 -2q62 0 66 1q5 2 14 0q6 -2 28 -2q6 0 20.5 -0.5t19.5 -0.5q8 -1 14 -1t20 2q13 3 26 3
q10 0 19 -3q14 -3 20 -2q10 2 18 2t18 -2q9 -1 18 3q7 3 18 5z" />
    <glyph glyph-name="uni00AE" unicode="&#xae;" horiz-adv-x="774" 
d="M361 507q-1 0 -5 0.5t-6 0.5q-5 0 -11 -2q-6 -4 -9 -7q-3 -8 -4 -16q-1 -5 -1 -9q0 -5 2 -11q2 -10 2 -16t2 -14q3 -7 0 -15q-3 -9 -1 -12t11 -7q7 -3 13 -3h6q11 2 19 6q8 5 13 3q1 0 9.5 -1t13.5 -2q16 -2 22 3q2 1 7 4t7 4q8 3 13 11q6 9 8 18q2 8 2 11t-3 14
q-5 12 -9 21q-4 5 -11 9q-6 3 -15 3q-11 0 -20 3q-11 3 -20 2q-11 -2 -20 -1q-9 0 -15 3zM396 569q5 2 10 2h6q9 0 21 -4q11 -4 23 -2q14 2 19 2q7 0 10 -7q3 -6 7 -8q2 0 9 -5q4 -4 16 -10q10 -5 14 -11q4 -7 6 -19q2 -13 10 -22q7 -7 7 -11t-3 -10q-5 -9 -10 -16l-2 -2
q-6 -7 -5 -16q1 -10 -1 -15q-2 -6 -11 -13q-7 -7 -7 -11q0 -1 -4 -5q-3 -4 -5 -6q-7 -6 -7.5 -8t0.5 -8t11 -16q8 -8 14 -24q5 -17 4 -29q-2 -9 -1.5 -11t4.5 -6t4.5 -7.5t0.5 -18.5q0 -22 7 -37q6 -18 6 -25q0 -10 -2 -16q-2 -7 -6 -11q-4 -3 -22 -2q-18 0 -24 5l-12 6
q-5 2 -8 12q-2 14 -1 25q1 13 -2 22q-2 8 -2 11l-2 5t-3 8q-5 10 -5 27t-2 23q0 3 -14 19q-13 15 -21 16q-7 2 -16 -1q-7 -2 -17 -2q-6 0 -22 1q-15 1 -20 1q-10 0 -13 -3q-4 -3 -4 -8q0 -7 -3 -16q-2 -10 -1 -30q1 -9 5 -30q3 -8 3 -17q-1 -3 -1 -29q1 -20 -2 -30
q-3 -6 -9 -12t-11 -6h-23q-20 2 -23 3q-6 2 -9 7q-2 4 0 13q1 11 -1 20q-3 10 2 25q6 18 6 19q0 4 -4 10q-3 5 -3 14q0 4 1 18q2 26 3 27q0 5 -1 10q-2 8 1 16q3 9 -2 17q-3 5 -5 17q0 3 3 12q3 3 4 22q0 15 -2 25q-2 6 -1 16q2 8 1 18q-3 10 0 31q1 21 -2 28q-4 8 -4 13
t11 14q11 10 22 12q10 4 19 4q5 0 16 -1q26 -2 46 -2q23 0 29 3zM389 671q-2 1 -17 1q-11 0 -21 -2q-7 -3 -15 -3t-19 -6q-14 -6 -20 -9q-5 -1 -19 -8q-5 -3 -20 -9q-9 -2 -27 -19q-18 -18 -31 -26q-16 -10 -20 -14q-5 -3 -9 -13q-6 -10 -14 -18q-9 -9 -10 -16q-2 -9 -6 -13
l-4 -7l-8 -10q-9 -10 -10 -18q0 -8 -6 -16q-5 -6 -5 -15q0 -8 -7 -22q-6 -13 -9 -31q-1 -10 -1 -14q0 -5 2 -9q3 -7 3 -34t2 -43q2 -13 4 -20q0 -3 5 -11q5 -9 6 -16l3 -15q2 -7 7.5 -12t9.5 -13q8 -11 11 -13q8 -10 9 -13l7 -11q6 -9 8 -13q4 -8 12 -12q9 -3 16 -12
q5 -5 10 -15q1 -4 10 -15q6 -6 19 -11q12 -5 20 -10q7 -5 20 -6q9 -1 17 -4q8 -4 12 -7q16 -7 19 -7q8 -3 17 -3q11 0 18 -3q9 -3 52 -3q31 0 37 0.5t12 4.5q8 4 18 6q12 2 18 2q8 0 11 3l5 4q5 4 7 7q11 9 14 10q6 2 10 2t12 6q6 6 16 8q4 1 15 1q6 0 10 4q1 1 5 11
q2 6 9 17l10 15l13 19q13 15 17 22q3 3 15 18q10 12 10 16q0 1 3.5 8.5t5.5 12.5q10 22 10 23q1 4 5 22t4 32v22q-1 2 1 22q1 9 1 15q0 9 -2 18q-2 15 -5 21q-2 8 -2 10q0 1 -1.5 5.5t-1.5 5.5t-2 7.5t-3 9.5q-3 9 -8 14q-2 2 -5.5 5t-4.5 4q-4 4 -3 11q1 6 -3 13
q-6 6 -6 15q-1 7 -8 17q-10 13 -13 14q-6 6 -6 8q-2 3 -19 19q-17 15 -17 17q0 3 -5 6q0 1 -6 5.5t-8 7.5q-11 9 -14 10q-2 2 -19 6q-20 7 -24 9q-6 4 -14 7q-6 2 -12 8q-8 6 -10 6q-4 0 -10 -3t-14 2t-36 5q-30 2 -33 3zM390 734q5 1 11.5 1t12.5 -1q3 -1 9 -2t7 -2
q1 0 19 -2q18 -1 27 -6t24 -5t21 -4q9 -7 23 -13q18 -8 27 -11q7 -2 18 -11q7 -9 20 -15q11 -4 16 -10q2 -3 15 -11q11 -7 18 -16q2 -2 10.5 -11t11.5 -13q16 -15 19 -24q2 -8 9 -15q4 -4 8 -12q2 -4 7 -9q5 -6 6 -18l4 -23q4 -13 8 -19q2 -3 5 -6.5t3 -4.5q3 -2 5 -9
q3 -4 3 -10q0 -3 4 -15q3 -9 3 -39q0 -42 -1 -60q0 -32 -3 -38q-2 -6 0 -17q0 -13 -2 -17q-1 -2 -13 -24q-9 -19 -11 -28t-6 -16q-5 -6 -7 -13q-1 -3 -8 -15q-3 -3 -7 -10q-1 -3 -2 -4l-5 -10l-3 -6q-5 -9 -13 -14q-7 -4 -11 -13q-6 -10 -15 -19q-15 -15 -22 -21
q-4 -4 -11 -10.5t-9 -8.5q-8 -6 -14 -8q-1 0 -6.5 -3t-8.5 -4q-3 -3 -17 -8q-9 -2 -17 -8q-9 -5 -16 -6q-8 -2 -29 -9t-27 -11q-8 -4 -18 -4q-12 0 -19 -4q-6 -4 -10 -4q-3 0 -11 4q-4 3 -11 3q-4 0 -8 -2q-3 -3 -14 -3t-23 6q-11 6 -31 6h-13q-9 0 -20 5l-22 11q-7 4 -21 6
q-8 0 -26 8q-15 8 -24 10q-7 1 -12 8q-7 7 -13 10q-10 5 -14 12t-15 13q-6 2 -14 6q-5 3 -8 13q-2 7 -8 19q-5 7 -16 16q-13 11 -15 15q-3 6 -5 16q-1 7 -6 14q-1 2 -4 6.5t-4 6.5q-1 3 -9 13q-8 6 -9 14q-3 8 -3 14.5t-3 10.5q-4 7 -9 27q-6 19 -6 39q-2 23 -3 26
q-1 4 -1 17q2 13 1 17v17q0 15 2 21q2 11 4 18q2 4 6 24q2 18 6 24q3 6 7 10t7 17t5 15l5 7q3 6 3 14q0 9 3 13q1 2 8 12q7 7 10 14q7 10 12 12q5 4 13 15.5t17 18.5q5 4 18 17l19 15q5 4 21 12q13 7 22 15q6 6 22 15q15 7 24 8q12 2 28 9q13 6 29 8q9 0 18 3q6 2 16 2t16 2
q6 4 16 4z" />
    <glyph glyph-name="uni00AF" unicode="&#xaf;" horiz-adv-x="501" 
d="M103 721q11 3 27 3q20 0 22 -2q1 -1 29 -3q30 -2 33 -2q1 0 11.5 0.5t17.5 0.5q27 0 32 -1q9 -2 19 2q9 4 27 1q4 -1 13 -2.5t11 -2.5q6 -3 13 -3q5 0 23 6q16 5 25 4q12 0 18 -3q5 -1 21 -1q16 2 23 2q10 1 12 -2q1 -1 4.5 -6t5.5 -7q6 -10 6 -18v-13q-2 -22 -3 -24
q-2 -5 -8 -9q-5 -4 -12 -6q-4 -2 -31 -2q-22 0 -36 2q-9 3 -15 3q-5 0 -11 -4q-8 -4 -20 -4q-5 0 -26 3q-10 3 -26 3q-15 0 -21 -3q-8 -2 -18 0q-12 4 -20 4q-9 1 -22 -2t-25 -1q-10 3 -21 3q-7 1 -15 -2q-7 -3 -39 -3q-17 1 -52 1h-38q-19 0 -23 2q-7 2 -8 6q-3 5 -3 15
q0 9 -2 25q-1 9 -1 11q0 4 3 9q4 6 8 10q5 4 18 4q11 0 39 2q27 0 35 4z" />
    <glyph glyph-name="uni00B0" unicode="&#xb0;" horiz-adv-x="257" 
d="M154 661q-4 3 -17.5 3t-20.5 -4q-6 -4 -7 -5q-4 -4 -10 -7q-11 -8 -12 -9q-3 -3 -6 -16q-2 -8 -2 -12q0 -3 1 -6q3 -6 17 -20q15 -13 21 -13t12 2q4 2 11 2q7 2 15 10q5 4 14 16q5 7 5 11q0 3 -2 7q-3 3 -5 15q-4 13 -7 18q-5 7 -7 8zM127 725h11q8 -1 31 -12
q24 -12 29 -17t9 -13q5 -5 7 -11q2 -4 4 -23q0 -18 6 -29q5 -10 5 -16q0 -2 -1.5 -8.5t-1.5 -9.5q-4 -13 -11 -21q-8 -10 -9 -11q-2 -2 -10 -6q-9 -5 -14 -11q-2 -2 -17 -14q-11 -6 -17 -8q-10 -2 -15 -2q-6 0 -14 4q-9 4 -23 4q-16 0 -18 2q-1 1 -7 9q-5 7 -11 11
q-6 3 -11 10q-2 3 -10 11q-7 7 -8 12q-3 6 -3 19q0 7 1 26q0 29 1 34.5t5 12.5q2 3 6 8.5t5 7.5q3 6 11 12l13 10q7 7 12 8q6 2 13 2t19 4q2 1 7 2.5t6 2.5z" />
    <glyph glyph-name="uni00B1" unicode="&#xb1;" horiz-adv-x="577" 
d="M136 193q11 3 18 3q3 0 21 -4q16 -5 38 -5q12 -1 23 -1q13 0 28 1q28 0 36 -2q9 -2 20 0q7 3 22 3q14 0 20 3q9 2 26 0q19 -3 23 -2q4 2 15 0l15 -6q6 -2 9 -2q5 0 11 4q5 4 12 6q13 0 22 -1q16 -1 25 -6q8 -4 11 -8q5 -4 6 -25q4 -26 4 -34q0 -4 -5 -13q-6 -9 -12 -9
q-4 -1 -30 3q-24 4 -28 4q-5 0 -11 -4q-5 -3 -16 -5q-5 -1 -8 -1q-4 0 -11 3q-10 5 -14 5q-7 1 -20 -3q-11 -4 -14 -4t-12 3q-11 4 -20 2q-9 -3 -17 0q-5 1 -45 1q-9 0 -31 -0.5t-28 -1.5q-20 0 -32 3q-11 3 -28 1q-12 -2 -26 -2h-9q-19 0 -27 2q-9 0 -14 -2q-6 -3 -15 -3
q-4 0 -16 3q-7 4 -9 9q-2 4 -4 28q0 5 -0.5 17t-1.5 14q0 6 4 14q2 5 8 7q7 2 21 1q25 -3 28 -3q11 -2 19 1q9 4 19 6zM277 621q6 3 11 3q2 0 18 -4q14 -6 20 -9q7 -4 9 -9q2 -3 4 -14q2 -15 3 -17q1 -6 -1 -13t-4 -25q-2 -21 -2 -33q0 -14 -4 -18q-3 -5 0 -11q2 -4 8 -10
q5 -2 30 -5q25 -2 30 0q2 1 30 1q14 -1 18 -1q9 0 18 4q12 5 19 5q8 0 20 -5q10 -4 16 -4q8 0 11 -3q4 -2 6 -6t2 -33q0 -22 -0.5 -26t-4.5 -9q-5 -5 -11 -7q-3 0 -23 -2q-18 -1 -25 0t-22 0q-12 -1 -22 -4q-8 -2 -15 2q-6 3 -10 3t-12 -2q-8 -4 -15 -1q-2 1 -8.5 2t-7.5 1
q-13 0 -19 -1q-8 -3 -10 -5q-2 -4 0 -23q2 -26 4 -32q1 -12 -1 -23q-2 -12 -2 -16q0 -5 5 -10q4 -6 4 -10q0 -5 -3 -14q-1 -3 -6 -13q-3 -3 -11 -6q-10 -4 -14 -4t-10 -4q-6 -3 -20 -2q-14 2 -20 6q-5 1 -15 11q-8 7 -8 14q0 8 4 13q5 7 5 13q0 7 -5 15q-4 8 -4 13q0 6 2 10
q1 3 3 23t2 25q0 7 -7 14t-20 7h-19q-24 0 -42 -3q-14 -2 -16 -2q-5 -2 -14 2q-7 4 -19 1q-10 -2 -30 -1q-14 1 -17.5 2t-8.5 6q-8 8 -11 18q-3 9 -3 11t2 8q3 8 3 18q0 1 1 6t2 7l9 9q8 5 15 5q8 0 14 2q4 1 10.5 1t24.5 -1q18 -2 30 -2h6q1 0 16 3q8 1 18 -1q10 -3 29 -3
q20 0 23 3q5 4 4 15q0 3 -0.5 14.5t-0.5 16.5q0 17 2 31q1 12 -4 20q-4 8 -4 12q0 2 4 12q4 7 6 20q1 13 5 15q2 2 10 2q5 0 15 2z" />
    <glyph glyph-name="uni00B2" unicode="&#xb2;" horiz-adv-x="342" 
d="M164 777q4 1 8 1h4q4 -1 26 -1q21 -2 33 -4q14 -3 19 -6q9 -6 14 -9q8 -6 11 -6t8 -5q8 -5 9 -11q1 -3 8 -18q5 -9 6 -25l2 -14q1 -14 2 -20q1 -20 -1 -26q-3 -6 -5 -21l-5 -20q-6 -9 -13 -16l-20 -24q-10 -14 -19 -18q-1 0 -17 -10q-9 -8 -13 -16q-6 -10 -16 -20
q-10 -12 -18 -17q-7 -3 -15 -11q-5 -5 -19 -13q-13 -6 -16 -13q-4 -7 -2 -11q3 -4 8 -4q7 0 14 3q10 2 15 2q4 0 14 -2q8 -2 14 -2q4 1 23 -1q13 -3 24 -3t23 3q18 4 19 5q6 0 11 -2q9 -1 14 -8t5 -18q0 -10 -2 -20q-2 -8 -4 -13q-3 -5 -4 -5q-2 -2 -17 2l-24 4q-9 2 -19 -3
q-8 -4 -14 -4q-8 0 -14 3q-8 3 -14 0q-3 -1 -44 -1q-42 2 -47 2q-5 1 -28 -1q-22 -2 -32 -2q-14 0 -19 4q-7 4 -8 10q-4 7 -4 23v8q0 8 5 20t9 14q2 1 9 4q4 2 9 7q3 6 10 11q6 4 10 10q3 5 12 11q5 3 10 12t14 14t14 14q6 10 15 15q8 4 12 12q2 7 4 10q2 2 9 4q6 2 13 6
q6 2 10 10l13 13q8 5 19 27q12 23 12 34q2 9 4 19q3 4 5 11v8q-2 3 -12 6q-18 7 -23 10q-14 7 -32 7q-25 0 -32 -1q-13 -3 -14 -5q-1 -1 -4 -7q0 -1 -0.5 -4t-0.5 -5q0 -3 -4 -17q-5 -13 -7 -16q-5 -5 -14 -6q-11 -2 -17 -5q-5 -3 -20 -2q-14 1 -18 6q-5 4 -5 21q0 15 4 23
q3 8 5 17q1 9 7 16q6 6 8 15q2 8 7 12q5 5 9 7q6 3 16 3q10 2 18 4q1 0 6.5 2.5t8.5 3.5q8 3 20 3q9 -2 15 0z" />
    <glyph glyph-name="uni00B3" unicode="&#xb3;" horiz-adv-x="334" 
d="M147 766q2 1 21 1q11 0 26 -3t22 -3q12 0 16 -4q1 -2 4.5 -5.5t4.5 -5.5q5 -5 19 -5q12 0 15 -4l14 -21q12 -19 13 -26q0 -8 6 -20q5 -9 5 -18q0 -4 -1 -16q0 -24 -7 -35q-5 -10 -14 -16q-1 -1 -5.5 -4.5t-6.5 -4.5q-3 -4 -11 -6q-6 0 -10 -4q-4 -1 -4 -6q0 -4 9 -8
q7 -2 11 -6t8 -6q7 -3 9 -8q4 -6 4 -14q2 -10 11 -19t9 -13q0 -1 1.5 -5t2.5 -6q1 -4 1 -6.5t-3 -15.5q-5 -13 -7 -28q-3 -15 -12 -35q-10 -20 -16 -21q-6 -2 -13 -9q-8 -7 -19 -12q-14 -6 -26 -6q-16 -2 -24 -5q-11 -4 -32 -4h-12q-12 0 -21 3l-24 6q-11 1 -27 6
q-14 4 -24 9q-10 4 -16 13q-9 12 -12 15q-6 6 -11 19q-7 23 -7 26q-2 7 -2 16q2 4 7 7q4 3 13 5q3 0 23 5q14 5 20 3q4 0 12 -6q7 -5 10 -14q5 -11 7 -15q2 -3 8 -9q1 -1 13 -11q8 -5 20 -10q3 -1 9 -3.5t7 -2.5q4 -2 9 -2q6 0 10 3q4 1 13 8q8 5 17 12q10 8 12 8q4 0 9 3
q6 5 6 10q3 14 4 17q3 10 -6 28q-3 6 -15 26q-10 10 -14 11q-7 4 -19 7q-13 3 -21 0q-6 -2 -24 -2q-16 1 -19 4t-4 19q0 15 -2 25q-1 9 3 13t13 4q7 0 25 -2q16 -1 25 4q15 6 21 9q12 4 17 14q6 11 10 13q5 5 7 11q1 4 1 13q-1 3 -11 21q-9 14 -16 17q-6 4 -12 4q-9 3 -12 5
q-7 4 -15 1t-18 -2q-9 2 -16 0q-9 -3 -13 -5q-9 -6 -10 -7q-5 -3 -7 -9q-2 -5 -4 -13q-1 -7 -6 -14q-5 -5 -8 -5q-4 0 -16 -5q-14 -4 -19 -4t-14 3q-9 4 -10 7q-4 3 -5 11q-3 8 0 21q2 18 3 20q0 6 5 11q6 9 8 14q7 9 9 10q2 2 10 5q8 2 14 6q6 3 18 5q11 1 22 7q6 5 18 8
q10 2 13 3z" />
    <glyph glyph-name="uni00B4" unicode="&#xb4;" horiz-adv-x="280" 
d="M161 720q4 3 8 3t16 -5q13 -4 28 -2q12 3 21 3q2 0 6 -0.5t6 -0.5q8 -4 14 -12q8 -8 8 -12q0 -2 -11 -20q-11 -17 -15 -18q-5 -2 -7 -6q-3 -5 -5 -17q-3 -11 -3 -20q0 -6 -6 -12q-5 -6 -6 -17q-1 -10 -11 -25q-10 -13 -10 -16q-3 -4 -6 -9q-5 -6 -9 -15q-2 -6 -2 -16v-11
q0 -2 -13 -15q-12 -12 -23 -12q-20 0 -31 -1t-14 -1q-5 0 -8 3q-4 4 -6 14q-2 6 -2 9t2 7q3 9 8 15q5 9 4 13q0 10 1 16q3 13 7 17q4 5 3 14q-1 10 4 22q6 13 7 31q2 23 3 26q0 5 6 11q5 5 8 17q1 3 3 10.5t2 9.5q2 9 10 15q5 5 13 7z" />
    <glyph glyph-name="uni00B5" unicode="&#xb5;" horiz-adv-x="620" 
d="M439 510q7 1 17 1q3 0 13 -2t14 -6q11 -7 13 -8q8 -5 11 -12q3 -6 5 -14q1 -6 -2 -14q-3 -7 -3 -23v-19q0 -34 2 -42q1 -3 3 -25q1 -20 -3 -25q-4 -6 -4 -11q0 -1 0.5 -7.5t1 -18.5t0.5 -20q0 -12 0.5 -37.5t0.5 -33.5q1 -16 1 -23q0 -10 -2 -15q-4 -8 -1 -22
q2 -14 2 -37q0 -25 4 -35q4 -11 4 -23q0 -11 -8 -19q-6 -8 -9.5 -9t-17.5 0q-24 0 -30 -1q-11 -1 -16 1q-6 2 -8 7q-4 6 -2 14v13q0 3 -4 5q-4 3 -9 0l-5 -5l-11 -13q-14 -12 -20 -15q-8 -4 -17 -4q-10 -2 -14 -4q-5 -3 -14 -5q-10 -2 -16 -5q-7 -4 -25 -2q-18 0 -26 4
q-12 3 -15 3q-7 0 -14 4l-16 12q-9 6 -14 11q-8 5 -10 6q-4 1 -8 0t-6 -7q0 -13 1 -23q3 -15 3 -42q0 -23 2 -37q2 -13 0 -29q-1 -7 -1 -12t4 -27q4 -26 4 -29q0 -6 -3 -9q-4 -4 -16 -9q-14 -8 -16 -10q-4 -4 -7 -4t-15 4t-13 5q0 2 -9 2t-13 2t-6 6q-3 8 -4 22q-2 17 3 26
q4 8 4 16q0 5 -1 19q-1 11 -1 20t1 12q2 9 -1 14q-2 8 -2 30q2 26 4 33q3 10 1 19q0 1 -1.5 6.5t-1.5 7.5q0 8 -3 14q-4 10 -3 16q2 10 5 16q3 8 3 15q0 5 -4 15q-4 8 -3 16q0 7 4 17q3 10 3 24v18q0 40 -1 50q-2 17 -4 24q-1 7 0 20q1 8 4 23q2 10 2 24v18q-2 34 -6 40
q-4 8 -4 10q0 5 5 15q4 12 3 24q-1 7 -1 18q0 3 2 23q0 18 3 21q1 1 10 3q9 1 18 -2q10 -3 20 1q10 3 20 1q6 -2 14 -6q4 -4 5 -16q2 -16 3 -18q2 -6 2 -9q0 -4 -5 -11q-5 -5 -5 -8q0 -4 5 -12q4 -9 2 -18t-4 -23q-1 -16 -4 -19q-1 -1 -3 -4t-3 -4q-2 -5 -1 -9q4 -8 7 -13
q4 -6 7 -14q2 -6 0 -11q0 -9 1 -14q3 -10 0 -19q-2 -8 0 -13q2 -7 -1 -19q-3 -11 -1 -30t5 -25q2 -8 0 -18t2 -15l6 -15l6 -15q2 -6 20 -22q18 -17 22 -17q6 0 19 -5q15 -5 28 -5q11 0 17 2q2 1 18 6q11 1 20 9q15 12 22 19q14 12 22 20q10 8 12 14t0 21t2 24q5 10 3 29
q-1 20 2 28q3 7 3 23q0 17 -4 24q-4 9 0 18q4 10 3 22v20q0 5 2 19q1 10 -6 30q-6 21 -4 28q2 8 2 12t2 12q4 6 1 15q-2 10 3 20q3 9 7 13q3 3 15 3z" />
    <glyph glyph-name="uni00B6" unicode="&#xb6;" horiz-adv-x="806" 
d="M787 52q2 6 3 6v-30q0 -31 -4 -31q-2 0 -8 3l-6 6q-3 2 -3 10q0 7 2 11q0 1 8 11q6 8 8 14zM334 875q6 3 13 3q9 0 16 -3q12 -3 34 -5q15 -1 20 -1q6 0 15 2q10 4 16 4q8 0 14 -3q12 -2 18 -1t12 1q2 0 10 -8q7 -10 10 -15q4 -10 4 -22q1 -15 -2 -18q-1 -4 -12 -10
q-9 -5 -19 -5q-9 0 -17 -2q-6 -2 -8 -4v-3q-1 -3 -1 -7t-0.5 -10.5t-0.5 -11.5q-2 -33 -3 -36q-1 -5 6 -13q8 -6 8 -13q2 -8 -2 -18q-4 -14 -4 -19q0 -8 2 -16q1 -5 1 -24q-2 -15 0 -22q3 -7 1 -16q-3 -11 -4 -20q-2 -14 -2 -27q-3 -21 -4 -25q-3 -12 -2 -19q0 -5 5 -15
q5 -6 5 -16q0 -5 -1 -20q0 -30 -3 -34q-1 -6 0 -19q0 -5 0.5 -12.5t0.5 -8.5q0 -10 -3 -20q-3 -12 0 -20q1 -2 3 -8q2 -5 2 -6q1 -7 -1 -17q-4 -10 -4 -15q-2 -5 2 -18q2 -8 2 -33q0 -7 0.5 -18.5t0.5 -13.5q1 -8 -2 -25q-3 -11 -3 -14t3 -12q4 -12 4 -35q0 -21 -2 -41
q-2 -18 0 -25q3 -6 3 -13q0 -5 -2 -11q-5 -5 -8 -7q-5 -3 -29 -7q-22 -5 -31 -5q-7 0 -13 3q-6 1 -9 9q-1 6 -3 21q0 17 3 26q2 15 1 26q0 16 -4 26q-3 10 -3 40q0 29 -2 43q-1 11 2 24q2 8 2 29q0 14 2 40q2 24 2 25l-2 22q0 6 -1 17.5t-1 13.5q-1 12 1 22q4 12 4 17
q1 7 -2 14q-2 7 -4 19q-1 8 -1 13q0 6 2 18q2 13 2 42q0 36 1 50q0 29 3 41q1 8 1 24q-3 15 -4 17q-2 8 -2 15q0 8 1 10q3 6 3 19q1 9 1 28q0 13 -3 21q0 1 -1.5 8t-2.5 11q0 14 1 20q3 9 1 14q-1 3 -6 5q-3 2 -41 2t-43 -3q-5 -2 -5.5 -3.5t0.5 -8.5q1 -5 1 -23
q0 -3 -0.5 -17.5t-0.5 -22.5t0.5 -23t0.5 -19v-31q-1 -5 -2.5 -15t-1.5 -12q-3 -12 -2 -19q3 -10 6 -16t3 -9t-3 -15q-4 -17 -1 -20q3 -11 4 -40q2 -24 2 -29q0 -8 -4 -15q-4 -12 -4 -14q0 -3 2 -13q3 -11 3 -36q0 -26 -2 -34q-1 -4 -1 -13.5t1 -24.5q2 -35 4 -40
q1 -10 -1 -19q-2 -14 -2 -54q0 -33 -0.5 -39.5t-4.5 -13.5q-5 -10 -5 -18t5 -16q4 -8 4 -18q0 -9 -3 -15q-2 -6 -2 -12q0 -8 5 -21q6 -18 6 -28q1 -12 -3 -15q-7 -4 -22 -6q-13 -3 -32 -3q-16 0 -28 7q-12 6 -14 8t-2 25q-1 13 -1 17q0 8 4 18q4 11 4 21v11q0 19 -4 34
q-3 14 1 23q4 10 4 13t-2 9q-1 2 -3 30q0 22 2 34q0 2 0.5 6t1.5 9.5t1 8.5q0 23 -1 33q-2 22 -3 25q-1 6 2 11q3 4 3 32q0 19 -3 37q-2 10 -5 12q-3 3 -16 3q-12 0 -18 2q-7 2 -20 4q-15 1 -29 9q-15 7 -24 18q-10 10 -11 10t-11 8q-11 11 -18 25q-9 16 -16 25q-7 7 -9 15
q-3 8 -1 14q1 7 -5 18q-7 11 -9 18q-2 6 -2 8t1 7q3 7 3 38q-1 15 -1 21q0 12 3 23t8 24q3 5 6 17q0 7 4 13q5 10 6 14q3 8 7 14q3 6 11 14q10 8 11 8q5 2 9 6q4 2 4 6q0 3 2 7t8 4q6 2 17 11q10 10 24 17q15 7 24 9q10 2 16 6q8 6 13 6q6 2 14 2q7 0 17 4q7 4 26 3
q14 -1 25 -4q7 -4 28 -4q25 0 35 3q14 2 20 5z" />
    <glyph glyph-name="uni00B7" unicode="&#xb7;" horiz-adv-x="328" 
d="M187 342q6 2 14 2q9 0 15 -2t8 -6q3 -5 3 -11q0 -5 -2 -11q-3 -7 0 -24q2 -13 1.5 -16t-4.5 -10q-5 -7 -5.5 -9t1.5 -6q1 -2 4 -15q0 -9 -2 -13q-2 -5 -7 -7q-5 -3 -12 -5t-31 -4q-14 -1 -19 -1q-8 0 -14 2q-6 3 -17 3q-9 0 -13 2q-3 3 -5 13q-2 7 -2 31q2 21 -1 28
q-1 2 -3 23v11q0 7 6 13q5 6 10.5 7t33.5 2q39 2 41 3z" />
    <glyph glyph-name="uni00B8" unicode="&#xb8;" horiz-adv-x="271" 
d="M117 31q9 3 13 3q7 0 12 -5l9 -12q4 -8 3 -13q0 -3 -4 -13q-4 -8 -4 -10q0 -3 4 -5q3 -3 13 -3q9 1 14 -4q9 -6 14 -8q9 -3 16 -9q5 -5 13 -11q5 -3 9 -11q3 -5 1 -15q0 -19 1 -31q1 -13 1 -18t-1 -9q-1 -2 -6 -10q-5 -5 -8 -13q-4 -8 -13 -14q-8 -6 -15 -8q-6 -2 -21 -2
q-15 -1 -22 -6q-6 -4 -18 -3q-9 0 -19 2q-11 0 -12 -1q-2 -1 -25 -3q-11 -1 -15 -1q-7 0 -13 3q-8 4 -13 9q-7 7 -8 9q-2 4 -2 8q0 3 4 17q3 10 6 17q1 1 9 5q6 3 16 3q11 0 22 -4q15 -5 31 -5q17 0 23 3q6 4 11 9q4 4 6 10q1 6 -4 14q-3 8 -6 11l-5 5q-6 3 -13 4
q-9 2 -15 0q-2 -1 -18 -3q-10 -2 -18 1q-3 1 -10 8q-4 6 -4 9t5 15q3 11 10 18q6 6 8 15q4 11 10 14q8 6 10 13l4 10q2 4 4 7q2 2 10 8z" />
    <glyph glyph-name="uni00B9" unicode="&#xb9;" horiz-adv-x="375" 
d="M211 764q8 3 16 3t9 -1q2 0 6 -8q5 -5 5 -11q0 -5 -3 -13q-2 -10 -2 -15q0 -8 3 -14q2 -11 1 -15q0 -2 -1 -9t-1 -12q-2 -14 -4 -23q-1 -8 0 -19q2 -12 2 -47q0 -43 1 -51q0 -19 -1 -27q-3 -10 -3 -27q-1 -8 -1 -29q0 -16 4 -27q1 -7 7 -22q5 -7 5 -14q0 -5 -4 -11
q-5 -7 -5 -11q0 -3 -4 -7q-5 -4 -9 -6q-1 -1 -10 -4h-3q-4 0 -13 4q-5 2 -14 8q-6 3 -10 3q-5 0 -11 2q-1 0 -3.5 1.5t-3.5 2.5q-1 2 -1 19q2 17 4 20t2 15q0 11 4 18q3 7 2 16q0 10 -5 17q-4 8 -4 13q0 8 3 17q2 11 -2 20t-4 18q1 5 1 29q0 4 1 17.5t2 18.5q2 19 1 24
q-1 7 2 19t0 17q-5 5 -7 6q-5 2 -8 0q-6 -3 -10 -8q-7 -5 -12 -7q-7 -4 -17 -12q-11 -11 -19 -15q-6 -3 -13 -3q-5 0 -9 4q-5 5 -7 12q-2 6 -2 10q0 3 1 11q1 13 0 23q-1 7 -1 9q0 3 3 9q4 8 9 10q4 2 13 0q6 -3 13 -3q5 0 14 9q10 10 16 13q2 2 20 17q12 12 19 14q6 2 12 1
q3 -2 12 -2q8 0 14 3z" />
    <glyph glyph-name="uni00BA" unicode="&#xba;" horiz-adv-x="369" 
d="M221 679q-6 2 -14 2t-18 -4q-7 -4 -16 -4q-8 0 -12 -5q-5 -5 -5 -10q-2 -8 -7 -15q-6 -7 -10 -18q-5 -23 -5 -27q-2 -21 -5 -28q-3 -8 -3 -13q0 -2 2 -8q4 -8 5 -13q3 -9 7 -17q5 -7 5 -14q1 -7 6 -10l7 -3q6 -2 10 -3q14 -5 17 -8q6 -5 13 -8q6 -2 19 -2q6 -1 8 -1
q5 0 9 4l8 6q7 5 12 8q15 10 16 15q2 6 10 14t9 16q0 1 2 9t3 13t2.5 13.5t1.5 9.5q0 8 -4 22l-6 18q-3 7 -2 12t-1 14q-2 8 -6 12q-3 4 -11 6q-5 0 -17 6q-14 7 -17 7q-4 1 -13 4zM199 735q5 3 9 3t10 -3q7 -3 18 -1q10 3 22 0q21 -3 22 -3q13 -2 15 -4q5 -2 8 -9
q5 -8 10 -13q7 -5 12 -6q7 -2 10 -5t5 -9q5 -10 8 -14q6 -9 8 -15q1 -2 3.5 -7.5t3.5 -7.5q3 -8 5 -19q3 -15 3 -24q1 -7 1 -12.5t-1 -7.5q-2 -6 -2 -27q0 -22 -4 -37q-3 -9 -9 -22q-4 -7 -13 -18q-7 -9 -15 -12q-7 -3 -18 -14q-9 -11 -16 -13t-18 -11t-24 -10q-19 0 -26 1
l-21 3q-8 2 -23 2q-14 -1 -24 2q-2 0 -9 2.5t-10 3.5q-7 4 -19 6q-8 2 -11 5q-1 1 -6 10q-4 8 -11 12q-9 7 -12 11q-2 2 -10 15q-2 6 -9 16q-5 7 -5 13q0 5 2 11q2 4 -1 13q-1 6 -8 17q-5 10 -5 12t6 22q8 20 9 22q3 6 3 17q0 13 5 20q5 10 5 15q0 8 11 20q3 3 16 17
q3 3 8 3q3 0 7 2q5 4 8 10q2 8 6 10q5 3 11 2q8 -2 14 -2q7 -1 12 3q5 5 10 5q4 0 12 -2q7 -1 12 2z" />
    <glyph glyph-name="uni00BB" unicode="&#xbb;" horiz-adv-x="541" 
d="M270 468q2 1 6 1q6 0 15 -3q13 -4 36 -4t28 -4q5 -3 8 -8q3 -3 5 -14q2 -10 7 -16q7 -9 13 -23q8 -18 11 -24q3 -4 7 -15q5 -10 8 -13q1 -1 4.5 -6t5.5 -7q6 -10 13 -24t13 -24q6 -9 6 -20q-2 -11 -6 -21q-6 -11 -10 -14q-7 -5 -9 -9q-3 -3 -7 -11l-15 -30
q-10 -23 -15 -34l-8 -20l-6 -7q-5 -8 -8 -12q-6 -9 -16 -19q-7 -7 -15 -11q-6 -3 -23 -5q-8 -1 -14.5 -1t-14.5 1q-15 3 -18 7q-6 4 -6 14v4.5v4.5q2 8 8 16q5 5 10 17q4 10 13 19q8 8 10 15q2 6 9 11q9 7 10 10q2 5 -1 13q-2 10 3 16q5 11 6 13q1 1 3.5 6t4.5 7q6 7 6 22
t-7 22q-7 9 -8 13q0 6 -4 14q-2 6 -15 25q-11 16 -11 28q0 13 -3 17q-2 6 -6 12l-8 12q-6 6 -9 13q-4 9 -6 18q-3 15 -3 18q0 7 3 10zM98 466q9 3 13 3q3 0 12 -3q11 -4 19 -2t13 2q6 0 12 -3t14 -16q8 -9 10 -18q2 -6 2 -13t8 -15q7 -7 10 -14q2 -7 7 -12q8 -8 13 -23
q7 -17 9 -23t8 -14q6 -9 7 -15q0 -6 2 -10q0 -3 7 -10q4 -4 8 -12q0 -7 -2 -10q-4 -8 -7 -13q-4 -8 -4 -13t-3 -8q-2 -3 -9 -8q-7 -4 -8 -12t-11 -18q-9 -11 -14 -22q-4 -8 -10 -18l-11 -14q-7 -7 -7 -15q0 -7 -2 -15q-2 -7 -12 -17q-8 -8 -10.5 -9.5t-9.5 -0.5q-11 2 -16 0
q-4 -1 -24 -3q-20 0 -21 1q-1 0 -3 6q-2 4 -2 12q0 7 6 20q5 9 14 31q5 17 11 23t6 10q1 3 3 11q3 9 8 15q6 6 10 16q1 2 3 6.5t2 5.5q0 4 9 15q8 12 8 17q2 5 -3 18q-3 10 -12 23t-9 18q-2 9 -4 11q-2 6 -7 9q-6 4 -6 11q0 9 -6 14q-6 6 -6 9t-2 5q-4 4 -7 12q-6 10 -9 16
q-5 5 -11 19q-5 12 -5 18v5q1 11 4 12q3 3 15 5z" />
    <glyph glyph-name="uni00BC" unicode="&#xbc;" horiz-adv-x="814" 
d="M643 338q-6 4 -9 4q-1 0 -7 -3q-1 -1 -6 -15q-2 -11 -13 -22q-3 -3 -9.5 -10t-8.5 -9q-7 -8 -7 -14q0 -5 -2 -9q-2 -5 -11 -15q-8 -9 -11 -16q0 -4 -3 -10q-2 -4 -11 -11q-14 -11 -16 -14q-7 -9 -7 -12q0 -5 4 -7q5 -3 19 -1q13 2 23 2h10q21 -2 24 -3q3 -2 11 -2t10 1
q6 3 10 7q6 5 8 12q3 10 4 26q1 21 -1 29q-2 10 0 18q2 6 2 28q-1 20 2 27q3 8 2 12zM639 440q11 5 16 5h5q4 -1 17 -1h23q12 1 15 -2q3 -6 3 -11q-3 -12 -4 -14q-3 -5 -3 -17q0 -6 1 -27q1 -37 5 -43q5 -8 5 -11q1 -5 -1 -11q-4 -7 -8 -9q-3 -3 -5 -9q-2 -5 3 -13
q3 -7 2 -23q-1 -11 1 -24q3 -8 0 -21q-2 -16 -3 -19q0 -7 1 -8q3 -3 9 -5q4 -1 26 -1q18 0 22 -2q6 -4 9 -10t5 -21v-9q0 -5 -5 -11q-5 -7 -11 -9q-8 -2 -11 -2q-5 0 -13 2q-8 1 -18 -3q-7 -4 -8.5 -6.5t-2.5 -15.5q-2 -18 -2 -24q0 -2 0.5 -9t0.5 -10q1 -12 -1 -18
q-3 -6 -15 -6q-14 0 -17 -1h-3q-4 0 -10 2q-2 1 -6.5 3t-5.5 2q-2 0 -12 5q-5 3 -8 8q0 9 2 14q3 15 3 24q0 13 -6 24q-7 9 -11 10h-20q-17 -1 -29 2q-14 4 -24 1q-18 -3 -26 -4q-15 0 -23 -4q-7 -3 -13 -3q-4 0 -10 6t-13 6q-6 0 -11 3q-4 4 -4 25t-2 27q-2 8 -2 17
q0 11 7 18t9 7q4 4 8 10q2 2 6 8t6 8q5 7 5 10q0 4 5 9q3 5 6 5t10 7q8 7 11 16q3 7 3 13q0 4 3 6q2 2 14 12q11 7 11 11q0 3 10 13q10 11 15 24q4 11 11 17q2 1 6 4.5t5 5.5t5 6.5t6 5.5q2 2 6 9t4 8q6 11 7 11q2 2 14 7zM165 713q1 0 5.5 0.5t7.5 0.5q7 0 13 -2q4 -1 9 -9
q3 -6 3 -11t-3 -15.5t-3 -23.5q0 -11 2 -17t0 -14q-3 -8 0 -16q0 -1 0.5 -14t0.5 -32.5v-38.5q0 -78 -1 -80q-3 -5 -1 -30q0 -26 3 -40q1 -3 4 -21q0 -9 -3 -15q-4 -8 -4 -16q0 -7 -3 -12q-2 -2 -8 -5q-6 -2 -13 -2q-4 0 -16 3q-9 3 -18 1q-9 -3 -12 -1q-4 2 -4 9q0 15 2 25
q1 10 1 15q0 8 -2 17q-1 15 0 26q3 11 1 22q-1 10 1 18t2 14q0 4 -4 16q-3 10 -2 26q1 8 1 29q0 3 0.5 17.5t0.5 21.5q3 24 6 31q4 8 4 14t-5 11q-6 6 -11 6q-6 0 -18 -7q-14 -9 -18 -17q-5 -10 -9 -11q-4 -2 -22 -2q-17 -1 -22 3q-3 3 -5 15t-2 24q0 14 3 19q1 2 10 11
q6 5 17 9q10 4 17 4t14 7q1 0 20 17q12 10 24 11q14 2 22 5q3 1 8.5 2.5t6.5 1.5zM565 730q12 3 18 3q1 0 17 -4q16 -6 17 -7q4 -4 4 -10q0 -4 -7 -20q-7 -12 -7 -17q0 -4 -8 -12q-11 -13 -12 -16q-2 -4 -10 -18q-6 -11 -9 -12q-4 -4 -7 -12q-3 -10 -9 -14q-5 -5 -6 -13
t-8 -14q-5 -5 -9 -11q-2 -6 -11 -17q-3 -4 -8 -12q-5 -6 -6 -7q-5 -10 -5 -16q0 -5 -2 -13q-1 -3 -10 -14q-5 -4 -11 -13q-3 -6 -3 -11q-2 -8 -12 -28q-15 -28 -23 -39q-3 -5 -7 -10t-6.5 -9t-3.5 -5q-5 -5 -7 -14q-3 -9 -10 -16q-6 -6 -10 -16q-4 -11 -9 -18q-1 -1 -5 -6
t-5 -7q-5 -5 -9 -15q-2 -6 -6 -14q-3 -6 -3 -11q-1 -7 -9 -15q-7 -7 -9 -11q-3 -9 -8 -19q-4 -10 -9 -24q-7 -14 -13 -20q-8 -12 -14 -18q-1 -2 -5 -7.5t-5 -7.5q-3 -3 -8 -15q-3 -10 -11 -19q-8 -8 -12 -16q-6 -12 -8 -18q-5 -11 -7 -20q-2 -10 -7 -13l-7 -11q-4 -6 -5 -7
q-3 -3 -20 -1q-19 0 -26 -4q-7 -3 -12 -3q-1 1 -4 2.5t-5 1.5q-4 4 -4 11q-1 8 4 21q7 19 11 28q5 13 9 19q4 4 8 12q1 2 11 17q10 12 17 16q8 8 9 10t1 12q0 6 5 18q10 16 12 19t6.5 8.5t5.5 6.5q6 7 8 17q1 7 2.5 9.5t7.5 6.5q7 6 10 14q6 12 9 17q8 12 8 19q2 10 5 13
q2 5 6 9q3 1 7 10q6 12 13 19q10 12 13 27q3 13 8 20q5 5 11 15l16 25q5 10 14 25q2 7 10 17q5 5 9 15q4 12 4 16t2 10q2 4 9 11q8 6 13 11q5 4 6 14q1 7 2.5 10t8.5 9q8 8 14 16q3 5 10 15q6 8 6 13t5 13q4 10 7 19q2 10 6 16q2 3 9 13q4 4 12 20q6 11 11 18q3 3 9 15
q6 10 9 13t17 5z" />
    </font>
</defs>
</svg>
